<?xml version="1.0" encoding="UTF-8" standalone="no"?>
<svg
   width="806px"
   height="459px"
   viewBox="0 0 806 459"
   version="1.1"
   id="svg21"
   xmlns:xlink="http://www.w3.org/1999/xlink"
   xmlns="http://www.w3.org/2000/svg"
   xmlns:svg="http://www.w3.org/2000/svg">
  <title
     id="title1">Group 10 Copy</title>
  <defs
     id="defs1">
    <rect
       id="path-1"
       x="0"
       y="0"
       width="186.316832"
       height="194"
       rx="28" />
  </defs>
  <g
     id="Page-2"
     stroke="none"
     stroke-width="1"
     fill="none"
     fill-rule="evenodd">
    <g
       id="Group-10-Copy">
      <g
         id="Group-23-Copy-3"
         transform="translate(278.000000, 84.000000)">
        <rect
           id="Rectangle"
           fill="#8993FE"
           x="0"
           y="0"
           width="194"
           height="202"
           rx="30" />
        <rect
           id="rect1"
           fill="#EFECFF"
           x="3.84158416"
           y="4"
           width="186.316832"
           height="194"
           rx="28" />
        <g
           id="g2"
           transform="translate(3.841584, 4.000000)">
          <mask
             id="mask-2"
             fill="white">
            <use
               xlink:href="#path-1"
               id="use1" />
          </mask>
          <use
             id="Mask"
             fill="#CDC3FF"
             xlink:href="#path-1" />
          <rect
             stroke="#979797"
             fill="#FCFCFF"
             mask="url(#mask-2)"
             x="-40.1690302"
             y="-26.5"
             width="280"
             height="123"
             id="rect2" />
        </g>
      </g>
      <g
         id="Group-36"
         transform="translate(278.000000, 336.000000)">
        <rect
           id="Rectangle-Copy-9"
           fill="#E1E4FF"
           x="0"
           y="0"
           width="194"
           height="123"
           rx="30" />
        <g
           id="Guardrailing-Rules"
           style="font-size:28.4051px;font-family:NeueMontreal-Regular, 'Neue Montreal';fill:#8993fe"
           aria-label="GuardrailingRules">
          <path
             d="m 39.837721,39.825873 h 2.556456 c -0.710127,-3.863088 -3.408608,-6.533164 -8.549925,-6.533164 -5.624202,0 -9.430481,4.43119 -9.430481,10.538278 0,6.135494 3.238178,10.566684 9.146431,10.566684 3.124557,0 5.027696,-1.136203 6.56157,-3.266582 h 0.05681 L 41.030734,54 h 1.704303 V 43.433316 h -9.174835 v 2.272405 h 6.61838 c 0,3.806279 -2.982532,6.419545 -6.61838,6.419545 -5.112912,0 -6.589975,-4.459595 -6.589975,-8.294279 0,-3.806278 2.045165,-8.265873 6.874025,-8.265873 3.067747,0 5.396963,1.363443 5.993469,4.260759 z m 15.679612,-0.312455 v 9.03281 c 0,2.244 -1.704304,3.863088 -4.260759,3.863088 -2.272405,0 -3.152962,-1.477063 -3.152962,-3.351797 V 39.513418 H 45.831206 V 49.62562 c 0,3.323393 2.215595,4.772051 4.857266,4.772051 2.471241,0 4.005114,-1.107798 4.772051,-2.13038 h 0.05681 V 54 h 2.272405 V 39.513418 Z m 14.259338,3.692658 c 0,1.448658 -1.107797,1.761114 -3.550633,2.215595 -3.749468,0.710126 -6.192304,1.562278 -6.192304,4.857266 0,2.442835 1.846329,4.118734 4.772051,4.118734 2.386025,0 4.005114,-0.852152 4.914076,-2.215595 h 0.05681 c 0.397671,1.590683 1.221418,1.959949 2.584861,1.959949 0.426076,0 0.738531,-0.0284 1.335038,-0.22724 v -1.590684 c -1.448658,0.170431 -1.647494,-0.454481 -1.647494,-1.590683 v -7.044456 c 0,-3.493823 -2.47124,-4.573215 -5.226532,-4.573215 -4.203949,0 -5.936658,2.101974 -6.078683,4.885671 h 2.272405 c 0.142025,-2.101975 1.050987,-2.897317 3.806278,-2.897317 2.329216,0 2.954127,0.965772 2.954127,2.101975 z m -4.743646,9.20324 c -1.874734,0 -2.726886,-0.823746 -2.726886,-2.244 0,-1.732708 1.306633,-2.442835 4.118734,-3.039341 1.533874,-0.312456 2.925722,-0.710127 3.351798,-1.136203 v 2.41443 c 0,2.783697 -2.045165,4.005114 -4.743646,4.005114 z M 81.735212,39.115747 c -2.07357,0 -3.238178,1.363443 -4.005114,3.266582 h -0.05681 V 39.513418 H 75.400882 V 54 h 2.272406 v -7.726177 c 0,-3.096152 2.187189,-5.311747 5.340152,-4.800456 h 0.05681 v -2.272405 c -0.397671,-0.05681 -0.795342,-0.08521 -1.335038,-0.08521 z m 13.15154,-5.425367 v 7.697772 h -0.05681 c -0.852152,-1.249823 -2.215595,-2.272405 -4.54481,-2.272405 -3.635848,0 -6.533165,2.868911 -6.533165,7.640962 0,4.77205 2.897317,7.640962 6.533165,7.640962 2.329215,0 3.692658,-1.079393 4.54481,-2.18719 h 0.05681 V 54 h 2.272405 V 33.69038 Z m -4.37438,18.718936 c -2.982532,0 -4.488,-2.812101 -4.488,-5.652607 0,-2.840507 1.505468,-5.652608 4.488,-5.652608 2.698481,0 4.37438,2.244 4.37438,5.652608 0,3.408607 -1.675899,5.652607 -4.37438,5.652607 z M 106.61803,39.115747 c -2.07357,0 -3.23818,1.363443 -4.00511,3.266582 h -0.0568 V 39.513418 H 100.2837 V 54 h 2.27241 v -7.726177 c 0,-3.096152 2.18719,-5.311747 5.34015,-4.800456 h 0.0568 v -2.272405 c -0.39767,-0.05681 -0.79534,-0.08521 -1.33504,-0.08521 z m 11.70289,4.090329 c 0,1.448658 -1.1078,1.761114 -3.55064,2.215595 -3.74946,0.710126 -6.1923,1.562278 -6.1923,4.857266 0,2.442835 1.84633,4.118734 4.77205,4.118734 2.38603,0 4.00512,-0.852152 4.91408,-2.215595 h 0.0568 c 0.39767,1.590683 1.22142,1.959949 2.58486,1.959949 0.42607,0 0.73853,-0.0284 1.33504,-0.22724 v -1.590684 c -1.44866,0.170431 -1.6475,-0.454481 -1.6475,-1.590683 v -7.044456 c 0,-3.493823 -2.47124,-4.573215 -5.22653,-4.573215 -4.20395,0 -5.93666,2.101974 -6.07868,4.885671 h 2.2724 c 0.14203,-2.101975 1.05099,-2.897317 3.80628,-2.897317 2.32922,0 2.95413,0.965772 2.95413,2.101975 z m -4.74365,9.20324 c -1.87473,0 -2.72688,-0.823746 -2.72688,-2.244 0,-1.732708 1.30663,-2.442835 4.11873,-3.039341 1.53387,-0.312456 2.92572,-0.710127 3.3518,-1.136203 v 2.41443 c 0,2.783697 -2.04517,4.005114 -4.74365,4.005114 z m 11.78811,-15.708 c 0.65331,0 1.42025,-0.482886 1.42025,-1.363443 0,-0.880557 -0.76694,-1.363443 -1.42025,-1.363443 -0.62491,0 -1.42025,0.482886 -1.42025,1.363443 0,0.880557 0.79534,1.363443 1.42025,1.363443 z m -1.1362,2.812102 V 54 h 2.2724 V 39.513418 Z m 5.48214,-5.823038 V 54 h 2.2724 V 33.69038 Z m 6.61835,3.010936 c 0.65331,0 1.42025,-0.482886 1.42025,-1.363443 0,-0.880557 -0.76694,-1.363443 -1.42025,-1.363443 -0.62492,0 -1.42026,0.482886 -1.42026,1.363443 0,0.880557 0.79534,1.363443 1.42026,1.363443 z m -1.13621,2.812102 V 54 h 2.27241 V 39.513418 Z m 12.78226,-0.397671 c -2.47124,0 -4.00511,1.107797 -4.77205,2.130379 h -0.0568 v -1.732708 h -2.27241 V 54 h 2.27241 v -9.03281 c 0,-2.244 1.7043,-3.863089 4.26076,-3.863089 2.2724,0 3.15296,1.477063 3.15296,3.351798 V 54 h 2.27241 V 43.887797 c 0,-3.323392 -2.2156,-4.77205 -4.85727,-4.77205 z m 18.20764,0.397671 v 1.789519 h -0.0568 c -0.85216,-1.107798 -2.2156,-2.18719 -4.60162,-2.18719 -3.57904,0 -6.47636,2.30081 -6.47636,7.072861 0,4.77205 2.89732,7.07286 6.47636,7.07286 2.38602,0 3.74946,-1.022582 4.60162,-2.272405 h 0.0568 v 2.18719 c 0,2.698481 -1.56228,3.863089 -4.26076,3.863089 -2.69848,0 -3.8915,-1.107798 -4.17555,-2.584861 h -2.2724 c 0.22724,2.471241 2.58486,4.573215 6.56157,4.573215 3.97671,0 6.41954,-1.959949 6.41954,-5.823038 v -13.69124 z m -4.37438,11.759696 c -2.98254,0 -4.488,-2.244 -4.488,-5.084506 0,-2.840507 1.50546,-5.084507 4.488,-5.084507 2.69848,0 4.37438,1.675899 4.37438,5.084507 0,3.408607 -1.6759,5.084506 -4.37438,5.084506 z"
             id="path21" />
          <path
             d="m 65.757342,88.964867 h 2.556455 v -8.209064 h 5.823038 c 5.141317,0 3.209772,7.356912 4.090329,8.209064 h 2.755292 v -0.170431 c -1.050988,-0.340861 0.596506,-8.322683 -3.919899,-9.20324 v -0.05681 c 2.244,-0.568102 3.635848,-2.18719 3.635848,-5.112912 0,-3.607443 -2.698481,-5.766228 -6.703595,-5.766228 h -8.237468 z m 2.556455,-18.037216 h 5.084507 c 2.101974,0 4.743645,0.255646 4.743645,3.777874 0,3.522228 -2.641671,3.777873 -4.743645,3.777873 h -5.084507 z m 24.683984,3.550633 v 9.03281 c 0,2.244 -1.704304,3.863089 -4.26076,3.863089 -2.272405,0 -3.152962,-1.477063 -3.152962,-3.351797 v -9.544102 h -2.272405 v 10.112203 c 0,3.323392 2.215595,4.772051 4.857266,4.772051 2.471241,0 4.005114,-1.107798 4.772051,-2.13038 h 0.05681 v 1.732709 h 2.272405 V 74.478284 Z m 5.482175,-5.823038 v 20.309621 h 2.272404 V 68.655246 Z m 11.646054,18.718937 c -3.15296,0 -4.71524,-2.442835 -4.71524,-5.056101 h 11.44724 c 0,-5.141317 -2.2156,-8.237469 -6.76041,-8.237469 -4.23235,0 -6.95924,2.812102 -6.95924,7.640962 0,4.544811 2.67008,7.640963 7.07286,7.640963 3.60745,0 5.68102,-2.158785 6.41955,-4.857266 h -2.27241 c -0.25564,0.994177 -1.33504,2.868911 -4.23235,2.868911 z m -0.0284,-11.305215 c 2.72689,0 4.488,1.931544 4.488,4.260759 h -9.17483 c 0,-2.329215 1.95995,-4.260759 4.68683,-4.260759 z m 14.88428,4.289164 c -2.01676,-0.482886 -3.97671,-0.624911 -3.97671,-2.329215 0,-1.136202 1.1078,-1.959949 3.15297,-1.959949 2.72688,0 3.26658,1.448658 3.49382,2.556455 h 2.2724 c -0.22724,-2.499645 -2.15878,-4.54481 -5.76622,-4.54481 -3.40861,0 -5.42537,1.846329 -5.42537,4.118735 0,3.408607 3.29499,3.664253 5.51058,4.203949 2.07357,0.511291 3.97671,0.624911 3.97671,2.726886 0,0.965772 -0.96577,2.244 -3.43701,2.244 -3.63585,0 -4.20395,-1.619089 -4.34598,-3.238177 h -2.2724 c 0.14202,3.124557 2.18719,5.226532 6.61838,5.226532 3.29499,0 5.70942,-1.732709 5.70942,-4.37438 0,-3.579038 -2.92573,-4.005114 -5.51059,-4.630026 z"
             id="path22" />
        </g>
      </g>
      <path
         d="m 293.84674,13.115747 c -2.18719,0 -3.69266,1.136202 -4.68684,2.499645 h -0.0568 c -0.5965,-1.619088 -1.78952,-2.499645 -3.86309,-2.499645 -2.18718,0 -3.43701,1.107797 -4.20394,2.130379 h -0.0568 v -1.732708 h -2.27241 V 28 h 2.27241 v -9.03281 c 0,-2.244 1.42025,-3.863089 3.69265,-3.863089 2.27241,0 2.64167,1.477063 2.64167,3.351798 V 28 h 2.27241 v -9.03281 c 0,-2.244 1.42025,-3.863089 3.69266,-3.863089 2.2724,0 2.64167,1.477063 2.64167,3.351798 V 28 h 2.2724 V 17.887797 c 0,-3.039341 -1.42025,-4.77205 -4.34597,-4.77205 z m 17.66793,5.624202 h 2.2724 c -0.34086,-3.238177 -2.78369,-5.624202 -6.36273,-5.624202 -4.23236,0 -7.01605,3.096152 -7.01605,7.640962 0,4.54481 2.78369,7.640962 7.01605,7.640962 3.57904,0 6.1639,-2.442836 6.36273,-5.737823 h -2.2724 c -0.11362,1.732709 -1.16461,3.749468 -4.09033,3.749468 -3.43701,0 -4.74365,-2.925721 -4.74365,-5.652607 0,-2.726886 1.30664,-5.652608 4.74365,-5.652608 2.89731,0 3.97671,2.045165 4.09033,3.635848 z m 11.3904,-5.624202 c -2.38602,0 -3.74947,1.079392 -4.60162,2.18719 h -0.0568 v -1.789519 h -2.2724 v 19.372253 h 2.2724 v -6.760405 h 0.0568 c 0.85215,1.249823 2.2156,2.272405 4.60162,2.272405 3.57904,0 6.47636,-2.868912 6.47636,-7.640962 0,-4.772051 -2.89732,-7.640962 -6.47636,-7.640962 z m -0.28405,13.293569 c -2.69848,0 -4.37438,-2.244 -4.37438,-5.652607 0,-3.408608 1.6759,-5.652608 4.37438,-5.652608 2.98253,0 4.488,2.812101 4.488,5.652608 0,2.840506 -1.50547,5.652607 -4.488,5.652607 z m 8.66354,-6.78881 v 2.272405 h 7.61256 v -2.272405 z m 16.13407,-0.22724 c -2.01676,-0.482886 -3.97671,-0.624912 -3.97671,-2.329215 0,-1.136203 1.1078,-1.95995 3.15297,-1.95995 2.72688,0 3.26658,1.448658 3.49382,2.556456 h 2.2724 c -0.22724,-2.499646 -2.15878,-4.54481 -5.76622,-4.54481 -3.40861,0 -5.42537,1.846329 -5.42537,4.118734 0,3.408608 3.29499,3.664253 5.51058,4.203949 2.07357,0.511291 3.97671,0.624912 3.97671,2.726886 0,0.965773 -0.96577,2.244 -3.43701,2.244 -3.63585,0 -4.20395,-1.619088 -4.34598,-3.238177 h -2.2724 c 0.14202,3.124557 2.18719,5.226532 6.61838,5.226532 3.29498,0 5.70941,-1.732709 5.70941,-4.37438 0,-3.579038 -2.92572,-4.005114 -5.51058,-4.630025 z m 18.29287,-0.653317 h 2.27241 c -0.34086,-3.238177 -2.7837,-5.624202 -6.36274,-5.624202 -4.23235,0 -7.01605,3.096152 -7.01605,7.640962 0,4.54481 2.7837,7.640962 7.01605,7.640962 3.57904,0 6.1639,-2.442836 6.36274,-5.737823 h -2.27241 c -0.11362,1.732709 -1.1646,3.749468 -4.09033,3.749468 -3.43701,0 -4.74364,-2.925721 -4.74364,-5.652607 0,-2.726886 1.30663,-5.652608 4.74364,-5.652608 2.89732,0 3.97671,2.045165 4.09033,3.635848 z m 13.60601,-1.533873 c 0,1.448658 -1.1078,1.761114 -3.55063,2.215595 -3.74947,0.710126 -6.19231,1.562278 -6.19231,4.857266 0,2.442835 1.84633,4.118734 4.77206,4.118734 2.38602,0 4.00511,-0.852152 4.91407,-2.215595 h 0.0568 c 0.39767,1.590683 1.22142,1.959949 2.58486,1.959949 0.42608,0 0.73853,-0.0284 1.33504,-0.22724 v -1.590684 c -1.44866,0.170431 -1.64749,-0.454481 -1.64749,-1.590683 v -7.044456 c 0,-3.493823 -2.47124,-4.573215 -5.22654,-4.573215 -4.20394,0 -5.93665,2.101974 -6.07868,4.885671 h 2.27241 c 0.14202,-2.101975 1.05098,-2.897317 3.80627,-2.897317 2.32922,0 2.95413,0.965772 2.95413,2.101975 z m -4.74364,9.20324 c -1.87474,0 -2.72689,-0.823746 -2.72689,-2.244 0,-1.732708 1.30663,-2.442835 4.11873,-3.039341 1.53388,-0.312456 2.92573,-0.710127 3.3518,-1.136203 v 2.41443 c 0,2.783697 -2.04516,4.005114 -4.74364,4.005114 z m 17.46911,-13.293569 c -2.47124,0 -4.00511,1.107797 -4.77205,2.130379 h -0.0568 v -1.732708 h -2.2724 V 28 h 2.2724 v -9.03281 c 0,-2.244 1.70431,-3.863089 4.26076,-3.863089 2.27241,0 3.15297,1.477063 3.15297,3.351798 V 28 h 2.2724 V 17.887797 c 0,-3.323392 -2.21559,-4.77205 -4.85727,-4.77205 z m 20.50848,0 c -2.38603,0 -3.74947,1.079392 -4.60162,2.18719 h -0.0568 v -1.789519 h -2.27241 v 19.372253 h 2.27241 v -6.760405 h 0.0568 c 0.85215,1.249823 2.21559,2.272405 4.60162,2.272405 3.57903,0 6.47635,-2.868912 6.47635,-7.640962 0,-4.772051 -2.89732,-7.640962 -6.47635,-7.640962 z m -0.28405,13.293569 c -2.69849,0 -4.37438,-2.244 -4.37438,-5.652607 0,-3.408608 1.67589,-5.652608 4.37438,-5.652608 2.98253,0 4.488,2.812101 4.488,5.652608 0,2.840506 -1.50547,5.652607 -4.488,5.652607 z m 15.48074,-13.293569 c -2.07356,0 -3.23817,1.363443 -4.00511,3.266582 h -0.0568 v -2.868911 h -2.2724 V 28 h 2.2724 v -7.726177 c 0,-3.096152 2.18719,-5.311747 5.34015,-4.800456 h 0.0568 v -2.272405 c -0.39767,-0.05681 -0.79534,-0.08521 -1.33504,-0.08521 z m 9.11803,15.281924 c -4.43119,0 -7.10127,-3.124557 -7.10127,-7.640962 0,-4.516405 2.67008,-7.640962 7.10127,-7.640962 4.40278,0 7.07286,3.124557 7.07286,7.640962 0,4.516405 -2.67008,7.640962 -7.07286,7.640962 z m 0,-1.988355 c 3.23818,0 4.80046,-2.556455 4.80046,-5.652607 0,-3.096152 -1.56228,-5.652608 -4.80046,-5.652608 -3.26658,0 -4.82886,2.556456 -4.82886,5.652608 0,3.096152 1.56228,5.652607 4.82886,5.652607 z m 7.47056,-12.895898 5.11291,7.07286 L 443.85386,28 h 2.69848 l 4.23235,-5.908253 h 0.0568 L 455.10226,28 h 2.69848 l -5.6242,-7.413722 5.11291,-7.07286 h -2.69848 l -3.74947,5.538987 h -0.0568 l -3.74947,-5.538987 z m 27.4677,0 h -2.55645 l -4.17555,11.816506 h -0.0568 l -4.43119,-11.816506 h -2.55645 l 5.48217,13.293569 c 0.5681,1.420254 -0.0284,2.641671 -0.62491,3.294988 -0.76693,0.823747 -1.64749,0.908962 -2.89731,0.795341 h -0.34087 v 1.704304 c 0.36927,0.113621 1.02259,0.284051 1.93155,0.284051 2.67008,0 3.40861,-2.13038 4.03352,-3.692658 z"
         id="mcp-scan-proxy"
         style="font-size:28.4051px;font-family:NeueMontreal-Regular, 'Neue Montreal';fill:#8993fe"
         aria-label="mcp-scan proxy" />
      <path
         d="M 268.33898,45.69038 V 66 h 2.55645 V 45.69038 Z m 13.17997,5.425367 c -2.47125,0 -4.00512,1.107797 -4.77206,2.130379 h -0.0568 v -1.732708 h -2.2724 V 66 h 2.2724 v -9.03281 c 0,-2.244 1.70431,-3.863089 4.26076,-3.863089 2.27241,0 3.15297,1.477063 3.15297,3.351798 V 66 h 2.2724 V 55.887797 c 0,-3.323392 -2.21559,-4.77205 -4.85726,-4.77205 z m 6.10707,0.397671 L 292.82415,66 h 2.58486 l 5.19813,-14.486582 h -2.47124 l -4.00512,12.214177 h -0.0284 l -4.00512,-12.214177 z m 23.03654,3.692658 c 0,1.448658 -1.1078,1.761114 -3.55063,2.215595 -3.74947,0.710126 -6.19231,1.562278 -6.19231,4.857266 0,2.442835 1.84633,4.118734 4.77205,4.118734 2.38603,0 4.00512,-0.852152 4.91408,-2.215595 h 0.0568 c 0.39767,1.590683 1.22142,1.959949 2.58486,1.959949 0.42607,0 0.73853,-0.02841 1.33504,-0.22724 v -1.590684 c -1.44866,0.170431 -1.6475,-0.454481 -1.6475,-1.590683 v -7.044456 c 0,-3.493823 -2.47124,-4.573215 -5.22653,-4.573215 -4.20395,0 -5.93666,2.101974 -6.07868,4.885671 h 2.2724 c 0.14203,-2.101975 1.05099,-2.897317 3.80628,-2.897317 2.32922,0 2.95413,0.965772 2.95413,2.101975 z m -4.74365,9.20324 c -1.87473,0 -2.72688,-0.823746 -2.72688,-2.244 0,-1.732708 1.30663,-2.442835 4.11873,-3.039341 1.53387,-0.312456 2.92572,-0.710127 3.3518,-1.136203 v 2.41443 c 0,2.783697 -2.04517,4.005114 -4.74365,4.005114 z M 322.6211,51.115747 c -2.07357,0 -3.23818,1.363443 -4.00512,3.266582 h -0.0568 v -2.868911 h -2.2724 V 66 h 2.2724 v -7.726177 c 0,-3.096152 2.18719,-5.311747 5.34016,-4.800456 h 0.0568 v -2.272405 c -0.39767,-0.05681 -0.79534,-0.08521 -1.33504,-0.08521 z m 4.82887,-2.414431 c 0.65332,0 1.42025,-0.482886 1.42025,-1.363443 0,-0.880557 -0.76693,-1.363443 -1.42025,-1.363443 -0.62491,0 -1.42025,0.482886 -1.42025,1.363443 0,0.880557 0.79534,1.363443 1.42025,1.363443 z m -1.1362,2.812102 V 66 h 2.2724 V 51.513418 Z m 14.54337,3.692658 c 0,1.448658 -1.1078,1.761114 -3.55063,2.215595 -3.74947,0.710126 -6.19231,1.562278 -6.19231,4.857266 0,2.442835 1.84633,4.118734 4.77205,4.118734 2.38603,0 4.00512,-0.852152 4.91408,-2.215595 h 0.0568 c 0.39767,1.590683 1.22142,1.959949 2.58486,1.959949 0.42607,0 0.73853,-0.02841 1.33504,-0.22724 v -1.590684 c -1.44866,0.170431 -1.6475,-0.454481 -1.6475,-1.590683 v -7.044456 c 0,-3.493823 -2.47124,-4.573215 -5.22653,-4.573215 -4.20395,0 -5.93666,2.101974 -6.07868,4.885671 h 2.2724 c 0.14203,-2.101975 1.05099,-2.897317 3.80628,-2.897317 2.32922,0 2.95413,0.965772 2.95413,2.101975 z m -4.74365,9.20324 c -1.87473,0 -2.72688,-0.823746 -2.72688,-2.244 0,-1.732708 1.30663,-2.442835 4.11873,-3.039341 1.53387,-0.312456 2.92572,-0.710127 3.3518,-1.136203 v 2.41443 c 0,2.783697 -2.04517,4.005114 -4.74365,4.005114 z m 17.46912,-13.293569 c -2.47124,0 -4.00511,1.107797 -4.77205,2.130379 h -0.0568 v -1.732708 h -2.2724 V 66 h 2.2724 v -9.03281 c 0,-2.244 1.7043,-3.863089 4.26076,-3.863089 2.27241,0 3.15296,1.477063 3.15296,3.351798 V 66 h 2.27241 V 55.887797 c 0,-3.323392 -2.2156,-4.77205 -4.85727,-4.77205 z m 13.91847,2.386025 v -1.988354 h -2.84051 v -4.828861 h -2.27241 v 4.828861 h -2.13038 v 1.988354 h 2.13038 v 8.947595 c 0,2.954127 1.47707,3.721063 3.40861,3.721063 0.59651,0 1.19302,-0.05681 1.70431,-0.17043 v -1.988354 c -1.93155,0.142025 -2.84051,-0.142026 -2.84051,-1.789519 V 53.501772 Z M 390.566,51.825873 h 2.55646 c -0.71013,-3.863088 -3.40861,-6.533164 -8.54992,-6.533164 -5.62421,0 -9.43049,4.43119 -9.43049,10.538278 0,6.135494 3.23818,10.566684 9.14643,10.566684 3.12456,0 5.0277,-1.136203 6.56157,-3.266582 h 0.0568 L 391.75902,66 h 1.7043 V 55.433316 h -9.17484 v 2.272405 h 6.61838 c 0,3.806279 -2.98253,6.419545 -6.61838,6.419545 -5.11291,0 -6.58997,-4.459595 -6.58997,-8.294279 0,-3.806278 2.04516,-8.265873 6.87403,-8.265873 3.06774,0 5.39696,1.363443 5.99346,4.260759 z m 14.94109,3.380203 c 0,1.448658 -1.1078,1.761114 -3.55064,2.215595 -3.74947,0.710126 -6.1923,1.562278 -6.1923,4.857266 0,2.442835 1.84633,4.118734 4.77205,4.118734 2.38603,0 4.00511,-0.852152 4.91408,-2.215595 h 0.0568 c 0.39767,1.590683 1.22141,1.959949 2.58486,1.959949 0.42607,0 0.73853,-0.02841 1.33504,-0.22724 v -1.590684 c -1.44866,0.170431 -1.6475,-0.454481 -1.6475,-1.590683 v -7.044456 c 0,-3.493823 -2.47124,-4.573215 -5.22653,-4.573215 -4.20395,0 -5.93666,2.101974 -6.07868,4.885671 h 2.2724 c 0.14203,-2.101975 1.05099,-2.897317 3.80628,-2.897317 2.32921,0 2.95413,0.965772 2.95413,2.101975 z m -4.74365,9.20324 c -1.87473,0 -2.72689,-0.823746 -2.72689,-2.244 0,-1.732708 1.30664,-2.442835 4.11874,-3.039341 1.53387,-0.312456 2.92572,-0.710127 3.3518,-1.136203 v 2.41443 c 0,2.783697 -2.04517,4.005114 -4.74365,4.005114 z m 16.38972,-10.907544 v -1.988354 h -2.84051 v -4.828861 h -2.2724 v 4.828861 h -2.13038 v 1.988354 h 2.13038 v 8.947595 c 0,2.954127 1.47706,3.721063 3.40861,3.721063 0.5965,0 1.19301,-0.05681 1.7043,-0.17043 v -1.988354 c -1.93154,0.142025 -2.84051,-0.142026 -2.84051,-1.789519 v -8.720355 z m 8.40792,10.907544 c -3.15296,0 -4.71524,-2.442835 -4.71524,-5.056101 h 11.44724 c 0,-5.141316 -2.2156,-8.237468 -6.76041,-8.237468 -4.23235,0 -6.95924,2.812101 -6.95924,7.640962 0,4.54481 2.67008,7.640962 7.07286,7.640962 3.60745,0 5.68102,-2.158785 6.41955,-4.857266 h -2.27241 c -0.25564,0.994177 -1.33504,2.868911 -4.23235,2.868911 z m -0.0284,-11.305215 c 2.72689,0 4.488,1.931544 4.488,4.26076 h -9.17483 c 0,-2.329216 1.95995,-4.26076 4.68683,-4.26076 z M 432.80439,51.513418 437.43441,66 h 2.41443 l 3.20977,-11.958532 h 0.0568 L 446.38201,66 h 2.41443 l 4.63002,-14.486582 h -2.49964 l -3.29499,12.015341 h -0.0568 l -3.26658,-12.015341 h -2.41443 l -3.23818,12.015341 h -0.0568 l -3.29499,-12.015341 z m 30.73428,3.692658 c 0,1.448658 -1.1078,1.761114 -3.55063,2.215595 -3.74947,0.710126 -6.1923,1.562278 -6.1923,4.857266 0,2.442835 1.84632,4.118734 4.77205,4.118734 2.38602,0 4.00511,-0.852152 4.91407,-2.215595 h 0.0568 c 0.39767,1.590683 1.22142,1.959949 2.58486,1.959949 0.42608,0 0.73853,-0.02841 1.33504,-0.22724 v -1.590684 c -1.44866,0.170431 -1.64749,-0.454481 -1.64749,-1.590683 v -7.044456 c 0,-3.493823 -2.47124,-4.573215 -5.22653,-4.573215 -4.20395,0 -5.93666,2.101974 -6.07869,4.885671 h 2.27241 c 0.14202,-2.101975 1.05098,-2.897317 3.80628,-2.897317 2.32921,0 2.95412,0.965772 2.95412,2.101975 z m -4.74364,9.20324 c -1.87474,0 -2.72689,-0.823746 -2.72689,-2.244 0,-1.732708 1.30663,-2.442835 4.11873,-3.039341 1.53388,-0.312456 2.92573,-0.710127 3.3518,-1.136203 v 2.41443 c 0,2.783697 -2.04516,4.005114 -4.74364,4.005114 z m 22.35478,-12.895898 h -2.55646 l -4.17554,11.816506 h -0.0568 l -4.43119,-11.816506 h -2.55646 l 5.48218,13.293569 c 0.5681,1.420254 -0.0284,2.641671 -0.62491,3.294988 -0.76694,0.823747 -1.64749,0.908962 -2.89732,0.795341 h -0.34086 v 1.704304 c 0.36927,0.113621 1.02258,0.284051 1.93155,0.284051 2.67007,0 3.4086,-2.13038 4.03352,-3.692658 z"
         id="Invariant-Gateway"
         style="font-size:28.4051px;font-family:NeueMontreal-Regular, 'Neue Montreal';opacity:0.497884;fill:#8993fe"
         aria-label="Invariant Gateway" />
      <line
         x1="375"
         y1="286"
         x2="375"
         y2="336"
         id="Path-4"
         stroke="#8993FE"
         stroke-width="7" />
      <g
         id="Group-4"
         transform="translate(237.000000, 184.500000) rotate(-90.000000) translate(-237.000000, -184.500000) translate(177.000000, 154.000000)">
        <g
           id="Group"
           transform="translate(89.500000, 30.500000) rotate(90.000000) translate(-89.500000, -30.500000) translate(59.000000, -0.000000)">
          <circle
             id="Oval"
             fill="#BDB8FF"
             cx="30.5"
             cy="30.5"
             r="30.5" />
          <g
             id="arrow-right-2"
             transform="translate(15.000000, 19.000000)"
             fill="#2F2E6B"
             fill-rule="nonzero">
            <g
               id="arrow-right">
              <path
                 d="M19.9921381,0.460513832 C20.5468652,-0.102336407 21.4175337,-0.149240594 22.0249178,0.319801272 L22.1836051,0.460513832 L27.8382594,6.19797133 C30.6244988,9.02490043 30.7173735,13.5468947 28.1169058,16.501991 L27.8382842,16.8019674 L22.1836085,22.5394827 C21.5784535,23.153503 20.5973003,23.1535062 19.9921415,22.5394897 C19.4374126,21.9766412 19.3911826,21.0932233 19.8534534,20.4769436 L19.9921346,20.3159322 L25.6436974,14.5815844 C27.2436392,12.9489406 27.3163638,10.3670434 25.8645817,8.65936117 L25.6468138,8.4215505 L19.9921381,2.68407131 C19.3869812,2.07005287 19.3869812,1.07453228 19.9921381,0.460513832 Z"
                 id="Path" />
              <path
                 d="M21.1052908,9.92365857 C21.9611119,9.92365857 22.654892,10.6275979 22.654892,11.4959511 C22.654892,12.2975079 22.0637421,12.9589725 21.2996695,13.0559933 L21.1052908,13.0682437 L1.54960118,13.0682437 C0.693780081,13.0682437 0,12.3643043 0,11.4959511 C0,10.6943943 0.591149892,10.0329298 1.3552225,9.93590896 L1.54960118,9.92365857 L21.1052908,9.92365857 Z"
                 id="path5" />
            </g>
          </g>
        </g>
        <g
           id="Group-Copy-5"
           transform="translate(30.500000, 30.500000) rotate(-90.000000) translate(-30.500000, -30.500000) translate(0.000000, -0.000000)">
          <circle
             id="circle5"
             fill="#BDB8FF"
             cx="30.5"
             cy="30.5"
             r="30.5" />
          <g
             id="g8"
             transform="translate(15.000000, 19.000000)"
             fill="#2F2E6B"
             fill-rule="nonzero">
            <g
               id="g7">
              <path
                 d="M19.9921381,0.460513832 C20.5468652,-0.102336407 21.4175337,-0.149240594 22.0249178,0.319801272 L22.1836051,0.460513832 L27.8382594,6.19797133 C30.6244988,9.02490043 30.7173735,13.5468947 28.1169058,16.501991 L27.8382842,16.8019674 L22.1836085,22.5394827 C21.5784535,23.153503 20.5973003,23.1535062 19.9921415,22.5394897 C19.4374126,21.9766412 19.3911826,21.0932233 19.8534534,20.4769436 L19.9921346,20.3159322 L25.6436974,14.5815844 C27.2436392,12.9489406 27.3163638,10.3670434 25.8645817,8.65936117 L25.6468138,8.4215505 L19.9921381,2.68407131 C19.3869812,2.07005287 19.3869812,1.07453228 19.9921381,0.460513832 Z"
                 id="path6" />
              <path
                 d="M21.1052908,9.92365857 C21.9611119,9.92365857 22.654892,10.6275979 22.654892,11.4959511 C22.654892,12.2975079 22.0637421,12.9589725 21.2996695,13.0559933 L21.1052908,13.0682437 L1.54960118,13.0682437 C0.693780081,13.0682437 0,12.3643043 0,11.4959511 C0,10.6943943 0.591149892,10.0329298 1.3552225,9.93590896 L1.54960118,9.92365857 L21.1052908,9.92365857 Z"
                 id="path7" />
            </g>
          </g>
        </g>
      </g>
      <g
         id="Group-39"
         transform="translate(0.000000, 125.000000)">
        <g
           id="Group-23"
           fill="#E1E1E1">
          <rect
             id="rect8"
             x="0"
             y="0"
             width="194"
             height="120"
             rx="30" />
        </g>
        <g
           id="Agent-System"
           style="font-size:28.4051px;font-family:NeueMontreal-Regular, 'Neue Montreal';fill:#303030"
           aria-label="AgentSystem">
          <path
             d="M 74.704938,48.915494 76.494457,54 h 2.641671 L 71.665597,33.69038 H 68.82509 L 61.326153,54 h 2.641671 l 1.789519,-5.084506 z M 66.609495,46.643089 70.216938,36.048 h 0.05681 l 3.607444,10.595089 z m 24.257924,-7.129671 v 1.789519 h -0.05681 c -0.852152,-1.107798 -2.215595,-2.18719 -4.60162,-2.18719 -3.579038,0 -6.476355,2.30081 -6.476355,7.072861 0,4.77205 2.897317,7.07286 6.476355,7.07286 2.386025,0 3.749468,-1.022582 4.60162,-2.272405 h 0.05681 v 2.18719 c 0,2.698481 -1.562278,3.863089 -4.260759,3.863089 -2.698482,0 -3.891494,-1.107798 -4.175545,-2.584861 H 80.15871 c 0.227241,2.471241 2.584861,4.573215 6.56157,4.573215 3.976709,0 6.419544,-1.959949 6.419544,-5.823038 v -13.69124 z m -4.37438,11.759696 c -2.982531,0 -4.488,-2.244 -4.488,-5.084506 0,-2.840507 1.505469,-5.084507 4.488,-5.084507 2.698481,0 4.37438,1.675899 4.37438,5.084507 0,3.408607 -1.675899,5.084506 -4.37438,5.084506 z m 15.935221,1.136202 c -3.152957,0 -4.715236,-2.442835 -4.715236,-5.056101 h 11.447236 c 0,-5.141316 -2.21559,-8.237468 -6.7604,-8.237468 -4.232355,0 -6.959241,2.812101 -6.959241,7.640962 0,4.54481 2.670076,7.640962 7.072861,7.640962 3.60744,0 5.68101,-2.158785 6.41954,-4.857266 h -2.2724 c -0.25565,0.994177 -1.33504,2.868911 -4.23236,2.868911 z m -0.0284,-11.305215 c 2.72689,0 4.488,1.931544 4.488,4.26076 h -9.174836 c 0,-2.329216 1.95995,-4.26076 4.686836,-4.26076 z m 16.1057,-1.988354 c -2.47124,0 -4.00512,1.107797 -4.77205,2.130379 h -0.0568 v -1.732708 h -2.27241 V 54 h 2.27241 v -9.03281 c 0,-2.244 1.7043,-3.863089 4.26076,-3.863089 2.2724,0 3.15296,1.477063 3.15296,3.351798 V 54 h 2.2724 V 43.887797 c 0,-3.323392 -2.21559,-4.77205 -4.85726,-4.77205 z m 13.91847,2.386025 v -1.988354 h -2.84051 v -4.828861 h -2.2724 v 4.828861 h -2.13038 v 1.988354 h 2.13038 v 8.947595 c 0,2.954127 1.47706,3.721063 3.40861,3.721063 0.5965,0 1.19301,-0.05681 1.7043,-0.17043 v -1.988354 c -1.93154,0.142025 -2.84051,-0.142026 -2.84051,-1.789519 v -8.720355 z"
             id="path23" />
          <path
             d="m 60.885873,77.119955 c -2.982532,-0.738532 -5.169722,-1.107797 -5.169722,-3.806278 0,-1.675899 1.533874,-2.783697 4.402785,-2.783697 3.209773,0 4.743646,1.420254 5.112912,4.14714 h 2.556456 c -0.340861,-4.20395 -3.351798,-6.419545 -7.669368,-6.419545 -4.488,0 -6.95924,2.13038 -6.95924,5.340152 0,3.948304 3.635848,4.999291 6.67519,5.709418 4.54481,1.050987 6.050278,1.562279 6.050278,4.345975 0,1.817924 -1.249823,3.437012 -4.77205,3.437012 -4.26076,0 -5.965064,-2.158784 -6.249114,-4.942481 h -2.556456 c 0.28405,4.658431 4.005114,7.214887 8.80557,7.214887 5.141316,0 7.328506,-2.755292 7.328506,-5.709418 0,-4.630026 -2.982532,-5.396962 -7.555747,-6.533165 z m 22.411581,-2.641671 h -2.556456 l -4.175544,11.816507 h -0.05681 l -4.43119,-11.816507 h -2.556455 l 5.482177,13.29357 c 0.568101,1.420253 -0.0284,2.641671 -0.624911,3.294987 -0.766937,0.823747 -1.647494,0.908962 -2.897317,0.795342 h -0.340861 v 1.704304 c 0.369266,0.11362 1.022583,0.284051 1.931545,0.284051 2.670076,0 3.408607,-2.13038 4.033519,-3.692659 z m 7.356945,5.879848 C 88.63764,79.875246 86.67769,79.733221 86.67769,78.028917 c 0,-1.136202 1.107798,-1.959949 3.152962,-1.959949 2.726887,0 3.266583,1.448658 3.493823,2.556455 h 2.272405 c -0.22724,-2.499645 -2.158784,-4.54481 -5.766228,-4.54481 -3.408607,0 -5.425367,1.846329 -5.425367,4.118735 0,3.408607 3.294988,3.664253 5.510583,4.203949 2.073569,0.511291 3.976709,0.624911 3.976709,2.726886 0,0.965772 -0.965773,2.244 -3.437013,2.244 -3.635848,0 -4.20395,-1.619089 -4.345975,-3.238177 h -2.272405 c 0.142025,3.124557 2.18719,5.226532 6.61838,5.226532 3.294987,0 5.709418,-1.732709 5.709418,-4.37438 0,-3.579038 -2.925722,-4.005114 -5.510583,-4.630026 z m 13.748041,-3.891493 v -1.988355 h -2.8405 v -4.828861 h -2.272408 v 4.828861 h -2.13038 v 1.988355 h 2.13038 v 8.947595 c 0,2.954126 1.477068,3.721063 3.408608,3.721063 0.59651,0 1.19301,-0.05681 1.7043,-0.17043 v -1.988355 c -1.93154,0.142026 -2.8405,-0.142025 -2.8405,-1.789519 v -8.720354 z m 8.40792,10.907544 c -3.15296,0 -4.71524,-2.442835 -4.71524,-5.056101 h 11.44724 c 0,-5.141317 -2.21559,-8.237469 -6.76041,-8.237469 -4.23235,0 -6.95924,2.812102 -6.95924,7.640962 0,4.544811 2.67008,7.640963 7.07287,7.640963 3.60744,0 5.68101,-2.158785 6.41954,-4.857266 h -2.27241 c -0.25564,0.994177 -1.33503,2.868911 -4.23235,2.868911 z m -0.0284,-11.305215 c 2.72689,0 4.48801,1.931544 4.48801,4.260759 h -9.17484 c 0,-2.329215 1.95995,-4.260759 4.68683,-4.260759 z m 24.14433,-1.988355 c -2.18719,0 -3.69266,1.136203 -4.68683,2.499646 h -0.0568 c -0.59651,-1.619089 -1.78952,-2.499646 -3.86309,-2.499646 -2.18719,0 -3.43701,1.107798 -4.20395,2.13038 h -0.0568 v -1.732709 h -2.27241 v 14.486583 h 2.27241 v -9.032811 c 0,-2.244 1.42025,-3.863088 3.69266,-3.863088 2.2724,0 2.64167,1.477063 2.64167,3.351797 v 9.544102 h 2.2724 v -9.032811 c 0,-2.244 1.42026,-3.863088 3.69266,-3.863088 2.27241,0 2.64167,1.477063 2.64167,3.351797 v 9.544102 h 2.27241 V 78.852664 c 0,-3.039342 -1.42026,-4.772051 -4.34598,-4.772051 z"
             id="path24" />
        </g>
      </g>
      <g
         id="Group-4-Copy"
         transform="translate(513.000000, 184.500000) rotate(-90.000000) translate(-513.000000, -184.500000) translate(453.000000, 154.000000)">
        <g
           id="g12"
           transform="translate(89.500000, 30.500000) rotate(90.000000) translate(-89.500000, -30.500000) translate(59.000000, -0.000000)">
          <circle
             id="circle9"
             fill="#BDB8FF"
             cx="30.5"
             cy="30.5"
             r="30.5" />
          <g
             id="g11"
             transform="translate(15.000000, 19.000000)"
             fill="#2F2E6B"
             fill-rule="nonzero">
            <g
               id="g10">
              <path
                 d="M19.9921381,0.460513832 C20.5468652,-0.102336407 21.4175337,-0.149240594 22.0249178,0.319801272 L22.1836051,0.460513832 L27.8382594,6.19797133 C30.6244988,9.02490043 30.7173735,13.5468947 28.1169058,16.501991 L27.8382842,16.8019674 L22.1836085,22.5394827 C21.5784535,23.153503 20.5973003,23.1535062 19.9921415,22.5394897 C19.4374126,21.9766412 19.3911826,21.0932233 19.8534534,20.4769436 L19.9921346,20.3159322 L25.6436974,14.5815844 C27.2436392,12.9489406 27.3163638,10.3670434 25.8645817,8.65936117 L25.6468138,8.4215505 L19.9921381,2.68407131 C19.3869812,2.07005287 19.3869812,1.07453228 19.9921381,0.460513832 Z"
                 id="path9" />
              <path
                 d="M21.1052908,9.92365857 C21.9611119,9.92365857 22.654892,10.6275979 22.654892,11.4959511 C22.654892,12.2975079 22.0637421,12.9589725 21.2996695,13.0559933 L21.1052908,13.0682437 L1.54960118,13.0682437 C0.693780081,13.0682437 0,12.3643043 0,11.4959511 C0,10.6943943 0.591149892,10.0329298 1.3552225,9.93590896 L1.54960118,9.92365857 L21.1052908,9.92365857 Z"
                 id="path10" />
            </g>
          </g>
        </g>
        <g
           id="g15"
           transform="translate(30.500000, 30.500000) rotate(-90.000000) translate(-30.500000, -30.500000) translate(0.000000, -0.000000)">
          <circle
             id="circle12"
             fill="#BDB8FF"
             cx="30.5"
             cy="30.5"
             r="30.5" />
          <g
             id="g14"
             transform="translate(15.000000, 19.000000)"
             fill="#2F2E6B"
             fill-rule="nonzero">
            <g
               id="g13">
              <path
                 d="M19.9921381,0.460513832 C20.5468652,-0.102336407 21.4175337,-0.149240594 22.0249178,0.319801272 L22.1836051,0.460513832 L27.8382594,6.19797133 C30.6244988,9.02490043 30.7173735,13.5468947 28.1169058,16.501991 L27.8382842,16.8019674 L22.1836085,22.5394827 C21.5784535,23.153503 20.5973003,23.1535062 19.9921415,22.5394897 C19.4374126,21.9766412 19.3911826,21.0932233 19.8534534,20.4769436 L19.9921346,20.3159322 L25.6436974,14.5815844 C27.2436392,12.9489406 27.3163638,10.3670434 25.8645817,8.65936117 L25.6468138,8.4215505 L19.9921381,2.68407131 C19.3869812,2.07005287 19.3869812,1.07453228 19.9921381,0.460513832 Z"
                 id="path12" />
              <path
                 d="M21.1052908,9.92365857 C21.9611119,9.92365857 22.654892,10.6275979 22.654892,11.4959511 C22.654892,12.2975079 22.0637421,12.9589725 21.2996695,13.0559933 L21.1052908,13.0682437 L1.54960118,13.0682437 C0.693780081,13.0682437 0,12.3643043 0,11.4959511 C0,10.6943943 0.591149892,10.0329298 1.3552225,9.93590896 L1.54960118,9.92365857 L21.1052908,9.92365857 Z"
                 id="path13" />
            </g>
          </g>
        </g>
      </g>
      <g
         id="g16"
         transform="translate(554.000000, 80.000000)"
         fill="#F3F3F3">
        <rect
           id="rect15"
           x="0"
           y="0"
           width="252"
           height="202"
           rx="30" />
      </g>
      <g
         id="Group-38"
         transform="translate(567.000000, 89.000000)">
        <g
           id="Group-13">
          <rect
             id="Rectangle-Copy-5"
             fill="#FF66CB"
             x="0"
             y="0"
             width="225"
             height="85.3298969"
             rx="19" />
          <rect
             id="Rectangle-Copy-14"
             fill="#FF66F9"
             x="0"
             y="92.6701031"
             width="225"
             height="85.3298969"
             rx="19" />
          <g
             id="Group-8"
             transform="translate(0.000000, 3.000000)" />
        </g>
        <path
           d="m 33.065241,54 h 2.556456 V 37.297823 h 0.05681 L 41.814001,54 h 2.272405 l 6.135493,-16.702177 h 0.05681 V 54 h 2.556455 V 33.69038 h -3.493823 l -6.362734,16.872607 h -0.05681 L 36.559064,33.69038 H 33.065241 Z M 71.497267,40.393975 h 2.556455 c -0.482886,-3.863089 -3.664253,-7.101266 -8.635139,-7.101266 -5.567393,0 -9.402076,4.43119 -9.402076,10.538278 0,6.135494 3.834683,10.566684 9.402076,10.566684 4.999291,0 8.180658,-3.238177 8.635139,-7.726177 h -2.556455 c -0.170431,2.556455 -1.817925,5.453772 -6.078684,5.453772 -4.828861,0 -6.84562,-4.175545 -6.84562,-8.294279 0,-4.090329 2.016759,-8.265873 6.84562,-8.265873 4.232354,0 5.709418,2.897316 6.078684,4.828861 z M 76.922625,54 h 2.556455 v -8.493114 h 5.510583 c 3.721063,0 6.589975,-1.647494 6.589975,-5.908253 0,-4.26076 -2.868912,-5.908253 -6.589975,-5.908253 H 76.922625 Z M 79.47908,35.962785 h 5.794633 c 2.528051,0 3.749469,1.164607 3.749469,3.635848 0,2.47124 -1.221418,3.635848 -3.749469,3.635848 H 79.47908 Z m 27.55295,6.192303 c -2.98253,-0.738531 -5.16972,-1.107797 -5.16972,-3.806278 0,-1.675899 1.53387,-2.783696 4.40278,-2.783696 3.20977,0 4.74365,1.420253 5.11291,4.147139 h 2.55646 c -0.34086,-4.203949 -3.3518,-6.419544 -7.66937,-6.419544 -4.488,0 -6.959238,2.130379 -6.959238,5.340152 0,3.948303 3.635848,4.999291 6.675188,5.709417 4.54481,1.050988 6.05028,1.562279 6.05028,4.345975 0,1.817924 -1.24982,3.437013 -4.77205,3.437013 -4.26076,0 -5.96506,-2.158785 -6.24911,-4.942481 H 98.4537 c 0.284051,4.65843 4.00511,7.214886 8.80557,7.214886 5.14132,0 7.32851,-2.755291 7.32851,-5.709418 0,-4.630025 -2.98254,-5.396962 -7.55575,-6.533165 z m 16.30449,10.254228 c -3.15296,0 -4.71524,-2.442835 -4.71524,-5.056101 h 11.44724 c 0,-5.141316 -2.21559,-8.237468 -6.7604,-8.237468 -4.23236,0 -6.95924,2.812101 -6.95924,7.640962 0,4.54481 2.67007,7.640962 7.07286,7.640962 3.60744,0 5.68101,-2.158785 6.41954,-4.857266 h -2.2724 c -0.25565,0.994177 -1.33504,2.868911 -4.23236,2.868911 z m -0.0284,-11.305215 c 2.72688,0 4.488,1.931544 4.488,4.26076 h -9.17484 c 0,-2.329216 1.95995,-4.26076 4.68684,-4.26076 z m 15.33875,-1.988354 c -2.07356,0 -3.23817,1.363443 -4.00511,3.266582 h -0.0568 v -2.868911 h -2.2724 V 54 h 2.2724 v -7.726177 c 0,-3.096152 2.18719,-5.311747 5.34015,-4.800456 h 0.0568 v -2.272405 c -0.39767,-0.05681 -0.79534,-0.08521 -1.33504,-0.08521 z m 1.90316,0.397671 L 145.74815,54 h 2.58487 l 5.19812,-14.486582 h -2.47124 l -4.00511,12.214177 h -0.0284 l -4.00511,-12.214177 z m 20.48006,12.895898 c -3.15297,0 -4.71524,-2.442835 -4.71524,-5.056101 h 11.44724 c 0,-5.141316 -2.2156,-8.237468 -6.76041,-8.237468 -4.23235,0 -6.95924,2.812101 -6.95924,7.640962 0,4.54481 2.67008,7.640962 7.07286,7.640962 3.60744,0 5.68101,-2.158785 6.41955,-4.857266 h -2.27241 c -0.25564,0.994177 -1.33504,2.868911 -4.23235,2.868911 z m -0.0284,-11.305215 c 2.72689,0 4.488,1.931544 4.488,4.26076 h -9.17483 c 0,-2.329216 1.95995,-4.26076 4.68683,-4.26076 z m 15.33877,-1.988354 c -2.07357,0 -3.23818,1.363443 -4.00512,3.266582 h -0.0568 v -2.868911 h -2.2724 V 54 h 2.2724 v -7.726177 c 0,-3.096152 2.18719,-5.311747 5.34016,-4.800456 h 0.0568 v -2.272405 c -0.39768,-0.05681 -0.79535,-0.08521 -1.33504,-0.08521 z m 13.15157,-4.743646 c -0.28405,2.556456 -1.22141,4.232355 -4.65843,4.232355 v 1.846329 c 1.76112,0 2.89732,0 4.09033,-1.136203 V 54 h 2.55646 V 34.372101 Z"
           id="MCP-Server-1"
           style="font-size:28.4051px;font-family:NeueMontreal-Regular, 'Neue Montreal';fill:#ffffff"
           aria-label="MCP Server 1" />
        <path
           d="m 30.082709,146 h 2.556455 v -16.70218 h 0.05681 L 38.831468,146 h 2.272405 l 6.135494,-16.70218 h 0.05681 V 146 h 2.556456 V 125.69038 H 46.35881 l -6.362734,16.87261 h -0.05681 l -6.362735,-16.87261 h -3.493822 z m 38.432025,-13.60603 h 2.556456 c -0.482886,-3.86308 -3.664253,-7.10126 -8.63514,-7.10126 -5.567392,0 -9.402076,4.43119 -9.402076,10.53828 0,6.13549 3.834684,10.56668 9.402076,10.56668 4.999292,0 8.180659,-3.23818 8.63514,-7.72618 h -2.556456 c -0.17043,2.55646 -1.817924,5.45378 -6.078684,5.45378 -4.82886,0 -6.84562,-4.17555 -6.84562,-8.29428 0,-4.09033 2.01676,-8.26588 6.84562,-8.26588 4.232355,0 5.709418,2.89732 6.078684,4.82886 z M 73.940092,146 h 2.556456 v -8.49311 h 5.510582 c 3.721064,0 6.589975,-1.6475 6.589975,-5.90826 0,-4.26076 -2.868911,-5.90825 -6.589975,-5.90825 h -8.067038 z m 2.556456,-18.03722 h 5.794633 c 2.528051,0 3.749468,1.16461 3.749468,3.63585 0,2.47124 -1.221417,3.63585 -3.749468,3.63585 h -5.794633 z m 27.552952,6.19231 c -2.98253,-0.73853 -5.169725,-1.1078 -5.169725,-3.80628 0,-1.6759 1.533875,-2.7837 4.402785,-2.7837 3.20977,0 4.74365,1.42026 5.11291,4.14714 h 2.55646 c -0.34086,-4.20395 -3.3518,-6.41954 -7.66937,-6.41954 -4.488,0 -6.95924,2.13038 -6.95924,5.34015 0,3.9483 3.635848,4.99929 6.67519,5.70942 4.54481,1.05099 6.05028,1.56228 6.05028,4.34597 0,1.81793 -1.24982,3.43702 -4.77205,3.43702 -4.26076,0 -5.965066,-2.15879 -6.249117,-4.94249 h -2.556455 c 0.28405,4.65844 4.005114,7.21489 8.805572,7.21489 5.14131,0 7.3285,-2.75529 7.3285,-5.70942 0,-4.63002 -2.98253,-5.39696 -7.55574,-6.53316 z m 16.30449,10.25423 c -3.15296,0 -4.71524,-2.44284 -4.71524,-5.0561 h 11.44724 c 0,-5.14132 -2.2156,-8.23747 -6.76041,-8.23747 -4.23235,0 -6.95924,2.8121 -6.95924,7.64096 0,4.54481 2.67008,7.64096 7.07286,7.64096 3.60745,0 5.68102,-2.15878 6.41955,-4.85726 h -2.27241 c -0.25564,0.99417 -1.33503,2.86891 -4.23235,2.86891 z m -0.0284,-11.30522 c 2.72689,0 4.488,1.93155 4.488,4.26076 h -9.17483 c 0,-2.32921 1.95995,-4.26076 4.68683,-4.26076 z m 15.33876,-1.98835 c -2.07357,0 -3.23818,1.36344 -4.00511,3.26658 h -0.0568 v -2.86891 h -2.27241 V 146 h 2.27241 v -7.72618 c 0,-3.09615 2.18719,-5.31174 5.34015,-4.80045 h 0.0568 v -2.27241 c -0.39767,-0.0568 -0.79534,-0.0852 -1.33504,-0.0852 z m 1.90316,0.39767 L 142.76562,146 h 2.58486 l 5.19813,-14.48658 h -2.47124 l -4.00512,12.21417 h -0.0284 l -4.00511,-12.21417 z m 20.48005,12.8959 c -3.15296,0 -4.71524,-2.44284 -4.71524,-5.0561 h 11.44724 c 0,-5.14132 -2.21559,-8.23747 -6.7604,-8.23747 -4.23236,0 -6.95924,2.8121 -6.95924,7.64096 0,4.54481 2.67007,7.64096 7.07286,7.64096 3.60744,0 5.68101,-2.15878 6.41954,-4.85726 h -2.2724 c -0.25565,0.99417 -1.33504,2.86891 -4.23236,2.86891 z m -0.0284,-11.30522 c 2.72689,0 4.488,1.93155 4.488,4.26076 h -9.17484 c 0,-2.32921 1.95995,-4.26076 4.68684,-4.26076 z m 15.33877,-1.98835 c -2.07357,0 -3.23818,1.36344 -4.00512,3.26658 h -0.0568 v -2.86891 h -2.2724 V 146 h 2.2724 v -7.72618 c 0,-3.09615 2.18719,-5.31174 5.34015,-4.80045 h 0.0568 v -2.27241 c -0.39767,-0.0568 -0.79534,-0.0852 -1.33503,-0.0852 z m 11.53248,2.13038 c 0,-2.69848 1.02258,-4.99929 4.4596,-4.99929 3.01093,0 3.74947,1.98835 3.74947,3.63584 0,2.86891 -1.81793,3.55064 -5.48218,5.68102 -3.60744,2.10197 -5.85144,4.88567 -5.85144,8.4363 h 13.60602 v -2.27241 H 184.862 v -0.0568 c 1.22141,-4.68683 10.79392,-5.0845 10.79392,-11.8165 0,-3.74947 -2.89732,-5.87985 -6.24911,-5.87985 -4.85727,0 -7.07286,3.20977 -7.07286,7.2717 z"
           id="MCP-Server-2"
           style="font-size:28.4051px;font-family:NeueMontreal-Regular, 'Neue Montreal';fill:#ffffff"
           aria-label="MCP Server 2" />
      </g>
      <rect
         id="rect17"
         fill="#8993FE"
         x="342"
         y="107"
         width="66"
         height="40"
         rx="20" />
      <g
         id="Group-9"
         transform="translate(360.500000, 115.500000)"
         fill="#FFFFFF"
         fill-rule="nonzero">
        <path
           d="M19.9921381,0.460513832 C20.5468652,-0.102336407 21.4175337,-0.149240594 22.0249178,0.319801272 L22.1836051,0.460513832 L27.8382594,6.19797133 C30.6244988,9.02490043 30.7173735,13.5468947 28.1169058,16.501991 L27.8382842,16.8019674 L22.1836085,22.5394827 C21.5784535,23.153503 20.5973003,23.1535062 19.9921415,22.5394897 C19.4374126,21.9766412 19.3911826,21.0932233 19.8534534,20.4769436 L19.9921346,20.3159322 L25.6436974,14.5815844 C27.2436392,12.9489406 27.3163638,10.3670434 25.8645817,8.65936117 L25.6468138,8.4215505 L19.9921381,2.68407131 C19.3869812,2.07005287 19.3869812,1.07453228 19.9921381,0.460513832 Z"
           id="path17" />
        <path
           d="M21.1052908,9.92365857 C21.9611119,9.92365857 22.654892,10.6275979 22.654892,11.4959511 C22.654892,12.2975079 22.0637421,12.9589725 21.2996695,13.0559933 L21.1052908,13.0682437 L1.54960118,13.0682437 C0.693780081,13.0682437 0,12.3643043 0,11.4959511 C0,10.6943943 0.591149892,10.0329298 1.3552225,9.93590896 L1.54960118,9.92365857 L21.1052908,9.92365857 Z"
           id="path18" />
      </g>
      <rect
         id="Rectangle-Copy-2"
         fill="#FFFFFF"
         x="342"
         y="205"
         width="66"
         height="40"
         rx="20" />
      <g
         id="Group-9-Copy"
         transform="translate(375.500000, 226.000000) rotate(180.000000) translate(-375.500000, -226.000000) translate(360.500000, 214.500000)"
         fill="#2F2E6B"
         fill-rule="nonzero">
        <path
           d="M19.9921381,0.460513832 C20.5468652,-0.102336407 21.4175337,-0.149240594 22.0249178,0.319801272 L22.1836051,0.460513832 L27.8382594,6.19797133 C30.6244988,9.02490043 30.7173735,13.5468947 28.1169058,16.501991 L27.8382842,16.8019674 L22.1836085,22.5394827 C21.5784535,23.153503 20.5973003,23.1535062 19.9921415,22.5394897 C19.4374126,21.9766412 19.3911826,21.0932233 19.8534534,20.4769436 L19.9921346,20.3159322 L25.6436974,14.5815844 C27.2436392,12.9489406 27.3163638,10.3670434 25.8645817,8.65936117 L25.6468138,8.4215505 L19.9921381,2.68407131 C19.3869812,2.07005287 19.3869812,1.07453228 19.9921381,0.460513832 Z"
           id="path19" />
        <path
           d="M21.1052908,9.92365857 C21.9611119,9.92365857 22.654892,10.6275979 22.654892,11.4959511 C22.654892,12.2975079 22.0637421,12.9589725 21.2996695,13.0559933 L21.1052908,13.0682437 L1.54960118,13.0682437 C0.693780081,13.0682437 8.88934688e-14,12.3643043 8.88934688e-14,11.4959511 C8.88934688e-14,10.6943943 0.591149892,10.0329298 1.3552225,9.93590896 L1.54960118,9.92365857 L21.1052908,9.92365857 Z"
           id="path20" />
      </g>
      <path
         d="m 307.99431,162.46177 v -1.35835 h -1.9405 v -3.29886 h -1.55241 v 3.29886 h -1.45538 v 1.35835 h 1.45538 v 6.1126 c 0,2.01812 1.00906,2.54206 2.32861,2.54206 0.40751,0 0.81501,-0.0388 1.1643,-0.11643 v -1.35835 c -1.31954,0.097 -1.9405,-0.097 -1.9405,-1.22252 v -5.95736 z m 5.82153,8.8099 c -3.02719,0 -4.85126,-2.13456 -4.85126,-5.21996 0,-3.08541 1.82407,-5.21996 4.85126,-5.21996 3.00779,0 4.83186,2.13455 4.83186,5.21996 0,3.0854 -1.82407,5.21996 -4.83186,5.21996 z m 0,-1.35835 c 2.21218,0 3.27946,-1.74646 3.27946,-3.86161 0,-2.11515 -1.06728,-3.86161 -3.27946,-3.86161 -2.23158,0 -3.29886,1.74646 -3.29886,3.86161 0,2.11515 1.06728,3.86161 3.29886,3.86161 z m 10.69221,1.35835 c -3.02719,0 -4.85127,-2.13456 -4.85127,-5.21996 0,-3.08541 1.82408,-5.21996 4.85127,-5.21996 3.00778,0 4.83186,2.13455 4.83186,5.21996 0,3.0854 -1.82408,5.21996 -4.83186,5.21996 z m 0,-1.35835 c 2.21217,0 3.27945,-1.74646 3.27945,-3.86161 0,-2.11515 -1.06728,-3.86161 -3.27945,-3.86161 -2.23159,0 -3.29886,1.74646 -3.29886,3.86161 0,2.11515 1.06727,3.86161 3.29886,3.86161 z m 6.46189,-12.78794 V 171 h 1.55241 v -13.87462 z m 14.65083,7.54857 h 1.5524 c -0.23286,-2.21218 -1.9017,-3.8422 -4.34673,-3.8422 -2.89136,0 -4.79305,2.11515 -4.79305,5.21996 0,3.10481 1.90169,5.21996 4.79305,5.21996 2.44503,0 4.2109,-1.66883 4.34673,-3.91982 h -1.5524 c -0.0776,1.18371 -0.79561,2.56147 -2.79433,2.56147 -2.34802,0 -3.24065,-1.99873 -3.24065,-3.86161 0,-1.86289 0.89263,-3.86161 3.24065,-3.86161 1.97931,0 2.71671,1.39717 2.79433,2.48385 z m 9.29501,-1.04787 c 0,0.98965 -0.7568,1.20311 -2.42564,1.51359 -2.56147,0.48513 -4.2303,1.06728 -4.2303,3.31827 0,1.66883 1.26133,2.81373 3.26005,2.81373 1.63002,0 2.73611,-0.58215 3.35708,-1.51359 h 0.0388 c 0.27167,1.08668 0.83441,1.33895 1.76586,1.33895 0.29107,0 0.50453,-0.0194 0.91203,-0.15525 v -1.08668 c -0.98965,0.11643 -1.12549,-0.31048 -1.12549,-1.08668 v -4.81246 c 0,-2.38682 -1.68824,-3.12421 -3.57053,-3.12421 -2.87195,0 -4.05566,1.43597 -4.15268,3.33767 h 1.5524 c 0.097,-1.43598 0.71799,-1.97932 2.60028,-1.97932 1.59121,0 2.01813,0.65977 2.01813,1.43598 z m -3.24065,6.28724 c -1.28073,0 -1.86289,-0.56275 -1.86289,-1.533 0,-1.18371 0.89264,-1.66884 2.81374,-2.07635 1.04787,-0.21345 1.99872,-0.48512 2.2898,-0.7762 v 1.64943 c 0,1.9017 -1.39717,2.73612 -3.24065,2.73612 z m 7.14107,-12.78794 V 171 h 1.5524 v -13.87462 z m 3.60932,0 V 171 h 1.5524 v -13.87462 z m 6.59772,3.97804 3.55113,9.89658 h 1.76586 l 3.55112,-9.89658 h -1.68824 l -2.73611,8.34417 h -0.0194 l -2.73611,-8.34417 z m 15.73753,2.52266 c 0,0.98965 -0.7568,1.20311 -2.42564,1.51359 -2.56147,0.48513 -4.2303,1.06728 -4.2303,3.31827 0,1.66883 1.26133,2.81373 3.26005,2.81373 1.63002,0 2.73611,-0.58215 3.35707,-1.51359 h 0.0388 c 0.27167,1.08668 0.83441,1.33895 1.76586,1.33895 0.29107,0 0.50453,-0.0194 0.91203,-0.15525 v -1.08668 c -0.98965,0.11643 -1.12549,-0.31048 -1.12549,-1.08668 v -4.81246 c 0,-2.38682 -1.68824,-3.12421 -3.57053,-3.12421 -2.87195,0 -4.05566,1.43597 -4.15269,3.33767 h 1.55241 c 0.097,-1.43598 0.71799,-1.97932 2.60028,-1.97932 1.59121,0 2.01813,0.65977 2.01813,1.43598 z m -3.24065,6.28724 c -1.28073,0 -1.86289,-0.56275 -1.86289,-1.533 0,-1.18371 0.89264,-1.66884 2.81374,-2.07635 1.04787,-0.21345 1.99872,-0.48512 2.2898,-0.7762 v 1.64943 c 0,1.9017 -1.39717,2.73612 -3.24065,2.73612 z m 7.14106,-12.78794 V 171 h 1.55241 v -13.87462 z m 4.52136,2.05694 c 0.44632,0 0.97026,-0.32989 0.97026,-0.93145 0,-0.60155 -0.52394,-0.93144 -0.97026,-0.93144 -0.42691,0 -0.97025,0.32989 -0.97025,0.93144 0,0.60156 0.54334,0.93145 0.97025,0.93145 z m -0.7762,1.9211 V 171 h 1.55241 v -9.89658 z m 10.92504,-3.97804 v 5.25877 h -0.0388 c -0.58215,-0.85382 -1.5136,-1.5524 -3.10481,-1.5524 -2.48385,0 -4.46317,1.95991 -4.46317,5.21996 0,3.26005 1.97932,5.21996 4.46317,5.21996 1.59121,0 2.52266,-0.73739 3.10481,-1.49419 h 0.0388 V 171 h 1.5524 v -13.87462 z m -2.98838,12.78794 c -2.03753,0 -3.066,-1.9211 -3.066,-3.86161 0,-1.94051 1.02847,-3.86161 3.066,-3.86161 1.84348,0 2.98838,1.533 2.98838,3.86161 0,2.32861 -1.1449,3.86161 -2.98838,3.86161 z m 12.72971,-6.28724 c 0,0.98965 -0.7568,1.20311 -2.42563,1.51359 -2.56147,0.48513 -4.23031,1.06728 -4.23031,3.31827 0,1.66883 1.26133,2.81373 3.26005,2.81373 1.63003,0 2.73612,-0.58215 3.35708,-1.51359 h 0.0388 c 0.27167,1.08668 0.83442,1.33895 1.76586,1.33895 0.29107,0 0.50453,-0.0194 0.91204,-0.15525 v -1.08668 c -0.98966,0.11643 -1.1255,-0.31048 -1.1255,-1.08668 v -4.81246 c 0,-2.38682 -1.68824,-3.12421 -3.57053,-3.12421 -2.87195,0 -4.05566,1.43597 -4.15268,3.33767 h 1.5524 c 0.097,-1.43598 0.71799,-1.97932 2.60028,-1.97932 1.59122,0 2.01813,0.65977 2.01813,1.43598 z m -3.24065,6.28724 c -1.28073,0 -1.86288,-0.56275 -1.86288,-1.533 0,-1.18371 0.89263,-1.66884 2.81373,-2.07635 1.04787,-0.21345 1.99872,-0.48512 2.2898,-0.7762 v 1.64943 c 0,1.9017 -1.39717,2.73612 -3.24065,2.73612 z m 11.19672,-7.45155 v -1.35835 h -1.9405 v -3.29886 h -1.55241 v 3.29886 h -1.45538 v 1.35835 h 1.45538 v 6.1126 c 0,2.01812 1.00906,2.54206 2.32861,2.54206 0.4075,0 0.81501,-0.0388 1.1643,-0.11643 v -1.35835 c -1.31954,0.097 -1.9405,-0.097 -1.9405,-1.22252 v -5.95736 z m 2.60028,-3.27945 c 0.44632,0 0.97025,-0.32989 0.97025,-0.93145 0,-0.60155 -0.52393,-0.93144 -0.97025,-0.93144 -0.42691,0 -0.97025,0.32989 -0.97025,0.93144 0,0.60156 0.54334,0.93145 0.97025,0.93145 z m -0.7762,1.9211 V 171 h 1.5524 v -9.89658 z m 8.16951,10.16825 c -3.02719,0 -4.85127,-2.13456 -4.85127,-5.21996 0,-3.08541 1.82408,-5.21996 4.85127,-5.21996 3.00778,0 4.83186,2.13455 4.83186,5.21996 0,3.0854 -1.82408,5.21996 -4.83186,5.21996 z m 0,-1.35835 c 2.21218,0 3.27946,-1.74646 3.27946,-3.86161 0,-2.11515 -1.06728,-3.86161 -3.27946,-3.86161 -2.23158,0 -3.29886,1.74646 -3.29886,3.86161 0,2.11515 1.06728,3.86161 3.29886,3.86161 z m 11.25495,-9.08157 c -1.68824,0 -2.73611,0.75679 -3.26005,1.45538 h -0.0388 v -1.18371 h -1.5524 V 171 h 1.5524 v -6.17081 c 0,-1.533 1.16431,-2.63909 2.91076,-2.63909 1.55241,0 2.15397,1.00906 2.15397,2.2898 V 171 h 1.5524 v -6.9082 c 0,-2.2704 -1.51359,-3.26005 -3.31827,-3.26005 z"
         id="tool-call-validation"
         style="font-size:19.4051px;font-family:NeueMontreal-Regular, 'Neue Montreal';fill:#8993fe"
         aria-label="tool call validation" />
      <path
         d="m 298.64107,259.46177 v -1.35835 h -1.9405 v -3.29886 h -1.55241 v 3.29886 h -1.45538 v 1.35835 h 1.45538 v 6.1126 c 0,2.01812 1.00906,2.54206 2.32861,2.54206 0.4075,0 0.81501,-0.0388 1.1643,-0.11643 v -1.35835 c -1.31954,0.097 -1.9405,-0.097 -1.9405,-1.22252 v -5.95736 z m 5.82153,8.8099 c -3.02719,0 -4.85126,-2.13456 -4.85126,-5.21996 0,-3.08541 1.82407,-5.21996 4.85126,-5.21996 3.00779,0 4.83186,2.13455 4.83186,5.21996 0,3.0854 -1.82407,5.21996 -4.83186,5.21996 z m 0,-1.35835 c 2.21218,0 3.27946,-1.74646 3.27946,-3.86161 0,-2.11515 -1.06728,-3.86161 -3.27946,-3.86161 -2.23158,0 -3.29886,1.74646 -3.29886,3.86161 0,2.11515 1.06728,3.86161 3.29886,3.86161 z m 10.6922,1.35835 c -3.02718,0 -4.85126,-2.13456 -4.85126,-5.21996 0,-3.08541 1.82408,-5.21996 4.85126,-5.21996 3.00779,0 4.83187,2.13455 4.83187,5.21996 0,3.0854 -1.82408,5.21996 -4.83187,5.21996 z m 0,-1.35835 c 2.21218,0 3.27946,-1.74646 3.27946,-3.86161 0,-2.11515 -1.06728,-3.86161 -3.27946,-3.86161 -2.23158,0 -3.29886,1.74646 -3.29886,3.86161 0,2.11515 1.06728,3.86161 3.29886,3.86161 z m 6.4619,-12.78794 V 268 h 1.55241 v -13.87462 z m 11.95352,3.70637 c -1.41657,0 -2.21218,0.93144 -2.73611,2.23158 h -0.0388 v -1.95991 h -1.55241 V 268 h 1.55241 v -5.27818 c 0,-2.11515 1.49419,-3.62874 3.64815,-3.27945 h 0.0388 v -1.55241 c -0.27167,-0.0388 -0.54334,-0.0582 -0.91204,-0.0582 z m 6.1514,9.08157 c -2.15396,0 -3.22124,-1.66884 -3.22124,-3.4541 h 7.82024 c 0,-3.51232 -1.51359,-5.62747 -4.6184,-5.62747 -2.89136,0 -4.75424,1.9211 -4.75424,5.21996 0,3.10481 1.82407,5.21996 4.83186,5.21996 2.46444,0 3.88101,-1.47478 4.38554,-3.31826 h -1.5524 c -0.17465,0.67917 -0.91204,1.95991 -2.89136,1.95991 z m -0.0194,-7.72322 c 1.86289,0 3.066,1.31955 3.066,2.91076 h -6.26784 c 0,-1.59121 1.33895,-2.91076 3.20184,-2.91076 z m 10.16827,2.93017 c -1.37776,-0.32989 -2.71671,-0.42692 -2.71671,-1.59122 0,-0.7762 0.7568,-1.33895 2.15396,-1.33895 1.86289,0 2.23158,0.98966 2.38682,1.74646 h 1.55241 c -0.15524,-1.70765 -1.47479,-3.10481 -3.93923,-3.10481 -2.32861,0 -3.70637,1.26133 -3.70637,2.81373 0,2.32861 2.25099,2.50325 3.76459,2.87195 1.41657,0.34929 2.71671,0.42691 2.71671,1.86289 0,0.65977 -0.65978,1.533 -2.34802,1.533 -2.48385,0 -2.87195,-1.10609 -2.96897,-2.21218 h -1.55241 c 0.097,2.13456 1.49419,3.57053 4.52138,3.57053 2.25099,0 3.90042,-1.18371 3.90042,-2.98838 0,-2.44504 -1.99872,-2.73611 -3.76458,-3.16302 z m 11.83709,-4.01685 v 6.17081 c 0,1.533 -1.1643,2.63909 -2.91076,2.63909 -1.5524,0 -2.15396,-1.00907 -2.15396,-2.2898 v -6.5201 h -1.55241 v 6.9082 c 0,2.27039 1.5136,3.26005 3.31827,3.26005 1.68824,0 2.73611,-0.7568 3.26005,-1.45538 h 0.0388 V 268 h 1.55241 v -9.89658 z m 3.74518,-3.97804 V 268 h 1.5524 v -13.87462 z m 8.05308,5.33639 v -1.35835 h -1.94051 v -3.29886 h -1.5524 v 3.29886 h -1.45538 v 1.35835 h 1.45538 v 6.1126 c 0,2.01812 1.00906,2.54206 2.32861,2.54206 0.4075,0 0.81501,-0.0388 1.1643,-0.11643 v -1.35835 c -1.31954,0.097 -1.94051,-0.097 -1.94051,-1.22252 v -5.95736 z m 4.48258,-1.35835 3.55112,9.89658 h 1.76587 l 3.55112,-9.89658 h -1.68824 l -2.73611,8.34417 h -0.0194 l -2.73611,-8.34417 z m 15.73752,2.52266 c 0,0.98965 -0.75679,1.20311 -2.42563,1.51359 -2.56147,0.48513 -4.2303,1.06728 -4.2303,3.31827 0,1.66883 1.26133,2.81373 3.26005,2.81373 1.63002,0 2.73611,-0.58215 3.35707,-1.51359 h 0.0388 c 0.27168,1.08668 0.83442,1.33895 1.76587,1.33895 0.29107,0 0.50453,-0.0194 0.91203,-0.15525 v -1.08668 c -0.98965,0.11643 -1.12549,-0.31048 -1.12549,-1.08668 v -4.81246 c 0,-2.38682 -1.68824,-3.12421 -3.57053,-3.12421 -2.87195,0 -4.05566,1.43597 -4.15269,3.33767 h 1.55241 c 0.097,-1.43598 0.71799,-1.97932 2.60028,-1.97932 1.59121,0 2.01812,0.65977 2.01812,1.43598 z m -3.24064,6.28724 c -1.28074,0 -1.86289,-0.56275 -1.86289,-1.533 0,-1.18371 0.89264,-1.66884 2.81374,-2.07635 1.04787,-0.21345 1.99872,-0.48512 2.28979,-0.7762 v 1.64943 c 0,1.9017 -1.39716,2.73612 -3.24064,2.73612 z m 7.14107,-12.78794 V 268 h 1.55241 v -13.87462 z m 4.52136,2.05694 c 0.44632,0 0.97025,-0.32989 0.97025,-0.93145 0,-0.60155 -0.52393,-0.93144 -0.97025,-0.93144 -0.42691,0 -0.97025,0.32989 -0.97025,0.93144 0,0.60156 0.54334,0.93145 0.97025,0.93145 z m -0.7762,1.9211 V 268 h 1.5524 v -9.89658 z m 10.92503,-3.97804 v 5.25877 h -0.0388 c -0.58215,-0.85382 -1.5136,-1.5524 -3.10481,-1.5524 -2.48385,0 -4.46317,1.95991 -4.46317,5.21996 0,3.26005 1.97932,5.21996 4.46317,5.21996 1.59121,0 2.52266,-0.73739 3.10481,-1.49419 h 0.0388 V 268 h 1.5524 v -13.87462 z m -2.98838,12.78794 c -2.03753,0 -3.066,-1.9211 -3.066,-3.86161 0,-1.94051 1.02847,-3.86161 3.066,-3.86161 1.84348,0 2.98838,1.533 2.98838,3.86161 0,2.32861 -1.1449,3.86161 -2.98838,3.86161 z m 12.72971,-6.28724 c 0,0.98965 -0.7568,1.20311 -2.42564,1.51359 -2.56146,0.48513 -4.2303,1.06728 -4.2303,3.31827 0,1.66883 1.26133,2.81373 3.26005,2.81373 1.63003,0 2.73612,-0.58215 3.35708,-1.51359 h 0.0388 c 0.27167,1.08668 0.83442,1.33895 1.76586,1.33895 0.29107,0 0.50453,-0.0194 0.91204,-0.15525 v -1.08668 c -0.98966,0.11643 -1.1255,-0.31048 -1.1255,-1.08668 v -4.81246 c 0,-2.38682 -1.68824,-3.12421 -3.57053,-3.12421 -2.87195,0 -4.05566,1.43597 -4.15268,3.33767 h 1.5524 c 0.097,-1.43598 0.71799,-1.97932 2.60028,-1.97932 1.59122,0 2.01813,0.65977 2.01813,1.43598 z m -3.24065,6.28724 c -1.28073,0 -1.86288,-0.56275 -1.86288,-1.533 0,-1.18371 0.89263,-1.66884 2.81373,-2.07635 1.04787,-0.21345 1.99872,-0.48512 2.2898,-0.7762 v 1.64943 c 0,1.9017 -1.39717,2.73612 -3.24065,2.73612 z m 11.19672,-7.45155 v -1.35835 h -1.9405 v -3.29886 h -1.55241 v 3.29886 h -1.45538 v 1.35835 h 1.45538 v 6.1126 c 0,2.01812 1.00906,2.54206 2.32861,2.54206 0.4075,0 0.81501,-0.0388 1.1643,-0.11643 v -1.35835 c -1.31954,0.097 -1.9405,-0.097 -1.9405,-1.22252 v -5.95736 z m 2.60027,-3.27945 c 0.44632,0 0.97026,-0.32989 0.97026,-0.93145 0,-0.60155 -0.52394,-0.93144 -0.97026,-0.93144 -0.42691,0 -0.97025,0.32989 -0.97025,0.93144 0,0.60156 0.54334,0.93145 0.97025,0.93145 z m -0.7762,1.9211 V 268 h 1.55241 v -9.89658 z m 8.16953,10.16825 c -3.02719,0 -4.85127,-2.13456 -4.85127,-5.21996 0,-3.08541 1.82408,-5.21996 4.85127,-5.21996 3.00778,0 4.83186,2.13455 4.83186,5.21996 0,3.0854 -1.82408,5.21996 -4.83186,5.21996 z m 0,-1.35835 c 2.21217,0 3.27945,-1.74646 3.27945,-3.86161 0,-2.11515 -1.06728,-3.86161 -3.27945,-3.86161 -2.23159,0 -3.29886,1.74646 -3.29886,3.86161 0,2.11515 1.06727,3.86161 3.29886,3.86161 z m 11.25494,-9.08157 c -1.68824,0 -2.73611,0.75679 -3.26005,1.45538 h -0.0388 v -1.18371 h -1.5524 V 268 h 1.5524 v -6.17081 c 0,-1.533 1.16431,-2.63909 2.91076,-2.63909 1.55241,0 2.15396,1.00906 2.15396,2.2898 V 268 h 1.55241 v -6.9082 c 0,-2.2704 -1.5136,-3.26005 -3.31827,-3.26005 z"
         id="tool-result-validati"
         style="font-size:19.4051px;font-family:NeueMontreal-Regular, 'Neue Montreal';fill:#ffffff"
         aria-label="tool result validation" />
      <line
         x1="281.841584"
         y1="184"
         x2="468.158416"
         y2="184"
         id="Path-7"
         stroke="#8993FE"
         stroke-width="5" />
    </g>
  </g>
</svg>
