<?xml version="1.0" encoding="UTF-8" standalone="no"?>
<svg
   width="936px"
   height="202px"
   viewBox="0 0 936 202"
   version="1.1"
   id="svg11"
   xmlns="http://www.w3.org/2000/svg"
   xmlns:svg="http://www.w3.org/2000/svg">
  <defs
     id="defs11" />
  <title
     id="title1">Group 54</title>
  <g
     id="Page-1"
     stroke="none"
     stroke-width="1"
     fill="none"
     fill-rule="evenodd">
    <g
       id="Group-54">
      <g
         id="Group-36"
         transform="translate(684.000000, 0.000000)"
         fill="#F3F3F3">
        <rect
           id="Rectangle-Copy-9"
           x="0"
           y="0"
           width="252"
           height="202"
           rx="30" />
      </g>
      <g
         id="Group-38-Copy"
         transform="translate(697.000000, 12.000000)">
        <g
           id="Group-8" />
        <g
           id="Group-13-Copy"
           transform="translate(1.000000, 0.000000)">
          <rect
             id="Rectangle-Copy-5"
             fill="#D766FF"
             x="0"
             y="0"
             width="225"
             height="84"
             rx="19" />
          <g
             id="g1"
             transform="translate(0.000000, 43.000000)" />
        </g>
        <g
           id="Group-13-Copy-2"
           transform="translate(1.000000, 95.000000)">
          <rect
             id="rect1"
             fill="#FF66CB"
             x="0"
             y="0"
             width="225"
             height="84"
             rx="19" />
          <g
             id="g2"
             transform="translate(0.000000, 43.000000)" />
        </g>
        <path
           d="m 34.065241,54 h 2.556456 V 37.297823 h 0.05681 L 42.814001,54 h 2.272405 l 6.135493,-16.702177 h 0.05681 V 54 h 2.556455 V 33.69038 h -3.493823 l -6.362734,16.872607 h -0.05681 L 37.559064,33.69038 H 34.065241 Z M 72.497267,40.393975 h 2.556455 c -0.482886,-3.863089 -3.664253,-7.101266 -8.635139,-7.101266 -5.567393,0 -9.402076,4.43119 -9.402076,10.538278 0,6.135494 3.834683,10.566684 9.402076,10.566684 4.999291,0 8.180658,-3.238177 8.635139,-7.726177 h -2.556455 c -0.170431,2.556455 -1.817925,5.453772 -6.078684,5.453772 -4.828861,0 -6.84562,-4.175545 -6.84562,-8.294279 0,-4.090329 2.016759,-8.265873 6.84562,-8.265873 4.232354,0 5.709418,2.897316 6.078684,4.828861 z M 77.922625,54 h 2.556455 v -8.493114 h 5.510583 c 3.721063,0 6.589975,-1.647494 6.589975,-5.908253 0,-4.26076 -2.868912,-5.908253 -6.589975,-5.908253 H 77.922625 Z M 80.47908,35.962785 h 5.794633 c 2.528051,0 3.749469,1.164607 3.749469,3.635848 0,2.47124 -1.221418,3.635848 -3.749469,3.635848 H 80.47908 Z m 27.55295,6.192303 c -2.98253,-0.738531 -5.16972,-1.107797 -5.16972,-3.806278 0,-1.675899 1.53387,-2.783696 4.40278,-2.783696 3.20977,0 4.74365,1.420253 5.11291,4.147139 h 2.55646 c -0.34086,-4.203949 -3.3518,-6.419544 -7.66937,-6.419544 -4.488,0 -6.95924,2.130379 -6.95924,5.340152 0,3.948303 3.63585,4.999291 6.67519,5.709417 4.54481,1.050988 6.05028,1.562279 6.05028,4.345975 0,1.817924 -1.24982,3.437013 -4.77205,3.437013 -4.26076,0 -5.96506,-2.158785 -6.24911,-4.942481 H 99.4537 c 0.284051,4.65843 4.00511,7.214886 8.80557,7.214886 5.14132,0 7.32851,-2.755291 7.32851,-5.709418 0,-4.630025 -2.98254,-5.396962 -7.55575,-6.533165 z m 16.30449,10.254228 c -3.15296,0 -4.71524,-2.442835 -4.71524,-5.056101 h 11.44724 c 0,-5.141316 -2.21559,-8.237468 -6.7604,-8.237468 -4.23236,0 -6.95924,2.812101 -6.95924,7.640962 0,4.54481 2.67007,7.640962 7.07286,7.640962 3.60744,0 5.68101,-2.158785 6.41954,-4.857266 h -2.2724 c -0.25565,0.994177 -1.33504,2.868911 -4.23236,2.868911 z m -0.0284,-11.305215 c 2.72688,0 4.488,1.931544 4.488,4.26076 h -9.17484 c 0,-2.329216 1.95995,-4.26076 4.68684,-4.26076 z m 15.33875,-1.988354 c -2.07356,0 -3.23817,1.363443 -4.00511,3.266582 h -0.0568 v -2.868911 h -2.2724 V 54 h 2.2724 v -7.726177 c 0,-3.096152 2.18719,-5.311747 5.34015,-4.800456 h 0.0568 v -2.272405 c -0.39767,-0.05681 -0.79534,-0.08521 -1.33504,-0.08521 z m 1.90316,0.397671 L 146.74815,54 h 2.58487 l 5.19812,-14.486582 h -2.47124 l -4.00511,12.214177 h -0.0284 l -4.00511,-12.214177 z m 20.48006,12.895898 c -3.15297,0 -4.71524,-2.442835 -4.71524,-5.056101 h 11.44724 c 0,-5.141316 -2.2156,-8.237468 -6.76041,-8.237468 -4.23235,0 -6.95924,2.812101 -6.95924,7.640962 0,4.54481 2.67008,7.640962 7.07286,7.640962 3.60744,0 5.68101,-2.158785 6.41955,-4.857266 h -2.27241 c -0.25564,0.994177 -1.33504,2.868911 -4.23235,2.868911 z m -0.0284,-11.305215 c 2.72689,0 4.488,1.931544 4.488,4.26076 h -9.17483 c 0,-2.329216 1.95995,-4.26076 4.68683,-4.26076 z m 15.33877,-1.988354 c -2.07357,0 -3.23818,1.363443 -4.00512,3.266582 h -0.0568 v -2.868911 h -2.2724 V 54 h 2.2724 v -7.726177 c 0,-3.096152 2.18719,-5.311747 5.34016,-4.800456 h 0.0568 v -2.272405 c -0.39768,-0.05681 -0.79535,-0.08521 -1.33504,-0.08521 z m 13.15157,-4.743646 c -0.28405,2.556456 -1.22141,4.232355 -4.65843,4.232355 v 1.846329 c 1.76112,0 2.89732,0 4.09033,-1.136203 V 54 h 2.55646 V 34.372101 Z"
           id="MCP-Server-1"
           style="font-size:28.4051px;font-family:NeueMontreal-Regular, 'Neue Montreal';fill:#ffffff"
           aria-label="MCP Server 1" />
        <path
           d="m 31.082709,148 h 2.556455 v -16.70218 h 0.05681 L 39.831468,148 h 2.272405 l 6.135494,-16.70218 h 0.05681 V 148 h 2.556456 V 127.69038 H 47.35881 l -6.362734,16.87261 h -0.05681 l -6.362735,-16.87261 h -3.493822 z m 38.432025,-13.60603 h 2.556456 c -0.482886,-3.86308 -3.664253,-7.10126 -8.63514,-7.10126 -5.567392,0 -9.402076,4.43119 -9.402076,10.53828 0,6.13549 3.834684,10.56668 9.402076,10.56668 4.999292,0 8.180659,-3.23818 8.63514,-7.72618 h -2.556456 c -0.17043,2.55646 -1.817924,5.45378 -6.078684,5.45378 -4.82886,0 -6.84562,-4.17555 -6.84562,-8.29428 0,-4.09033 2.01676,-8.26588 6.84562,-8.26588 4.232355,0 5.709418,2.89732 6.078684,4.82886 z M 74.940092,148 h 2.556456 v -8.49311 h 5.510582 c 3.721064,0 6.589975,-1.6475 6.589975,-5.90826 0,-4.26076 -2.868911,-5.90825 -6.589975,-5.90825 h -8.067038 z m 2.556456,-18.03722 h 5.794633 c 2.528051,0 3.749468,1.16461 3.749468,3.63585 0,2.47124 -1.221417,3.63585 -3.749468,3.63585 h -5.794633 z m 27.552952,6.19231 c -2.98253,-0.73853 -5.169725,-1.1078 -5.169725,-3.80628 0,-1.6759 1.533875,-2.7837 4.402785,-2.7837 3.20977,0 4.74365,1.42026 5.11291,4.14714 h 2.55646 c -0.34086,-4.20395 -3.3518,-6.41954 -7.66937,-6.41954 -4.488,0 -6.95924,2.13038 -6.95924,5.34015 0,3.9483 3.63585,4.99929 6.67519,5.70942 4.54481,1.05099 6.05028,1.56228 6.05028,4.34597 0,1.81793 -1.24982,3.43702 -4.77205,3.43702 -4.26076,0 -5.965066,-2.15879 -6.249117,-4.94249 h -2.556455 c 0.28405,4.65844 4.005112,7.21489 8.805572,7.21489 5.14131,0 7.3285,-2.75529 7.3285,-5.70942 0,-4.63002 -2.98253,-5.39696 -7.55574,-6.53316 z m 16.30449,10.25423 c -3.15296,0 -4.71524,-2.44284 -4.71524,-5.0561 h 11.44724 c 0,-5.14132 -2.2156,-8.23747 -6.76041,-8.23747 -4.23235,0 -6.95924,2.8121 -6.95924,7.64096 0,4.54481 2.67008,7.64096 7.07286,7.64096 3.60745,0 5.68102,-2.15878 6.41955,-4.85726 h -2.27241 c -0.25564,0.99417 -1.33503,2.86891 -4.23235,2.86891 z m -0.0284,-11.30522 c 2.72689,0 4.488,1.93155 4.488,4.26076 h -9.17483 c 0,-2.32921 1.95995,-4.26076 4.68683,-4.26076 z m 15.33876,-1.98835 c -2.07357,0 -3.23818,1.36344 -4.00511,3.26658 h -0.0568 v -2.86891 h -2.27241 V 148 h 2.27241 v -7.72618 c 0,-3.09615 2.18719,-5.31174 5.34015,-4.80045 h 0.0568 v -2.27241 c -0.39767,-0.0568 -0.79534,-0.0852 -1.33504,-0.0852 z m 1.90316,0.39767 L 143.76562,148 h 2.58486 l 5.19813,-14.48658 h -2.47124 l -4.00512,12.21417 h -0.0284 l -4.00511,-12.21417 z m 20.48005,12.8959 c -3.15296,0 -4.71524,-2.44284 -4.71524,-5.0561 h 11.44724 c 0,-5.14132 -2.21559,-8.23747 -6.7604,-8.23747 -4.23236,0 -6.95924,2.8121 -6.95924,7.64096 0,4.54481 2.67007,7.64096 7.07286,7.64096 3.60744,0 5.68101,-2.15878 6.41954,-4.85726 h -2.2724 c -0.25565,0.99417 -1.33504,2.86891 -4.23236,2.86891 z m -0.0284,-11.30522 c 2.72689,0 4.488,1.93155 4.488,4.26076 h -9.17484 c 0,-2.32921 1.95995,-4.26076 4.68684,-4.26076 z m 15.33877,-1.98835 c -2.07357,0 -3.23818,1.36344 -4.00512,3.26658 h -0.0568 v -2.86891 h -2.2724 V 148 h 2.2724 v -7.72618 c 0,-3.09615 2.18719,-5.31174 5.34015,-4.80045 h 0.0568 v -2.27241 c -0.39767,-0.0568 -0.79534,-0.0852 -1.33503,-0.0852 z m 11.53248,2.13038 c 0,-2.69848 1.02258,-4.99929 4.4596,-4.99929 3.01093,0 3.74947,1.98835 3.74947,3.63584 0,2.86891 -1.81793,3.55064 -5.48218,5.68102 -3.60744,2.10197 -5.85144,4.88567 -5.85144,8.4363 h 13.60602 v -2.27241 H 185.862 v -0.0568 c 1.22141,-4.68683 10.79392,-5.0845 10.79392,-11.8165 0,-3.74947 -2.89732,-5.87985 -6.24911,-5.87985 -4.85727,0 -7.07286,3.20977 -7.07286,7.2717 z"
           id="MCP-Server-2"
           style="font-size:28.4051px;font-family:NeueMontreal-Regular, 'Neue Montreal';fill:#ffffff"
           aria-label="MCP Server 2" />
      </g>
      <g
         id="Group-23-Copy-3"
         transform="translate(408.000000, 46.000000)"
         fill="#8993FE">
        <rect
           id="Rectangle"
           x="0"
           y="0"
           width="194"
           height="118"
           rx="30" />
      </g>
      <g
         id="mcp-scan-tool-checke"
         style="font-size:24.4051px;font-family:NeueMontreal-Regular, 'Neue Montreal';fill:#ffffff"
         aria-label="mcp-scantool checker">
        <path
           d="m 467.51381,86.211747 c -1.87919,0 -3.17266,0.976202 -4.02683,2.147645 h -0.0488 c -0.51251,-1.391088 -1.53752,-2.147645 -3.31909,-2.147645 -1.87919,0 -2.95301,0.951797 -3.61195,1.830379 h -0.0488 v -1.488708 h -1.95241 V 99 h 1.95241 v -7.76081 c 0,-1.928 1.22025,-3.319089 3.17266,-3.319089 1.9524,0 2.26967,1.269063 2.26967,2.879798 V 99 h 1.9524 v -7.76081 c 0,-1.928 1.22026,-3.319089 3.17266,-3.319089 1.95241,0 2.26967,1.269063 2.26967,2.879798 V 99 h 1.95241 v -8.688203 c 0,-2.611341 -1.22026,-4.10005 -3.73398,-4.10005 z m 15.17993,4.832202 h 1.95241 c -0.29286,-2.782177 -2.3917,-4.832202 -5.46674,-4.832202 -3.63635,0 -6.02805,2.660152 -6.02805,6.564962 0,3.90481 2.3917,6.564962 6.02805,6.564962 3.07504,0 5.2959,-2.098836 5.46674,-4.929823 h -1.95241 c -0.0976,1.488709 -1.0006,3.221468 -3.51433,3.221468 -2.95301,0 -4.07564,-2.513721 -4.07564,-4.856607 0,-2.342886 1.12263,-4.856608 4.07564,-4.856608 2.48932,0 3.41671,1.757165 3.51433,3.123848 z m 9.78641,-4.832202 c -2.05002,0 -3.22147,0.927392 -3.95362,1.87919 h -0.0488 v -1.537519 h -1.9524 v 16.644252 h 1.9524 v -5.808404 h 0.0488 c 0.73215,1.073823 1.9036,1.952405 3.95362,1.952405 3.07504,0 5.56436,-2.464912 5.56436,-6.564962 0,-4.100051 -2.48932,-6.564962 -5.56436,-6.564962 z m -0.24405,11.421569 c -2.31848,0 -3.75838,-1.928 -3.75838,-4.856607 0,-2.928608 1.4399,-4.856608 3.75838,-4.856608 2.56253,0 3.856,2.416101 3.856,4.856608 0,2.440506 -1.29347,4.856607 -3.856,4.856607 z m 7.44354,-5.83281 v 1.952405 h 6.54056 v -1.952405 z m 13.86207,-0.19524 c -1.73276,-0.414886 -3.41671,-0.536912 -3.41671,-2.001215 0,-0.976203 0.9518,-1.68395 2.70897,-1.68395 2.34288,0 2.80658,1.244658 3.00182,2.196456 h 1.9524 c -0.19524,-2.147646 -1.85478,-3.90481 -4.95422,-3.90481 -2.92861,0 -4.66137,1.586329 -4.66137,3.538734 0,2.928608 2.83099,3.148253 4.73458,3.611949 1.78157,0.439291 3.41671,0.536912 3.41671,2.342886 0,0.829773 -0.82977,1.928 -2.95301,1.928 -3.12385,0 -3.61195,-1.391088 -3.73398,-2.782177 h -1.9524 c 0.12202,2.684557 1.87919,4.490532 5.68638,4.490532 2.83099,0 4.90542,-1.488709 4.90542,-3.75838 0,-3.075038 -2.51373,-3.441114 -4.73459,-3.978025 z m 15.71687,-0.561317 h 1.95241 c -0.29286,-2.782177 -2.3917,-4.832202 -5.46673,-4.832202 -3.63636,0 -6.02806,2.660152 -6.02806,6.564962 0,3.90481 2.3917,6.564962 6.02806,6.564962 3.07503,0 5.29589,-2.098836 5.46673,-4.929823 h -1.95241 c -0.0976,1.488709 -1.0006,3.221468 -3.51432,3.221468 -2.95302,0 -4.07565,-2.513721 -4.07565,-4.856607 0,-2.342886 1.12263,-4.856608 4.07565,-4.856608 2.48931,0 3.4167,1.757165 3.51432,3.123848 z m 11.69001,-1.317873 c 0,1.244658 -0.95179,1.513114 -3.05063,1.903595 -3.22147,0.610126 -5.3203,1.342278 -5.3203,4.173266 0,2.098835 1.58633,3.538734 4.10005,3.538734 2.05002,0 3.44111,-0.732152 4.22207,-1.903595 h 0.0488 c 0.34167,1.366683 1.04942,1.683949 2.22086,1.683949 0.36608,0 0.63454,-0.0244 1.14704,-0.19524 V 97.560101 C 543.07183,97.706532 542.901,97.16962 542.901,96.193418 v -6.052456 c 0,-3.001823 -2.12324,-3.929215 -4.49053,-3.929215 -3.61195,0 -5.10066,1.805974 -5.22269,4.197671 h 1.95241 c 0.12202,-1.805975 0.90299,-2.489317 3.27028,-2.489317 2.00121,0 2.53812,0.829772 2.53812,1.805975 z m -4.07564,7.90724 c -1.61074,0 -2.34289,-0.707746 -2.34289,-1.928 0,-1.488708 1.12264,-2.098835 3.53874,-2.611341 1.31787,-0.268456 2.51372,-0.610127 2.87979,-0.976203 v 2.07443 c 0,2.391697 -1.75716,3.441114 -4.07564,3.441114 z m 15.00912,-11.421569 c -2.12324,0 -3.44112,0.951797 -4.10005,1.830379 h -0.0488 V 86.553418 H 545.7808 V 99 h 1.95241 v -7.76081 c 0,-1.928 1.4643,-3.319089 3.66076,-3.319089 1.9524,0 2.70896,1.269063 2.70896,2.879798 V 99 h 1.9524 v -8.688203 c 0,-2.855392 -1.90359,-4.10005 -4.17326,-4.10005 z"
           id="path11" />
        <path
           d="m 447.47727,118.22665 v -1.70836 h -2.4405 v -4.14886 h -1.95241 v 4.14886 h -1.83038 v 1.70836 h 1.83038 v 7.68759 c 0,2.53813 1.26907,3.19706 2.92861,3.19706 0.51251,0 1.02501,-0.0488 1.4643,-0.14643 v -1.70835 c -1.65954,0.12203 -2.4405,-0.12203 -2.4405,-1.53752 v -7.49235 z m 7.32154,11.0799 c -3.80719,0 -6.10127,-2.68456 -6.10127,-6.56497 0,-3.8804 2.29408,-6.56496 6.10127,-6.56496 3.78278,0 6.07686,2.68456 6.07686,6.56496 0,3.88041 -2.29408,6.56497 -6.07686,6.56497 z m 0,-1.70836 c 2.78218,0 4.12445,-2.19646 4.12445,-4.85661 0,-2.66015 -1.34227,-4.8566 -4.12445,-4.8566 -2.80658,0 -4.14886,2.19645 -4.14886,4.8566 0,2.66015 1.34228,4.85661 4.14886,4.85661 z m 13.4472,1.70836 c -3.80719,0 -6.10126,-2.68456 -6.10126,-6.56497 0,-3.8804 2.29407,-6.56496 6.10126,-6.56496 3.78279,0 6.07686,2.68456 6.07686,6.56496 0,3.88041 -2.29407,6.56497 -6.07686,6.56497 z m 0,-1.70836 c 2.78218,0 4.12446,-2.19646 4.12446,-4.85661 0,-2.66015 -1.34228,-4.8566 -4.12446,-4.8566 -2.80658,0 -4.14886,2.19645 -4.14886,4.8566 0,2.66015 1.34228,4.85661 4.14886,4.85661 z m 8.1269,-16.08294 v 17.44962 h 1.95241 v -17.44962 z m 18.42582,9.49357 h 1.95241 c -0.29286,-2.78217 -2.3917,-4.8322 -5.46674,-4.8322 -3.63635,0 -6.02805,2.66015 -6.02805,6.56496 0,3.90481 2.3917,6.56497 6.02805,6.56497 3.07504,0 5.2959,-2.09884 5.46674,-4.92983 h -1.95241 c -0.0976,1.48871 -1.0006,3.22147 -3.51433,3.22147 -2.95301,0 -4.07564,-2.51372 -4.07564,-4.85661 0,-2.34288 1.12263,-4.8566 4.07564,-4.8566 2.48932,0 3.41671,1.75716 3.51433,3.12384 z m 9.93284,-4.8322 c -2.12324,0 -3.44111,0.9518 -4.10005,1.83038 h -0.0488 v -6.49175 h -1.9524 v 17.44962 h 1.9524 v -7.76081 c 0,-1.928 1.46431,-3.31908 3.66076,-3.31908 1.95241,0 2.70896,1.26906 2.70896,2.87979 v 8.2001 h 1.95241 v -8.6882 c 0,-2.85539 -1.9036,-4.10005 -4.17327,-4.10005 z m 12.0805,11.42157 c -2.70896,0 -4.05124,-2.09883 -4.05124,-4.3441 h 9.83524 c 0,-4.41732 -1.90359,-7.07747 -5.8084,-7.07747 -3.63636,0 -5.97924,2.4161 -5.97924,6.56496 0,3.90481 2.29407,6.56497 6.07686,6.56497 3.09944,0 4.88101,-1.85479 5.51554,-4.17327 h -1.9524 c -0.21965,0.85418 -1.14704,2.46491 -3.63636,2.46491 z m -0.0244,-9.71321 c 2.34289,0 3.856,1.65954 3.856,3.66075 h -7.88284 c 0,-2.00121 1.68395,-3.66075 4.02684,-3.66075 z m 16.57107,3.12384 h 1.9524 c -0.29286,-2.78217 -2.3917,-4.8322 -5.46673,-4.8322 -3.63636,0 -6.02805,2.66015 -6.02805,6.56496 0,3.90481 2.39169,6.56497 6.02805,6.56497 3.07503,0 5.29589,-2.09884 5.46673,-4.92983 h -1.9524 c -0.0976,1.48871 -1.00061,3.22147 -3.51433,3.22147 -2.95302,0 -4.07565,-2.51372 -4.07565,-4.85661 0,-2.34288 1.12263,-4.8566 4.07565,-4.8566 2.48931,0 3.41671,1.75716 3.51433,3.12384 z m 3.83157,-9.49357 v 17.44962 h 1.9524 v -4.90541 l 1.928,-1.78157 4.41732,6.68698 h 2.31848 l -5.36911,-7.83402 4.8566,-4.61256 h -2.4405 l -5.71079,5.34471 v -10.34775 z m 16.49781,16.08294 c -2.70896,0 -4.05124,-2.09883 -4.05124,-4.3441 h 9.83524 c 0,-4.41732 -1.9036,-7.07747 -5.80841,-7.07747 -3.63635,0 -5.97924,2.4161 -5.97924,6.56496 0,3.90481 2.29408,6.56497 6.07686,6.56497 3.09945,0 4.88102,-1.85479 5.51555,-4.17327 h -1.95241 c -0.21964,0.85418 -1.14703,2.46491 -3.63635,2.46491 z m -0.0244,-9.71321 c 2.34289,0 3.856,1.65954 3.856,3.66075 h -7.88283 c 0,-2.00121 1.68395,-3.66075 4.02683,-3.66075 z m 13.17877,-1.70836 c -1.78157,0 -2.78218,1.17144 -3.44112,2.80658 h -0.0488 v -2.46491 h -1.9524 v 12.44658 h 1.9524 v -6.63817 c 0,-2.66015 1.87919,-4.56375 4.58815,-4.12446 h 0.0488 v -1.9524 c -0.34167,-0.0488 -0.68334,-0.0732 -1.14703,-0.0732 z"
           id="path12" />
      </g>
      <g
         id="Group-4"
         transform="translate(367.000000, 110.000000) rotate(-90.000000) translate(-367.000000, -110.000000) translate(336.500000, 79.500000)">
        <g
           id="Group"
           transform="translate(30.500000, 30.500000) rotate(90.000000) translate(-30.500000, -30.500000) translate(0.000000, -0.000000)">
          <circle
             id="Oval"
             fill="#BDB8FF"
             cx="30.5"
             cy="30.5"
             r="30.5" />
          <g
             id="arrow-right-2"
             transform="translate(15.000000, 19.000000)"
             fill="#2F2E6B"
             fill-rule="nonzero">
            <g
               id="arrow-right">
              <path
                 d="M19.9921381,0.460513832 C20.5468652,-0.102336407 21.4175337,-0.149240594 22.0249178,0.319801272 L22.1836051,0.460513832 L27.8382594,6.19797133 C30.6244988,9.02490043 30.7173735,13.5468947 28.1169058,16.501991 L27.8382842,16.8019674 L22.1836085,22.5394827 C21.5784535,23.153503 20.5973003,23.1535062 19.9921415,22.5394897 C19.4374126,21.9766412 19.3911826,21.0932233 19.8534534,20.4769436 L19.9921346,20.3159322 L25.6436974,14.5815844 C27.2436392,12.9489406 27.3163638,10.3670434 25.8645817,8.65936117 L25.6468138,8.4215505 L19.9921381,2.68407131 C19.3869812,2.07005287 19.3869812,1.07453228 19.9921381,0.460513832 Z"
                 id="Path" />
              <path
                 d="M21.1052908,9.92365857 C21.9611119,9.92365857 22.654892,10.6275979 22.654892,11.4959511 C22.654892,12.2975079 22.0637421,12.9589725 21.2996695,13.0559933 L21.1052908,13.0682437 L1.54960118,13.0682437 C0.693780081,13.0682437 0,12.3643043 0,11.4959511 C0,10.6943943 0.591149892,10.0329298 1.3552225,9.93590896 L1.54960118,9.92365857 L21.1052908,9.92365857 Z"
                 id="path5" />
            </g>
          </g>
        </g>
      </g>
      <g
         id="Group-39"
         transform="translate(0.000000, 77.000000)">
        <g
           id="Group-23"
           fill="#E1E1E1">
          <rect
             id="rect5"
             x="0"
             y="0"
             width="326"
             height="66"
             rx="7" />
        </g>
        <path
           d="M 43.720245,33.790546 33.34574,40.018023 v -2.03884 l 8.321796,-4.951469 -8.321796,-5.076295 v -1.997231 l 10.374505,6.171999 z M 79.004661,43 h -2.163667 v -9.486847 q 0,-3.439676 -1.276008,-3.439676 -0.651874,0 -1.442445,1.192791 -0.776701,1.178921 -0.776701,1.303748 V 43 h -2.149797 v -9.486847 q 0,-3.439676 -1.289879,-3.439676 -0.638004,0 -1.428575,1.192791 -0.7767,1.178921 -0.7767,1.303748 V 43 H 65.537222 V 28.547814 h 2.080449 v 2.177537 q 0.610265,-1.151182 1.442444,-1.830795 0.846049,-0.693483 1.678229,-0.693483 0.873789,0 1.567272,0.693483 0.693483,0.679613 0.957006,1.830795 0.610265,-1.151182 1.456314,-1.830795 0.84605,-0.693483 1.66436,-0.693483 2.621365,0 2.621365,4.687945 z m 15.85302,-0.485438 q -1.886273,0.859919 -4.147028,0.859919 -3.411936,0 -5.450776,-2.06658 -2.024971,-2.080449 -2.024971,-5.520124 0,-3.439676 2.03884,-5.506255 2.05271,-2.080449 5.381428,-2.080449 2.177537,0 4.147029,0.762831 l -0.568656,1.789186 q -1.969492,-0.679613 -3.550633,-0.679613 -2.385582,0 -3.786417,1.539532 -1.386966,1.539532 -1.386966,4.174768 0,2.413321 1.442444,4.06381 1.442445,1.63662 3.758678,1.63662 1.830795,0 3.772548,-0.707353 z M 102.9853,30.420218 q 0.72123,-0.998615 1.94176,-1.60888 1.2344,-0.610265 2.59362,-0.610265 2.49654,0 3.91125,2.066579 1.42857,2.05271 1.42857,5.353689 0,3.328718 -1.49792,5.547864 -1.48405,2.205276 -4.00833,2.205276 -1.34536,0 -2.52428,-0.665744 -1.16505,-0.679613 -1.84467,-1.789186 V 48.7143 h -2.16366 V 28.547814 h 2.16366 z m 0,2.149798 v 6.005562 q 0.61027,1.220531 1.65049,2.03884 1.04023,0.81831 2.1498,0.81831 1.74758,0 2.77393,-1.636619 1.04023,-1.63662 1.04023,-4.063811 0,-2.496539 -0.98475,-4.07768 -0.98474,-1.581141 -2.74619,-1.581141 -2.28849,0 -3.88351,2.496539 z m 24.39674,3.67546 h -8.23858 v -2.108189 h 8.23858 z m 17.15676,-5.631082 q -1.81692,-0.596396 -3.4258,-0.596396 -1.76145,0 -2.7878,0.596396 -1.02636,0.582525 -1.02636,1.567271 0,0.624135 0.47157,1.095703 0.47157,0.457699 1.88627,0.859919 l 2.06658,0.596396 q 1.42858,0.40222 2.3301,0.970876 0.90153,0.554786 1.34536,1.359227 0.4577,0.79057 0.4577,1.844664 0,2.06658 -1.73371,3.27324 -1.7337,1.192791 -4.41055,1.192791 -2.66297,0 -4.39668,-0.80444 l 0.41609,-1.872405 q 1.81692,0.859919 3.89737,0.859919 1.80306,0 2.9265,-0.665743 1.13731,-0.679614 1.13731,-1.789186 0,-0.748962 -0.56865,-1.331488 -0.55479,-0.596395 -2.63524,-1.2344 -1.67823,-0.513177 -2.4688,-0.762831 -0.79057,-0.263523 -1.47018,-0.762831 -0.67961,-0.499308 -1.04023,-1.192791 -0.34674,-0.693483 -0.34674,-1.553402 0,-1.872404 1.63662,-2.968107 1.63662,-1.095703 4.34121,-1.095703 1.74757,0 3.8835,0.596395 z m 18.50213,11.900168 q -1.88627,0.859919 -4.14703,0.859919 -3.41193,0 -5.45077,-2.06658 -2.02497,-2.080449 -2.02497,-5.520124 0,-3.439676 2.03884,-5.506255 2.05271,-2.080449 5.38142,-2.080449 2.17754,0 4.14703,0.762831 l -0.56865,1.789186 q -1.96949,-0.679613 -3.55064,-0.679613 -2.38558,0 -3.78641,1.539532 -1.38697,1.539532 -1.38697,4.174768 0,2.413321 1.44245,4.06381 1.44244,1.63662 3.75867,1.63662 1.8308,0 3.77255,-0.707353 z M 180.50284,43 h -2.1498 q -0.26352,-0.873789 -0.26352,-2.330103 -1.84467,2.704584 -5.02082,2.704584 -1.60888,0 -2.84328,-1.137312 -1.22053,-1.151182 -1.22053,-2.954238 0,-1.067964 0.42996,-1.886274 0.42996,-0.81831 1.26214,-1.373096 0.83218,-0.568656 2.02497,-0.887658 1.19279,-0.332872 2.82941,-0.457699 l 2.42719,-0.194175 v -0.693483 q 0,-3.717069 -3.46742,-3.717069 -0.81831,0 -2.08045,0.360611 -1.24827,0.346742 -2.14979,0.83218 l -0.56866,-1.553402 q 2.95424,-1.511793 5.49239,-1.511793 4.93759,0 4.93759,5.228862 v 6.213607 q 0,1.886274 0.36062,3.356458 z m -2.52428,-4.285725 v -2.621366 q -2.9265,0.263524 -4.0222,0.499308 -1.08184,0.221915 -1.88628,0.846049 -0.79057,0.624135 -0.79057,1.692099 0,0.970876 0.67962,1.567271 0.67961,0.596396 1.7337,0.596396 1.15118,0 2.2885,-0.679614 1.13731,-0.693483 1.99723,-1.900143 z M 197.18803,43 h -2.16367 v -9.264933 q 0,-1.927883 -0.62413,-2.787802 -0.61026,-0.873788 -1.92788,-0.873788 -1.98336,0 -4.25799,2.468799 V 43 h -2.16367 V 28.547814 h 2.16367 v 2.122058 q 2.3301,-2.468799 4.90986,-2.468799 4.06381,0 4.06381,4.909859 z m 32.57984,-12.385606 q -1.81693,-0.596396 -3.42581,-0.596396 -1.76144,0 -2.7878,0.596396 -1.02635,0.582525 -1.02635,1.567271 0,0.624135 0.47156,1.095703 0.47157,0.457699 1.88628,0.859919 l 2.06658,0.596396 q 1.42857,0.40222 2.3301,0.970876 0.90153,0.554786 1.34536,1.359227 0.4577,0.79057 0.4577,1.844664 0,2.06658 -1.73371,3.27324 -1.73371,1.192791 -4.41055,1.192791 -2.66298,0 -4.39669,-0.80444 l 0.41609,-1.872405 q 1.81693,0.859919 3.89738,0.859919 1.80305,0 2.9265,-0.665743 1.13731,-0.679614 1.13731,-1.789186 0,-0.748962 -0.56866,-1.331488 -0.55478,-0.596395 -2.63523,-1.2344 -1.67823,-0.513177 -2.4688,-0.762831 -0.79057,-0.263523 -1.47019,-0.762831 -0.67961,-0.499308 -1.04022,-1.192791 -0.34674,-0.693483 -0.34674,-1.553402 0,-1.872404 1.63662,-2.968107 1.63662,-1.095703 4.3412,-1.095703 1.74758,0 3.88351,0.596395 z m 18.50212,11.900168 q -1.88627,0.859919 -4.14703,0.859919 -3.41194,0 -5.45078,-2.06658 -2.02497,-2.080449 -2.02497,-5.520124 0,-3.439676 2.03884,-5.506255 2.05271,-2.080449 5.38143,-2.080449 2.17754,0 4.14703,0.762831 l -0.56866,1.789186 q -1.96949,-0.679613 -3.55063,-0.679613 -2.38558,0 -3.78642,1.539532 -1.38696,1.539532 -1.38696,4.174768 0,2.413321 1.44244,4.06381 1.44245,1.63662 3.75868,1.63662 1.8308,0 3.77255,-0.707353 z M 265.7319,43 h -2.1498 q -0.26352,-0.873789 -0.26352,-2.330103 -1.84466,2.704584 -5.02082,2.704584 -1.60888,0 -2.84328,-1.137312 -1.22053,-1.151182 -1.22053,-2.954238 0,-1.067964 0.42996,-1.886274 0.42996,-0.81831 1.26214,-1.373096 0.83218,-0.568656 2.02497,-0.887658 1.19279,-0.332872 2.82941,-0.457699 l 2.42719,-0.194175 v -0.693483 q 0,-3.717069 -3.46741,-3.717069 -0.81831,0 -2.08045,0.360611 -1.24827,0.346742 -2.1498,0.83218 l -0.56865,-1.553402 q 2.95423,-1.511793 5.49238,-1.511793 4.9376,0 4.9376,5.228862 v 6.213607 q 0,1.886274 0.36061,3.356458 z m -2.52428,-4.285725 v -2.621366 q -2.9265,0.263524 -4.0222,0.499308 -1.08183,0.221915 -1.88627,0.846049 -0.79057,0.624135 -0.79057,1.692099 0,0.970876 0.67961,1.567271 0.67961,0.596396 1.73371,0.596396 1.15118,0 2.28849,-0.679614 1.13731,-0.693483 1.99723,-1.900143 z M 282.4171,43 h -2.16367 v -9.264933 q 0,-1.927883 -0.62413,-2.787802 -0.61027,-0.873788 -1.92789,-0.873788 -1.98336,0 -4.25798,2.468799 V 43 h -2.16367 V 28.547814 h 2.16367 v 2.122058 q 2.3301,-2.468799 4.90986,-2.468799 4.06381,0 4.06381,4.909859 z"
           id="&gt;-mcp-scan-scan"
           style="font-size:28.4051px;font-family:AndaleMono, 'Andale Mono';fill:#303030"
           aria-label="&gt; mcp-scan scan" />
      </g>
      <g
         id="Group-4-Copy"
         transform="translate(643.000000, 104.500000) rotate(-90.000000) translate(-643.000000, -104.500000) translate(583.000000, 74.000000)">
        <g
           id="g9"
           transform="translate(89.500000, 30.500000) rotate(90.000000) translate(-89.500000, -30.500000) translate(59.000000, -0.000000)">
          <circle
             id="circle6"
             fill="#BDB8FF"
             cx="30.5"
             cy="30.5"
             r="30.5" />
          <g
             id="g8"
             transform="translate(15.000000, 19.000000)"
             fill="#2F2E6B"
             fill-rule="nonzero">
            <g
               id="g7">
              <path
                 d="M19.9921381,0.460513832 C20.5468652,-0.102336407 21.4175337,-0.149240594 22.0249178,0.319801272 L22.1836051,0.460513832 L27.8382594,6.19797133 C30.6244988,9.02490043 30.7173735,13.5468947 28.1169058,16.501991 L27.8382842,16.8019674 L22.1836085,22.5394827 C21.5784535,23.153503 20.5973003,23.1535062 19.9921415,22.5394897 C19.4374126,21.9766412 19.3911826,21.0932233 19.8534534,20.4769436 L19.9921346,20.3159322 L25.6436974,14.5815844 C27.2436392,12.9489406 27.3163638,10.3670434 25.8645817,8.65936117 L25.6468138,8.4215505 L19.9921381,2.68407131 C19.3869812,2.07005287 19.3869812,1.07453228 19.9921381,0.460513832 Z"
                 id="path6" />
              <path
                 d="M21.1052908,9.92365857 C21.9611119,9.92365857 22.654892,10.6275979 22.654892,11.4959511 C22.654892,12.2975079 22.0637421,12.9589725 21.2996695,13.0559933 L21.1052908,13.0682437 L1.54960118,13.0682437 C0.693780081,13.0682437 0,12.3643043 0,11.4959511 C0,10.6943943 0.591149892,10.0329298 1.3552225,9.93590896 L1.54960118,9.92365857 L21.1052908,9.92365857 Z"
                 id="path7" />
            </g>
          </g>
        </g>
        <g
           id="Group-Copy-5"
           transform="translate(30.500000, 30.500000) rotate(-90.000000) translate(-30.500000, -30.500000) translate(0.000000, 0.000000)">
          <g
             id="Group-53"
             transform="translate(30.500000, 30.500000) rotate(180.000000) translate(-30.500000, -30.500000) translate(0.000000, -0.000000)">
            <circle
               id="circle9"
               fill="#BDB8FF"
               cx="30.5"
               cy="30.5"
               r="30.5" />
            <g
               id="g11"
               transform="translate(15.000000, 19.000000)"
               fill="#2F2E6B"
               fill-rule="nonzero">
              <g
                 id="g10">
                <path
                   d="M19.9921381,0.460513832 C20.5468652,-0.102336407 21.4175337,-0.149240594 22.0249178,0.319801272 L22.1836051,0.460513832 L27.8382594,6.19797133 C30.6244988,9.02490043 30.7173735,13.5468947 28.1169058,16.501991 L27.8382842,16.8019674 L22.1836085,22.5394827 C21.5784535,23.153503 20.5973003,23.1535062 19.9921415,22.5394897 C19.4374126,21.9766412 19.3911826,21.0932233 19.8534534,20.4769436 L19.9921346,20.3159322 L25.6436974,14.5815844 C27.2436392,12.9489406 27.3163638,10.3670434 25.8645817,8.65936117 L25.6468138,8.4215505 L19.9921381,2.68407131 C19.3869812,2.07005287 19.3869812,1.07453228 19.9921381,0.460513832 Z"
                   id="path9" />
                <path
                   d="M21.1052908,9.92365857 C21.9611119,9.92365857 22.654892,10.6275979 22.654892,11.4959511 C22.654892,12.2975079 22.0637421,12.9589725 21.2996695,13.0559933 L21.1052908,13.0682437 L1.54960118,13.0682437 C0.693780081,13.0682437 0,12.3643043 0,11.4959511 C0,10.6943943 0.591149892,10.0329298 1.3552225,9.93590896 L1.54960118,9.92365857 L21.1052908,9.92365857 Z"
                   id="path10" />
              </g>
            </g>
          </g>
        </g>
      </g>
    </g>
  </g>
</svg>
