<?xml version="1.0" encoding="UTF-8" standalone="no"?>
<svg
   width="398px"
   height="705px"
   viewBox="0 0 398 705"
   version="1.1"
   id="svg6"
   xmlns="http://www.w3.org/2000/svg"
   xmlns:svg="http://www.w3.org/2000/svg">
  <defs
     id="defs6" />
  <title
     id="title1">Group 24</title>
  <g
     id="Page-2"
     stroke="none"
     stroke-width="1"
     fill="none"
     fill-rule="evenodd">
    <g
       id="Group-24">
      <rect
         id="Rectangle-Copy-9"
         fill="#F3F3F3"
         x="0"
         y="42"
         width="398"
         height="663"
         rx="30" />
      <path
         d="m 135.13669,354 h 2.55646 v -8.20906 h 5.82303 c 5.14132,0 3.20978,7.35691 4.09033,8.20906 h 2.75529 v -0.17043 c -1.05098,-0.34086 0.59651,-8.32268 -3.91989,-9.20324 v -0.0568 c 2.244,-0.5681 3.63584,-2.18719 3.63584,-5.11291 0,-3.60745 -2.69848,-5.76623 -6.70359,-5.76623 h -8.23747 z m 2.55646,-18.03722 h 5.0845 c 2.10198,0 4.74365,0.25565 4.74365,3.77788 0,3.52223 -2.64167,3.77787 -4.74365,3.77787 h -5.0845 z m 21.10496,16.44654 c -3.15296,0 -4.71524,-2.44284 -4.71524,-5.0561 h 11.44724 c 0,-5.14132 -2.21559,-8.23747 -6.7604,-8.23747 -4.23235,0 -6.95924,2.8121 -6.95924,7.64096 0,4.54481 2.67008,7.64096 7.07286,7.64096 3.60744,0 5.68101,-2.15878 6.41954,-4.85726 h -2.2724 c -0.25565,0.99417 -1.33504,2.86891 -4.23236,2.86891 z m -0.0284,-11.30522 c 2.72689,0 4.488,1.93155 4.488,4.26076 h -9.17484 c 0,-2.32921 1.95995,-4.26076 4.68684,-4.26076 z m 17.86681,2.10198 c 0,1.44865 -1.10779,1.76111 -3.55063,2.21559 -3.74947,0.71013 -6.1923,1.56228 -6.1923,4.85727 0,2.44283 1.84633,4.11873 4.77205,4.11873 2.38602,0 4.00511,-0.85215 4.91407,-2.21559 h 0.0568 c 0.39767,1.59068 1.22142,1.95995 2.58486,1.95995 0.42608,0 0.73854,-0.0284 1.33504,-0.22725 v -1.59068 c -1.44866,0.17043 -1.64749,-0.45448 -1.64749,-1.59068 v -7.04446 c 0,-3.49382 -2.47124,-4.57321 -5.22653,-4.57321 -4.20395,0 -5.93666,2.10197 -6.07869,4.88567 h 2.27241 c 0.14202,-2.10198 1.05099,-2.89732 3.80628,-2.89732 2.32921,0 2.95412,0.96577 2.95412,2.10198 z m -4.74364,9.20324 c -1.87474,0 -2.72689,-0.82375 -2.72689,-2.244 0,-1.73271 1.30663,-2.44284 4.11874,-3.03935 1.53387,-0.31245 2.92572,-0.71012 3.35179,-1.1362 v 2.41443 c 0,2.7837 -2.04516,4.00512 -4.74364,4.00512 z m 16.2477,-7.01605 c -2.01676,-0.48289 -3.97671,-0.62492 -3.97671,-2.32922 0,-1.1362 1.1078,-1.95995 3.15296,-1.95995 2.72689,0 3.26658,1.44866 3.49382,2.55646 h 2.27241 c -0.22724,-2.49965 -2.15879,-4.54481 -5.76623,-4.54481 -3.40861,0 -5.42537,1.84633 -5.42537,4.11873 0,3.40861 3.29499,3.66425 5.51059,4.20395 2.07357,0.51129 3.97671,0.62491 3.97671,2.72689 0,0.96577 -0.96578,2.244 -3.43702,2.244 -3.63584,0 -4.20395,-1.61909 -4.34597,-3.23818 h -2.27241 c 0.14203,3.12456 2.18719,5.22653 6.61838,5.22653 3.29499,0 5.70942,-1.73271 5.70942,-4.37438 0,-3.57904 -2.92572,-4.00511 -5.51058,-4.63002 z m 14.28776,9.0044 c -4.43119,0 -7.10127,-3.12456 -7.10127,-7.64096 0,-4.51641 2.67008,-7.64096 7.10127,-7.64096 4.40278,0 7.07286,3.12455 7.07286,7.64096 0,4.5164 -2.67008,7.64096 -7.07286,7.64096 z m 0,-1.98835 c 3.23817,0 4.80045,-2.55646 4.80045,-5.65261 0,-3.09615 -1.56228,-5.65261 -4.80045,-5.65261 -3.26659,0 -4.82886,2.55646 -4.82886,5.65261 0,3.09615 1.56227,5.65261 4.82886,5.65261 z m 16.47495,-13.29357 c -2.47124,0 -4.00511,1.10779 -4.77205,2.13038 h -0.0568 v -1.73271 h -2.27241 V 354 h 2.27241 v -9.03281 c 0,-2.244 1.7043,-3.86309 4.26076,-3.86309 2.2724,0 3.15296,1.47706 3.15296,3.3518 V 354 h 2.27241 v -10.1122 c 0,-3.3234 -2.2156,-4.77205 -4.85727,-4.77205 z m 9.31686,-2.41443 c 0.65332,0 1.42025,-0.48289 1.42025,-1.36345 0,-0.88055 -0.76693,-1.36344 -1.42025,-1.36344 -0.62491,0 -1.42025,0.48289 -1.42025,1.36344 0,0.88056 0.79534,1.36345 1.42025,1.36345 z m -1.1362,2.8121 V 354 h 2.2724 v -14.48658 z m 12.78225,-0.39767 c -2.47124,0 -4.00512,1.10779 -4.77205,2.13038 h -0.0568 v -1.73271 h -2.27241 V 354 h 2.27241 v -9.03281 c 0,-2.244 1.7043,-3.86309 4.26076,-3.86309 2.2724,0 3.15296,1.47706 3.15296,3.3518 V 354 h 2.2724 v -10.1122 c 0,-3.3234 -2.21559,-4.77205 -4.85726,-4.77205 z m 18.20764,0.39767 v 1.78952 h -0.0568 c -0.85215,-1.1078 -2.2156,-2.18719 -4.60162,-2.18719 -3.57904,0 -6.47635,2.30081 -6.47635,7.07286 0,4.77205 2.89731,7.07286 6.47635,7.07286 2.38602,0 3.74947,-1.02258 4.60162,-2.27241 h 0.0568 v 2.18719 c 0,2.69848 -1.56228,3.86309 -4.26076,3.86309 -2.69848,0 -3.89149,-1.1078 -4.17554,-2.58486 h -2.27241 c 0.22724,2.47124 2.58486,4.57322 6.56157,4.57322 3.97671,0 6.41955,-1.95995 6.41955,-5.82304 v -13.69124 z m -4.37438,11.75969 c -2.98253,0 -4.488,-2.244 -4.488,-5.0845 0,-2.84051 1.50547,-5.08451 4.488,-5.08451 2.69848,0 4.37438,1.6759 4.37438,5.08451 0,3.40861 -1.6759,5.0845 -4.37438,5.0845 z"
         id="Reasoning-Copy"
         style="font-size:28.4051px;font-family:NeueMontreal-Regular, 'Neue Montreal';opacity:0.514648;fill:#333333"
         aria-label="Reasoning" />
      <circle
         id="Oval"
         fill="#BDB8FF"
         transform="translate(196.913000, 231.000000) rotate(90.000000) translate(-196.913000, -231.000000) "
         cx="196.913"
         cy="231"
         r="30.5" />
      <path
         d="M192.136003,229.229649 C192.69073,228.666799 193.561399,228.619895 194.168783,229.088936 L194.32747,229.229649 L199.982124,234.967107 C202.768364,237.794036 202.861238,242.31603 200.260771,245.271126 L199.982149,245.571103 L194.327473,251.308618 C193.722318,251.922638 192.741165,251.922641 192.136006,251.308625 C191.581277,250.745776 191.535047,249.862359 191.997318,249.246079 L192.135999,249.085067 L197.787562,243.35072 C199.387504,241.718076 199.460229,239.136179 198.008446,237.428496 L197.790679,237.190686 L192.136003,231.453207 C191.530846,230.839188 191.530846,229.843667 192.136003,229.229649 Z"
         id="Path"
         fill="#2F2E6B"
         fill-rule="nonzero"
         transform="translate(196.913000, 240.269135) rotate(90.000000) translate(-196.913000, -240.269135) " />
      <path
         d="M206.694894,225.255153 C207.550715,225.255153 208.244495,225.959093 208.244495,226.827446 C208.244495,227.629003 207.653345,228.290467 206.889272,228.387488 L206.694894,228.399739 L187.139204,228.399739 C186.283383,228.399739 185.589603,227.695799 185.589603,226.827446 C185.589603,226.025889 186.180753,225.364425 186.944825,225.267404 L187.139204,225.255153 L206.694894,225.255153 Z"
         id="path1"
         fill="#2F2E6B"
         fill-rule="nonzero"
         transform="translate(196.917049, 226.827446) rotate(90.000000) translate(-196.917049, -226.827446) " />
      <rect
         id="Rectangle"
         fill="#BCC2FF"
         x="22"
         y="569"
         width="350"
         height="108"
         rx="30" />
      <rect
         id="rect1"
         fill="#E2E2E2"
         x="22"
         y="289"
         width="350"
         height="108"
         rx="30" />
      <path
         d="M 96.676225,348.91549 98.465744,354 h 2.641676 L 93.636883,333.69038 H 90.796377 L 83.29744,354 h 2.641671 l 1.789519,-5.08451 z m -8.095443,-2.2724 3.607443,-10.59509 h 0.05681 l 3.607443,10.59509 z m 20.110788,-1.24982 c -2.01676,-0.48289 -3.97671,-0.62492 -3.97671,-2.32922 0,-1.1362 1.1078,-1.95995 3.15297,-1.95995 2.72688,0 3.26658,1.44866 3.49382,2.55646 h 2.2724 c -0.22724,-2.49965 -2.15878,-4.54481 -5.76622,-4.54481 -3.40861,0 -5.42537,1.84633 -5.42537,4.11873 0,3.40861 3.29499,3.66425 5.51058,4.20395 2.07357,0.51129 3.97671,0.62491 3.97671,2.72689 0,0.96577 -0.96577,2.244 -3.43701,2.244 -3.63585,0 -4.20395,-1.61909 -4.34598,-3.23818 h -2.2724 c 0.14202,3.12456 2.18719,5.22653 6.61838,5.22653 3.29499,0 5.70942,-1.73271 5.70942,-4.37438 0,-3.57904 -2.92573,-4.00511 -5.51059,-4.63002 z m 13.60603,0 c -2.01676,-0.48289 -3.97671,-0.62492 -3.97671,-2.32922 0,-1.1362 1.1078,-1.95995 3.15296,-1.95995 2.72689,0 3.26659,1.44866 3.49383,2.55646 h 2.2724 c -0.22724,-2.49965 -2.15878,-4.54481 -5.76623,-4.54481 -3.4086,0 -5.42536,1.84633 -5.42536,4.11873 0,3.40861 3.29498,3.66425 5.51058,4.20395 2.07357,0.51129 3.97671,0.62491 3.97671,2.72689 0,0.96577 -0.96577,2.244 -3.43701,2.244 -3.63585,0 -4.20395,-1.61909 -4.34598,-3.23818 h -2.2724 c 0.14202,3.12456 2.18719,5.22653 6.61838,5.22653 3.29498,0 5.70941,-1.73271 5.70941,-4.37438 0,-3.57904 -2.92572,-4.00511 -5.51058,-4.63002 z m 9.14643,-8.69195 c 0.65332,0 1.42026,-0.48289 1.42026,-1.36345 0,-0.88055 -0.76694,-1.36344 -1.42026,-1.36344 -0.62491,0 -1.42025,0.48289 -1.42025,1.36344 0,0.88056 0.79534,1.36345 1.42025,1.36345 z m -1.1362,2.8121 V 354 h 2.27241 v -14.48658 z m 11.56084,5.87985 c -2.01676,-0.48289 -3.97671,-0.62492 -3.97671,-2.32922 0,-1.1362 1.1078,-1.95995 3.15296,-1.95995 2.72689,0 3.26658,1.44866 3.49382,2.55646 h 2.27241 c -0.22724,-2.49965 -2.15879,-4.54481 -5.76623,-4.54481 -3.40861,0 -5.42537,1.84633 -5.42537,4.11873 0,3.40861 3.29499,3.66425 5.51059,4.20395 2.07357,0.51129 3.9767,0.62491 3.9767,2.72689 0,0.96577 -0.96577,2.244 -3.43701,2.244 -3.63585,0 -4.20395,-1.61909 -4.34597,-3.23818 h -2.27241 c 0.14203,3.12456 2.18719,5.22653 6.61838,5.22653 3.29499,0 5.70942,-1.73271 5.70942,-4.37438 0,-3.57904 -2.92572,-4.00511 -5.51058,-4.63002 z m 13.74804,-3.8915 v -1.98835 h -2.8405 v -4.82886 h -2.27241 v 4.82886 h -2.13038 v 1.98835 h 2.13038 v 8.9476 c 0,2.95412 1.47707,3.72106 3.40861,3.72106 0.59651,0 1.19301,-0.0568 1.7043,-0.17043 v -1.98835 c -1.93154,0.14202 -2.8405,-0.14203 -2.8405,-1.78952 v -8.72036 z m 11.2484,1.70431 c 0,1.44865 -1.1078,1.76111 -3.55063,2.21559 -3.74947,0.71013 -6.19231,1.56228 -6.19231,4.85727 0,2.44283 1.84633,4.11873 4.77205,4.11873 2.38603,0 4.00512,-0.85215 4.91408,-2.21559 h 0.0568 c 0.39767,1.59068 1.22142,1.95995 2.58486,1.95995 0.42608,0 0.73853,-0.0284 1.33504,-0.22725 v -1.59068 c -1.44866,0.17043 -1.64749,-0.45448 -1.64749,-1.59068 v -7.04446 c 0,-3.49382 -2.47124,-4.57321 -5.22654,-4.57321 -4.20395,0 -5.93665,2.10197 -6.07868,4.88567 h 2.27241 c 0.14202,-2.10198 1.05098,-2.89732 3.80627,-2.89732 2.32922,0 2.95413,0.96577 2.95413,2.10198 z m -4.74364,9.20324 c -1.87474,0 -2.72689,-0.82375 -2.72689,-2.244 0,-1.73271 1.30663,-2.44284 4.11873,-3.03935 1.53388,-0.31245 2.92572,-0.71012 3.3518,-1.1362 v 2.41443 c 0,2.7837 -2.04516,4.00512 -4.74364,4.00512 z m 17.46911,-13.29357 c -2.47124,0 -4.00511,1.10779 -4.77205,2.13038 h -0.0568 v -1.73271 h -2.2724 V 354 h 2.2724 v -9.03281 c 0,-2.244 1.70431,-3.86309 4.26076,-3.86309 2.27241,0 3.15297,1.47706 3.15297,3.3518 V 354 h 2.2724 v -10.1122 c 0,-3.3234 -2.21559,-4.77205 -4.85727,-4.77205 z m 13.91848,2.38602 v -1.98835 h -2.84051 v -4.82886 h -2.2724 v 4.82886 h -2.13038 v 1.98835 h 2.13038 v 8.9476 c 0,2.95412 1.47706,3.72106 3.4086,3.72106 0.59651,0 1.19302,-0.0568 1.70431,-0.17043 v -1.98835 c -1.93155,0.14202 -2.84051,-0.14203 -2.84051,-1.78952 v -8.72036 z M 201.91697,354 h 2.55646 v -16.70218 h 0.0568 L 210.66573,354 h 2.27241 l 6.13549,-16.70218 h 0.0568 V 354 h 2.55646 v -20.30962 h -3.49383 l -6.36273,16.87261 h -0.0568 l -6.36274,-16.87261 h -3.49382 z m 29.6833,-1.59068 c -3.15296,0 -4.71524,-2.44284 -4.71524,-5.0561 h 11.44724 c 0,-5.14132 -2.2156,-8.23747 -6.76041,-8.23747 -4.23235,0 -6.95924,2.8121 -6.95924,7.64096 0,4.54481 2.67008,7.64096 7.07286,7.64096 3.60745,0 5.68102,-2.15878 6.41955,-4.85726 h -2.27241 c -0.25564,0.99417 -1.33503,2.86891 -4.23235,2.86891 z m -0.0284,-11.30522 c 2.72689,0 4.488,1.93155 4.488,4.26076 h -9.17483 c 0,-2.32921 1.95995,-4.26076 4.68683,-4.26076 z m 14.88428,4.28917 c -2.01676,-0.48289 -3.97671,-0.62492 -3.97671,-2.32922 0,-1.1362 1.1078,-1.95995 3.15297,-1.95995 2.72688,0 3.26658,1.44866 3.49382,2.55646 h 2.2724 c -0.22724,-2.49965 -2.15878,-4.54481 -5.76622,-4.54481 -3.40861,0 -5.42537,1.84633 -5.42537,4.11873 0,3.40861 3.29499,3.66425 5.51058,4.20395 2.07357,0.51129 3.97671,0.62491 3.97671,2.72689 0,0.96577 -0.96577,2.244 -3.43701,2.244 -3.63585,0 -4.20395,-1.61909 -4.34598,-3.23818 h -2.2724 c 0.14202,3.12456 2.18719,5.22653 6.61838,5.22653 3.29498,0 5.70941,-1.73271 5.70941,-4.37438 0,-3.57904 -2.92572,-4.00511 -5.51058,-4.63002 z m 13.60604,0 c -2.01676,-0.48289 -3.97671,-0.62492 -3.97671,-2.32922 0,-1.1362 1.10779,-1.95995 3.15296,-1.95995 2.72688,0 3.26658,1.44866 3.49382,2.55646 h 2.27241 c -0.22724,-2.49965 -2.15879,-4.54481 -5.76623,-4.54481 -3.40861,0 -5.42537,1.84633 -5.42537,4.11873 0,3.40861 3.29499,3.66425 5.51058,4.20395 2.07357,0.51129 3.97671,0.62491 3.97671,2.72689 0,0.96577 -0.96577,2.244 -3.43701,2.244 -3.63585,0 -4.20395,-1.61909 -4.34597,-3.23818 h -2.27241 c 0.14203,3.12456 2.18719,5.22653 6.61838,5.22653 3.29499,0 5.70942,-1.73271 5.70942,-4.37438 0,-3.57904 -2.92572,-4.00511 -5.51058,-4.63002 z m 16.73054,-2.18719 c 0,1.44865 -1.10779,1.76111 -3.55063,2.21559 -3.74947,0.71013 -6.1923,1.56228 -6.1923,4.85727 0,2.44283 1.84633,4.11873 4.77205,4.11873 2.38602,0 4.00511,-0.85215 4.91407,-2.21559 h 0.0568 c 0.39767,1.59068 1.22142,1.95995 2.58486,1.95995 0.42608,0 0.73854,-0.0284 1.33504,-0.22725 v -1.59068 c -1.44866,0.17043 -1.64749,-0.45448 -1.64749,-1.59068 v -7.04446 c 0,-3.49382 -2.47124,-4.57321 -5.22653,-4.57321 -4.20395,0 -5.93666,2.10197 -6.07869,4.88567 h 2.27241 c 0.14202,-2.10198 1.05099,-2.89732 3.80628,-2.89732 2.32921,0 2.95412,0.96577 2.95412,2.10198 z m -4.74364,9.20324 c -1.87474,0 -2.72689,-0.82375 -2.72689,-2.244 0,-1.73271 1.30663,-2.44284 4.11874,-3.03935 1.53387,-0.31245 2.92572,-0.71012 3.35179,-1.1362 v 2.41443 c 0,2.7837 -2.04516,4.00512 -4.74364,4.00512 z m 20.6789,-12.8959 v 1.78952 h -0.0568 c -0.85215,-1.1078 -2.21559,-2.18719 -4.60162,-2.18719 -3.57903,0 -6.47635,2.30081 -6.47635,7.07286 0,4.77205 2.89732,7.07286 6.47635,7.07286 2.38603,0 3.74947,-1.02258 4.60162,-2.27241 h 0.0568 v 2.18719 c 0,2.69848 -1.56227,3.86309 -4.26076,3.86309 -2.69848,0 -3.89149,-1.1078 -4.17554,-2.58486 h -2.2724 c 0.22724,2.47124 2.58486,4.57322 6.56156,4.57322 3.97671,0 6.41955,-1.95995 6.41955,-5.82304 v -13.69124 z m -4.37438,11.75969 c -2.98253,0 -4.488,-2.244 -4.488,-5.0845 0,-2.84051 1.50547,-5.08451 4.488,-5.08451 2.69849,0 4.37438,1.6759 4.37438,5.08451 0,3.40861 -1.67589,5.0845 -4.37438,5.0845 z m 15.93522,1.13621 c -3.15296,0 -4.71524,-2.44284 -4.71524,-5.0561 h 11.44724 c 0,-5.14132 -2.21559,-8.23747 -6.7604,-8.23747 -4.23236,0 -6.95924,2.8121 -6.95924,7.64096 0,4.54481 2.67007,7.64096 7.07286,7.64096 3.60744,0 5.68101,-2.15878 6.41954,-4.85726 h -2.2724 c -0.25565,0.99417 -1.33504,2.86891 -4.23236,2.86891 z m -0.0284,-11.30522 c 2.72688,0 4.488,1.93155 4.488,4.26076 h -9.17484 c 0,-2.32921 1.95995,-4.26076 4.68684,-4.26076 z"
         id="Assistant-Message"
         style="font-size:28.4051px;font-family:NeueMontreal-Regular, 'Neue Montreal';opacity:0.514648;fill:#333333"
         aria-label="Assistant Message" />
      <rect
         id="rect2"
         fill="#BDB8FF"
         x="22"
         y="65"
         width="350"
         height="108"
         rx="30" />
      <path
         d="m 127.56674,123.23959 v -13.54921 h -2.55646 v 13.54921 c 0,3.29499 -1.7043,4.88568 -5.22653,4.88568 -3.52223,0 -5.22653,-1.59069 -5.22653,-4.88568 v -13.54921 h -2.55646 v 13.54921 c 0,4.14714 2.35762,7.15808 7.78299,7.15808 5.42537,0 7.78299,-3.01094 7.78299,-7.15808 z m 9.00443,-1.84632 c -2.01676,-0.48289 -3.97671,-0.62492 -3.97671,-2.32922 0,-1.1362 1.1078,-1.95995 3.15296,-1.95995 2.72689,0 3.26659,1.44866 3.49383,2.55646 h 2.2724 c -0.22724,-2.49965 -2.15878,-4.54481 -5.76623,-4.54481 -3.4086,0 -5.42536,1.84633 -5.42536,4.11873 0,3.40861 3.29498,3.66425 5.51058,4.20395 2.07357,0.51129 3.97671,0.62491 3.97671,2.72689 0,0.96577 -0.96577,2.244 -3.43702,2.244 -3.63584,0 -4.20394,-1.61909 -4.34597,-3.23818 h -2.27241 c 0.14203,3.12456 2.18719,5.22653 6.61838,5.22653 3.29499,0 5.70942,-1.73271 5.70942,-4.37438 0,-3.57904 -2.92572,-4.00511 -5.51058,-4.63002 z m 14.17413,7.01605 c -3.15296,0 -4.71524,-2.44284 -4.71524,-5.0561 h 11.44724 c 0,-5.14132 -2.21559,-8.23747 -6.7604,-8.23747 -4.23236,0 -6.95924,2.8121 -6.95924,7.64096 0,4.54481 2.67007,7.64096 7.07286,7.64096 3.60744,0 5.68101,-2.15878 6.41954,-4.85726 h -2.2724 c -0.25565,0.99417 -1.33504,2.86891 -4.23236,2.86891 z m -0.0284,-11.30522 c 2.72689,0 4.488,1.93155 4.488,4.26076 h -9.17484 c 0,-2.32921 1.95995,-4.26076 4.68684,-4.26076 z m 15.33876,-1.98835 c -2.07357,0 -3.23818,1.36344 -4.00511,3.26658 h -0.0568 v -2.86891 h -2.27241 V 130 h 2.27241 v -7.72618 c 0,-3.09615 2.18719,-5.31174 5.34015,-4.80045 h 0.0568 v -2.27241 c -0.39767,-0.0568 -0.79534,-0.0852 -1.33504,-0.0852 z M 175.48618,130 h 2.55645 v -16.70218 h 0.0568 L 184.23494,130 h 2.2724 l 6.1355,-16.70218 h 0.0568 V 130 h 2.55645 v -20.30962 h -3.49382 l -6.36274,16.87261 h -0.0568 L 178.98,109.69038 h -3.49382 z m 29.6833,-1.59068 c -3.15297,0 -4.71524,-2.44284 -4.71524,-5.0561 h 11.44724 c 0,-5.14132 -2.2156,-8.23747 -6.76041,-8.23747 -4.23235,0 -6.95924,2.8121 -6.95924,7.64096 0,4.54481 2.67008,7.64096 7.07286,7.64096 3.60744,0 5.68101,-2.15878 6.41955,-4.85726 h -2.27241 c -0.25565,0.99417 -1.33504,2.86891 -4.23235,2.86891 z m -0.0284,-11.30522 c 2.72689,0 4.488,1.93155 4.488,4.26076 h -9.17483 c 0,-2.32921 1.95994,-4.26076 4.68683,-4.26076 z m 14.88428,4.28917 c -2.01676,-0.48289 -3.97671,-0.62492 -3.97671,-2.32922 0,-1.1362 1.1078,-1.95995 3.15296,-1.95995 2.72689,0 3.26658,1.44866 3.49382,2.55646 h 2.27241 c -0.22724,-2.49965 -2.15879,-4.54481 -5.76623,-4.54481 -3.40861,0 -5.42537,1.84633 -5.42537,4.11873 0,3.40861 3.29499,3.66425 5.51059,4.20395 2.07357,0.51129 3.97671,0.62491 3.97671,2.72689 0,0.96577 -0.96578,2.244 -3.43702,2.244 -3.63585,0 -4.20395,-1.61909 -4.34597,-3.23818 h -2.27241 c 0.14203,3.12456 2.18719,5.22653 6.61838,5.22653 3.29499,0 5.70942,-1.73271 5.70942,-4.37438 0,-3.57904 -2.92572,-4.00511 -5.51058,-4.63002 z m 13.60602,0 c -2.01676,-0.48289 -3.97671,-0.62492 -3.97671,-2.32922 0,-1.1362 1.1078,-1.95995 3.15297,-1.95995 2.72688,0 3.26658,1.44866 3.49382,2.55646 h 2.2724 c -0.22724,-2.49965 -2.15878,-4.54481 -5.76622,-4.54481 -3.40861,0 -5.42537,1.84633 -5.42537,4.11873 0,3.40861 3.29499,3.66425 5.51058,4.20395 2.07357,0.51129 3.97671,0.62491 3.97671,2.72689 0,0.96577 -0.96577,2.244 -3.43701,2.244 -3.63585,0 -4.20395,-1.61909 -4.34598,-3.23818 h -2.2724 c 0.14202,3.12456 2.18719,5.22653 6.61838,5.22653 3.29499,0 5.70942,-1.73271 5.70942,-4.37438 0,-3.57904 -2.92573,-4.00511 -5.51059,-4.63002 z m 16.73057,-2.18719 c 0,1.44865 -1.1078,1.76111 -3.55064,2.21559 -3.74946,0.71013 -6.1923,1.56228 -6.1923,4.85727 0,2.44283 1.84633,4.11873 4.77205,4.11873 2.38603,0 4.00511,-0.85215 4.91408,-2.21559 h 0.0568 c 0.39767,1.59068 1.22141,1.95995 2.58486,1.95995 0.42607,0 0.73853,-0.0284 1.33504,-0.22725 v -1.59068 c -1.44866,0.17043 -1.6475,-0.45448 -1.6475,-1.59068 v -7.04446 c 0,-3.49382 -2.47124,-4.57321 -5.22653,-4.57321 -4.20395,0 -5.93666,2.10197 -6.07868,4.88567 h 2.2724 c 0.14203,-2.10198 1.05099,-2.89732 3.80628,-2.89732 2.32922,0 2.95413,0.96577 2.95413,2.10198 z m -4.74365,9.20324 c -1.87473,0 -2.72688,-0.82375 -2.72688,-2.244 0,-1.73271 1.30663,-2.44284 4.11873,-3.03935 1.53387,-0.31245 2.92572,-0.71012 3.3518,-1.1362 v 2.41443 c 0,2.7837 -2.04517,4.00512 -4.74365,4.00512 z m 20.67889,-12.8959 v 1.78952 h -0.0568 c -0.85215,-1.1078 -2.21559,-2.18719 -4.60162,-2.18719 -3.57904,0 -6.47635,2.30081 -6.47635,7.07286 0,4.77205 2.89731,7.07286 6.47635,7.07286 2.38603,0 3.74947,-1.02258 4.60162,-2.27241 h 0.0568 v 2.18719 c 0,2.69848 -1.56228,3.86309 -4.26076,3.86309 -2.69848,0 -3.89149,-1.1078 -4.17554,-2.58486 h -2.27241 c 0.22724,2.47124 2.58486,4.57322 6.56157,4.57322 3.97671,0 6.41955,-1.95995 6.41955,-5.82304 v -13.69124 z m -4.37438,11.75969 c -2.98253,0 -4.488,-2.244 -4.488,-5.0845 0,-2.84051 1.50547,-5.08451 4.488,-5.08451 2.69848,0 4.37438,1.6759 4.37438,5.08451 0,3.40861 -1.6759,5.0845 -4.37438,5.0845 z m 15.93524,1.13621 c -3.15297,0 -4.71524,-2.44284 -4.71524,-5.0561 h 11.44724 c 0,-5.14132 -2.2156,-8.23747 -6.76041,-8.23747 -4.23235,0 -6.95924,2.8121 -6.95924,7.64096 0,4.54481 2.67008,7.64096 7.07286,7.64096 3.60744,0 5.68101,-2.15878 6.41955,-4.85726 h -2.27241 c -0.25564,0.99417 -1.33504,2.86891 -4.23235,2.86891 z m -0.0284,-11.30522 c 2.72689,0 4.488,1.93155 4.488,4.26076 h -9.17483 c 0,-2.32921 1.95994,-4.26076 4.68683,-4.26076 z"
         id="User-Message"
         style="font-size:28.4051px;font-family:NeueMontreal-Regular, 'Neue Montreal';fill:#ffffff"
         aria-label="User Message" />
      <path
         d="m 135.12248,634 h 2.55646 v -18.03722 h 6.7604 v -2.2724 h -16.07726 v 2.2724 h 6.7604 z m 14.65702,0.39767 c -4.43119,0 -7.10127,-3.12456 -7.10127,-7.64096 0,-4.51641 2.67008,-7.64096 7.10127,-7.64096 4.40278,0 7.07286,3.12455 7.07286,7.64096 0,4.5164 -2.67008,7.64096 -7.07286,7.64096 z m 0,-1.98835 c 3.23817,0 4.80045,-2.55646 4.80045,-5.65261 0,-3.09615 -1.56228,-5.65261 -4.80045,-5.65261 -3.26659,0 -4.82886,2.55646 -4.82886,5.65261 0,3.09615 1.56227,5.65261 4.82886,5.65261 z m 15.6512,1.98835 c -4.43119,0 -7.10126,-3.12456 -7.10126,-7.64096 0,-4.51641 2.67007,-7.64096 7.10126,-7.64096 4.40279,0 7.07286,3.12455 7.07286,7.64096 0,4.5164 -2.67007,7.64096 -7.07286,7.64096 z m 0,-1.98835 c 3.23818,0 4.80046,-2.55646 4.80046,-5.65261 0,-3.09615 -1.56228,-5.65261 -4.80046,-5.65261 -3.26658,0 -4.82886,2.55646 -4.82886,5.65261 0,3.09615 1.56228,5.65261 4.82886,5.65261 z m 9.4589,-18.71894 V 634 h 2.27241 v -20.30962 z m 14.99786,20.70729 c 5.96506,0 9.94177,-4.45959 9.94177,-10.56668 0,-6.10709 -3.97671,-10.53828 -9.94177,-10.53828 -5.96507,0 -9.94177,4.43119 -9.94177,10.53828 0,6.10709 3.9767,10.56668 9.94177,10.56668 z m 0,-2.2724 c -5.11291,0 -7.38532,-3.9199 -7.38532,-8.29428 0,-4.37438 2.27241,-8.26588 7.38532,-8.26588 5.11291,0 7.38531,3.8915 7.38531,8.26588 0,4.37438 -2.2724,8.29428 -7.38531,8.29428 z m 22.24118,-12.61185 v 9.03281 c 0,2.244 -1.7043,3.86309 -4.26076,3.86309 -2.2724,0 -3.15296,-1.47707 -3.15296,-3.3518 v -9.5441 h -2.2724 v 10.1122 c 0,3.32339 2.21559,4.77205 4.85726,4.77205 2.47124,0 4.00512,-1.1078 4.77205,-2.13038 h 0.0568 V 634 h 2.27241 v -14.48658 z m 11.70288,1.98835 v -1.98835 h -2.84051 v -4.82886 h -2.2724 v 4.82886 h -2.13038 v 1.98835 h 2.13038 v 8.9476 c 0,2.95412 1.47706,3.72106 3.40861,3.72106 0.5965,0 1.19301,-0.0568 1.7043,-0.17043 v -1.98835 c -1.93154,0.14202 -2.84051,-0.14203 -2.84051,-1.78952 v -8.72036 z m 9.31686,-2.38602 c -2.38603,0 -3.74947,1.07939 -4.60162,2.18719 h -0.0568 v -1.78952 h -2.27241 v 19.37225 h 2.27241 v -6.7604 h 0.0568 c 0.85215,1.24982 2.21559,2.2724 4.60162,2.2724 3.57904,0 6.47635,-2.86891 6.47635,-7.64096 0,-4.77205 -2.89731,-7.64096 -6.47635,-7.64096 z m -0.28405,13.29357 c -2.69848,0 -4.37438,-2.244 -4.37438,-5.65261 0,-3.40861 1.6759,-5.65261 4.37438,-5.65261 2.98253,0 4.488,2.8121 4.488,5.65261 0,2.84051 -1.50547,5.65261 -4.488,5.65261 z m 18.74733,-12.8959 v 9.03281 c 0,2.244 -1.7043,3.86309 -4.26076,3.86309 -2.2724,0 -3.15296,-1.47707 -3.15296,-3.3518 v -9.5441 h -2.27241 v 10.1122 c 0,3.32339 2.2156,4.77205 4.85727,4.77205 2.47124,0 4.00511,-1.1078 4.77205,-2.13038 h 0.0568 V 634 h 2.27241 v -14.48658 z m 11.70289,1.98835 v -1.98835 h -2.84051 v -4.82886 h -2.27241 v 4.82886 h -2.13038 v 1.98835 h 2.13038 v 8.9476 c 0,2.95412 1.47707,3.72106 3.40861,3.72106 0.59651,0 1.19301,-0.0568 1.70431,-0.17043 v -1.98835 c -1.93155,0.14202 -2.84051,-0.14203 -2.84051,-1.78952 v -8.72036 z"
         id="ToolOutput"
         style="font-size:28.4051px;font-family:NeueMontreal-Regular, 'Neue Montreal';fill:#ffffff"
         aria-label="ToolOutput" />
      <path
         d="M 20.741255,18.755388 22.235168,23 H 24.44047 L 18.203973,6.0452641 H 15.832681 L 9.5724706,23 h 2.2053014 l 1.493914,-4.244612 z m -6.758182,-1.897034 3.011541,-8.8449178 h 0.04743 l 3.01154,8.8449178 z m 20.250831,-5.951942 v 1.493914 h -0.04743 c -0.711388,-0.924804 -1.849608,-1.825895 -3.841493,-1.825895 -2.987827,0 -5.406545,1.920747 -5.406545,5.904517 0,3.98377 2.418718,5.904516 5.406545,5.904516 1.991885,0 3.130105,-0.853665 3.841493,-1.897033 h 0.04743 v 1.825894 c 0,2.252728 -1.304211,3.224957 -3.556938,3.224957 -2.252727,0 -3.24867,-0.924804 -3.485799,-2.157875 h -1.897033 c 0.189703,2.063023 2.157875,3.817779 5.477684,3.817779 3.319808,0 5.359119,-1.636191 5.359119,-4.861148 V 10.906412 Z m -3.65179,9.817148 c -2.489856,0 -3.746641,-1.873321 -3.746641,-4.244612 0,-2.371292 1.256785,-4.244612 3.746641,-4.244612 2.252728,0 3.65179,1.399062 3.65179,4.244612 0,2.84555 -1.399062,4.244612 -3.65179,4.244612 z m 13.302935,0.948517 c -2.632133,0 -3.936344,-2.039311 -3.936344,-4.2209 h 9.556306 c 0,-4.292038 -1.849608,-6.876746 -5.643675,-6.876746 -3.533224,0 -5.809664,2.347579 -5.809664,6.378775 0,3.794067 2.229014,6.378775 5.904516,6.378775 3.011541,0 4.742584,-1.802182 5.359119,-4.054909 h -1.897033 c -0.213416,0.829952 -1.114507,2.395005 -3.533225,2.395005 z m -0.02371,-9.437741 c 2.276441,0 3.746641,1.612478 3.746641,3.556937 h -7.659272 c 0,-1.944459 1.636191,-3.556937 3.912631,-3.556937 z m 13.445245,-1.659905 c -2.063024,0 -3.343521,0.924804 -3.98377,1.778469 h -0.04743 V 10.906412 H 51.378352 V 23 h 1.897033 v -7.540708 c 0,-1.87332 1.422775,-3.224956 3.556938,-3.224956 1.897033,0 2.632134,1.233071 2.632134,2.798124 V 23 h 1.897033 v -8.441799 c 0,-2.774411 -1.849607,-3.98377 -4.054909,-3.98377 z m 11.619326,1.991885 V 10.906412 H 66.554615 V 6.8752162 h -1.897033 v 4.0311958 h -1.778469 v 1.659904 h 1.778469 v 7.469569 c 0,2.466144 1.233071,3.106393 2.84555,3.106393 0.497971,0 0.995942,-0.04743 1.422775,-0.142278 v -1.659904 c -1.612479,0.118564 -2.371292,-0.118565 -2.371292,-1.493914 v -7.279866 z m 19.302327,-0.924803 h 2.134163 C 89.959277,8.4165558 87.30343,5.7132833 83.15367,5.7132833 c -4.647732,0 -7.848976,3.6992151 -7.848976,8.7974927 0,5.12199 3.201244,8.821205 7.848976,8.821205 4.173473,0 6.82932,-2.703273 7.208727,-6.449914 h -2.134163 c -0.142278,2.134163 -1.517627,4.55288 -5.074564,4.55288 -4.031196,0 -5.714813,-3.485798 -5.714813,-6.924171 0,-3.41466 1.683617,-6.9004593 5.714813,-6.9004593 3.533224,0 4.766296,2.4187173 5.074564,4.0311963 z m 9.485155,11.690468 c -3.699215,0 -5.928229,-2.608421 -5.928229,-6.378775 0,-3.770354 2.229014,-6.378775 5.928229,-6.378775 3.675501,0 5.904521,2.608421 5.904521,6.378775 0,3.770354 -2.22902,6.378775 -5.904521,6.378775 z m 0,-1.659904 c 2.703271,0 4.007481,-2.134163 4.007481,-4.718871 0,-2.584708 -1.30421,-4.71887 -4.007481,-4.71887 -2.726985,0 -4.031196,2.134162 -4.031196,4.71887 0,2.584708 1.304211,4.718871 4.031196,4.718871 z M 111.4669,10.574431 c -2.06303,0 -3.34352,0.924804 -3.98377,1.778469 h -0.0474 v -1.446488 h -1.89703 V 23 h 1.89703 v -7.540708 c 0,-1.87332 1.42278,-3.224956 3.55694,-3.224956 1.89703,0 2.63213,1.233071 2.63213,2.798124 V 23 h 1.89704 v -8.441799 c 0,-2.774411 -1.84961,-3.98377 -4.05491,-3.98377 z m 11.61932,1.991885 v -1.659904 h -2.3713 V 6.8752162 h -1.89703 v 4.0311958 h -1.77847 v 1.659904 h 1.77847 v 7.469569 c 0,2.466144 1.23307,3.106393 2.84555,3.106393 0.49797,0 0.99594,-0.04743 1.42278,-0.142278 v -1.659904 c -1.61248,0.118564 -2.3713,-0.118565 -2.3713,-1.493914 v -7.279866 z m 7.01903,9.105761 c -2.63213,0 -3.93634,-2.039311 -3.93634,-4.2209 h 9.55631 c 0,-4.292038 -1.84961,-6.876746 -5.64368,-6.876746 -3.53322,0 -5.80966,2.347579 -5.80966,6.378775 0,3.794067 2.22901,6.378775 5.90451,6.378775 3.01154,0 4.74259,-1.802182 5.35912,-4.054909 h -1.89703 c -0.21342,0.829952 -1.11451,2.395005 -3.53323,2.395005 z m -0.0237,-9.437741 c 2.27644,0 3.74664,1.612478 3.74664,3.556937 h -7.65927 c 0,-1.944459 1.63619,-3.556937 3.91263,-3.556937 z m 6.16539,-1.327924 4.26833,5.904517 L 135.84381,23 h 2.25273 l 3.53323,-4.932287 h 0.0474 L 145.23413,23 h 2.25273 l -4.69516,-6.189071 4.26832,-5.904517 h -2.25272 l -3.13011,4.624019 h -0.0474 l -3.13011,-4.624019 z m 17.47642,1.659904 v -1.659904 h -2.37129 V 6.8752162 h -1.89703 v 4.0311958 h -1.77847 v 1.659904 h 1.77847 v 7.469569 c 0,2.466144 1.23307,3.106393 2.84555,3.106393 0.49797,0 0.99594,-0.04743 1.42277,-0.142278 v -1.659904 c -1.61247,0.118564 -2.37129,-0.118565 -2.37129,-1.493914 v -7.279866 z"
         id="Agent-Context"
         style="font-size:23.7129px;font-family:NeueMontreal-Regular, 'Neue Montreal';opacity:0.514648;fill:#333333"
         aria-label="Agent Context" />
      <line
         x1="195.344756"
         y1="397"
         x2="195.5"
         y2="569.5"
         id="Path-4"
         stroke="#E1E1E1"
         stroke-width="5" />
      <rect
         id="rect5"
         stroke="#4050FF"
         stroke-width="6"
         fill="#8993FE"
         x="25"
         y="427"
         width="344"
         height="102"
         rx="30" />
      <path
         d="m 155.4791,489 h 2.55645 v -18.03722 h 6.76041 v -2.2724 h -16.07727 v 2.2724 h 6.76041 z m 14.65701,0.39767 c -4.43119,0 -7.10127,-3.12456 -7.10127,-7.64096 0,-4.51641 2.67008,-7.64096 7.10127,-7.64096 4.40278,0 7.07286,3.12455 7.07286,7.64096 0,4.5164 -2.67008,7.64096 -7.07286,7.64096 z m 0,-1.98835 c 3.23818,0 4.80046,-2.55646 4.80046,-5.65261 0,-3.09615 -1.56228,-5.65261 -4.80046,-5.65261 -3.26658,0 -4.82886,2.55646 -4.82886,5.65261 0,3.09615 1.56228,5.65261 4.82886,5.65261 z m 15.65121,1.98835 c -4.43119,0 -7.10127,-3.12456 -7.10127,-7.64096 0,-4.51641 2.67008,-7.64096 7.10127,-7.64096 4.40278,0 7.07286,3.12455 7.07286,7.64096 0,4.5164 -2.67008,7.64096 -7.07286,7.64096 z m 0,-1.98835 c 3.23817,0 4.80045,-2.55646 4.80045,-5.65261 0,-3.09615 -1.56228,-5.65261 -4.80045,-5.65261 -3.26659,0 -4.82886,2.55646 -4.82886,5.65261 0,3.09615 1.56227,5.65261 4.82886,5.65261 z m 9.4589,-18.71894 V 489 h 2.2724 v -20.30962 z m 26.21787,6.70359 h 2.55646 c -0.48289,-3.86308 -3.66426,-7.10126 -8.63514,-7.10126 -5.56739,0 -9.40208,4.43119 -9.40208,10.53828 0,6.13549 3.83469,10.56668 9.40208,10.56668 4.99929,0 8.18066,-3.23818 8.63514,-7.72618 h -2.55646 c -0.17043,2.55646 -1.81792,5.45378 -6.07868,5.45378 -4.82886,0 -6.84562,-4.17555 -6.84562,-8.29428 0,-4.09033 2.01676,-8.26588 6.84562,-8.26588 4.23235,0 5.70942,2.89732 6.07868,4.82886 z m 13.94687,2.81211 c 0,1.44865 -1.10779,1.76111 -3.55063,2.21559 -3.74947,0.71013 -6.1923,1.56228 -6.1923,4.85727 0,2.44283 1.84633,4.11873 4.77205,4.11873 2.38602,0 4.00511,-0.85215 4.91407,-2.21559 h 0.0568 c 0.39767,1.59068 1.22142,1.95995 2.58486,1.95995 0.42608,0 0.73854,-0.0284 1.33504,-0.22725 v -1.59068 c -1.44866,0.17043 -1.64749,-0.45448 -1.64749,-1.59068 v -7.04446 c 0,-3.49382 -2.47124,-4.57321 -5.22653,-4.57321 -4.20395,0 -5.93666,2.10197 -6.07869,4.88567 h 2.27241 c 0.14202,-2.10198 1.05099,-2.89732 3.80628,-2.89732 2.32921,0 2.95412,0.96577 2.95412,2.10198 z m -4.74364,9.20324 c -1.87474,0 -2.72689,-0.82375 -2.72689,-2.244 0,-1.73271 1.30663,-2.44284 4.11874,-3.03935 1.53387,-0.31245 2.92572,-0.71012 3.35179,-1.1362 v 2.41443 c 0,2.7837 -2.04516,4.00512 -4.74364,4.00512 z m 10.45307,-18.71894 V 489 h 2.27241 v -20.30962 z m 5.28331,0 V 489 h 2.27241 v -20.30962 z"
         id="Tool-Call"
         style="font-size:28.4051px;font-family:NeueMontreal-Regular, 'Neue Montreal';fill:#ffffff"
         aria-label="Tool Call" />
    </g>
  </g>
</svg>
