<?xml version="1.0" encoding="UTF-8" standalone="no"?>
<svg
   width="806px"
   height="379px"
   viewBox="0 0 806 379"
   version="1.1"
   id="svg17"
   xmlns="http://www.w3.org/2000/svg"
   xmlns:svg="http://www.w3.org/2000/svg">
  <defs
     id="defs17" />
  <title
     id="title1">Group 40</title>
  <g
     id="Page-2"
     stroke="none"
     stroke-width="1"
     fill="none"
     fill-rule="evenodd">
    <g
       id="Group-40">
      <g
         id="Group-23-Copy-3"
         transform="translate(278.000000, 4.000000)"
         fill="#8993FE">
        <rect
           id="Rectangle"
           x="0"
           y="0"
           width="194"
           height="202"
           rx="30" />
      </g>
      <g
         id="Group-36"
         transform="translate(278.000000, 256.000000)">
        <rect
           id="Rectangle-Copy-9"
           fill="#E1E4FF"
           x="0"
           y="0"
           width="194"
           height="123"
           rx="30" />
        <g
           id="Guardrailing-Rules"
           style="font-size:28.4051px;font-family:NeueMontreal-Regular, 'Neue Montreal';fill:#8993fe"
           aria-label="GuardrailingRules">
          <path
             d="m 39.837721,39.825873 h 2.556456 c -0.710127,-3.863088 -3.408608,-6.533164 -8.549925,-6.533164 -5.624202,0 -9.430481,4.43119 -9.430481,10.538278 0,6.135494 3.238178,10.566684 9.146431,10.566684 3.124557,0 5.027696,-1.136203 6.56157,-3.266582 h 0.05681 L 41.030734,54 h 1.704303 V 43.433316 h -9.174835 v 2.272405 h 6.61838 c 0,3.806279 -2.982532,6.419545 -6.61838,6.419545 -5.112912,0 -6.589975,-4.459595 -6.589975,-8.294279 0,-3.806278 2.045165,-8.265873 6.874025,-8.265873 3.067747,0 5.396963,1.363443 5.993469,4.260759 z m 15.679612,-0.312455 v 9.03281 c 0,2.244 -1.704304,3.863088 -4.260759,3.863088 -2.272405,0 -3.152962,-1.477063 -3.152962,-3.351797 V 39.513418 H 45.831206 V 49.62562 c 0,3.323393 2.215595,4.772051 4.857266,4.772051 2.471241,0 4.005114,-1.107798 4.772051,-2.13038 h 0.05681 V 54 h 2.272405 V 39.513418 Z m 14.259338,3.692658 c 0,1.448658 -1.107797,1.761114 -3.550633,2.215595 -3.749468,0.710126 -6.192304,1.562278 -6.192304,4.857266 0,2.442835 1.846329,4.118734 4.772051,4.118734 2.386025,0 4.005114,-0.852152 4.914076,-2.215595 h 0.05681 c 0.397671,1.590683 1.221418,1.959949 2.584861,1.959949 0.426076,0 0.738531,-0.0284 1.335038,-0.22724 v -1.590684 c -1.448658,0.170431 -1.647494,-0.454481 -1.647494,-1.590683 v -7.044456 c 0,-3.493823 -2.47124,-4.573215 -5.226532,-4.573215 -4.203949,0 -5.936658,2.101974 -6.078683,4.885671 h 2.272405 c 0.142025,-2.101975 1.050987,-2.897317 3.806278,-2.897317 2.329216,0 2.954127,0.965772 2.954127,2.101975 z m -4.743646,9.20324 c -1.874734,0 -2.726886,-0.823746 -2.726886,-2.244 0,-1.732708 1.306633,-2.442835 4.118734,-3.039341 1.533874,-0.312456 2.925722,-0.710127 3.351798,-1.136203 v 2.41443 c 0,2.783697 -2.045165,4.005114 -4.743646,4.005114 z M 81.735212,39.115747 c -2.07357,0 -3.238178,1.363443 -4.005114,3.266582 h -0.05681 V 39.513418 H 75.400882 V 54 h 2.272406 v -7.726177 c 0,-3.096152 2.187189,-5.311747 5.340152,-4.800456 h 0.05681 v -2.272405 c -0.397671,-0.05681 -0.795342,-0.08521 -1.335038,-0.08521 z m 13.15154,-5.425367 v 7.697772 h -0.05681 c -0.852152,-1.249823 -2.215595,-2.272405 -4.54481,-2.272405 -3.635848,0 -6.533165,2.868911 -6.533165,7.640962 0,4.77205 2.897317,7.640962 6.533165,7.640962 2.329215,0 3.692658,-1.079393 4.54481,-2.18719 h 0.05681 V 54 h 2.272405 V 33.69038 Z m -4.37438,18.718936 c -2.982532,0 -4.488,-2.812101 -4.488,-5.652607 0,-2.840507 1.505468,-5.652608 4.488,-5.652608 2.698481,0 4.37438,2.244 4.37438,5.652608 0,3.408607 -1.675899,5.652607 -4.37438,5.652607 z M 106.61803,39.115747 c -2.07357,0 -3.23818,1.363443 -4.00511,3.266582 h -0.0568 V 39.513418 H 100.2837 V 54 h 2.27241 v -7.726177 c 0,-3.096152 2.18719,-5.311747 5.34015,-4.800456 h 0.0568 v -2.272405 c -0.39767,-0.05681 -0.79534,-0.08521 -1.33504,-0.08521 z m 11.70289,4.090329 c 0,1.448658 -1.1078,1.761114 -3.55064,2.215595 -3.74946,0.710126 -6.1923,1.562278 -6.1923,4.857266 0,2.442835 1.84633,4.118734 4.77205,4.118734 2.38603,0 4.00512,-0.852152 4.91408,-2.215595 h 0.0568 c 0.39767,1.590683 1.22142,1.959949 2.58486,1.959949 0.42607,0 0.73853,-0.0284 1.33504,-0.22724 v -1.590684 c -1.44866,0.170431 -1.6475,-0.454481 -1.6475,-1.590683 v -7.044456 c 0,-3.493823 -2.47124,-4.573215 -5.22653,-4.573215 -4.20395,0 -5.93666,2.101974 -6.07868,4.885671 h 2.2724 c 0.14203,-2.101975 1.05099,-2.897317 3.80628,-2.897317 2.32922,0 2.95413,0.965772 2.95413,2.101975 z m -4.74365,9.20324 c -1.87473,0 -2.72688,-0.823746 -2.72688,-2.244 0,-1.732708 1.30663,-2.442835 4.11873,-3.039341 1.53387,-0.312456 2.92572,-0.710127 3.3518,-1.136203 v 2.41443 c 0,2.783697 -2.04517,4.005114 -4.74365,4.005114 z m 11.78811,-15.708 c 0.65331,0 1.42025,-0.482886 1.42025,-1.363443 0,-0.880557 -0.76694,-1.363443 -1.42025,-1.363443 -0.62491,0 -1.42025,0.482886 -1.42025,1.363443 0,0.880557 0.79534,1.363443 1.42025,1.363443 z m -1.1362,2.812102 V 54 h 2.2724 V 39.513418 Z m 5.48214,-5.823038 V 54 h 2.2724 V 33.69038 Z m 6.61835,3.010936 c 0.65331,0 1.42025,-0.482886 1.42025,-1.363443 0,-0.880557 -0.76694,-1.363443 -1.42025,-1.363443 -0.62492,0 -1.42026,0.482886 -1.42026,1.363443 0,0.880557 0.79534,1.363443 1.42026,1.363443 z m -1.13621,2.812102 V 54 h 2.27241 V 39.513418 Z m 12.78226,-0.397671 c -2.47124,0 -4.00511,1.107797 -4.77205,2.130379 h -0.0568 v -1.732708 h -2.27241 V 54 h 2.27241 v -9.03281 c 0,-2.244 1.7043,-3.863089 4.26076,-3.863089 2.2724,0 3.15296,1.477063 3.15296,3.351798 V 54 h 2.27241 V 43.887797 c 0,-3.323392 -2.2156,-4.77205 -4.85727,-4.77205 z m 18.20764,0.397671 v 1.789519 h -0.0568 c -0.85216,-1.107798 -2.2156,-2.18719 -4.60162,-2.18719 -3.57904,0 -6.47636,2.30081 -6.47636,7.072861 0,4.77205 2.89732,7.07286 6.47636,7.07286 2.38602,0 3.74946,-1.022582 4.60162,-2.272405 h 0.0568 v 2.18719 c 0,2.698481 -1.56228,3.863089 -4.26076,3.863089 -2.69848,0 -3.8915,-1.107798 -4.17555,-2.584861 h -2.2724 c 0.22724,2.471241 2.58486,4.573215 6.56157,4.573215 3.97671,0 6.41954,-1.959949 6.41954,-5.823038 v -13.69124 z m -4.37438,11.759696 c -2.98254,0 -4.488,-2.244 -4.488,-5.084506 0,-2.840507 1.50546,-5.084507 4.488,-5.084507 2.69848,0 4.37438,1.675899 4.37438,5.084507 0,3.408607 -1.6759,5.084506 -4.37438,5.084506 z"
             id="path17" />
          <path
             d="m 65.757342,88.964867 h 2.556455 v -8.209064 h 5.823038 c 5.141317,0 3.209772,7.356912 4.090329,8.209064 h 2.755292 v -0.170431 c -1.050988,-0.340861 0.596506,-8.322683 -3.919899,-9.20324 v -0.05681 c 2.244,-0.568102 3.635848,-2.18719 3.635848,-5.112912 0,-3.607443 -2.698481,-5.766228 -6.703595,-5.766228 h -8.237468 z m 2.556455,-18.037216 h 5.084507 c 2.101974,0 4.743645,0.255646 4.743645,3.777874 0,3.522228 -2.641671,3.777873 -4.743645,3.777873 h -5.084507 z m 24.683984,3.550633 v 9.03281 c 0,2.244 -1.704304,3.863089 -4.26076,3.863089 -2.272405,0 -3.152962,-1.477063 -3.152962,-3.351797 v -9.544102 h -2.272405 v 10.112203 c 0,3.323392 2.215595,4.772051 4.857266,4.772051 2.471241,0 4.005114,-1.107798 4.772051,-2.13038 h 0.05681 v 1.732709 h 2.272405 V 74.478284 Z m 5.482175,-5.823038 v 20.309621 h 2.272404 V 68.655246 Z m 11.646054,18.718937 c -3.15296,0 -4.71524,-2.442835 -4.71524,-5.056101 h 11.44724 c 0,-5.141317 -2.2156,-8.237469 -6.76041,-8.237469 -4.23235,0 -6.95924,2.812102 -6.95924,7.640962 0,4.544811 2.67008,7.640963 7.07286,7.640963 3.60745,0 5.68102,-2.158785 6.41955,-4.857266 h -2.27241 c -0.25564,0.994177 -1.33504,2.868911 -4.23235,2.868911 z m -0.0284,-11.305215 c 2.72689,0 4.488,1.931544 4.488,4.260759 h -9.17483 c 0,-2.329215 1.95995,-4.260759 4.68683,-4.260759 z m 14.88428,4.289164 c -2.01676,-0.482886 -3.97671,-0.624911 -3.97671,-2.329215 0,-1.136202 1.1078,-1.959949 3.15297,-1.959949 2.72688,0 3.26658,1.448658 3.49382,2.556455 h 2.2724 c -0.22724,-2.499645 -2.15878,-4.54481 -5.76622,-4.54481 -3.40861,0 -5.42537,1.846329 -5.42537,4.118735 0,3.408607 3.29499,3.664253 5.51058,4.203949 2.07357,0.511291 3.97671,0.624911 3.97671,2.726886 0,0.965772 -0.96577,2.244 -3.43701,2.244 -3.63585,0 -4.20395,-1.619089 -4.34598,-3.238177 h -2.2724 c 0.14202,3.124557 2.18719,5.226532 6.61838,5.226532 3.29499,0 5.70942,-1.732709 5.70942,-4.37438 0,-3.579038 -2.92573,-4.005114 -5.51059,-4.630026 z"
             id="path18" />
        </g>
      </g>
      <g
         id="Invariant-Gateway"
         style="font-size:28.4051px;font-family:NeueMontreal-Regular, 'Neue Montreal';fill:#ffffff"
         aria-label="InvariantGateway">
        <path
           d="M 325.48998,73.69038 V 94 h 2.55645 V 73.69038 Z m 13.17997,5.425367 c -2.47124,0 -4.00512,1.107797 -4.77205,2.130379 h -0.0568 v -1.732708 h -2.27241 V 94 h 2.27241 v -9.03281 c 0,-2.244 1.7043,-3.863089 4.26076,-3.863089 2.2724,0 3.15296,1.477063 3.15296,3.351798 V 94 h 2.2724 V 83.887797 c 0,-3.323392 -2.21559,-4.77205 -4.85726,-4.77205 z m 6.10707,0.397671 L 349.97515,94 h 2.58486 l 5.19813,-14.486582 h -2.47124 l -4.00512,12.214177 h -0.0284 l -4.00511,-12.214177 z m 23.03654,3.692658 c 0,1.448658 -1.1078,1.761114 -3.55063,2.215595 -3.74947,0.710126 -6.19231,1.562278 -6.19231,4.857266 0,2.442835 1.84633,4.118734 4.77205,4.118734 2.38603,0 4.00512,-0.852152 4.91408,-2.215595 h 0.0568 c 0.39767,1.590683 1.22142,1.959949 2.58486,1.959949 0.42608,0 0.73853,-0.02841 1.33504,-0.22724 v -1.590684 c -1.44866,0.170431 -1.6475,-0.454481 -1.6475,-1.590683 v -7.044456 c 0,-3.493823 -2.47124,-4.573215 -5.22653,-4.573215 -4.20395,0 -5.93666,2.101974 -6.07868,4.885671 h 2.2724 c 0.14203,-2.101975 1.05099,-2.897317 3.80628,-2.897317 2.32922,0 2.95413,0.965772 2.95413,2.101975 z m -4.74365,9.20324 c -1.87473,0 -2.72688,-0.823746 -2.72688,-2.244 0,-1.732708 1.30663,-2.442835 4.11873,-3.039341 1.53388,-0.312456 2.92572,-0.710127 3.3518,-1.136203 v 2.41443 c 0,2.783697 -2.04517,4.005114 -4.74365,4.005114 z M 379.7721,79.115747 c -2.07357,0 -3.23818,1.363443 -4.00511,3.266582 h -0.0568 v -2.868911 h -2.27241 V 94 h 2.27241 v -7.726177 c 0,-3.096152 2.18719,-5.311747 5.34015,-4.800456 h 0.0568 v -2.272405 c -0.39767,-0.05681 -0.79534,-0.08522 -1.33504,-0.08522 z m 4.82887,-2.414431 c 0.65332,0 1.42025,-0.482886 1.42025,-1.363443 0,-0.880557 -0.76693,-1.363443 -1.42025,-1.363443 -0.62491,0 -1.42025,0.482886 -1.42025,1.363443 0,0.880557 0.79534,1.363443 1.42025,1.363443 z m -1.1362,2.812102 V 94 h 2.2724 V 79.513418 Z m 14.54337,3.692658 c 0,1.448658 -1.1078,1.761114 -3.55063,2.215595 -3.74947,0.710126 -6.19231,1.562278 -6.19231,4.857266 0,2.442835 1.84633,4.118734 4.77205,4.118734 2.38603,0 4.00512,-0.852152 4.91408,-2.215595 h 0.0568 c 0.39767,1.590683 1.22142,1.959949 2.58486,1.959949 0.42608,0 0.73853,-0.02841 1.33504,-0.22724 v -1.590684 c -1.44866,0.170431 -1.6475,-0.454481 -1.6475,-1.590683 v -7.044456 c 0,-3.493823 -2.47124,-4.573215 -5.22653,-4.573215 -4.20395,0 -5.93666,2.101974 -6.07868,4.885671 h 2.2724 c 0.14203,-2.101975 1.05099,-2.897317 3.80628,-2.897317 2.32922,0 2.95413,0.965772 2.95413,2.101975 z m -4.74365,9.20324 c -1.87473,0 -2.72688,-0.823746 -2.72688,-2.244 0,-1.732708 1.30663,-2.442835 4.11873,-3.039341 1.53388,-0.312456 2.92572,-0.710127 3.3518,-1.136203 v 2.41443 c 0,2.783697 -2.04517,4.005114 -4.74365,4.005114 z m 17.46912,-13.293569 c -2.47124,0 -4.00511,1.107797 -4.77205,2.130379 h -0.0568 v -1.732708 h -2.2724 V 94 h 2.2724 v -9.03281 c 0,-2.244 1.70431,-3.863089 4.26076,-3.863089 2.27241,0 3.15296,1.477063 3.15296,3.351798 V 94 h 2.27241 V 83.887797 c 0,-3.323392 -2.2156,-4.77205 -4.85727,-4.77205 z m 13.91847,2.386025 v -1.988354 h -2.84051 v -4.828861 h -2.2724 v 4.828861 h -2.13038 v 1.988354 h 2.13038 v 8.947595 c 0,2.954127 1.47706,3.721063 3.4086,3.721063 0.59651,0 1.19302,-0.05681 1.70431,-0.17043 v -1.988354 c -1.93155,0.142025 -2.84051,-0.142026 -2.84051,-1.789519 v -8.720355 z"
           id="path19" />
        <path
           d="m 337.24967,114.79075 h 2.55645 c -0.71012,-3.86309 -3.40861,-6.53317 -8.54992,-6.53317 -5.6242,0 -9.43048,4.43119 -9.43048,10.53828 0,6.1355 3.23817,10.56669 9.14643,10.56669 3.12455,0 5.02769,-1.13621 6.56157,-3.26659 h 0.0568 l 0.85215,2.86891 h 1.7043 v -10.56668 h -9.17483 v 2.27241 h 6.61838 c 0,3.80627 -2.98253,6.41954 -6.61838,6.41954 -5.11291,0 -6.58998,-4.45959 -6.58998,-8.29428 0,-3.80628 2.04517,-8.26587 6.87403,-8.26587 3.06774,0 5.39696,1.36344 5.99347,4.26076 z m 14.94108,3.3802 c 0,1.44866 -1.1078,1.76111 -3.55064,2.2156 -3.74946,0.71012 -6.1923,1.56227 -6.1923,4.85726 0,2.44284 1.84633,4.11874 4.77205,4.11874 2.38603,0 4.00511,-0.85216 4.91408,-2.2156 h 0.0568 c 0.39767,1.59068 1.22141,1.95995 2.58486,1.95995 0.42607,0 0.73853,-0.0284 1.33504,-0.22724 v -1.59068 c -1.44866,0.17043 -1.6475,-0.45449 -1.6475,-1.59069 v -7.04445 c 0,-3.49383 -2.47124,-4.57322 -5.22653,-4.57322 -4.20395,0 -5.93666,2.10198 -6.07868,4.88567 h 2.2724 c 0.14203,-2.10197 1.05099,-2.89731 3.80628,-2.89731 2.32922,0 2.95413,0.96577 2.95413,2.10197 z m -4.74365,9.20324 c -1.87473,0 -2.72688,-0.82375 -2.72688,-2.244 0,-1.73271 1.30663,-2.44283 4.11873,-3.03934 1.53387,-0.31246 2.92572,-0.71013 3.3518,-1.1362 v 2.41443 c 0,2.78369 -2.04517,4.00511 -4.74365,4.00511 z m 16.38972,-10.90754 v -1.98836 h -2.8405 v -4.82886 h -2.27241 v 4.82886 h -2.13038 v 1.98836 h 2.13038 v 8.94759 c 0,2.95413 1.47706,3.72106 3.40861,3.72106 0.59651,0 1.19301,-0.0568 1.7043,-0.17043 v -1.98835 c -1.93154,0.14203 -2.8405,-0.14203 -2.8405,-1.78952 v -8.72035 z m 8.40792,10.90754 c -3.15296,0 -4.71524,-2.44283 -4.71524,-5.0561 h 11.44724 c 0,-5.14132 -2.2156,-8.23747 -6.76041,-8.23747 -4.23235,0 -6.95924,2.8121 -6.95924,7.64096 0,4.54481 2.67008,7.64097 7.07286,7.64097 3.60745,0 5.68102,-2.15879 6.41955,-4.85727 h -2.27241 c -0.25564,0.99418 -1.33503,2.86891 -4.23235,2.86891 z m -0.0284,-11.30521 c 2.72689,0 4.488,1.93154 4.488,4.26075 h -9.17483 c 0,-2.32921 1.95995,-4.26075 4.68683,-4.26075 z m 7.27172,-1.59069 4.63002,14.48658 h 2.41443 l 3.20978,-11.95853 h 0.0568 l 3.26658,11.95853 h 2.41443 l 4.63002,-14.48658 h -2.49964 l -3.29499,12.01534 h -0.0568 l -3.26658,-12.01534 h -2.41443 l -3.23818,12.01534 h -0.0568 l -3.29499,-12.01534 z m 30.73428,3.69266 c 0,1.44866 -1.1078,1.76111 -3.55064,2.2156 -3.74946,0.71012 -6.1923,1.56227 -6.1923,4.85726 0,2.44284 1.84633,4.11874 4.77205,4.11874 2.38603,0 4.00511,-0.85216 4.91408,-2.2156 h 0.0568 c 0.39767,1.59068 1.22141,1.95995 2.58486,1.95995 0.42607,0 0.73853,-0.0284 1.33504,-0.22724 v -1.59068 c -1.44866,0.17043 -1.6475,-0.45449 -1.6475,-1.59069 v -7.04445 c 0,-3.49383 -2.47124,-4.57322 -5.22653,-4.57322 -4.20395,0 -5.93666,2.10198 -6.07868,4.88567 h 2.2724 c 0.14203,-2.10197 1.05099,-2.89731 3.80628,-2.89731 2.32922,0 2.95413,0.96577 2.95413,2.10197 z m -4.74365,9.20324 c -1.87473,0 -2.72688,-0.82375 -2.72688,-2.244 0,-1.73271 1.30663,-2.44283 4.11873,-3.03934 1.53387,-0.31246 2.92572,-0.71013 3.3518,-1.1362 v 2.41443 c 0,2.78369 -2.04517,4.00511 -4.74365,4.00511 z m 22.35478,-12.8959 h -2.55645 l -4.17555,11.81651 h -0.0568 l -4.43119,-11.81651 h -2.55645 l 5.48218,13.29357 c 0.5681,1.42025 -0.0284,2.64167 -0.62492,3.29499 -0.76693,0.82375 -1.64749,0.90896 -2.89731,0.79534 h -0.34086 v 1.7043 c 0.36926,0.11362 1.02258,0.28406 1.93154,0.28406 2.67008,0 3.40861,-2.13038 4.03352,-3.69266 z"
           id="path20" />
      </g>
      <line
         x1="375"
         y1="206"
         x2="375"
         y2="256"
         id="Path-4"
         stroke="#8993FE"
         stroke-width="7" />
      <g
         id="Group-4"
         transform="translate(237.000000, 104.500000) rotate(-90.000000) translate(-237.000000, -104.500000) translate(177.000000, 74.000000)">
        <g
           id="Group"
           transform="translate(89.500000, 30.500000) rotate(90.000000) translate(-89.500000, -30.500000) translate(59.000000, -0.000000)">
          <circle
             id="Oval"
             fill="#BDB8FF"
             cx="30.5"
             cy="30.5"
             r="30.5" />
          <g
             id="arrow-right-2"
             transform="translate(15.000000, 19.000000)"
             fill="#2F2E6B"
             fill-rule="nonzero">
            <g
               id="arrow-right">
              <path
                 d="M19.9921381,0.460513832 C20.5468652,-0.102336407 21.4175337,-0.149240594 22.0249178,0.319801272 L22.1836051,0.460513832 L27.8382594,6.19797133 C30.6244988,9.02490043 30.7173735,13.5468947 28.1169058,16.501991 L27.8382842,16.8019674 L22.1836085,22.5394827 C21.5784535,23.153503 20.5973003,23.1535062 19.9921415,22.5394897 C19.4374126,21.9766412 19.3911826,21.0932233 19.8534534,20.4769436 L19.9921346,20.3159322 L25.6436974,14.5815844 C27.2436392,12.9489406 27.3163638,10.3670434 25.8645817,8.65936117 L25.6468138,8.4215505 L19.9921381,2.68407131 C19.3869812,2.07005287 19.3869812,1.07453228 19.9921381,0.460513832 Z"
                 id="Path" />
              <path
                 d="M21.1052908,9.92365857 C21.9611119,9.92365857 22.654892,10.6275979 22.654892,11.4959511 C22.654892,12.2975079 22.0637421,12.9589725 21.2996695,13.0559933 L21.1052908,13.0682437 L1.54960118,13.0682437 C0.693780081,13.0682437 0,12.3643043 0,11.4959511 C0,10.6943943 0.591149892,10.0329298 1.3552225,9.93590896 L1.54960118,9.92365857 L21.1052908,9.92365857 Z"
                 id="path4" />
            </g>
          </g>
        </g>
        <g
           id="Group-Copy-5"
           transform="translate(30.500000, 30.500000) rotate(-90.000000) translate(-30.500000, -30.500000) translate(0.000000, -0.000000)">
          <circle
             id="circle4"
             fill="#BDB8FF"
             cx="30.5"
             cy="30.5"
             r="30.5" />
          <g
             id="g7"
             transform="translate(15.000000, 19.000000)"
             fill="#2F2E6B"
             fill-rule="nonzero">
            <g
               id="g6">
              <path
                 d="M19.9921381,0.460513832 C20.5468652,-0.102336407 21.4175337,-0.149240594 22.0249178,0.319801272 L22.1836051,0.460513832 L27.8382594,6.19797133 C30.6244988,9.02490043 30.7173735,13.5468947 28.1169058,16.501991 L27.8382842,16.8019674 L22.1836085,22.5394827 C21.5784535,23.153503 20.5973003,23.1535062 19.9921415,22.5394897 C19.4374126,21.9766412 19.3911826,21.0932233 19.8534534,20.4769436 L19.9921346,20.3159322 L25.6436974,14.5815844 C27.2436392,12.9489406 27.3163638,10.3670434 25.8645817,8.65936117 L25.6468138,8.4215505 L19.9921381,2.68407131 C19.3869812,2.07005287 19.3869812,1.07453228 19.9921381,0.460513832 Z"
                 id="path5" />
              <path
                 d="M21.1052908,9.92365857 C21.9611119,9.92365857 22.654892,10.6275979 22.654892,11.4959511 C22.654892,12.2975079 22.0637421,12.9589725 21.2996695,13.0559933 L21.1052908,13.0682437 L1.54960118,13.0682437 C0.693780081,13.0682437 0,12.3643043 0,11.4959511 C0,10.6943943 0.591149892,10.0329298 1.3552225,9.93590896 L1.54960118,9.92365857 L21.1052908,9.92365857 Z"
                 id="path6" />
            </g>
          </g>
        </g>
      </g>
      <g
         id="Group-39"
         transform="translate(0.000000, 4.000000)">
        <g
           id="Group-23"
           fill="#E1E1E1">
          <rect
             id="rect7"
             x="0"
             y="0"
             width="194"
             height="202"
             rx="30" />
        </g>
        <g
           id="Agent-System"
           style="font-size:28.4051px;font-family:NeueMontreal-Regular, 'Neue Montreal';fill:#303030"
           aria-label="AgentSystem">
          <path
             d="M 74.704938,89.915494 76.494457,95 h 2.641671 L 71.665597,74.69038 H 68.82509 L 61.326153,95 h 2.641671 l 1.789519,-5.084506 z M 66.609495,87.643089 70.216938,77.048 h 0.05681 l 3.607444,10.595089 z m 24.257924,-7.129671 v 1.789519 h -0.05681 c -0.852152,-1.107798 -2.215595,-2.18719 -4.60162,-2.18719 -3.579038,0 -6.476355,2.30081 -6.476355,7.072861 0,4.77205 2.897317,7.07286 6.476355,7.07286 2.386025,0 3.749468,-1.022582 4.60162,-2.272405 h 0.05681 v 2.18719 c 0,2.698481 -1.562278,3.863089 -4.260759,3.863089 -2.698482,0 -3.891494,-1.107798 -4.175545,-2.584861 H 80.15871 c 0.227241,2.471241 2.584861,4.573219 6.56157,4.573219 3.976709,0 6.419544,-1.959953 6.419544,-5.823042 v -13.69124 z m -4.37438,11.759696 c -2.982531,0 -4.488,-2.244 -4.488,-5.084506 0,-2.840507 1.505469,-5.084507 4.488,-5.084507 2.698481,0 4.37438,1.675899 4.37438,5.084507 0,3.408607 -1.675899,5.084506 -4.37438,5.084506 z m 15.935221,1.136202 c -3.152957,0 -4.715236,-2.442835 -4.715236,-5.056101 h 11.447236 c 0,-5.141316 -2.21559,-8.237468 -6.7604,-8.237468 -4.232355,0 -6.959241,2.812101 -6.959241,7.640962 0,4.54481 2.670076,7.640962 7.072861,7.640962 3.60744,0 5.68101,-2.158785 6.41954,-4.857266 h -2.2724 c -0.25565,0.994177 -1.33504,2.868911 -4.23236,2.868911 z m -0.0284,-11.305215 c 2.72689,0 4.488,1.931544 4.488,4.26076 h -9.174836 c 0,-2.329216 1.95995,-4.26076 4.686836,-4.26076 z m 16.1057,-1.988354 c -2.47124,0 -4.00512,1.107797 -4.77205,2.130379 h -0.0568 v -1.732708 h -2.27241 V 95 h 2.27241 v -9.03281 c 0,-2.244 1.7043,-3.863089 4.26076,-3.863089 2.2724,0 3.15296,1.477063 3.15296,3.351798 V 95 h 2.2724 V 84.887797 c 0,-3.323392 -2.21559,-4.77205 -4.85726,-4.77205 z m 13.91847,2.386025 v -1.988354 h -2.84051 v -4.828861 h -2.2724 v 4.828861 h -2.13038 v 1.988354 h 2.13038 v 8.947595 c 0,2.954127 1.47706,3.721063 3.40861,3.721063 0.5965,0 1.19301,-0.05681 1.7043,-0.17043 v -1.988354 c -1.93154,0.142025 -2.84051,-0.142026 -2.84051,-1.789519 v -8.720355 z"
             id="path21" />
          <path
             d="m 60.885873,118.11996 c -2.982532,-0.73853 -5.169722,-1.10779 -5.169722,-3.80628 0,-1.67589 1.533874,-2.78369 4.402785,-2.78369 3.209773,0 4.743646,1.42025 5.112912,4.14714 h 2.556456 c -0.340861,-4.20395 -3.351798,-6.41955 -7.669368,-6.41955 -4.488,0 -6.95924,2.13038 -6.95924,5.34015 0,3.94831 3.635848,4.9993 6.67519,5.70942 4.54481,1.05099 6.050278,1.56228 6.050278,4.34598 0,1.81792 -1.249823,3.43701 -4.77205,3.43701 -4.26076,0 -5.965064,-2.15878 -6.249114,-4.94248 h -2.556456 c 0.28405,4.65843 4.005114,7.21489 8.80557,7.21489 5.141316,0 7.328506,-2.7553 7.328506,-5.70942 0,-4.63003 -2.982532,-5.39696 -7.555747,-6.53317 z m 22.411581,-2.64167 h -2.556456 l -4.175544,11.81651 h -0.05681 l -4.43119,-11.81651 h -2.556455 l 5.482177,13.29357 c 0.568101,1.42025 -0.0284,2.64167 -0.624911,3.29499 -0.766937,0.82375 -1.647494,0.90896 -2.897317,0.79534 h -0.340861 v 1.7043 c 0.369266,0.11362 1.022583,0.28406 1.931545,0.28406 2.670076,0 3.408607,-2.13038 4.033519,-3.69266 z m 7.356945,5.87985 c -2.016759,-0.48289 -3.976709,-0.62491 -3.976709,-2.32922 0,-1.1362 1.107798,-1.95994 3.152962,-1.95994 2.726887,0 3.266583,1.44865 3.493823,2.55645 h 2.272405 c -0.22724,-2.49964 -2.158784,-4.54481 -5.766228,-4.54481 -3.408607,0 -5.425367,1.84633 -5.425367,4.11874 0,3.4086 3.294988,3.66425 5.510583,4.20394 2.073569,0.5113 3.976709,0.62492 3.976709,2.72689 0,0.96577 -0.965773,2.244 -3.437013,2.244 -3.635848,0 -4.20395,-1.61909 -4.345975,-3.23818 h -2.272405 c 0.142025,3.12456 2.18719,5.22654 6.61838,5.22654 3.294987,0 5.709418,-1.73271 5.709418,-4.37438 0,-3.57904 -2.925722,-4.00512 -5.510583,-4.63003 z m 13.748041,-3.89149 v -1.98836 h -2.8405 v -4.82886 h -2.272408 v 4.82886 h -2.13038 v 1.98836 h 2.13038 v 8.94759 c 0,2.95413 1.477068,3.72106 3.408608,3.72106 0.59651,0 1.19301,-0.0568 1.7043,-0.17043 v -1.98835 c -1.93154,0.14203 -2.8405,-0.14203 -2.8405,-1.78952 v -8.72035 z m 8.40792,10.90754 c -3.15296,0 -4.71524,-2.44283 -4.71524,-5.0561 h 11.44724 c 0,-5.14132 -2.21559,-8.23747 -6.76041,-8.23747 -4.23235,0 -6.95924,2.8121 -6.95924,7.64096 0,4.54481 2.67008,7.64097 7.07287,7.64097 3.60744,0 5.68101,-2.15879 6.41954,-4.85727 h -2.27241 c -0.25564,0.99418 -1.33503,2.86891 -4.23235,2.86891 z m -0.0284,-11.30521 c 2.72689,0 4.48801,1.93154 4.48801,4.26075 h -9.17484 c 0,-2.32921 1.95995,-4.26075 4.68683,-4.26075 z m 24.14433,-1.98836 c -2.18719,0 -3.69266,1.1362 -4.68683,2.49965 h -0.0568 c -0.59651,-1.61909 -1.78952,-2.49965 -3.86309,-2.49965 -2.18719,0 -3.43701,1.1078 -4.20395,2.13038 h -0.0568 v -1.73271 h -2.27241 v 14.48658 h 2.27241 v -9.03281 c 0,-2.244 1.42025,-3.86308 3.69266,-3.86308 2.2724,0 2.64167,1.47706 2.64167,3.35179 v 9.5441 h 2.2724 v -9.03281 c 0,-2.244 1.42026,-3.86308 3.69266,-3.86308 2.27241,0 2.64167,1.47706 2.64167,3.35179 v 9.5441 h 2.27241 v -10.1122 c 0,-3.03934 -1.42026,-4.77205 -4.34598,-4.77205 z"
             id="path22" />
        </g>
      </g>
      <g
         id="Group-4-Copy"
         transform="translate(513.000000, 104.500000) rotate(-90.000000) translate(-513.000000, -104.500000) translate(453.000000, 74.000000)">
        <g
           id="g11"
           transform="translate(89.500000, 30.500000) rotate(90.000000) translate(-89.500000, -30.500000) translate(59.000000, -0.000000)">
          <circle
             id="circle8"
             fill="#BDB8FF"
             cx="30.5"
             cy="30.5"
             r="30.5" />
          <g
             id="g10"
             transform="translate(15.000000, 19.000000)"
             fill="#2F2E6B"
             fill-rule="nonzero">
            <g
               id="g9">
              <path
                 d="M19.9921381,0.460513832 C20.5468652,-0.102336407 21.4175337,-0.149240594 22.0249178,0.319801272 L22.1836051,0.460513832 L27.8382594,6.19797133 C30.6244988,9.02490043 30.7173735,13.5468947 28.1169058,16.501991 L27.8382842,16.8019674 L22.1836085,22.5394827 C21.5784535,23.153503 20.5973003,23.1535062 19.9921415,22.5394897 C19.4374126,21.9766412 19.3911826,21.0932233 19.8534534,20.4769436 L19.9921346,20.3159322 L25.6436974,14.5815844 C27.2436392,12.9489406 27.3163638,10.3670434 25.8645817,8.65936117 L25.6468138,8.4215505 L19.9921381,2.68407131 C19.3869812,2.07005287 19.3869812,1.07453228 19.9921381,0.460513832 Z"
                 id="path8" />
              <path
                 d="M21.1052908,9.92365857 C21.9611119,9.92365857 22.654892,10.6275979 22.654892,11.4959511 C22.654892,12.2975079 22.0637421,12.9589725 21.2996695,13.0559933 L21.1052908,13.0682437 L1.54960118,13.0682437 C0.693780081,13.0682437 0,12.3643043 0,11.4959511 C0,10.6943943 0.591149892,10.0329298 1.3552225,9.93590896 L1.54960118,9.92365857 L21.1052908,9.92365857 Z"
                 id="path9" />
            </g>
          </g>
        </g>
        <g
           id="g14"
           transform="translate(30.500000, 30.500000) rotate(-90.000000) translate(-30.500000, -30.500000) translate(0.000000, -0.000000)">
          <circle
             id="circle11"
             fill="#BDB8FF"
             cx="30.5"
             cy="30.5"
             r="30.5" />
          <g
             id="g13"
             transform="translate(15.000000, 19.000000)"
             fill="#2F2E6B"
             fill-rule="nonzero">
            <g
               id="g12">
              <path
                 d="M19.9921381,0.460513832 C20.5468652,-0.102336407 21.4175337,-0.149240594 22.0249178,0.319801272 L22.1836051,0.460513832 L27.8382594,6.19797133 C30.6244988,9.02490043 30.7173735,13.5468947 28.1169058,16.501991 L27.8382842,16.8019674 L22.1836085,22.5394827 C21.5784535,23.153503 20.5973003,23.1535062 19.9921415,22.5394897 C19.4374126,21.9766412 19.3911826,21.0932233 19.8534534,20.4769436 L19.9921346,20.3159322 L25.6436974,14.5815844 C27.2436392,12.9489406 27.3163638,10.3670434 25.8645817,8.65936117 L25.6468138,8.4215505 L19.9921381,2.68407131 C19.3869812,2.07005287 19.3869812,1.07453228 19.9921381,0.460513832 Z"
                 id="path11" />
              <path
                 d="M21.1052908,9.92365857 C21.9611119,9.92365857 22.654892,10.6275979 22.654892,11.4959511 C22.654892,12.2975079 22.0637421,12.9589725 21.2996695,13.0559933 L21.1052908,13.0682437 L1.54960118,13.0682437 C0.693780081,13.0682437 0,12.3643043 0,11.4959511 C0,10.6943943 0.591149892,10.0329298 1.3552225,9.93590896 L1.54960118,9.92365857 L21.1052908,9.92365857 Z"
                 id="path12" />
            </g>
          </g>
        </g>
      </g>
      <g
         id="g15"
         transform="translate(554.000000, 0.000000)"
         fill="#F3F3F3">
        <rect
           id="rect14"
           x="0"
           y="0"
           width="252"
           height="202"
           rx="30" />
      </g>
      <g
         id="Group-38"
         transform="translate(567.000000, 11.000000)">
        <g
           id="Group-13">
          <rect
             id="Rectangle-Copy-5"
             fill="#FF66CB"
             x="0"
             y="0"
             width="225"
             height="86"
             rx="19" />
          <g
             id="Group-8"
             transform="translate(0.000000, 1.000000)" />
        </g>
        <g
           id="Group-13-Copy"
           transform="translate(1.000000, 93.000000)">
          <rect
             id="rect15"
             fill="#D766FF"
             x="0"
             y="0"
             width="225"
             height="86"
             rx="19" />
          <g
             id="g16"
             transform="translate(0.000000, 1.000000)" />
        </g>
        <path
           d="M 86.878634,34.69038 V 55 H 100.08699 V 52.727595 H 89.435089 V 34.69038 Z m 15.736426,0 V 55 h 13.20836 v -2.272405 h -10.6519 V 34.69038 Z M 118.35149,55 h 2.55646 V 38.297823 h 0.0568 L 127.10025,55 h 2.27241 l 6.13549,-16.702177 h 0.0568 V 55 h 2.55646 V 34.69038 h -3.49383 l -6.36273,16.872607 h -0.0568 L 121.84531,34.69038 h -3.49382 z"
           id="LLM"
           style="font-size:28.4051px;font-family:NeueMontreal-Regular, 'Neue Montreal';fill:#ffffff"
           aria-label="LLM" />
        <path
           d="m 84.981318,147 h 2.556455 v -16.70218 h 0.05681 L 93.730077,147 h 2.272405 l 6.135498,-16.70218 h 0.0568 V 147 h 2.55645 v -20.30962 h -3.49382 l -6.362735,16.87261 h -0.05681 L 88.47514,126.69038 h -3.493822 z m 38.432022,-13.60603 h 2.55646 c -0.48289,-3.86308 -3.66425,-7.10126 -8.63514,-7.10126 -5.56739,0 -9.40208,4.43119 -9.40208,10.53828 0,6.13549 3.83469,10.56668 9.40208,10.56668 4.99929,0 8.18066,-3.23818 8.63514,-7.72618 h -2.55646 c -0.17043,2.55646 -1.81792,5.45378 -6.07868,5.45378 -4.82886,0 -6.84562,-4.17555 -6.84562,-8.29428 0,-4.09033 2.01676,-8.26588 6.84562,-8.26588 4.23235,0 5.70942,2.89732 6.07868,4.82886 z M 128.8387,147 h 2.55646 v -8.49311 h 5.51058 c 3.72106,0 6.58997,-1.6475 6.58997,-5.90826 0,-4.26076 -2.86891,-5.90825 -6.58997,-5.90825 h -8.06704 z m 2.55646,-18.03722 h 5.79463 c 2.52805,0 3.74947,1.16461 3.74947,3.63585 0,2.47124 -1.22142,3.63585 -3.74947,3.63585 h -5.79463 z"
           id="MCP"
           style="font-size:28.4051px;font-family:NeueMontreal-Regular, 'Neue Montreal';fill:#ffffff"
           aria-label="MCP" />
      </g>
    </g>
  </g>
</svg>
