<?xml version="1.0" encoding="UTF-8"?>
<svg width="108px" height="124px" viewBox="0 0 108 124" version="1.1" xmlns="http://www.w3.org/2000/svg" xmlns:xlink="http://www.w3.org/1999/xlink">
    <title>Group 2</title>
    <defs>
        <linearGradient x1="90.5155228%" y1="100%" x2="13.9106321%" y2="4.11940737%" id="linearGradient-1">
            <stop stop-color="#FFFFFF" offset="0%"></stop>
            <stop stop-color="#FFFFFF" offset="100%"></stop>
        </linearGradient>
    </defs>
    <g id="Page-1" stroke="none" stroke-width="1" fill="none" fill-rule="evenodd">
        <g id="Group-2">
            <path d="M31.4125888,4.34 C39.7825824,2.05375 48.677147,0 54,0 C59.322853,0 68.2174176,2.05375 76.5874112,4.34 C85.1502617,6.665 93.7825408,9.41625 98.8585369,11.0825 C103.189286,12.5193007 106.318974,16.3200228 106.912245,20.863 C111.509956,55.55975 100.841107,81.27425 87.8965453,98.2855 C82.4051923,105.560658 75.8603319,111.968636 68.4797031,117.29625 C65.9303284,119.144172 63.2251984,120.764911 60.3951379,122.14 C58.2351396,123.163 55.9131414,124 54,124 C52.0868586,124 49.7725747,123.163 47.6048621,122.14 C44.7748016,120.764911 42.0696716,119.144172 39.5202969,117.29625 C32.1396681,111.968636 25.5948077,105.560658 20.1034547,98.2855 C7.15889318,81.27425 -3.50995575,55.55975 1.087755,20.863 C1.6810263,16.3200228 4.81071352,12.5193007 9.14146308,11.0825 C16.510565,8.65682085 23.9363999,6.40867713 31.4125888,4.34" id="Shape" fill="#3A3E60" fill-rule="nonzero"></path>
            <path d="M32.5560282,10.2244339 C24.8834139,12.3432582 17.2632662,14.6486644 9.70232882,17.1386124 C8.29250876,17.5944941 7.26634523,18.8179181 7.06009639,20.2887639 C2.59730137,53.8661474 12.9084523,78.3646329 25.2093332,94.5031011 C30.4151045,101.406303 36.6254221,107.486337 43.6324599,112.539737 C46.4196929,114.510601 48.8847025,115.932208 50.8260988,116.844944 C51.7927692,117.302659 52.5795315,117.620366 53.1863857,117.798067 C53.453912,117.879489 53.7254843,117.946891 54,118 C54.2718031,117.94662 54.5406798,117.879219 54.8055587,117.798067 C55.4177833,117.614981 56.2072308,117.297274 57.1739012,116.844944 C59.107242,115.932208 61.5803071,114.502524 64.3675401,112.539737 C71.3745779,107.486337 77.5848955,101.406303 82.7906668,94.5031011 C95.0915477,78.3727102 105.402699,53.8661474 100.939904,20.2887639 C100.733655,18.8179181 99.7074912,17.5944941 98.2976712,17.1386124 C93.0534842,15.4181451 84.2003945,12.615318 75.4439718,10.2325112 C66.5022705,7.80124044 58.2775165,6 54,6 C49.7305391,6 41.4977295,7.80124044 32.5560282,10.2325112 L32.5560282,10.2244339 Z" id="Path" fill="#4844EE" fill-rule="nonzero"></path>
            <g id="Group-Copy" transform="translate(32.033898, 32.392593)" fill="url(#linearGradient-1)">
                <path d="M42.1207192,31.0664573 L31.5462541,24.8689167 C28.6366066,23.163469 26.8503285,20.0545908 26.8503285,16.6952806 L26.8503285,4.3928088 C26.8503285,1.96678937 24.8731705,0 22.4341498,0 L22.0515136,0 C19.6124929,0 17.6353349,1.96678937 17.6353349,4.3928088 L17.6353349,16.6391643 C17.6353349,19.9984745 15.8490567,23.107527 12.939234,24.8128004 L2.2692764,31.0664573 C0.076927164,32.3513813 -0.653289175,35.1610306 0.638629344,37.3417242 C1.93032,39.5224177 4.75500924,40.2487928 6.94728836,38.9636945 L17.3531341,32.8649675 C20.3411317,31.1136856 24.0488288,31.1136856 27.0368264,32.8649675 L37.4424969,38.9636945 C39.6348987,40.2484442 42.4593601,39.5224177 43.7513487,37.3417242 C45.0429868,35.1610306 44.3129457,32.3515556 42.1207192,31.0664573 Z M7.02318458,10.6425619 L12.0756296,13.6041784 C14.2680314,14.8891023 14.9978972,17.6985774 13.7060839,19.879271 L13.7059086,19.8794452 C12.4139199,22.0601388 9.58945857,22.7861653 7.39723203,21.501067 L2.34478701,18.5396249 C0.152490357,17.2547009 -0.577445534,14.4452259 0.714437929,12.2645323 L0.714560625,12.264358 C2.00642656,10.0836644 4.83092299,9.35763794 7.02318458,10.6425619 Z M42.1100271,18.5411933 L37.0575821,21.5026355 C34.8651802,22.7875595 32.0407189,22.061533 30.7489055,19.8808394 L30.7487302,19.8806652 C29.4569169,17.6999716 30.1867827,14.8904965 32.3790092,13.6055726 L37.4314542,10.6441304 C39.623856,9.35903213 42.4483174,10.0850586 43.7401308,12.2657522 L43.7403061,12.2659265 C45.0321194,14.44662 44.3022536,17.2560951 42.1100271,18.5411933 Z M26.8398117,39.1838029 L26.8398117,45.0171103 C26.8398117,47.5482694 24.7769418,49.6 22.2322272,49.6 L22.232052,49.6 C19.6875127,49.6 17.6246428,47.5482694 17.6246428,45.0171103 L17.6246428,39.1838029 C17.6246428,36.6526438 19.6875127,34.6009132 22.232052,34.6009132 L22.2322272,34.6009132 C24.7769418,34.6009132 26.8398117,36.6526438 26.8398117,39.1838029 Z" id="Shape"></path>
            </g>
        </g>
    </g>
</svg>