<?xml version="1.0" encoding="UTF-8" standalone="no"?>
<svg
   width="1269px"
   height="772px"
   viewBox="0 0 1269 772"
   version="1.1"
   id="svg27"
   xmlns="http://www.w3.org/2000/svg"
   xmlns:svg="http://www.w3.org/2000/svg">
  <title
     id="title1">Group 15</title>
  <defs
     id="defs3">
    <linearGradient
       x1="50%"
       y1="0%"
       x2="50%"
       y2="100%"
       id="linearGradient-1">
      <stop
         stop-color="#FFFFFF"
         stop-opacity="0"
         offset="0.704763986%"
         id="stop1" />
      <stop
         stop-color="#FFFFFF"
         offset="51.5379152%"
         id="stop2" />
      <stop
         stop-color="#FFFFFF"
         stop-opacity="0"
         offset="100%"
         id="stop3" />
    </linearGradient>
  </defs>
  <g
     id="Page-2"
     stroke="none"
     stroke-width="1"
     fill="none"
     fill-rule="evenodd">
    <g
       id="Group-15">
      <path
         d="M316,164 L316,113 L493.5,113 C507.583261,113 519,124.416739 519,138.5 C519,152.583261 507.583261,164 493.5,164 L316,164 Z"
         id="Combined-Shape"
         fill="#E2E2E2" />
      <rect
         id="rect3"
         fill="#E2E2E2"
         x="986"
         y="113"
         width="203"
         height="51"
         rx="25.5" />
      <line
         x1="519"
         y1="6.36754847"
         x2="519"
         y2="772"
         id="Path-8"
         stroke="#DBDBDB" />
      <polyline
         id="Path-8-Copy"
         stroke="#DBDBDB"
         points="637 6.36754847 637 382.566999 519 402.035694 519 772" />
      <polyline
         id="Path-9"
         stroke="#DBDBDB"
         points="750 772 750 402.365656 868 383.365656 868 6.36754847" />
      <polyline
         id="Path-9-Copy"
         stroke="#DBDBDB"
         points="813 772 813 428.946456 986 398.946456 986 6.36754847" />
      <polyline
         id="Path-9-Copy-2"
         stroke="#DBDBDB"
         points="1017 772 1017 428.946456 1189 398.946456 1189 6.36754847" />
      <g
         id="Group-12"
         transform="translate(519.000000, 145.000000)"
         fill="#FF6678">
        <rect
           id="Rectangle-Copy-3"
           x="0"
           y="51"
           width="118"
           height="51"
           rx="25.5" />
        <g
           id="Input-Guardrails"
           style="font-size:17.29px;font-family:NeueMontreal-Regular, 'Neue Montreal'"
           aria-label="InputGuardrails">
          <path
             d="M 41.140801,4.6376221 V 17 h 1.556103 V 4.6376221 Z m 8.022589,3.3023974 c -1.504233,0 -2.437895,0.6743116 -2.904726,1.296753 h -0.03458 V 8.1820801 H 44.84088 V 17 h 1.383204 v -5.498232 c 0,-1.365914 1.037402,-2.3514457 2.593505,-2.3514457 1.383204,0 1.919195,0.8990817 1.919195,2.0402247 V 17 h 1.383203 v -6.155254 c 0,-2.0229345 -1.348623,-2.9047265 -2.956597,-2.9047265 z m 9.025399,0 c -1.452363,0 -2.282285,0.6570215 -2.800986,1.331333 h -0.03458 V 8.1820801 H 53.97002 V 19.973887 h 1.383203 v -4.11503 h 0.03458 c 0.518701,0.760762 1.348623,1.383204 2.800986,1.383204 2.178545,0 3.942129,-1.746294 3.942129,-4.651021 0,-2.9047265 -1.763584,-4.6510205 -3.942129,-4.6510205 z m -0.1729,8.0917385 c -1.642554,0 -2.662666,-1.365913 -2.662666,-3.440718 0,-2.074805 1.020112,-3.4407177 2.662666,-3.4407177 1.815454,0 2.731826,1.7117137 2.731826,3.4407177 0,1.729004 -0.916372,3.440718 -2.731826,3.440718 z M 69.42731,8.1820801 v 5.4982319 c 0,1.365914 -1.037403,2.351446 -2.593506,2.351446 -1.383203,0 -1.919195,-0.899082 -1.919195,-2.040225 V 8.1820801 h -1.383203 v 6.1552539 c 0,2.022935 1.348623,2.904727 2.956597,2.904727 1.504233,0 2.437895,-0.674312 2.904726,-1.296753 h 0.03458 V 17 h 1.383203 V 8.1820801 Z m 7.123494,1.2103027 V 8.1820801 H 74.8218 V 5.2427734 h -1.383203 v 2.9393067 h -1.296753 v 1.2103027 h 1.296753 v 5.4463622 c 0,1.798164 0.899082,2.264995 2.074805,2.264995 0.36309,0 0.726181,-0.03458 1.037402,-0.10374 V 15.789697 C 75.375081,15.876147 74.8218,15.703247 74.8218,14.700425 V 9.3923828 Z"
             id="path27" />
          <path
             d="m 30.420978,29.959581 h 1.556103 c -0.432251,-2.351445 -2.074804,-3.976709 -5.204301,-3.976709 -3.423428,0 -5.740293,2.697246 -5.740293,6.414605 0,3.734648 1.971064,6.431894 5.567392,6.431894 1.901905,0 3.060337,-0.691601 3.993999,-1.988354 h 0.03458 l 0.518702,1.746294 h 1.037402 v -6.431895 h -5.584683 v 1.383203 h 4.028579 c 0,2.316866 -1.815454,3.907549 -4.028579,3.907549 -3.112207,0 -4.011289,-2.714536 -4.011289,-5.048691 0,-2.316865 1.244883,-5.031402 4.18419,-5.031402 1.867324,0 3.285107,0.829922 3.648198,2.593506 z m 9.544111,-0.19019 v 5.498232 c 0,1.365913 -1.037402,2.351446 -2.593505,2.351446 -1.383204,0 -1.919195,-0.899082 -1.919195,-2.040225 v -5.809453 h -1.383203 v 6.155254 c 0,2.022934 1.348623,2.904726 2.956597,2.904726 1.504233,0 2.437895,-0.674311 2.904726,-1.296753 h 0.03458 v 1.054693 h 1.383204 v -8.81792 z m 8.679599,2.247705 c 0,0.881792 -0.674311,1.071982 -2.161255,1.348623 -2.282285,0.432251 -3.769228,0.950952 -3.769228,2.956597 0,1.486943 1.123852,2.507055 2.904726,2.507055 1.452364,0 2.437896,-0.518701 2.991177,-1.348623 h 0.03458 c 0.242061,0.968242 0.743472,1.193013 1.573394,1.193013 0.25935,0 0.449541,-0.01729 0.812632,-0.13832 v -0.968243 c -0.881792,0.103741 -1.002823,-0.27664 -1.002823,-0.968242 v -4.287929 c 0,-2.126675 -1.504233,-2.783697 -3.181367,-2.783697 -2.558926,0 -3.613618,1.279463 -3.700068,2.973887 h 1.383203 c 0.08645,-1.279463 0.639731,-1.763584 2.316865,-1.763584 1.417783,0 1.798164,0.587861 1.798164,1.279463 z m -2.887436,5.601973 c -1.141143,0 -1.659844,-0.501412 -1.659844,-1.365913 0,-1.054693 0.795342,-1.486944 2.507056,-1.850035 0.933662,-0.19019 1.780874,-0.432251 2.040224,-0.691601 v 1.469653 c 0,1.694424 -1.244883,2.437896 -2.887436,2.437896 z M 55.923797,29.52733 c -1.262172,0 -1.971064,0.829922 -2.437895,1.988355 h -0.03458 v -1.746294 h -1.383203 v 8.81792 h 1.383203 V 33.88442 c 0,-1.884614 1.331333,-3.233237 3.250527,-2.922016 h 0.03458 V 29.5792 c -0.24206,-0.03458 -0.484121,-0.05187 -0.812632,-0.05187 z m 8.005286,-3.302397 v 4.6856 h -0.03458 C 63.375802,30.149772 62.54588,29.52733 61.128097,29.52733 c -2.213125,0 -3.976709,1.746294 -3.976709,4.651021 0,2.904726 1.763584,4.65102 3.976709,4.65102 1.417783,0 2.247705,-0.657021 2.766406,-1.331333 h 0.03458 v 1.089273 h 1.383204 V 26.224933 Z m -2.662666,11.394136 c -1.815454,0 -2.731826,-1.711714 -2.731826,-3.440718 0,-1.729004 0.916372,-3.440718 2.731826,-3.440718 1.642554,0 2.662666,1.365913 2.662666,3.440718 0,2.074805 -1.020112,3.440718 -2.662666,3.440718 z m 9.803447,-8.091739 c -1.262173,0 -1.971064,0.829922 -2.437895,1.988355 h -0.03458 v -1.746294 h -1.383203 v 8.81792 h 1.383203 V 33.88442 c 0,-1.884614 1.331333,-3.233237 3.250528,-2.922016 h 0.03458 V 29.5792 c -0.242061,-0.03458 -0.484121,-0.05187 -0.812632,-0.05187 z m 7.123492,2.489766 c 0,0.881792 -0.674311,1.071982 -2.161255,1.348623 -2.282285,0.432251 -3.769228,0.950952 -3.769228,2.956597 0,1.486943 1.123852,2.507055 2.904726,2.507055 1.452364,0 2.437896,-0.518701 2.991177,-1.348623 h 0.03458 c 0.242061,0.968242 0.743472,1.193013 1.573394,1.193013 0.25935,0 0.449541,-0.01729 0.812632,-0.13832 v -0.968243 c -0.881792,0.103741 -1.002823,-0.27664 -1.002823,-0.968242 v -4.287929 c 0,-2.126675 -1.504233,-2.783697 -3.181367,-2.783697 -2.558926,0 -3.613618,1.279463 -3.700068,2.973887 h 1.383203 c 0.08645,-1.279463 0.639731,-1.763584 2.316865,-1.763584 1.417783,0 1.798164,0.587861 1.798164,1.279463 z m -2.887436,5.601973 c -1.141143,0 -1.659844,-0.501412 -1.659844,-1.365913 0,-1.054693 0.795342,-1.486944 2.507056,-1.850035 0.933662,-0.19019 1.780874,-0.432251 2.040224,-0.691601 v 1.469653 c 0,1.694424 -1.244883,2.437896 -2.887436,2.437896 z m 7.17537,-9.561392 c 0.397671,0 0.864502,-0.293931 0.864502,-0.829922 0,-0.535991 -0.466831,-0.829922 -0.864502,-0.829922 -0.38038,0 -0.864502,0.293931 -0.864502,0.829922 0,0.535991 0.484122,0.829922 0.864502,0.829922 z m -0.691601,1.711714 v 8.81792 h 1.383203 v -8.81792 z m 3.336958,-3.544458 V 38.587311 H 86.50985 V 26.224933 Z m 6.916004,7.123496 c -1.227593,-0.293931 -2.420605,-0.380381 -2.420605,-1.417783 0,-0.691602 0.674311,-1.193013 1.919194,-1.193013 1.659844,0 1.988355,0.881792 2.126675,1.556104 h 1.383203 c -0.13832,-1.521524 -1.314043,-2.766407 -3.509878,-2.766407 -2.074805,0 -3.302397,1.123853 -3.302397,2.507056 0,2.074805 2.005644,2.230415 3.354267,2.558926 1.262173,0.31122 2.420606,0.380381 2.420606,1.659844 0,0.587861 -0.587862,1.365913 -2.092095,1.365913 -2.213125,0 -2.558926,-0.985533 -2.645376,-1.971065 h -1.383203 c 0.08645,1.901904 1.331333,3.181367 4.028579,3.181367 2.005644,0 3.475298,-1.054692 3.475298,-2.662666 0,-2.178545 -1.780874,-2.437895 -3.354268,-2.818276 z"
             id="path28" />
        </g>
      </g>
      <rect
         id="Rectangle-Copy-6"
         fill="#FF6678"
         x="868"
         y="196"
         width="118"
         height="51"
         rx="25.5" />
      <g
         id="Output-Guardrails"
         style="font-size:17.29px;font-family:NeueMontreal-Regular, 'Neue Montreal';fill:#ff6678"
         aria-label="OutputGuardrails">
        <path
           d="m 908.27345,162.24206 c 3.63091,0 6.05151,-2.71454 6.05151,-6.43189 0,-3.71736 -2.4206,-6.41461 -6.05151,-6.41461 -3.63091,0 -6.05151,2.69725 -6.05151,6.41461 0,3.71735 2.4206,6.43189 6.05151,6.43189 z m 0,-1.3832 c -3.11221,0 -4.49541,-2.38603 -4.49541,-5.04869 0,-2.66267 1.3832,-5.03141 4.49541,-5.03141 3.11221,0 4.49541,2.36874 4.49541,5.03141 0,2.66266 -1.3832,5.04869 -4.49541,5.04869 z m 13.53811,-7.67678 v 5.49823 c 0,1.36592 -1.0374,2.35145 -2.5935,2.35145 -1.38321,0 -1.9192,-0.89908 -1.9192,-2.04023 v -5.80945 h -1.3832 v 6.15525 c 0,2.02294 1.34862,2.90473 2.9566,2.90473 1.50423,0 2.43789,-0.67431 2.90472,-1.29675 h 0.0346 V 162 h 1.38321 v -8.81792 z m 7.1235,1.2103 v -1.2103 h -1.72901 v -2.93931 h -1.3832 v 2.93931 h -1.29675 v 1.2103 h 1.29675 v 5.44637 c 0,1.79816 0.89908,2.26499 2.0748,2.26499 0.3631,0 0.72619,-0.0346 1.03741,-0.10374 v -1.2103 c -1.17573,0.0864 -1.72901,-0.0865 -1.72901,-1.08928 v -5.30804 z m 5.67112,-1.45236 c -1.45236,0 -2.28228,0.65702 -2.80098,1.33133 h -0.0346 v -1.08927 h -1.38321 v 11.79181 h 1.38321 v -4.11503 h 0.0346 c 0.5187,0.76076 1.34862,1.3832 2.80098,1.3832 2.17855,0 3.94213,-1.74629 3.94213,-4.65102 0,-2.90473 -1.76358,-4.65102 -3.94213,-4.65102 z m -0.1729,8.09174 c -1.64255,0 -2.66266,-1.36592 -2.66266,-3.44072 0,-2.0748 1.02011,-3.44072 2.66266,-3.44072 1.81546,0 2.73183,1.71172 2.73183,3.44072 0,1.729 -0.91637,3.44072 -2.73183,3.44072 z m 11.41143,-7.84968 v 5.49823 c 0,1.36592 -1.03741,2.35145 -2.59351,2.35145 -1.3832,0 -1.91919,-0.89908 -1.91919,-2.04023 v -5.80945 h -1.38321 v 6.15525 c 0,2.02294 1.34863,2.90473 2.9566,2.90473 1.50423,0 2.43789,-0.67431 2.90473,-1.29675 h 0.0346 V 162 h 1.3832 v -8.81792 z m 7.12349,1.2103 v -1.2103 h -1.729 v -2.93931 h -1.38321 v 2.93931 h -1.29675 v 1.2103 h 1.29675 v 5.44637 c 0,1.79816 0.89909,2.26499 2.07481,2.26499 0.36309,0 0.72618,-0.0346 1.0374,-0.10374 v -1.2103 c -1.17572,0.0864 -1.729,-0.0865 -1.729,-1.08928 v -5.30804 z"
           id="path29" />
        <path
           d="m 899.42097,174.95958 h 1.55611 c -0.43225,-2.35144 -2.07481,-3.97671 -5.2043,-3.97671 -3.42343,0 -5.7403,2.69725 -5.7403,6.41461 0,3.73465 1.97107,6.43189 5.5674,6.43189 1.9019,0 3.06033,-0.6916 3.99399,-1.98835 h 0.0346 l 0.51871,1.74629 h 1.0374 v -6.43189 h -5.58468 v 1.3832 h 4.02857 c 0,2.31686 -1.81545,3.90755 -4.02857,3.90755 -3.11221,0 -4.01129,-2.71454 -4.01129,-5.04869 0,-2.31687 1.24488,-5.0314 4.18419,-5.0314 1.86732,0 3.2851,0.82992 3.64819,2.5935 z m 9.54412,-0.19019 v 5.49823 c 0,1.36592 -1.03741,2.35145 -2.59351,2.35145 -1.3832,0 -1.91919,-0.89908 -1.91919,-2.04023 v -5.80945 h -1.38321 v 6.15525 c 0,2.02294 1.34863,2.90473 2.9566,2.90473 1.50423,0 2.43789,-0.67431 2.90473,-1.29675 h 0.0346 v 1.05469 h 1.3832 v -8.81792 z m 8.67959,2.24771 c 0,0.88179 -0.67431,1.07198 -2.16125,1.34862 -2.28229,0.43225 -3.76923,0.95095 -3.76923,2.9566 0,1.48694 1.12385,2.50705 2.90473,2.50705 1.45236,0 2.43789,-0.5187 2.99117,-1.34862 h 0.0346 c 0.24206,0.96824 0.74348,1.19301 1.5734,1.19301 0.25935,0 0.44954,-0.0173 0.81263,-0.13832 v -0.96824 c -0.88179,0.10374 -1.00282,-0.27664 -1.00282,-0.96824 v -4.28793 c 0,-2.12668 -1.50424,-2.7837 -3.18137,-2.7837 -2.55893,0 -3.61362,1.27946 -3.70007,2.97389 h 1.38321 c 0.0865,-1.27947 0.63973,-1.76359 2.31686,-1.76359 1.41778,0 1.79816,0.58786 1.79816,1.27947 z m -2.88743,5.60197 c -1.14114,0 -1.65985,-0.50141 -1.65985,-1.36591 0,-1.0547 0.79535,-1.48695 2.50706,-1.85004 0.93366,-0.19019 1.78087,-0.43225 2.04022,-0.6916 v 1.46965 c 0,1.69443 -1.24488,2.4379 -2.88743,2.4379 z m 10.16654,-8.09174 c -1.26217,0 -1.97106,0.82992 -2.43789,1.98835 h -0.0346 v -1.74629 h -1.38321 v 8.81792 h 1.38321 v -4.70289 c 0,-1.88461 1.33133,-3.23324 3.25053,-2.92202 h 0.0346 v -1.3832 c -0.24207,-0.0346 -0.48413,-0.0519 -0.81264,-0.0519 z m 8.00529,-3.3024 v 4.6856 h -0.0346 c -0.5187,-0.76076 -1.34862,-1.3832 -2.76641,-1.3832 -2.21312,0 -3.97671,1.74629 -3.97671,4.65102 0,2.90473 1.76359,4.65102 3.97671,4.65102 1.41779,0 2.24771,-0.65702 2.76641,-1.33133 h 0.0346 v 1.08927 h 1.3832 v -12.36238 z m -2.66267,11.39414 c -1.81545,0 -2.73182,-1.71172 -2.73182,-3.44072 0,-1.729 0.91637,-3.44072 2.73182,-3.44072 1.64256,0 2.66267,1.36592 2.66267,3.44072 0,2.07481 -1.02011,3.44072 -2.66267,3.44072 z m 9.80345,-8.09174 c -1.26217,0 -1.97106,0.82992 -2.4379,1.98835 h -0.0346 v -1.74629 h -1.3832 v 8.81792 h 1.3832 v -4.70289 c 0,-1.88461 1.33134,-3.23324 3.25053,-2.92202 h 0.0346 v -1.3832 c -0.24206,-0.0346 -0.48412,-0.0519 -0.81263,-0.0519 z m 7.12349,2.48977 c 0,0.88179 -0.67431,1.07198 -2.16125,1.34862 -2.28229,0.43225 -3.76923,0.95095 -3.76923,2.9566 0,1.48694 1.12385,2.50705 2.90473,2.50705 1.45236,0 2.43789,-0.5187 2.99117,-1.34862 h 0.0346 c 0.24206,0.96824 0.74347,1.19301 1.5734,1.19301 0.25935,0 0.44954,-0.0173 0.81263,-0.13832 v -0.96824 c -0.88179,0.10374 -1.00282,-0.27664 -1.00282,-0.96824 v -4.28793 c 0,-2.12668 -1.50424,-2.7837 -3.18137,-2.7837 -2.55893,0 -3.61362,1.27946 -3.70007,2.97389 h 1.3832 c 0.0865,-1.27947 0.63973,-1.76359 2.31687,-1.76359 1.41778,0 1.79816,0.58786 1.79816,1.27947 z m -2.88743,5.60197 c -1.14115,0 -1.65985,-0.50141 -1.65985,-1.36591 0,-1.0547 0.79534,-1.48695 2.50706,-1.85004 0.93366,-0.19019 1.78087,-0.43225 2.04022,-0.6916 v 1.46965 c 0,1.69443 -1.24488,2.4379 -2.88743,2.4379 z m 7.17537,-9.56139 c 0.39767,0 0.8645,-0.29393 0.8645,-0.82992 0,-0.536 -0.46683,-0.82993 -0.8645,-0.82993 -0.38038,0 -0.86451,0.29393 -0.86451,0.82993 0,0.53599 0.48413,0.82992 0.86451,0.82992 z m -0.6916,1.71171 v 8.81792 h 1.3832 v -8.81792 z m 3.33695,-3.54446 v 12.36238 h 1.38321 v -12.36238 z m 6.91601,7.1235 c -1.2276,-0.29393 -2.42061,-0.38038 -2.42061,-1.41778 0,-0.69161 0.67431,-1.19302 1.9192,-1.19302 1.65984,0 1.98835,0.8818 2.12667,1.55611 h 1.3832 c -0.13832,-1.52153 -1.31404,-2.76641 -3.50987,-2.76641 -2.07481,0 -3.3024,1.12385 -3.3024,2.50706 0,2.0748 2.00564,2.23041 3.35427,2.55892 1.26217,0.31122 2.4206,0.38038 2.4206,1.65985 0,0.58786 -0.58786,1.36591 -2.09209,1.36591 -2.21313,0 -2.55893,-0.98553 -2.64538,-1.97107 h -1.3832 c 0.0865,1.90191 1.33133,3.18137 4.02858,3.18137 2.00564,0 3.47529,-1.05469 3.47529,-2.66266 0,-2.17855 -1.78087,-2.4379 -3.35426,-2.81828 z"
           id="path30" />
      </g>
      <g
         id="Output-Guardrails-Copy-2"
         style="font-size:17.29px;font-family:NeueMontreal-Regular, 'Neue Montreal';fill:#5652f5"
         aria-label="OutputGuardrails">
        <path
           d="m 762.27345,540.24206 c 3.63091,0 6.05151,-2.71454 6.05151,-6.43189 0,-3.71736 -2.4206,-6.41461 -6.05151,-6.41461 -3.63091,0 -6.05151,2.69725 -6.05151,6.41461 0,3.71735 2.4206,6.43189 6.05151,6.43189 z m 0,-1.3832 c -3.11221,0 -4.49541,-2.38603 -4.49541,-5.04869 0,-2.66267 1.3832,-5.03141 4.49541,-5.03141 3.11221,0 4.49541,2.36874 4.49541,5.03141 0,2.66266 -1.3832,5.04869 -4.49541,5.04869 z m 13.53811,-7.67678 v 5.49823 c 0,1.36592 -1.0374,2.35145 -2.5935,2.35145 -1.38321,0 -1.9192,-0.89908 -1.9192,-2.04023 v -5.80945 h -1.3832 v 6.15525 c 0,2.02294 1.34862,2.90473 2.9566,2.90473 1.50423,0 2.43789,-0.67431 2.90472,-1.29675 h 0.0346 V 540 h 1.38321 v -8.81792 z m 7.1235,1.2103 v -1.2103 h -1.72901 v -2.93931 h -1.3832 v 2.93931 h -1.29675 v 1.2103 h 1.29675 v 5.44637 c 0,1.79816 0.89908,2.26499 2.0748,2.26499 0.3631,0 0.72619,-0.0346 1.03741,-0.10374 v -1.2103 c -1.17573,0.0865 -1.72901,-0.0865 -1.72901,-1.08928 v -5.30804 z m 5.67112,-1.45236 c -1.45236,0 -2.28228,0.65702 -2.80098,1.33133 h -0.0346 v -1.08927 h -1.38321 v 11.79181 h 1.38321 v -4.11503 h 0.0346 c 0.5187,0.76076 1.34862,1.3832 2.80098,1.3832 2.17855,0 3.94213,-1.74629 3.94213,-4.65102 0,-2.90473 -1.76358,-4.65102 -3.94213,-4.65102 z m -0.1729,8.09174 c -1.64255,0 -2.66266,-1.36592 -2.66266,-3.44072 0,-2.0748 1.02011,-3.44072 2.66266,-3.44072 1.81546,0 2.73183,1.71172 2.73183,3.44072 0,1.729 -0.91637,3.44072 -2.73183,3.44072 z m 11.41143,-7.84968 v 5.49823 c 0,1.36592 -1.03741,2.35145 -2.59351,2.35145 -1.3832,0 -1.91919,-0.89908 -1.91919,-2.04023 v -5.80945 h -1.38321 v 6.15525 c 0,2.02294 1.34863,2.90473 2.9566,2.90473 1.50423,0 2.43789,-0.67431 2.90473,-1.29675 h 0.0346 V 540 h 1.3832 v -8.81792 z m 7.12349,1.2103 v -1.2103 h -1.729 v -2.93931 h -1.38321 v 2.93931 h -1.29675 v 1.2103 h 1.29675 v 5.44637 c 0,1.79816 0.89909,2.26499 2.07481,2.26499 0.36309,0 0.72618,-0.0346 1.0374,-0.10374 v -1.2103 c -1.17572,0.0865 -1.729,-0.0865 -1.729,-1.08928 v -5.30804 z"
           id="path31" />
        <path
           d="m 753.42097,552.95961 h 1.55611 c -0.43225,-2.35144 -2.07481,-3.97671 -5.2043,-3.97671 -3.42343,0 -5.7403,2.69725 -5.7403,6.41461 0,3.73465 1.97107,6.43189 5.5674,6.43189 1.9019,0 3.06033,-0.6916 3.99399,-1.98835 h 0.0346 l 0.51871,1.74629 h 1.0374 v -6.43189 h -5.58468 v 1.3832 h 4.02857 c 0,2.31687 -1.81545,3.90755 -4.02857,3.90755 -3.11221,0 -4.01129,-2.71454 -4.01129,-5.04869 0,-2.31687 1.24488,-5.0314 4.18419,-5.0314 1.86732,0 3.2851,0.82992 3.64819,2.5935 z m 9.54412,-0.19019 v 5.49823 c 0,1.36592 -1.03741,2.35145 -2.59351,2.35145 -1.3832,0 -1.91919,-0.89908 -1.91919,-2.04023 v -5.80945 h -1.38321 v 6.15526 c 0,2.02293 1.34863,2.90472 2.9566,2.90472 1.50423,0 2.43789,-0.67431 2.90473,-1.29675 h 0.0346 v 1.05469 h 1.3832 v -8.81792 z m 8.67959,2.24771 c 0,0.88179 -0.67431,1.07198 -2.16125,1.34862 -2.28229,0.43225 -3.76923,0.95095 -3.76923,2.9566 0,1.48694 1.12385,2.50705 2.90473,2.50705 1.45236,0 2.43789,-0.5187 2.99117,-1.34862 h 0.0346 c 0.24206,0.96824 0.74348,1.19301 1.5734,1.19301 0.25935,0 0.44954,-0.0173 0.81263,-0.13832 v -0.96824 c -0.88179,0.10374 -1.00282,-0.27664 -1.00282,-0.96824 v -4.28793 c 0,-2.12668 -1.50424,-2.7837 -3.18137,-2.7837 -2.55893,0 -3.61362,1.27946 -3.70007,2.97389 h 1.38321 c 0.0865,-1.27947 0.63973,-1.76359 2.31686,-1.76359 1.41778,0 1.79816,0.58786 1.79816,1.27947 z m -2.88743,5.60197 c -1.14114,0 -1.65985,-0.50141 -1.65985,-1.36591 0,-1.0547 0.79535,-1.48695 2.50706,-1.85004 0.93366,-0.19019 1.78087,-0.43225 2.04022,-0.6916 v 1.46965 c 0,1.69443 -1.24488,2.4379 -2.88743,2.4379 z m 10.16654,-8.09174 c -1.26217,0 -1.97106,0.82992 -2.43789,1.98836 h -0.0346 v -1.7463 h -1.38321 v 8.81792 h 1.38321 v -4.70289 c 0,-1.88461 1.33133,-3.23324 3.25053,-2.92202 h 0.0346 v -1.3832 c -0.24207,-0.0346 -0.48413,-0.0519 -0.81264,-0.0519 z m 8.00529,-3.3024 v 4.6856 h -0.0346 c -0.5187,-0.76076 -1.34862,-1.3832 -2.76641,-1.3832 -2.21312,0 -3.97671,1.74629 -3.97671,4.65102 0,2.90473 1.76359,4.65102 3.97671,4.65102 1.41779,0 2.24771,-0.65702 2.76641,-1.33133 h 0.0346 v 1.08927 h 1.3832 v -12.36238 z m -2.66267,11.39414 c -1.81545,0 -2.73182,-1.71171 -2.73182,-3.44072 0,-1.729 0.91637,-3.44072 2.73182,-3.44072 1.64256,0 2.66267,1.36592 2.66267,3.44072 0,2.07481 -1.02011,3.44072 -2.66267,3.44072 z m 9.80345,-8.09174 c -1.26217,0 -1.97106,0.82992 -2.4379,1.98836 h -0.0346 v -1.7463 h -1.3832 v 8.81792 h 1.3832 v -4.70289 c 0,-1.88461 1.33134,-3.23324 3.25053,-2.92202 h 0.0346 v -1.3832 c -0.24206,-0.0346 -0.48412,-0.0519 -0.81263,-0.0519 z m 7.12349,2.48977 c 0,0.88179 -0.67431,1.07198 -2.16125,1.34862 -2.28229,0.43225 -3.76923,0.95095 -3.76923,2.9566 0,1.48694 1.12385,2.50705 2.90473,2.50705 1.45236,0 2.43789,-0.5187 2.99117,-1.34862 h 0.0346 c 0.24206,0.96824 0.74347,1.19301 1.5734,1.19301 0.25935,0 0.44954,-0.0173 0.81263,-0.13832 v -0.96824 c -0.88179,0.10374 -1.00282,-0.27664 -1.00282,-0.96824 v -4.28793 c 0,-2.12668 -1.50424,-2.7837 -3.18137,-2.7837 -2.55893,0 -3.61362,1.27946 -3.70007,2.97389 h 1.3832 c 0.0865,-1.27947 0.63973,-1.76359 2.31687,-1.76359 1.41778,0 1.79816,0.58786 1.79816,1.27947 z m -2.88743,5.60197 c -1.14115,0 -1.65985,-0.50141 -1.65985,-1.36591 0,-1.0547 0.79534,-1.48695 2.50706,-1.85004 0.93366,-0.19019 1.78087,-0.43225 2.04022,-0.6916 v 1.46965 c 0,1.69443 -1.24488,2.4379 -2.88743,2.4379 z m 7.17537,-9.56139 c 0.39767,0 0.8645,-0.29393 0.8645,-0.82992 0,-0.536 -0.46683,-0.82993 -0.8645,-0.82993 -0.38038,0 -0.86451,0.29393 -0.86451,0.82993 0,0.53599 0.48413,0.82992 0.86451,0.82992 z m -0.6916,1.71171 v 8.81792 h 1.3832 v -8.81792 z m 3.33695,-3.54446 v 12.36238 h 1.38321 v -12.36238 z m 6.91601,7.1235 c -1.2276,-0.29393 -2.42061,-0.38038 -2.42061,-1.41778 0,-0.69161 0.67431,-1.19302 1.9192,-1.19302 1.65984,0 1.98835,0.8818 2.12667,1.55611 h 1.3832 c -0.13832,-1.52153 -1.31404,-2.76641 -3.50987,-2.76641 -2.07481,0 -3.3024,1.12385 -3.3024,2.50706 0,2.0748 2.00564,2.23041 3.35427,2.55892 1.26217,0.31122 2.4206,0.38038 2.4206,1.65985 0,0.58786 -0.58786,1.36591 -2.09209,1.36591 -2.21313,0 -2.55893,-0.98553 -2.64538,-1.97107 h -1.3832 c 0.0865,1.90191 1.33133,3.18137 4.02858,3.18137 2.00564,0 3.47529,-1.05469 3.47529,-2.66266 0,-2.17855 -1.78087,-2.4379 -3.35426,-2.81828 z"
           id="path32" />
      </g>
      <rect
         id="Rectangle-Copy-4"
         fill="#FF66F9"
         x="637"
         y="269"
         width="231"
         height="51"
         rx="25.5" />
      <path
         d="m 13.240735,92 h 2.437896 V 74.799294 H 22.12551 V 72.632275 H 6.7938565 v 2.167019 h 6.4468785 z m 14.97951,-14.193969 c -1.977405,0 -3.088001,1.300211 -3.81937,3.115089 H 24.3467 V 78.185259 H 22.179681 V 92 H 24.3467 v -7.367862 c 0,-2.952562 2.085755,-5.065405 5.092492,-4.577825 h 0.05418 v -2.167019 c -0.379229,-0.05418 -0.758457,-0.08126 -1.273123,-0.08126 z m 11.160142,3.900633 c 0,1.381474 -1.056422,1.679439 -3.385966,2.112843 -3.57558,0.677193 -5.905125,1.489825 -5.905125,4.632001 0,2.329544 1.760703,3.92772 4.550738,3.92772 2.275369,0 3.81937,-0.812632 4.686177,-2.112843 h 0.05418 c 0.379228,1.516913 1.164772,1.869054 2.464983,1.869054 0.406316,0 0.704281,-0.02709 1.273123,-0.216702 v -1.516913 c -1.381474,0.162526 -1.571088,-0.433403 -1.571088,-1.516913 v -6.717756 c 0,-3.33179 -2.356633,-4.361124 -4.984142,-4.361124 -4.008984,0 -5.661335,2.004492 -5.796774,4.659089 h 2.167019 c 0.135438,-2.004492 1.002245,-2.762948 3.629755,-2.762948 2.221194,0 2.817124,0.920983 2.817124,2.004492 z m -4.523651,8.776423 c -1.78779,0 -2.600422,-0.785544 -2.600422,-2.13993 0,-1.652351 1.246036,-2.329545 3.927721,-2.898387 1.462737,-0.297965 2.790036,-0.677193 3.196352,-1.083509 v 2.302457 c 0,2.654597 -1.950317,3.819369 -4.523651,3.819369 z M 54.576607,72.632275 v 7.340774 h -0.05418 c -0.812632,-1.19186 -2.112843,-2.167018 -4.334036,-2.167018 -3.467229,0 -6.230177,2.735861 -6.230177,7.286599 0,4.550738 2.762948,7.286598 6.230177,7.286598 2.221193,0 3.521404,-1.029333 4.334036,-2.085755 h 0.05418 V 92 h 2.167019 V 72.632275 Z m -4.171509,17.850812 c -2.844212,0 -4.279861,-2.681685 -4.279861,-5.390457 0,-2.708773 1.435649,-5.390458 4.279861,-5.390458 2.573334,0 4.171509,2.139931 4.171509,5.390458 0,3.250527 -1.598175,5.390457 -4.171509,5.390457 z M 60.806763,75.503575 c 0.623018,0 1.354387,-0.460492 1.354387,-1.300211 0,-0.83972 -0.731369,-1.300211 -1.354387,-1.300211 -0.59593,0 -1.354386,0.460491 -1.354386,1.300211 0,0.839719 0.758456,1.300211 1.354386,1.300211 z m -1.083509,2.681684 V 92 h 2.167018 V 78.185259 Z M 71.154253,80.0814 V 78.185259 H 68.44548 v -4.604913 h -2.167018 v 4.604913 h -2.03158 V 80.0814 h 2.03158 v 8.532634 c 0,2.817124 1.408562,3.548492 3.250527,3.548492 0.568842,0 1.137685,-0.05418 1.625264,-0.162526 V 90.103859 C 69.312287,90.239298 68.44548,89.968421 68.44548,88.397332 V 80.0814 Z m 3.629744,-4.577825 c 0.623018,0 1.354387,-0.460492 1.354387,-1.300211 0,-0.83972 -0.731369,-1.300211 -1.354387,-1.300211 -0.59593,0 -1.354386,0.460491 -1.354386,1.300211 0,0.839719 0.758456,1.300211 1.354386,1.300211 z m -1.083509,2.681684 V 92 h 2.167018 V 78.185259 Z m 11.403911,14.193969 c -4.225686,0 -6.771932,-2.97965 -6.771932,-7.286598 0,-4.306949 2.546246,-7.286599 6.771932,-7.286599 4.198597,0 6.744844,2.97965 6.744844,7.286599 0,4.306948 -2.546247,7.286598 -6.744844,7.286598 z m 0,-1.896141 c 3.088001,0 4.577826,-2.437895 4.577826,-5.390457 0,-2.952562 -1.489825,-5.390458 -4.577826,-5.390458 -3.115089,0 -4.604914,2.437896 -4.604914,5.390458 0,2.952562 1.489825,5.390457 4.604914,5.390457 z M 100.8153,77.806031 c -2.356635,0 -3.819373,1.056422 -4.550741,2.03158 h -0.05418 V 78.185259 H 94.043365 V 92 h 2.167018 v -8.613897 c 0,-2.13993 1.625264,-3.683931 4.063157,-3.683931 2.16702,0 3.00674,1.408562 3.00674,3.196352 V 92 h 2.16702 v -9.643231 c 0,-3.169264 -2.11284,-4.550738 -4.632,-4.550738 z m 15.98175,3.900633 c 0,1.381474 -1.05642,1.679439 -3.38597,2.112843 -3.57558,0.677193 -5.90512,1.489825 -5.90512,4.632001 0,2.329544 1.7607,3.92772 4.55074,3.92772 2.27537,0 3.81937,-0.812632 4.68618,-2.112843 h 0.0542 c 0.37923,1.516913 1.16477,1.869054 2.46498,1.869054 0.40632,0 0.70428,-0.02709 1.27313,-0.216702 v -1.516913 c -1.38148,0.162526 -1.57109,-0.433403 -1.57109,-1.516913 v -6.717756 c 0,-3.33179 -2.35663,-4.361124 -4.98414,-4.361124 -4.00899,0 -5.66134,2.004492 -5.79678,4.659089 h 2.16702 c 0.13544,-2.004492 1.00225,-2.762948 3.62976,-2.762948 2.22119,0 2.81712,0.920983 2.81712,2.004492 z m -4.52365,8.776423 c -1.78779,0 -2.60042,-0.785544 -2.60042,-2.13993 0,-1.652351 1.24603,-2.329545 3.92772,-2.898387 1.46274,-0.297965 2.79003,-0.677193 3.19635,-1.083509 v 2.302457 c 0,2.654597 -1.95032,3.819369 -4.52365,3.819369 z m 9.96829,-17.850812 V 92 h 2.16702 V 72.632275 Z m 24.9478,5.850949 h 2.43789 c -0.67719,-3.68393 -3.25052,-6.230177 -8.1534,-6.230177 -5.36337,0 -8.99313,4.225686 -8.99313,10.049547 0,5.850949 3.088,10.076634 8.72225,10.076634 2.97965,0 4.79453,-1.083509 6.25727,-3.115088 h 0.0542 L 148.32717,92 h 1.62527 V 81.923366 h -8.74934 v 2.167018 h 6.31144 c 0,3.629755 -2.84421,6.121826 -6.31144,6.121826 -4.87579,0 -6.28435,-4.252773 -6.28435,-7.909616 0,-3.629755 1.95031,-7.882529 6.55523,-7.882529 2.92547,0 5.14667,1.300211 5.71551,4.063159 z m 14.95244,-0.297965 v 8.613897 c 0,2.139931 -1.62527,3.683931 -4.06316,3.683931 -2.16702,0 -3.00674,-1.408561 -3.00674,-3.196351 v -9.101477 h -2.16702 v 9.643231 c 0,3.169264 2.11284,4.550738 4.632,4.550738 2.35663,0 3.81937,-1.056421 4.55074,-2.031579 h 0.0542 V 92 h 2.16701 V 78.185259 Z m 13.59804,3.521405 c 0,1.381474 -1.05642,1.679439 -3.38597,2.112843 -3.57558,0.677193 -5.90512,1.489825 -5.90512,4.632001 0,2.329544 1.7607,3.92772 4.55074,3.92772 2.27536,0 3.81936,-0.812632 4.68617,-2.112843 h 0.0542 c 0.37923,1.516913 1.16477,1.869054 2.46498,1.869054 0.40632,0 0.70428,-0.02709 1.27312,-0.216702 v -1.516913 c -1.38147,0.162526 -1.57108,-0.433403 -1.57108,-1.516913 v -6.717756 c 0,-3.33179 -2.35664,-4.361124 -4.98415,-4.361124 -4.00898,0 -5.66133,2.004492 -5.79677,4.659089 h 2.16702 c 0.13544,-2.004492 1.00224,-2.762948 3.62975,-2.762948 2.2212,0 2.81713,0.920983 2.81713,2.004492 z m -4.52365,8.776423 c -1.78779,0 -2.60042,-0.785544 -2.60042,-2.13993 0,-1.652351 1.24603,-2.329545 3.92772,-2.898387 1.46273,-0.297965 2.79003,-0.677193 3.19635,-1.083509 v 2.302457 c 0,2.654597 -1.95032,3.819369 -4.52365,3.819369 z M 187.1439,77.806031 c -1.9774,0 -3.088,1.300211 -3.81937,3.115089 h -0.0542 v -2.735861 h -2.16702 V 92 h 2.16702 v -7.367862 c 0,-2.952562 2.08575,-5.065405 5.09249,-4.577825 h 0.0542 v -2.167019 c -0.37923,-0.05418 -0.75846,-0.08126 -1.27313,-0.08126 z m 12.54161,-5.173756 v 7.340774 h -0.0542 c -0.81263,-1.19186 -2.11284,-2.167018 -4.33404,-2.167018 -3.46723,0 -6.23018,2.735861 -6.23018,7.286599 0,4.550738 2.76295,7.286598 6.23018,7.286598 2.2212,0 3.52141,-1.029333 4.33404,-2.085755 h 0.0542 V 92 h 2.16702 V 72.632275 Z M 195.514,90.483087 c -2.84421,0 -4.27986,-2.681685 -4.27986,-5.390457 0,-2.708773 1.43565,-5.390458 4.27986,-5.390458 2.57334,0 4.17151,2.139931 4.17151,5.390458 0,3.250527 -1.59817,5.390457 -4.17151,5.390457 z m 15.35874,-12.677056 c -1.97741,0 -3.088,1.300211 -3.81937,3.115089 h -0.0542 v -2.735861 h -2.16701 V 92 h 2.16701 v -7.367862 c 0,-2.952562 2.08576,-5.065405 5.0925,-4.577825 h 0.0542 v -2.167019 c -0.37923,-0.05418 -0.75845,-0.08126 -1.27312,-0.08126 z m 11.16014,3.900633 c 0,1.381474 -1.05643,1.679439 -3.38597,2.112843 -3.57558,0.677193 -5.90512,1.489825 -5.90512,4.632001 0,2.329544 1.7607,3.92772 4.55073,3.92772 2.27537,0 3.81937,-0.812632 4.68618,-2.112843 h 0.0542 c 0.37922,1.516913 1.16477,1.869054 2.46498,1.869054 0.40631,0 0.70428,-0.02709 1.27312,-0.216702 v -1.516913 c -1.38147,0.162526 -1.57109,-0.433403 -1.57109,-1.516913 v -6.717756 c 0,-3.33179 -2.35663,-4.361124 -4.98414,-4.361124 -4.00898,0 -5.66133,2.004492 -5.79677,4.659089 h 2.16702 c 0.13543,-2.004492 1.00224,-2.762948 3.62975,-2.762948 2.2212,0 2.81713,0.920983 2.81713,2.004492 z m -4.52366,8.776423 c -1.78779,0 -2.60042,-0.785544 -2.60042,-2.13993 0,-1.652351 1.24604,-2.329545 3.92772,-2.898387 1.46274,-0.297965 2.79004,-0.677193 3.19636,-1.083509 v 2.302457 c 0,2.654597 -1.95032,3.819369 -4.52366,3.819369 z m 11.24141,-14.979512 c 0.62302,0 1.35439,-0.460492 1.35439,-1.300211 0,-0.83972 -0.73137,-1.300211 -1.35439,-1.300211 -0.59593,0 -1.35438,0.460491 -1.35438,1.300211 0,0.839719 0.75845,1.300211 1.35438,1.300211 z m -1.08351,2.681684 V 92 h 2.16702 V 78.185259 Z m 5.22792,-5.552984 V 92 h 2.16702 V 72.632275 Z m 6.3114,2.8713 c 0.62302,0 1.35439,-0.460492 1.35439,-1.300211 0,-0.83972 -0.73137,-1.300211 -1.35439,-1.300211 -0.59593,0 -1.35438,0.460491 -1.35438,1.300211 0,0.839719 0.75845,1.300211 1.35438,1.300211 z m -1.0835,2.681684 V 92 h 2.16701 V 78.185259 Z m 12.18945,-0.379228 c -2.35663,0 -3.81937,1.056422 -4.55074,2.03158 h -0.0542 v -1.652352 h -2.16702 V 92 h 2.16702 v -8.613897 c 0,-2.13993 1.62526,-3.683931 4.06316,-3.683931 2.16701,0 3.00673,1.408562 3.00673,3.196352 V 92 h 2.16702 v -9.643231 c 0,-3.169264 -2.11284,-4.550738 -4.632,-4.550738 z m 17.36322,0.379228 v 1.706527 h -0.0542 c -0.81263,-1.056421 -2.11284,-2.085755 -4.38821,-2.085755 -3.41305,0 -6.176,2.194106 -6.176,6.744844 0,4.550738 2.76295,6.744844 6.176,6.744844 2.27537,0 3.57558,-0.975158 4.38821,-2.167018 h 0.0542 v 2.085755 c 0,2.573334 -1.48982,3.683931 -4.06316,3.683931 -2.57333,0 -3.71102,-1.056422 -3.98189,-2.464983 h -2.16702 c 0.2167,2.356632 2.46498,4.361124 6.25726,4.361124 3.79228,0 6.12183,-1.869054 6.12183,-5.552984 V 78.185259 Z m -4.17151,11.214319 c -2.84421,0 -4.27986,-2.13993 -4.27986,-4.848703 0,-2.708772 1.43565,-4.848703 4.27986,-4.848703 2.57333,0 4.17151,1.598176 4.17151,4.848703 0,3.250527 -1.59818,4.848703 -4.17151,4.848703 z"
         id="Traditional-Guardrai"
         style="font-size:27.0877px;font-family:NeueMontreal-Regular, 'Neue Montreal';fill:#252525"
         aria-label="Traditional Guardrailing" />
      <g
         id="Group-17"
         transform="translate(109.000000, 500.000000)"
         fill="#8993FE"
         font-family="NeueMontreal-Regular, Neue Montreal"
         font-size="28.4050633"
         font-weight="normal">
        <g
           id="Guardrails-(Pipeline"
           aria-label="Guardrails(Pipelined + Incremental)">
          <path
             d="m 62.180204,93.825873 h 2.556456 c -0.710126,-3.863088 -3.408607,-6.533164 -8.549924,-6.533164 -5.624203,0 -9.430481,4.43119 -9.430481,10.538278 0,6.135493 3.238177,10.566683 9.14643,10.566683 3.124557,0 5.027697,-1.1362 6.56157,-3.26658 h 0.05681 L 63.373217,108 h 1.704304 V 97.433316 h -9.174836 v 2.272405 h 6.61838 c 0,3.806279 -2.982531,6.419549 -6.61838,6.419549 -5.112911,0 -6.589974,-4.4596 -6.589974,-8.294283 0,-3.806278 2.045164,-8.265873 6.874025,-8.265873 3.067747,0 5.396962,1.363443 5.993468,4.260759 z m 15.679613,-0.312455 v 9.032812 c 0,2.244 -1.704304,3.86309 -4.26076,3.86309 -2.272405,0 -3.152962,-1.47707 -3.152962,-3.3518 V 93.513418 H 68.17369 v 10.112202 c 0,3.32339 2.215595,4.77205 4.857266,4.77205 2.47124,0 4.005114,-1.1078 4.772051,-2.13038 h 0.05681 V 108 h 2.272405 V 93.513418 Z m 14.259338,3.692658 c 0,1.448658 -1.107798,1.761114 -3.550633,2.215595 -3.749469,0.710129 -6.192304,1.562279 -6.192304,4.857269 0,2.44283 1.846329,4.11873 4.77205,4.11873 2.386026,0 4.005114,-0.85215 4.914076,-2.21559 h 0.05681 c 0.39767,1.59068 1.221417,1.95995 2.58486,1.95995 0.426076,0 0.738532,-0.0284 1.335038,-0.22725 v -1.59068 c -1.448658,0.17043 -1.647493,-0.45448 -1.647493,-1.59068 v -7.044458 c 0,-3.493823 -2.471241,-4.573215 -5.226532,-4.573215 -4.20395,0 -5.936658,2.101974 -6.078684,4.885671 h 2.272405 c 0.142026,-2.101975 1.050988,-2.897317 3.806279,-2.897317 2.329215,0 2.954127,0.965772 2.954127,2.101975 z m -4.743646,9.203244 c -1.874734,0 -2.726886,-0.82375 -2.726886,-2.244 0,-1.73271 1.306633,-2.44284 4.118734,-3.03935 1.533873,-0.31245 2.925722,-0.71012 3.351798,-1.136198 v 2.414428 c 0,2.7837 -2.045165,4.00512 -4.743646,4.00512 z M 104.0777,93.115747 c -2.07357,0 -3.23818,1.363443 -4.00512,3.266582 h -0.0568 V 93.513418 H 97.743366 V 108 h 2.272404 v -7.72618 c 0,-3.096149 2.18719,-5.311744 5.34015,-4.800453 h 0.0568 v -2.272405 c -0.39767,-0.05681 -0.79534,-0.08522 -1.33503,-0.08522 z m 13.15154,-5.425367 v 7.697772 h -0.0568 c -0.85216,-1.249823 -2.2156,-2.272405 -4.54481,-2.272405 -3.63585,0 -6.53317,2.868911 -6.53317,7.640963 0,4.77205 2.89732,7.64096 6.53317,7.64096 2.32921,0 3.69265,-1.07939 4.54481,-2.18719 h 0.0568 V 108 h 2.2724 V 87.69038 Z m -4.37438,18.71894 c -2.98254,0 -4.488,-2.8121 -4.488,-5.65261 0,-2.840508 1.50546,-5.652609 4.488,-5.652609 2.69848,0 4.37438,2.244 4.37438,5.652609 0,3.40861 -1.6759,5.65261 -4.37438,5.65261 z m 16.10566,-13.293573 c -2.07357,0 -3.23818,1.363443 -4.00512,3.266582 h -0.0568 v -2.868911 h -2.2724 V 108 h 2.2724 v -7.72618 c 0,-3.096149 2.18719,-5.311744 5.34015,-4.800453 h 0.0568 v -2.272405 c -0.39767,-0.05681 -0.79534,-0.08522 -1.33503,-0.08522 z m 11.70288,4.090329 c 0,1.448658 -1.1078,1.761114 -3.55063,2.215595 -3.74947,0.710129 -6.19231,1.562279 -6.19231,4.857269 0,2.44283 1.84633,4.11873 4.77206,4.11873 2.38602,0 4.00511,-0.85215 4.91407,-2.21559 h 0.0568 c 0.39767,1.59068 1.22142,1.95995 2.58486,1.95995 0.42608,0 0.73853,-0.0284 1.33504,-0.22725 v -1.59068 c -1.44866,0.17043 -1.64749,-0.45448 -1.64749,-1.59068 v -7.044458 c 0,-3.493823 -2.47124,-4.573215 -5.22654,-4.573215 -4.20394,0 -5.93665,2.101974 -6.07868,4.885671 h 2.27241 c 0.14202,-2.101975 1.05098,-2.897317 3.80627,-2.897317 2.32922,0 2.95413,0.965772 2.95413,2.101975 z m -4.74364,9.203244 c -1.87474,0 -2.72689,-0.82375 -2.72689,-2.244 0,-1.73271 1.30663,-2.44284 4.11873,-3.03935 1.53388,-0.31245 2.92573,-0.71012 3.3518,-1.136198 v 2.414428 c 0,2.7837 -2.04516,4.00512 -4.74364,4.00512 z m 11.7881,-15.708004 c 0.65332,0 1.42026,-0.482886 1.42026,-1.363443 0,-0.880557 -0.76694,-1.363443 -1.42026,-1.363443 -0.62491,0 -1.42025,0.482886 -1.42025,1.363443 0,0.880557 0.79534,1.363443 1.42025,1.363443 z m -1.1362,2.812102 V 108 h 2.2724 V 93.513418 Z M 152.0538,87.69038 V 108 h 2.27241 V 87.69038 Z m 11.362,11.702886 c -2.01676,-0.482886 -3.97671,-0.624912 -3.97671,-2.329215 0,-1.136203 1.1078,-1.95995 3.15296,-1.95995 2.72689,0 3.26659,1.448658 3.49383,2.556456 h 2.2724 c -0.22724,-2.499646 -2.15878,-4.54481 -5.76623,-4.54481 -3.4086,0 -5.42536,1.846329 -5.42536,4.118734 0,3.408609 3.29498,3.664249 5.51058,4.203949 2.07357,0.51129 3.97671,0.62491 3.97671,2.72689 0,0.96577 -0.96577,2.244 -3.43701,2.244 -3.63585,0 -4.20395,-1.61909 -4.34598,-3.23818 h -2.2724 c 0.14202,3.12456 2.18719,5.22653 6.61838,5.22653 3.29498,0 5.70941,-1.73271 5.70941,-4.37438 0,-3.57904 -2.92572,-4.00511 -5.51058,-4.630024 z"
             id="path33" />
          <path
             style="font-size:15.4051px"
             d="m 12.420281,131.33405 c -1.201595,1.55591 -2.187519,3.86667 -2.187519,6.74742 0,2.78832 0.985924,5.12989 2.187519,6.6858 h 1.078355 c -1.047545,-1.86402 -1.879418,-3.89748 -1.879418,-6.6858 0,-2.84994 0.831873,-4.88341 1.879418,-6.74742 z m 2.434013,11.63082 h 1.386456 v -4.60611 h 2.988582 c 2.018063,0 3.573975,-0.89349 3.573975,-3.20425 0,-2.31076 -1.555912,-3.20426 -3.573975,-3.20426 h -4.375038 z m 1.386456,-9.78221 h 3.142633 c 1.37105,0 2.033468,0.63161 2.033468,1.97185 0,1.34024 -0.662418,1.97185 -2.033468,1.97185 H 16.24075 Z m 8.488199,0.40053 c 0.354317,0 0.770253,-0.26188 0.770253,-0.73944 0,-0.47756 -0.415936,-0.73944 -0.770253,-0.73944 -0.338911,0 -0.770253,0.26188 -0.770253,0.73944 0,0.47756 0.431342,0.73944 0.770253,0.73944 z m -0.616202,1.5251 v 7.85658 h 1.232405 v -7.85658 z m 6.839834,-0.21567 c -1.294026,0 -2.033469,0.58539 -2.49562,1.18619 h -0.03081 v -0.97052 h -1.232405 v 10.50626 h 1.232405 v -3.66641 h 0.03081 c 0.462151,0.67782 1.201594,1.23241 2.49562,1.23241 1.941038,0 3.512354,-1.55592 3.512354,-4.14397 0,-2.58805 -1.571316,-4.14396 -3.512354,-4.14396 z m -0.154051,7.20957 c -1.463481,0 -2.37238,-1.217 -2.37238,-3.06561 0,-1.8486 0.908899,-3.0656 2.37238,-3.0656 1.617532,0 2.434,1.5251 2.434,3.0656 0,1.54051 -0.816468,3.06561 -2.434,3.06561 z m 8.303324,0 c -1.709962,0 -2.55724,-1.32483 -2.55724,-2.7421 h 6.20824 c 0,-2.78832 -1.201595,-4.46747 -3.666405,-4.46747 -2.295354,0 -3.77424,1.5251 -3.77424,4.14396 0,2.46481 1.448076,4.14397 3.835861,4.14397 1.956443,0 3.081012,-1.17079 3.481544,-2.63427 h -1.232405 c -0.138646,0.53918 -0.724038,1.55591 -2.295355,1.55591 z m -0.01541,-6.13121 c 1.478886,0 2.434,1.04754 2.434,2.31076 h -4.975835 c 0,-1.26322 1.062949,-2.31076 2.541835,-2.31076 z m 4.929637,-4.02073 v 11.01462 h 1.232405 v -11.01462 z m 3.58936,1.63294 c 0.354316,0 0.770253,-0.26188 0.770253,-0.73944 0,-0.47756 -0.415937,-0.73944 -0.770253,-0.73944 -0.338912,0 -0.770253,0.26188 -0.770253,0.73944 0,0.47756 0.431341,0.73944 0.770253,0.73944 z m -0.616203,1.5251 v 7.85658 h 1.232405 v -7.85658 z m 6.932265,-0.21567 c -1.34024,0 -2.172113,0.6008 -2.58805,1.15538 h -0.03081 v -0.93971 h -1.232405 v 7.85658 h 1.232405 v -4.89881 c 0,-1.217 0.924304,-2.09508 2.310759,-2.09508 1.232405,0 1.709962,0.80106 1.709962,1.81779 v 5.1761 h 1.232405 v -5.4842 c 0,-1.80239 -1.201595,-2.58805 -2.634266,-2.58805 z m 7.625506,7.20957 c -1.709962,0 -2.55724,-1.32483 -2.55724,-2.7421 h 6.20824 c 0,-2.78832 -1.201595,-4.46747 -3.666405,-4.46747 -2.295354,0 -3.77424,1.5251 -3.77424,4.14396 0,2.46481 1.448076,4.14397 3.835861,4.14397 1.956442,0 3.081012,-1.17079 3.481544,-2.63427 h -1.232405 c -0.138646,0.53918 -0.724038,1.55591 -2.295355,1.55591 z m -0.0154,-6.13121 c 1.478886,0 2.434,1.04754 2.434,2.31076 h -4.975835 c 0,-1.26322 1.062949,-2.31076 2.541835,-2.31076 z m 10.475455,-4.02073 v 4.17478 h -0.03081 c -0.462152,-0.67783 -1.201595,-1.23241 -2.46481,-1.23241 -1.971848,0 -3.543164,1.55591 -3.543164,4.14396 0,2.58805 1.571316,4.14397 3.543164,4.14397 1.263215,0 2.002658,-0.5854 2.46481,-1.18619 h 0.03081 v 0.97051 h 1.232405 v -11.01462 z m -2.372379,10.15194 c -1.617532,0 -2.434,-1.5251 -2.434,-3.06561 0,-1.5405 0.816468,-3.0656 2.434,-3.0656 1.463481,0 2.372379,1.217 2.372379,3.0656 0,1.84861 -0.908898,3.06561 -2.372379,3.06561 z m 11.230296,-3.54316 v 2.97317 h 1.232405 v -2.97317 h 2.880746 v -1.217 h -2.880746 v -2.97318 h -1.232405 v 2.97318 h -2.880747 v 1.217 z m 9.073582,-6.60878 v 11.01462 h 1.386455 v -11.01462 z m 7.147962,2.94237 c -1.340241,0 -2.172114,0.6008 -2.588051,1.15538 h -0.03081 v -0.93971 h -1.232405 v 7.85658 h 1.232405 v -4.89881 c 0,-1.217 0.924304,-2.09508 2.310759,-2.09508 1.232405,0 1.709962,0.80106 1.709962,1.81779 v 5.1761 h 1.232405 v -5.4842 c 0,-1.80239 -1.201595,-2.58805 -2.634265,-2.58805 z m 9.859235,3.0502 h 1.23241 c -0.18486,-1.75617 -1.5097,-3.0502 -3.45073,-3.0502 -2.29536,0 -3.80505,1.67915 -3.80505,4.14396 0,2.46481 1.50969,4.14397 3.80505,4.14397 1.94103,0 3.34289,-1.32484 3.45073,-3.11183 h -1.23241 c -0.0616,0.93971 -0.6316,2.03347 -2.21832,2.03347 -1.86402,0 -2.57265,-1.58672 -2.57265,-3.06561 0,-1.47888 0.70863,-3.0656 2.57265,-3.0656 1.57131,0 2.1567,1.10916 2.21832,1.97184 z m 5.85391,-3.0502 c -1.12457,0 -1.75618,0.73944 -2.17211,1.77158 h -0.0308 v -1.55591 h -1.23241 v 7.85658 h 1.23241 v -4.19017 c 0,-1.67915 1.18619,-2.88075 2.89615,-2.60346 h 0.0308 v -1.2324 c -0.21567,-0.0308 -0.43134,-0.0462 -0.72404,-0.0462 z m 4.88341,7.20957 c -1.70997,0 -2.55724,-1.32483 -2.55724,-2.7421 h 6.20824 c 0,-2.78832 -1.2016,-4.46747 -3.66641,-4.46747 -2.29535,0 -3.77424,1.5251 -3.77424,4.14396 0,2.46481 1.44808,4.14397 3.83586,4.14397 1.95645,0 3.08101,-1.17079 3.48155,-2.63427 h -1.23241 c -0.13864,0.53918 -0.72404,1.55591 -2.29535,1.55591 z m -0.0154,-6.13121 c 1.47889,0 2.434,1.04754 2.434,2.31076 h -4.97583 c 0,-1.26322 1.06295,-2.31076 2.54183,-2.31076 z m 13.09432,-1.07836 c -1.18619,0 -2.00266,0.6162 -2.54183,1.35565 h -0.0308 c -0.32351,-0.87809 -0.97052,-1.35565 -2.09509,-1.35565 -1.18619,0 -1.86402,0.6008 -2.27995,1.15538 h -0.0308 v -0.93971 h -1.23241 v 7.85658 h 1.23241 v -4.89881 c 0,-1.217 0.77025,-2.09508 2.00266,-2.09508 1.2324,0 1.43267,0.80106 1.43267,1.81779 v 5.1761 h 1.2324 v -4.89881 c 0,-1.217 0.77026,-2.09508 2.00266,-2.09508 1.23241,0 1.43267,0.80106 1.43267,1.81779 v 5.1761 h 1.23241 v -5.4842 c 0,-1.64834 -0.77026,-2.58805 -2.35698,-2.58805 z m 7.3482,7.20957 c -1.70996,0 -2.55724,-1.32483 -2.55724,-2.7421 h 6.20824 c 0,-2.78832 -1.20159,-4.46747 -3.6664,-4.46747 -2.29536,0 -3.77424,1.5251 -3.77424,4.14396 0,2.46481 1.44807,4.14397 3.83586,4.14397 1.95644,0 3.08101,-1.17079 3.48154,-2.63427 h -1.2324 c -0.13865,0.53918 -0.72404,1.55591 -2.29536,1.55591 z m -0.0154,-6.13121 c 1.47888,0 2.434,1.04754 2.434,2.31076 h -4.97584 c 0,-1.26322 1.06295,-2.31076 2.54184,-2.31076 z m 8.73469,-1.07836 c -1.34025,0 -2.17212,0.6008 -2.58806,1.15538 h -0.0308 v -0.93971 h -1.2324 v 7.85658 h 1.2324 v -4.89881 c 0,-1.217 0.92431,-2.09508 2.31076,-2.09508 1.23241,0 1.70997,0.80106 1.70997,1.81779 v 5.1761 h 1.2324 v -5.4842 c 0,-1.80239 -1.20159,-2.58805 -2.63426,-2.58805 z m 7.54847,1.29403 v -1.07836 h -1.54051 v -2.61886 h -1.23241 v 2.61886 h -1.15538 v 1.07836 h 1.15538 v 4.85259 c 0,1.60213 0.80107,2.01806 1.84861,2.01806 0.32351,0 0.64701,-0.0308 0.92431,-0.0924 v -1.07835 c -1.04755,0.077 -1.54051,-0.077 -1.54051,-0.97052 v -4.72935 z m 6.1004,0.9243 c 0,0.78566 -0.6008,0.95511 -1.92564,1.2016 -2.03347,0.38512 -3.3583,0.84727 -3.3583,2.63426 0,1.32484 1.00133,2.23374 2.58805,2.23374 1.29402,0 2.17211,-0.46216 2.66507,-1.2016 h 0.0308 c 0.21567,0.86268 0.66241,1.06295 1.40186,1.06295 0.23107,0 0.40053,-0.0154 0.72403,-0.12324 v -0.86268 c -0.78565,0.0924 -0.89349,-0.24649 -0.89349,-0.86269 v -3.82045 c 0,-1.89483 -1.34024,-2.48022 -2.83453,-2.48022 -2.27995,0 -3.21966,1.13998 -3.29668,2.64967 h 1.2324 c 0.077,-1.13997 0.56999,-1.57131 2.06428,-1.57131 1.26321,0 1.60213,0.52377 1.60213,1.13997 z m -2.57265,4.99124 c -1.01673,0 -1.47889,-0.44675 -1.47889,-1.217 0,-0.93971 0.70864,-1.32483 2.23374,-1.64834 0.83187,-0.16946 1.58672,-0.38513 1.8178,-0.6162 v 1.30943 c 0,1.50969 -1.10917,2.17211 -2.57265,2.17211 z m 5.66906,-10.15194 v 11.01462 h 1.23241 v -11.01462 z m 3.54315,-0.6162 h -1.07835 c 1.04754,1.86401 1.87942,3.89748 1.87942,6.74742 0,2.78832 -0.83188,4.82178 -1.87942,6.6858 h 1.07835 c 1.2016,-1.55591 2.18752,-3.89748 2.18752,-6.6858 0,-2.88075 -0.98592,-5.19151 -2.18752,-6.74742 z"
             id="path34" />
        </g>
        <path
           d="M 14.431291,22.915494 16.22081,28 h 2.641671 L 11.391949,7.6903795 H 8.5514431 L 1.0525063,28 h 2.6416709 l 1.789519,-5.084506 z M 6.3358482,20.643089 9.9432912,10.048 h 0.05681 l 3.607443,10.595089 z M 30.593772,13.513418 v 1.789519 h -0.05681 c -0.852152,-1.107798 -2.215595,-2.18719 -4.60162,-2.18719 -3.579039,0 -6.476355,2.30081 -6.476355,7.072861 0,4.77205 2.897316,7.07286 6.476355,7.07286 2.386025,0 3.749468,-1.022582 4.60162,-2.272405 h 0.05681 v 2.18719 c 0,2.698481 -1.562279,3.863089 -4.26076,3.863089 -2.698481,0 -3.891493,-1.107798 -4.175544,-2.584861 h -2.272405 c 0.22724,2.471241 2.584861,4.573215 6.56157,4.573215 3.976709,0 6.419544,-1.959949 6.419544,-5.823038 v -13.69124 z m -4.37438,11.759696 c -2.982532,0 -4.488,-2.244 -4.488,-5.084506 0,-2.840507 1.505468,-5.084507 4.488,-5.084507 2.698481,0 4.37438,1.675899 4.37438,5.084507 0,3.408607 -1.675899,5.084506 -4.37438,5.084506 z m 15.935226,1.136202 c -3.152962,0 -4.715241,-2.442835 -4.715241,-5.056101 h 11.447241 c 0,-5.141316 -2.215595,-8.237468 -6.760405,-8.237468 -4.232355,0 -6.959241,2.812101 -6.959241,7.640962 0,4.54481 2.670076,7.640962 7.072861,7.640962 3.607443,0 5.681012,-2.158785 6.419544,-4.857266 h -2.272405 c -0.255646,0.994177 -1.335038,2.868911 -4.232354,2.868911 z m -0.0284,-11.305215 c 2.726886,0 4.488,1.931544 4.488,4.26076 h -9.174836 c 0,-2.329216 1.959949,-4.26076 4.686836,-4.26076 z m 16.105699,-1.988354 c -2.471241,0 -4.005114,1.107797 -4.772051,2.130379 h -0.05681 V 13.513418 H 51.130646 V 28 h 2.272405 v -9.03281 c 0,-2.244 1.704304,-3.863089 4.260759,-3.863089 2.272405,0 3.152962,1.477063 3.152962,3.351798 V 28 h 2.272405 V 17.887797 c 0,-3.323392 -2.215594,-4.77205 -4.857265,-4.77205 z m 13.918472,2.386025 V 13.513418 H 69.309877 V 8.6845567 h -2.272405 v 4.8288613 h -2.13038 v 1.988354 h 2.13038 v 8.947595 c 0,2.954127 1.477063,3.721063 3.408608,3.721063 0.596506,0 1.193012,-0.05681 1.704304,-0.17043 V 26.011646 C 70.218839,26.153671 69.309877,25.86962 69.309877,24.222127 V 15.501772 Z M 87.8584,16.155088 c -2.982532,-0.738531 -5.169722,-1.107797 -5.169722,-3.806278 0,-1.675899 1.533874,-2.7836963 4.402785,-2.7836963 3.209772,0 4.743646,1.4202533 5.112912,4.1471393 H 94.76083 C 94.419969,9.5083036 91.409033,7.2927086 87.091463,7.2927086 c -4.488,0 -6.959241,2.1303798 -6.959241,5.3401524 0,3.948303 3.635849,4.999291 6.67519,5.709417 4.544811,1.050988 6.050279,1.562279 6.050279,4.345975 0,1.817924 -1.249823,3.437013 -4.772051,3.437013 -4.260759,0 -5.965063,-2.158785 -6.249114,-4.942481 h -2.556455 c 0.28405,4.65843 4.005114,7.214886 8.805569,7.214886 5.141317,0 7.328507,-2.755291 7.328507,-5.709418 0,-4.630025 -2.982532,-5.396962 -7.555747,-6.533165 z m 22.41158,-2.64167 h -2.55646 l -4.17554,11.816506 h -0.0568 L 99.04998,13.513418 h -2.556456 l 5.482176,13.293569 c 0.5681,1.420254 -0.0284,2.641671 -0.62491,3.294988 -0.76694,0.823747 -1.647493,0.908962 -2.897316,0.795341 h -0.340861 v 1.704304 c 0.369266,0.113621 1.022582,0.284051 1.931547,0.284051 2.67007,0 3.40861,-2.13038 4.03352,-3.692658 z m 7.35695,5.879848 c -2.01676,-0.482886 -3.97671,-0.624912 -3.97671,-2.329215 0,-1.136203 1.10779,-1.95995 3.15296,-1.95995 2.72689,0 3.26658,1.448658 3.49382,2.556456 h 2.27241 c -0.22724,-2.499646 -2.15879,-4.54481 -5.76623,-4.54481 -3.40861,0 -5.42537,1.846329 -5.42537,4.118734 0,3.408608 3.29499,3.664253 5.51058,4.203949 2.07357,0.511291 3.97671,0.624912 3.97671,2.726886 0,0.965773 -0.96577,2.244 -3.43701,2.244 -3.63585,0 -4.20395,-1.619088 -4.34597,-3.238177 h -2.27241 c 0.14203,3.124557 2.18719,5.226532 6.61838,5.226532 3.29499,0 5.70942,-1.732709 5.70942,-4.37438 0,-3.579038 -2.92572,-4.005114 -5.51058,-4.630025 z m 13.74804,-3.891494 v -1.988354 h -2.84051 V 8.6845567 h -2.2724 v 4.8288613 h -2.13038 v 1.988354 h 2.13038 v 8.947595 c 0,2.954127 1.47706,3.721063 3.40861,3.721063 0.5965,0 1.19301,-0.05681 1.7043,-0.17043 v -1.988354 c -1.93154,0.142025 -2.84051,-0.142026 -2.84051,-1.789519 v -8.720355 z m 8.40792,10.907544 c -3.15297,0 -4.71524,-2.442835 -4.71524,-5.056101 h 11.44724 c 0,-5.141316 -2.2156,-8.237468 -6.76041,-8.237468 -4.23235,0 -6.95924,2.812101 -6.95924,7.640962 0,4.54481 2.67008,7.640962 7.07286,7.640962 3.60745,0 5.68101,-2.158785 6.41955,-4.857266 h -2.27241 c -0.25564,0.994177 -1.33504,2.868911 -4.23235,2.868911 z m -0.0284,-11.305215 c 2.72689,0 4.488,1.931544 4.488,4.26076 h -9.17483 c 0,-2.329216 1.95995,-4.26076 4.68683,-4.26076 z m 24.14433,-1.988354 c -2.18719,0 -3.69266,1.136202 -4.68684,2.499645 h -0.0568 c -0.5965,-1.619088 -1.78951,-2.499645 -3.86308,-2.499645 -2.18719,0 -3.43702,1.107797 -4.20395,2.130379 h -0.0568 v -1.732708 h -2.27241 V 28 h 2.27241 v -9.03281 c 0,-2.244 1.42025,-3.863089 3.69265,-3.863089 2.27241,0 2.64168,1.477063 2.64168,3.351798 V 28 h 2.2724 v -9.03281 c 0,-2.244 1.42025,-3.863089 3.69266,-3.863089 2.2724,0 2.64167,1.477063 2.64167,3.351798 V 28 h 2.2724 V 17.887797 c 0,-3.039341 -1.42025,-4.77205 -4.34597,-4.77205 z"
           id="Agent-System-Copy"
           aria-label="Agent System" />
        <path
           d="M 117.85413,167.69038 V 188 h 13.20835 v -2.27241 h -10.6519 v -18.03721 z m 15.73643,0 V 188 h 13.20835 v -2.27241 h -10.6519 V 167.69038 Z M 149.32699,188 h 2.55645 v -16.70218 h 0.0568 L 158.07575,188 h 2.2724 l 6.13549,-16.70218 h 0.0568 V 188 h 2.55645 v -20.30962 h -3.49382 l -6.36274,16.87261 h -0.0568 l -6.36273,-16.87261 h -3.49382 z"
           id="LLM"
           aria-label="LLM" />
      </g>
      <g
         id="Group-17-Copy"
         transform="translate(109.000000, 121.000000)"
         fill="#8993FE"
         font-family="NeueMontreal-Regular, Neue Montreal"
         font-size="28.4050633"
         font-weight="normal">
        <path
           d="m 62.180204,93.825873 h 2.556456 c -0.710126,-3.863088 -3.408607,-6.533164 -8.549924,-6.533164 -5.624203,0 -9.430481,4.43119 -9.430481,10.538278 0,6.135493 3.238177,10.566683 9.14643,10.566683 3.124557,0 5.027697,-1.1362 6.56157,-3.26658 h 0.05681 L 63.373217,108 h 1.704304 V 97.433316 h -9.174836 v 2.272405 h 6.61838 c 0,3.806279 -2.982531,6.419549 -6.61838,6.419549 -5.112911,0 -6.589974,-4.4596 -6.589974,-8.294283 0,-3.806278 2.045164,-8.265873 6.874025,-8.265873 3.067747,0 5.396962,1.363443 5.993468,4.260759 z m 15.679613,-0.312455 v 9.032812 c 0,2.244 -1.704304,3.86309 -4.26076,3.86309 -2.272405,0 -3.152962,-1.47707 -3.152962,-3.3518 V 93.513418 H 68.17369 v 10.112202 c 0,3.32339 2.215595,4.77205 4.857266,4.77205 2.47124,0 4.005114,-1.1078 4.772051,-2.13038 h 0.05681 V 108 h 2.272405 V 93.513418 Z m 14.259338,3.692658 c 0,1.448658 -1.107798,1.761114 -3.550633,2.215595 -3.749469,0.710129 -6.192304,1.562279 -6.192304,4.857269 0,2.44283 1.846329,4.11873 4.77205,4.11873 2.386026,0 4.005114,-0.85215 4.914076,-2.21559 h 0.05681 c 0.39767,1.59068 1.221417,1.95995 2.58486,1.95995 0.426076,0 0.738532,-0.0284 1.335038,-0.22725 v -1.59068 c -1.448658,0.17043 -1.647493,-0.45448 -1.647493,-1.59068 v -7.044458 c 0,-3.493823 -2.471241,-4.573215 -5.226532,-4.573215 -4.20395,0 -5.936658,2.101974 -6.078684,4.885671 h 2.272405 c 0.142026,-2.101975 1.050988,-2.897317 3.806279,-2.897317 2.329215,0 2.954127,0.965772 2.954127,2.101975 z m -4.743646,9.203244 c -1.874734,0 -2.726886,-0.82375 -2.726886,-2.244 0,-1.73271 1.306633,-2.44284 4.118734,-3.03935 1.533873,-0.31245 2.925722,-0.71012 3.351798,-1.136198 v 2.414428 c 0,2.7837 -2.045165,4.00512 -4.743646,4.00512 z M 104.0777,93.115747 c -2.07357,0 -3.23818,1.363443 -4.00512,3.266582 h -0.0568 V 93.513418 H 97.743366 V 108 h 2.272404 v -7.72618 c 0,-3.096149 2.18719,-5.311744 5.34015,-4.800453 h 0.0568 v -2.272405 c -0.39767,-0.05681 -0.79534,-0.08522 -1.33503,-0.08522 z m 13.15154,-5.425367 v 7.697772 h -0.0568 c -0.85216,-1.249823 -2.2156,-2.272405 -4.54481,-2.272405 -3.63585,0 -6.53317,2.868911 -6.53317,7.640963 0,4.77205 2.89732,7.64096 6.53317,7.64096 2.32921,0 3.69265,-1.07939 4.54481,-2.18719 h 0.0568 V 108 h 2.2724 V 87.69038 Z m -4.37438,18.71894 c -2.98254,0 -4.488,-2.8121 -4.488,-5.65261 0,-2.840508 1.50546,-5.652609 4.488,-5.652609 2.69848,0 4.37438,2.244 4.37438,5.652609 0,3.40861 -1.6759,5.65261 -4.37438,5.65261 z m 16.10566,-13.293573 c -2.07357,0 -3.23818,1.363443 -4.00512,3.266582 h -0.0568 v -2.868911 h -2.2724 V 108 h 2.2724 v -7.72618 c 0,-3.096149 2.18719,-5.311744 5.34015,-4.800453 h 0.0568 v -2.272405 c -0.39767,-0.05681 -0.79534,-0.08522 -1.33503,-0.08522 z m 11.70288,4.090329 c 0,1.448658 -1.1078,1.761114 -3.55063,2.215595 -3.74947,0.710129 -6.19231,1.562279 -6.19231,4.857269 0,2.44283 1.84633,4.11873 4.77206,4.11873 2.38602,0 4.00511,-0.85215 4.91407,-2.21559 h 0.0568 c 0.39767,1.59068 1.22142,1.95995 2.58486,1.95995 0.42608,0 0.73853,-0.0284 1.33504,-0.22725 v -1.59068 c -1.44866,0.17043 -1.64749,-0.45448 -1.64749,-1.59068 v -7.044458 c 0,-3.493823 -2.47124,-4.573215 -5.22654,-4.573215 -4.20394,0 -5.93665,2.101974 -6.07868,4.885671 h 2.27241 c 0.14202,-2.101975 1.05098,-2.897317 3.80627,-2.897317 2.32922,0 2.95413,0.965772 2.95413,2.101975 z m -4.74364,9.203244 c -1.87474,0 -2.72689,-0.82375 -2.72689,-2.244 0,-1.73271 1.30663,-2.44284 4.11873,-3.03935 1.53388,-0.31245 2.92573,-0.71012 3.3518,-1.136198 v 2.414428 c 0,2.7837 -2.04516,4.00512 -4.74364,4.00512 z m 11.7881,-15.708004 c 0.65332,0 1.42026,-0.482886 1.42026,-1.363443 0,-0.880557 -0.76694,-1.363443 -1.42026,-1.363443 -0.62491,0 -1.42025,0.482886 -1.42025,1.363443 0,0.880557 0.79534,1.363443 1.42025,1.363443 z m -1.1362,2.812102 V 108 h 2.2724 V 93.513418 Z M 152.0538,87.69038 V 108 h 2.27241 V 87.69038 Z m 11.362,11.702886 c -2.01676,-0.482886 -3.97671,-0.624912 -3.97671,-2.329215 0,-1.136203 1.1078,-1.95995 3.15296,-1.95995 2.72689,0 3.26659,1.448658 3.49383,2.556456 h 2.2724 c -0.22724,-2.499646 -2.15878,-4.54481 -5.76623,-4.54481 -3.4086,0 -5.42536,1.846329 -5.42536,4.118734 0,3.408609 3.29498,3.664249 5.51058,4.203949 2.07357,0.51129 3.97671,0.62491 3.97671,2.72689 0,0.96577 -0.96577,2.244 -3.43701,2.244 -3.63585,0 -4.20395,-1.61909 -4.34598,-3.23818 h -2.2724 c 0.14202,3.12456 2.18719,5.22653 6.61838,5.22653 3.29498,0 5.70941,-1.73271 5.70941,-4.37438 0,-3.57904 -2.92572,-4.00511 -5.51058,-4.630024 z"
           id="Guardrails-Copy"
           aria-label="Guardrails" />
        <path
           d="M 14.431291,22.915494 16.22081,28 h 2.641671 L 11.391949,7.6903795 H 8.5514431 L 1.0525063,28 h 2.6416709 l 1.789519,-5.084506 z M 6.3358482,20.643089 9.9432912,10.048 h 0.05681 l 3.607443,10.595089 z M 30.593772,13.513418 v 1.789519 h -0.05681 c -0.852152,-1.107798 -2.215595,-2.18719 -4.60162,-2.18719 -3.579039,0 -6.476355,2.30081 -6.476355,7.072861 0,4.77205 2.897316,7.07286 6.476355,7.07286 2.386025,0 3.749468,-1.022582 4.60162,-2.272405 h 0.05681 v 2.18719 c 0,2.698481 -1.562279,3.863089 -4.26076,3.863089 -2.698481,0 -3.891493,-1.107798 -4.175544,-2.584861 h -2.272405 c 0.22724,2.471241 2.584861,4.573215 6.56157,4.573215 3.976709,0 6.419544,-1.959949 6.419544,-5.823038 v -13.69124 z m -4.37438,11.759696 c -2.982532,0 -4.488,-2.244 -4.488,-5.084506 0,-2.840507 1.505468,-5.084507 4.488,-5.084507 2.698481,0 4.37438,1.675899 4.37438,5.084507 0,3.408607 -1.675899,5.084506 -4.37438,5.084506 z m 15.935226,1.136202 c -3.152962,0 -4.715241,-2.442835 -4.715241,-5.056101 h 11.447241 c 0,-5.141316 -2.215595,-8.237468 -6.760405,-8.237468 -4.232355,0 -6.959241,2.812101 -6.959241,7.640962 0,4.54481 2.670076,7.640962 7.072861,7.640962 3.607443,0 5.681012,-2.158785 6.419544,-4.857266 h -2.272405 c -0.255646,0.994177 -1.335038,2.868911 -4.232354,2.868911 z m -0.0284,-11.305215 c 2.726886,0 4.488,1.931544 4.488,4.26076 h -9.174836 c 0,-2.329216 1.959949,-4.26076 4.686836,-4.26076 z m 16.105699,-1.988354 c -2.471241,0 -4.005114,1.107797 -4.772051,2.130379 h -0.05681 V 13.513418 H 51.130646 V 28 h 2.272405 v -9.03281 c 0,-2.244 1.704304,-3.863089 4.260759,-3.863089 2.272405,0 3.152962,1.477063 3.152962,3.351798 V 28 h 2.272405 V 17.887797 c 0,-3.323392 -2.215594,-4.77205 -4.857265,-4.77205 z m 13.918472,2.386025 V 13.513418 H 69.309877 V 8.6845567 h -2.272405 v 4.8288613 h -2.13038 v 1.988354 h 2.13038 v 8.947595 c 0,2.954127 1.477063,3.721063 3.408608,3.721063 0.596506,0 1.193012,-0.05681 1.704304,-0.17043 V 26.011646 C 70.218839,26.153671 69.309877,25.86962 69.309877,24.222127 V 15.501772 Z M 87.8584,16.155088 c -2.982532,-0.738531 -5.169722,-1.107797 -5.169722,-3.806278 0,-1.675899 1.533874,-2.7836963 4.402785,-2.7836963 3.209772,0 4.743646,1.4202533 5.112912,4.1471393 H 94.76083 C 94.419969,9.5083036 91.409033,7.2927086 87.091463,7.2927086 c -4.488,0 -6.959241,2.1303798 -6.959241,5.3401524 0,3.948303 3.635849,4.999291 6.67519,5.709417 4.544811,1.050988 6.050279,1.562279 6.050279,4.345975 0,1.817924 -1.249823,3.437013 -4.772051,3.437013 -4.260759,0 -5.965063,-2.158785 -6.249114,-4.942481 h -2.556455 c 0.28405,4.65843 4.005114,7.214886 8.805569,7.214886 5.141317,0 7.328507,-2.755291 7.328507,-5.709418 0,-4.630025 -2.982532,-5.396962 -7.555747,-6.533165 z m 22.41158,-2.64167 h -2.55646 l -4.17554,11.816506 h -0.0568 L 99.04998,13.513418 h -2.556456 l 5.482176,13.293569 c 0.5681,1.420254 -0.0284,2.641671 -0.62491,3.294988 -0.76694,0.823747 -1.647493,0.908962 -2.897316,0.795341 h -0.340861 v 1.704304 c 0.369266,0.113621 1.022582,0.284051 1.931547,0.284051 2.67007,0 3.40861,-2.13038 4.03352,-3.692658 z m 7.35695,5.879848 c -2.01676,-0.482886 -3.97671,-0.624912 -3.97671,-2.329215 0,-1.136203 1.10779,-1.95995 3.15296,-1.95995 2.72689,0 3.26658,1.448658 3.49382,2.556456 h 2.27241 c -0.22724,-2.499646 -2.15879,-4.54481 -5.76623,-4.54481 -3.40861,0 -5.42537,1.846329 -5.42537,4.118734 0,3.408608 3.29499,3.664253 5.51058,4.203949 2.07357,0.511291 3.97671,0.624912 3.97671,2.726886 0,0.965773 -0.96577,2.244 -3.43701,2.244 -3.63585,0 -4.20395,-1.619088 -4.34597,-3.238177 h -2.27241 c 0.14203,3.124557 2.18719,5.226532 6.61838,5.226532 3.29499,0 5.70942,-1.732709 5.70942,-4.37438 0,-3.579038 -2.92572,-4.005114 -5.51058,-4.630025 z m 13.74804,-3.891494 v -1.988354 h -2.84051 V 8.6845567 h -2.2724 v 4.8288613 h -2.13038 v 1.988354 h 2.13038 v 8.947595 c 0,2.954127 1.47706,3.721063 3.40861,3.721063 0.5965,0 1.19301,-0.05681 1.7043,-0.17043 v -1.988354 c -1.93154,0.142025 -2.84051,-0.142026 -2.84051,-1.789519 v -8.720355 z m 8.40792,10.907544 c -3.15297,0 -4.71524,-2.442835 -4.71524,-5.056101 h 11.44724 c 0,-5.141316 -2.2156,-8.237468 -6.76041,-8.237468 -4.23235,0 -6.95924,2.812101 -6.95924,7.640962 0,4.54481 2.67008,7.640962 7.07286,7.640962 3.60745,0 5.68101,-2.158785 6.41955,-4.857266 h -2.27241 c -0.25564,0.994177 -1.33504,2.868911 -4.23235,2.868911 z m -0.0284,-11.305215 c 2.72689,0 4.488,1.931544 4.488,4.26076 h -9.17483 c 0,-2.329216 1.95995,-4.26076 4.68683,-4.26076 z m 24.14433,-1.988354 c -2.18719,0 -3.69266,1.136202 -4.68684,2.499645 h -0.0568 c -0.5965,-1.619088 -1.78951,-2.499645 -3.86308,-2.499645 -2.18719,0 -3.43702,1.107797 -4.20395,2.130379 h -0.0568 v -1.732708 h -2.27241 V 28 h 2.27241 v -9.03281 c 0,-2.244 1.42025,-3.863089 3.69265,-3.863089 2.27241,0 2.64168,1.477063 2.64168,3.351798 V 28 h 2.2724 v -9.03281 c 0,-2.244 1.42025,-3.863089 3.69266,-3.863089 2.2724,0 2.64167,1.477063 2.64167,3.351798 V 28 h 2.2724 V 17.887797 c 0,-3.039341 -1.42025,-4.77205 -4.34597,-4.77205 z"
           id="text15"
           aria-label="Agent System" />
        <path
           d="M 117.85413,167.69038 V 188 h 13.20835 v -2.27241 h -10.6519 v -18.03721 z m 15.73643,0 V 188 h 13.20835 v -2.27241 h -10.6519 V 167.69038 Z M 149.32699,188 h 2.55645 v -16.70218 h 0.0568 L 158.07575,188 h 2.2724 l 6.13549,-16.70218 h 0.0568 V 188 h 2.55645 v -20.30962 h -3.49382 l -6.36274,16.87261 h -0.0568 l -6.36273,-16.87261 h -3.49382 z"
           id="text16"
           aria-label="LLM" />
      </g>
      <path
         d="M316,542 L316,491 L493.5,491 C507.583261,491 519,502.416739 519,516.5 C519,530.583261 507.583261,542 493.5,542 L316,542 Z"
         id="Combined-Shape-Copy"
         fill="#E2E2E2" />
      <rect
         id="Combined-Shape-Copy-2"
         fill="#E2E2E2"
         x="813"
         y="491"
         width="203"
         height="51"
         rx="25.5" />
      <rect
         id="Rectangle-Copy-12"
         fill="#FF66F9"
         x="519"
         y="652"
         width="231"
         height="51"
         rx="25.5" />
      <g
         id="Output-Guardrails-Copy"
         style="font-size:17.29px;font-family:NeueMontreal-Regular, 'Neue Montreal';fill:#ffffff"
         aria-label="OutputGuardrails">
        <path
           d="m 905.27345,746.24206 c 3.63091,0 6.05151,-2.71454 6.05151,-6.43189 0,-3.71736 -2.4206,-6.41461 -6.05151,-6.41461 -3.63091,0 -6.05151,2.69725 -6.05151,6.41461 0,3.71735 2.4206,6.43189 6.05151,6.43189 z m 0,-1.3832 c -3.11221,0 -4.49541,-2.38603 -4.49541,-5.04869 0,-2.66267 1.3832,-5.03141 4.49541,-5.03141 3.11221,0 4.49541,2.36874 4.49541,5.03141 0,2.66266 -1.3832,5.04869 -4.49541,5.04869 z m 13.53811,-7.67678 v 5.49823 c 0,1.36592 -1.0374,2.35145 -2.5935,2.35145 -1.38321,0 -1.9192,-0.89908 -1.9192,-2.04023 v -5.80945 h -1.3832 v 6.15525 c 0,2.02294 1.34862,2.90473 2.9566,2.90473 1.50423,0 2.43789,-0.67431 2.90472,-1.29675 h 0.0346 V 746 h 1.38321 v -8.81792 z m 7.1235,1.2103 v -1.2103 h -1.72901 v -2.93931 h -1.3832 v 2.93931 h -1.29675 v 1.2103 h 1.29675 v 5.44637 c 0,1.79816 0.89908,2.26499 2.0748,2.26499 0.3631,0 0.72619,-0.0346 1.03741,-0.10374 v -1.2103 c -1.17573,0.0865 -1.72901,-0.0865 -1.72901,-1.08928 v -5.30804 z m 5.67112,-1.45236 c -1.45236,0 -2.28228,0.65702 -2.80098,1.33133 h -0.0346 v -1.08927 h -1.38321 v 11.79181 h 1.38321 v -4.11503 h 0.0346 c 0.5187,0.76076 1.34862,1.3832 2.80098,1.3832 2.17855,0 3.94213,-1.74629 3.94213,-4.65102 0,-2.90473 -1.76358,-4.65102 -3.94213,-4.65102 z m -0.1729,8.09174 c -1.64255,0 -2.66266,-1.36592 -2.66266,-3.44072 0,-2.0748 1.02011,-3.44072 2.66266,-3.44072 1.81546,0 2.73183,1.71172 2.73183,3.44072 0,1.729 -0.91637,3.44072 -2.73183,3.44072 z m 11.41143,-7.84968 v 5.49823 c 0,1.36592 -1.03741,2.35145 -2.59351,2.35145 -1.3832,0 -1.91919,-0.89908 -1.91919,-2.04023 v -5.80945 h -1.38321 v 6.15525 c 0,2.02294 1.34863,2.90473 2.9566,2.90473 1.50423,0 2.43789,-0.67431 2.90473,-1.29675 h 0.0346 V 746 h 1.3832 v -8.81792 z m 7.12349,1.2103 v -1.2103 h -1.729 v -2.93931 h -1.38321 v 2.93931 h -1.29675 v 1.2103 h 1.29675 v 5.44637 c 0,1.79816 0.89909,2.26499 2.07481,2.26499 0.36309,0 0.72618,-0.0346 1.0374,-0.10374 v -1.2103 c -1.17572,0.0865 -1.729,-0.0865 -1.729,-1.08928 v -5.30804 z"
           id="path35" />
        <path
           d="m 896.42097,758.95961 h 1.55611 c -0.43225,-2.35144 -2.07481,-3.97671 -5.2043,-3.97671 -3.42343,0 -5.7403,2.69725 -5.7403,6.41461 0,3.73465 1.97107,6.43189 5.5674,6.43189 1.9019,0 3.06033,-0.6916 3.99399,-1.98835 h 0.0346 l 0.51871,1.74629 h 1.0374 v -6.43189 h -5.58468 v 1.3832 h 4.02857 c 0,2.31687 -1.81545,3.90755 -4.02857,3.90755 -3.11221,0 -4.01129,-2.71454 -4.01129,-5.04869 0,-2.31687 1.24488,-5.0314 4.18419,-5.0314 1.86732,0 3.2851,0.82992 3.64819,2.5935 z m 9.54412,-0.19019 v 5.49823 c 0,1.36592 -1.03741,2.35145 -2.59351,2.35145 -1.3832,0 -1.91919,-0.89908 -1.91919,-2.04023 v -5.80945 h -1.38321 v 6.15526 c 0,2.02293 1.34863,2.90472 2.9566,2.90472 1.50423,0 2.43789,-0.67431 2.90473,-1.29675 h 0.0346 v 1.05469 h 1.3832 v -8.81792 z m 8.67959,2.24771 c 0,0.88179 -0.67431,1.07198 -2.16125,1.34862 -2.28229,0.43225 -3.76923,0.95095 -3.76923,2.9566 0,1.48694 1.12385,2.50705 2.90473,2.50705 1.45236,0 2.43789,-0.5187 2.99117,-1.34862 h 0.0346 c 0.24206,0.96824 0.74348,1.19301 1.5734,1.19301 0.25935,0 0.44954,-0.0173 0.81263,-0.13832 v -0.96824 c -0.88179,0.10374 -1.00282,-0.27664 -1.00282,-0.96824 v -4.28793 c 0,-2.12668 -1.50424,-2.7837 -3.18137,-2.7837 -2.55893,0 -3.61362,1.27946 -3.70007,2.97389 h 1.38321 c 0.0865,-1.27947 0.63973,-1.76359 2.31686,-1.76359 1.41778,0 1.79816,0.58786 1.79816,1.27947 z m -2.88743,5.60197 c -1.14114,0 -1.65985,-0.50141 -1.65985,-1.36591 0,-1.0547 0.79535,-1.48695 2.50706,-1.85004 0.93366,-0.19019 1.78087,-0.43225 2.04022,-0.6916 v 1.46965 c 0,1.69443 -1.24488,2.4379 -2.88743,2.4379 z m 10.16654,-8.09174 c -1.26217,0 -1.97106,0.82992 -2.43789,1.98836 h -0.0346 v -1.7463 h -1.38321 v 8.81792 h 1.38321 v -4.70289 c 0,-1.88461 1.33133,-3.23324 3.25053,-2.92202 h 0.0346 v -1.3832 c -0.24207,-0.0346 -0.48413,-0.0519 -0.81264,-0.0519 z m 8.00529,-3.3024 v 4.6856 h -0.0346 c -0.5187,-0.76076 -1.34862,-1.3832 -2.76641,-1.3832 -2.21312,0 -3.97671,1.74629 -3.97671,4.65102 0,2.90473 1.76359,4.65102 3.97671,4.65102 1.41779,0 2.24771,-0.65702 2.76641,-1.33133 h 0.0346 v 1.08927 h 1.3832 v -12.36238 z m -2.66267,11.39414 c -1.81545,0 -2.73182,-1.71171 -2.73182,-3.44072 0,-1.729 0.91637,-3.44072 2.73182,-3.44072 1.64256,0 2.66267,1.36592 2.66267,3.44072 0,2.07481 -1.02011,3.44072 -2.66267,3.44072 z m 9.80345,-8.09174 c -1.26217,0 -1.97106,0.82992 -2.4379,1.98836 h -0.0346 v -1.7463 h -1.3832 v 8.81792 h 1.3832 v -4.70289 c 0,-1.88461 1.33134,-3.23324 3.25053,-2.92202 h 0.0346 v -1.3832 c -0.24206,-0.0346 -0.48412,-0.0519 -0.81263,-0.0519 z m 7.12349,2.48977 c 0,0.88179 -0.67431,1.07198 -2.16125,1.34862 -2.28229,0.43225 -3.76923,0.95095 -3.76923,2.9566 0,1.48694 1.12385,2.50705 2.90473,2.50705 1.45236,0 2.43789,-0.5187 2.99117,-1.34862 h 0.0346 c 0.24206,0.96824 0.74347,1.19301 1.5734,1.19301 0.25935,0 0.44954,-0.0173 0.81263,-0.13832 v -0.96824 c -0.88179,0.10374 -1.00282,-0.27664 -1.00282,-0.96824 v -4.28793 c 0,-2.12668 -1.50424,-2.7837 -3.18137,-2.7837 -2.55893,0 -3.61362,1.27946 -3.70007,2.97389 h 1.3832 c 0.0865,-1.27947 0.63973,-1.76359 2.31687,-1.76359 1.41778,0 1.79816,0.58786 1.79816,1.27947 z m -2.88743,5.60197 c -1.14115,0 -1.65985,-0.50141 -1.65985,-1.36591 0,-1.0547 0.79534,-1.48695 2.50706,-1.85004 0.93366,-0.19019 1.78087,-0.43225 2.04022,-0.6916 v 1.46965 c 0,1.69443 -1.24488,2.4379 -2.88743,2.4379 z m 7.17537,-9.56139 c 0.39767,0 0.8645,-0.29393 0.8645,-0.82992 0,-0.536 -0.46683,-0.82993 -0.8645,-0.82993 -0.38038,0 -0.86451,0.29393 -0.86451,0.82993 0,0.53599 0.48413,0.82992 0.86451,0.82992 z m -0.6916,1.71171 v 8.81792 h 1.3832 v -8.81792 z m 3.33695,-3.54446 v 12.36238 h 1.38321 v -12.36238 z m 6.91601,7.1235 c -1.2276,-0.29393 -2.42061,-0.38038 -2.42061,-1.41778 0,-0.69161 0.67431,-1.19302 1.9192,-1.19302 1.65984,0 1.98835,0.8818 2.12667,1.55611 h 1.3832 c -0.13832,-1.52153 -1.31404,-2.76641 -3.50987,-2.76641 -2.07481,0 -3.3024,1.12385 -3.3024,2.50706 0,2.0748 2.00564,2.23041 3.35427,2.55892 1.26217,0.31122 2.4206,0.38038 2.4206,1.65985 0,0.58786 -0.58786,1.36591 -2.09209,1.36591 -2.21313,0 -2.55893,-0.98553 -2.64538,-1.97107 h -1.3832 c 0.0865,1.90191 1.33133,3.18137 4.02858,3.18137 2.00564,0 3.47529,-1.05469 3.47529,-2.66266 0,-2.17855 -1.78087,-2.4379 -3.35426,-2.81828 z"
           id="path36" />
      </g>
      <rect
         id="Rectangle"
         fill="url(#linearGradient-1)"
         x="316"
         y="373"
         width="953"
         height="72" />
      <rect
         id="Rectangle-Copy-8"
         fill="#5754F6"
         x="519"
         y="572"
         width="140"
         height="51"
         rx="25.5" />
      <rect
         id="Rectangle-Copy-11"
         fill="#5754F6"
         x="750"
         y="572"
         width="63"
         height="51"
         rx="25.5" />
      <g
         id="text20"
         style="font-size:17.29px;font-family:NeueMontreal-Regular, 'Neue Montreal';fill:#5652f5"
         aria-label="InputGuardrails">
        <path
           d="M 571.14083,527.63762 V 540 h 1.5561 v -12.36238 z m 8.02259,3.3024 c -1.50424,0 -2.4379,0.67431 -2.90473,1.29675 h -0.0346 v -1.05469 h -1.3832 V 540 h 1.3832 v -5.49823 c 0,-1.36592 1.0374,-2.35145 2.59351,-2.35145 1.3832,0 1.91919,0.89908 1.91919,2.04023 V 540 h 1.3832 v -6.15525 c 0,-2.02294 -1.34862,-2.90473 -2.95659,-2.90473 z m 9.0254,0 c -1.45237,0 -2.28229,0.65702 -2.80099,1.33133 h -0.0346 v -1.08927 h -1.3832 v 11.79181 h 1.3832 v -4.11503 h 0.0346 c 0.5187,0.76076 1.34862,1.3832 2.80099,1.3832 2.17854,0 3.94213,-1.74629 3.94213,-4.65102 0,-2.90473 -1.76359,-4.65102 -3.94213,-4.65102 z m -0.1729,8.09174 c -1.64256,0 -2.66267,-1.36592 -2.66267,-3.44072 0,-2.0748 1.02011,-3.44072 2.66267,-3.44072 1.81545,0 2.73182,1.71172 2.73182,3.44072 0,1.729 -0.91637,3.44072 -2.73182,3.44072 z m 11.41142,-7.84968 v 5.49823 c 0,1.36592 -1.03741,2.35145 -2.59351,2.35145 -1.3832,0 -1.91919,-0.89908 -1.91919,-2.04023 v -5.80945 h -1.38321 v 6.15525 c 0,2.02294 1.34863,2.90473 2.9566,2.90473 1.50423,0 2.4379,-0.67431 2.90473,-1.29675 h 0.0346 V 540 h 1.3832 v -8.81792 z m 7.12349,1.2103 v -1.2103 h -1.729 v -2.93931 h -1.38321 v 2.93931 h -1.29675 v 1.2103 h 1.29675 v 5.44637 c 0,1.79816 0.89909,2.26499 2.07481,2.26499 0.36309,0 0.72618,-0.0346 1.0374,-0.10374 v -1.2103 c -1.17572,0.0865 -1.729,-0.0865 -1.729,-1.08928 v -5.30804 z"
           id="path37" />
        <path
           d="m 560.42097,552.95961 h 1.55611 c -0.43225,-2.35144 -2.07481,-3.97671 -5.2043,-3.97671 -3.42343,0 -5.7403,2.69725 -5.7403,6.41461 0,3.73465 1.97107,6.43189 5.5674,6.43189 1.9019,0 3.06033,-0.6916 3.99399,-1.98835 h 0.0346 l 0.51871,1.74629 h 1.0374 v -6.43189 h -5.58468 v 1.3832 h 4.02857 c 0,2.31687 -1.81545,3.90755 -4.02857,3.90755 -3.11221,0 -4.01129,-2.71454 -4.01129,-5.04869 0,-2.31687 1.24488,-5.0314 4.18419,-5.0314 1.86732,0 3.2851,0.82992 3.64819,2.5935 z m 9.54412,-0.19019 v 5.49823 c 0,1.36592 -1.03741,2.35145 -2.59351,2.35145 -1.3832,0 -1.91919,-0.89908 -1.91919,-2.04023 v -5.80945 h -1.38321 v 6.15526 c 0,2.02293 1.34863,2.90472 2.9566,2.90472 1.50423,0 2.43789,-0.67431 2.90473,-1.29675 h 0.0346 v 1.05469 h 1.3832 v -8.81792 z m 8.67959,2.24771 c 0,0.88179 -0.67431,1.07198 -2.16125,1.34862 -2.28229,0.43225 -3.76923,0.95095 -3.76923,2.9566 0,1.48694 1.12385,2.50705 2.90473,2.50705 1.45236,0 2.43789,-0.5187 2.99117,-1.34862 h 0.0346 c 0.24206,0.96824 0.74348,1.19301 1.5734,1.19301 0.25935,0 0.44954,-0.0173 0.81263,-0.13832 v -0.96824 c -0.88179,0.10374 -1.00282,-0.27664 -1.00282,-0.96824 v -4.28793 c 0,-2.12668 -1.50424,-2.7837 -3.18137,-2.7837 -2.55893,0 -3.61362,1.27946 -3.70007,2.97389 h 1.38321 c 0.0865,-1.27947 0.63973,-1.76359 2.31686,-1.76359 1.41778,0 1.79816,0.58786 1.79816,1.27947 z m -2.88743,5.60197 c -1.14114,0 -1.65985,-0.50141 -1.65985,-1.36591 0,-1.0547 0.79535,-1.48695 2.50706,-1.85004 0.93366,-0.19019 1.78087,-0.43225 2.04022,-0.6916 v 1.46965 c 0,1.69443 -1.24488,2.4379 -2.88743,2.4379 z m 10.16654,-8.09174 c -1.26217,0 -1.97106,0.82992 -2.43789,1.98836 h -0.0346 v -1.7463 h -1.38321 v 8.81792 h 1.38321 v -4.70289 c 0,-1.88461 1.33133,-3.23324 3.25053,-2.92202 h 0.0346 v -1.3832 c -0.24207,-0.0346 -0.48413,-0.0519 -0.81264,-0.0519 z m 8.00529,-3.3024 v 4.6856 h -0.0346 c -0.5187,-0.76076 -1.34862,-1.3832 -2.76641,-1.3832 -2.21312,0 -3.97671,1.74629 -3.97671,4.65102 0,2.90473 1.76359,4.65102 3.97671,4.65102 1.41779,0 2.24771,-0.65702 2.76641,-1.33133 h 0.0346 v 1.08927 h 1.3832 v -12.36238 z m -2.66267,11.39414 c -1.81545,0 -2.73182,-1.71171 -2.73182,-3.44072 0,-1.729 0.91637,-3.44072 2.73182,-3.44072 1.64256,0 2.66267,1.36592 2.66267,3.44072 0,2.07481 -1.02011,3.44072 -2.66267,3.44072 z m 9.80345,-8.09174 c -1.26217,0 -1.97106,0.82992 -2.4379,1.98836 h -0.0346 v -1.7463 h -1.3832 v 8.81792 h 1.3832 v -4.70289 c 0,-1.88461 1.33134,-3.23324 3.25053,-2.92202 h 0.0346 v -1.3832 c -0.24206,-0.0346 -0.48412,-0.0519 -0.81263,-0.0519 z m 7.12349,2.48977 c 0,0.88179 -0.67431,1.07198 -2.16125,1.34862 -2.28229,0.43225 -3.76923,0.95095 -3.76923,2.9566 0,1.48694 1.12385,2.50705 2.90473,2.50705 1.45236,0 2.43789,-0.5187 2.99117,-1.34862 h 0.0346 c 0.24206,0.96824 0.74347,1.19301 1.5734,1.19301 0.25935,0 0.44954,-0.0173 0.81263,-0.13832 v -0.96824 c -0.88179,0.10374 -1.00282,-0.27664 -1.00282,-0.96824 v -4.28793 c 0,-2.12668 -1.50424,-2.7837 -3.18137,-2.7837 -2.55893,0 -3.61362,1.27946 -3.70007,2.97389 h 1.3832 c 0.0865,-1.27947 0.63973,-1.76359 2.31687,-1.76359 1.41778,0 1.79816,0.58786 1.79816,1.27947 z m -2.88743,5.60197 c -1.14115,0 -1.65985,-0.50141 -1.65985,-1.36591 0,-1.0547 0.79534,-1.48695 2.50706,-1.85004 0.93366,-0.19019 1.78087,-0.43225 2.04022,-0.6916 v 1.46965 c 0,1.69443 -1.24488,2.4379 -2.88743,2.4379 z m 7.17537,-9.56139 c 0.39767,0 0.8645,-0.29393 0.8645,-0.82992 0,-0.536 -0.46683,-0.82993 -0.8645,-0.82993 -0.38038,0 -0.86451,0.29393 -0.86451,0.82993 0,0.53599 0.48413,0.82992 0.86451,0.82992 z m -0.6916,1.71171 v 8.81792 h 1.3832 v -8.81792 z m 3.33695,-3.54446 v 12.36238 h 1.38321 v -12.36238 z m 6.91601,7.1235 c -1.2276,-0.29393 -2.42061,-0.38038 -2.42061,-1.41778 0,-0.69161 0.67431,-1.19302 1.9192,-1.19302 1.65984,0 1.98835,0.8818 2.12667,1.55611 h 1.3832 c -0.13832,-1.52153 -1.31404,-2.76641 -3.50987,-2.76641 -2.07481,0 -3.3024,1.12385 -3.3024,2.50706 0,2.0748 2.00564,2.23041 3.35427,2.55892 1.26217,0.31122 2.4206,0.38038 2.4206,1.65985 0,0.58786 -0.58786,1.36591 -2.09209,1.36591 -2.21313,0 -2.55893,-0.98553 -2.64538,-1.97107 h -1.3832 c 0.0865,1.90191 1.33133,3.18137 4.02858,3.18137 2.00564,0 3.47529,-1.05469 3.47529,-2.66266 0,-2.17855 -1.78087,-2.4379 -3.35426,-2.81828 z"
           id="path38" />
      </g>
      <line
         x1="642.29808"
         y1="597.5"
         x2="781.5"
         y2="597.5"
         id="Path-10"
         stroke="#5551F5"
         stroke-width="7"
         stroke-linecap="round"
         stroke-linejoin="round"
         stroke-dasharray="9,20" />
      <rect
         id="rect20"
         stroke="#5754F6"
         stroke-width="5"
         x="2.5"
         y="411.5"
         width="1234"
         height="358"
         rx="16" />
      <g
         id="Group-11"
         transform="translate(20.500000, 390.000000)">
        <rect
           id="rect21"
           fill="#5754F6"
           x="0"
           y="0"
           width="284"
           height="39"
           rx="19.5" />
        <path
           d="M 21.297089,9.6322755 V 29 h 2.437895 V 9.6322755 Z m 12.568723,5.1737555 c -2.356633,0 -3.81937,1.056422 -4.550739,2.03158 h -0.05418 V 15.185259 H 27.09388 V 29 h 2.167018 v -8.613897 c 0,-2.13993 1.625264,-3.683931 4.063159,-3.683931 2.167018,0 3.006738,1.408562 3.006738,3.196352 V 29 h 2.167018 v -9.643231 c 0,-3.169264 -2.112843,-4.550738 -4.632001,-4.550738 z M 39.689664,15.185259 44.646718,29 h 2.464983 l 4.957054,-13.814741 h -2.356632 l -3.81937,11.647723 h -0.02709 l -3.81937,-11.647723 z m 21.968176,3.521405 c 0,1.381474 -1.056421,1.679439 -3.385966,2.112843 -3.57558,0.677193 -5.905124,1.489825 -5.905124,4.632001 0,2.329544 1.760702,3.92772 4.550738,3.92772 2.275369,0 3.819369,-0.812632 4.686176,-2.112843 h 0.05418 c 0.379228,1.516913 1.164772,1.869054 2.464983,1.869054 0.406316,0 0.704281,-0.02709 1.273123,-0.216702 v -1.516913 c -1.381474,0.162526 -1.571088,-0.433403 -1.571088,-1.516913 v -6.717756 c 0,-3.33179 -2.356632,-4.361124 -4.984142,-4.361124 -4.008983,0 -5.661334,2.004492 -5.796773,4.659089 h 2.167018 c 0.135439,-2.004492 1.002246,-2.762948 3.629755,-2.762948 2.221194,0 2.817124,0.920983 2.817124,2.004492 z m -4.52365,8.776423 c -1.78779,0 -2.600422,-0.785544 -2.600422,-2.13993 0,-1.652351 1.246035,-2.329545 3.92772,-2.898387 1.462737,-0.297965 2.790036,-0.677193 3.196352,-1.083509 v 2.302457 c 0,2.654597 -1.950316,3.819369 -4.52365,3.819369 z M 73.061779,14.806031 c -1.977404,0 -3.088001,1.300211 -3.819369,3.115089 h -0.05418 V 15.185259 H 67.021216 V 29 h 2.167018 v -7.367862 c 0,-2.952562 2.085755,-5.065405 5.092493,-4.577825 h 0.05418 v -2.167019 c -0.379228,-0.05418 -0.758456,-0.08126 -1.273123,-0.08126 z m 4.604923,-2.302456 c 0.623018,0 1.354386,-0.460492 1.354386,-1.300211 0,-0.83972 -0.731368,-1.3002112 -1.354386,-1.3002112 -0.59593,0 -1.354386,0.4604912 -1.354386,1.3002112 0,0.839719 0.758456,1.300211 1.354386,1.300211 z m -1.083509,2.681684 V 29 h 2.167018 V 15.185259 Z m 13.868894,3.521405 c 0,1.381474 -1.056422,1.679439 -3.385966,2.112843 -3.57558,0.677193 -5.905125,1.489825 -5.905125,4.632001 0,2.329544 1.760703,3.92772 4.550738,3.92772 2.27537,0 3.81937,-0.812632 4.686177,-2.112843 h 0.05418 c 0.379228,1.516913 1.164772,1.869054 2.464983,1.869054 0.406316,0 0.704281,-0.02709 1.273123,-0.216702 v -1.516913 c -1.381474,0.162526 -1.571088,-0.433403 -1.571088,-1.516913 v -6.717756 c 0,-3.33179 -2.356632,-4.361124 -4.984142,-4.361124 -4.008983,0 -5.661335,2.004492 -5.796773,4.659089 h 2.167018 c 0.135438,-2.004492 1.002246,-2.762948 3.629755,-2.762948 2.221194,0 2.817124,0.920983 2.817124,2.004492 z m -4.523651,8.776423 c -1.78779,0 -2.600421,-0.785544 -2.600421,-2.13993 0,-1.652351 1.246035,-2.329545 3.92772,-2.898387 1.462737,-0.297965 2.790036,-0.677193 3.196352,-1.083509 v 2.302457 c 0,2.654597 -1.950317,3.819369 -4.523651,3.819369 z M 102.58739,14.806031 c -2.35663,0 -3.819369,1.056422 -4.550737,2.03158 h -0.05418 V 15.185259 H 95.815459 V 29 h 2.167018 v -8.613897 c 0,-2.13993 1.625264,-3.683931 4.063163,-3.683931 2.16701,0 3.00673,1.408562 3.00673,3.196352 V 29 h 2.16702 v -9.643231 c 0,-3.169264 -2.11284,-4.550738 -4.632,-4.550738 z m 13.27298,2.275369 v -1.896141 h -2.70878 v -4.604913 h -2.16701 v 4.604913 H 108.953 V 17.0814 h 2.03158 v 8.532634 c 0,2.817124 1.40856,3.548492 3.25052,3.548492 0.56885,0 1.13769,-0.05418 1.62527,-0.162526 v -1.896141 c -1.84197,0.135439 -2.70878,-0.135438 -2.70878,-1.706527 V 17.0814 Z m 21.99525,-1.598176 h 2.43789 c -0.67719,-3.68393 -3.25052,-6.2301767 -8.1534,-6.2301767 -5.36337,0 -8.99313,4.2256857 -8.99313,10.0495467 0,5.850949 3.088,10.076634 8.72225,10.076634 2.97965,0 4.79453,-1.083509 6.25726,-3.115088 h 0.0542 L 138.9933,29 h 1.62527 V 18.923366 h -8.74934 v 2.167018 h 6.31144 c 0,3.629755 -2.84421,6.121826 -6.31144,6.121826 -4.87579,0 -6.28435,-4.252773 -6.28435,-7.909616 0,-3.629755 1.95031,-7.882529 6.55523,-7.882529 2.92547,0 5.14667,1.300211 5.71551,4.063159 z m 14.95244,-0.297965 v 8.613897 c 0,2.139931 -1.62527,3.683931 -4.06316,3.683931 -2.16702,0 -3.00674,-1.408561 -3.00674,-3.196351 v -9.101477 h -2.16702 v 9.643231 c 0,3.169264 2.11284,4.550738 4.632,4.550738 2.35663,0 3.81937,-1.056421 4.55074,-2.031579 h 0.0542 V 29 h 2.16701 V 15.185259 Z m 13.59804,3.521405 c 0,1.381474 -1.05642,1.679439 -3.38597,2.112843 -3.57558,0.677193 -5.90512,1.489825 -5.90512,4.632001 0,2.329544 1.7607,3.92772 4.55073,3.92772 2.27537,0 3.81937,-0.812632 4.68618,-2.112843 h 0.0542 c 0.37922,1.516913 1.16477,1.869054 2.46498,1.869054 0.40632,0 0.70428,-0.02709 1.27312,-0.216702 v -1.516913 c -1.38147,0.162526 -1.57109,-0.433403 -1.57109,-1.516913 v -6.717756 c 0,-3.33179 -2.35663,-4.361124 -4.98414,-4.361124 -4.00898,0 -5.66133,2.004492 -5.79677,4.659089 h 2.16702 c 0.13544,-2.004492 1.00224,-2.762948 3.62975,-2.762948 2.2212,0 2.81713,0.920983 2.81713,2.004492 z m -4.52365,8.776423 c -1.78779,0 -2.60043,-0.785544 -2.60043,-2.13993 0,-1.652351 1.24604,-2.329545 3.92772,-2.898387 1.46274,-0.297965 2.79004,-0.677193 3.19636,-1.083509 v 2.302457 c 0,2.654597 -1.95032,3.819369 -4.52365,3.819369 z m 15.92758,-12.677056 c -1.9774,0 -3.088,1.300211 -3.81937,3.115089 h -0.0542 v -2.735861 h -2.16702 V 29 h 2.16702 v -7.367862 c 0,-2.952562 2.08575,-5.065405 5.09249,-4.577825 h 0.0542 v -2.167019 c -0.37923,-0.05418 -0.75846,-0.08126 -1.27313,-0.08126 z m 12.54161,-5.1737555 v 7.3407735 h -0.0542 c -0.81263,-1.19186 -2.11285,-2.167018 -4.33404,-2.167018 -3.46723,0 -6.23018,2.735861 -6.23018,7.286599 0,4.550738 2.76295,7.286598 6.23018,7.286598 2.22119,0 3.52141,-1.029333 4.33404,-2.085755 h 0.0542 V 29 h 2.16702 V 9.6322755 Z m -4.17151,17.8508115 c -2.84421,0 -4.27986,-2.681685 -4.27986,-5.390457 0,-2.708773 1.43565,-5.390458 4.27986,-5.390458 2.57334,0 4.17151,2.139931 4.17151,5.390458 0,3.250527 -1.59817,5.390457 -4.17151,5.390457 z m 15.35874,-12.677056 c -1.97741,0 -3.088,1.300211 -3.81937,3.115089 h -0.0542 v -2.735861 h -2.16701 V 29 h 2.16701 v -7.367862 c 0,-2.952562 2.08576,-5.065405 5.0925,-4.577825 h 0.0542 v -2.167019 c -0.37923,-0.05418 -0.75846,-0.08126 -1.27312,-0.08126 z m 11.16013,3.900633 c 0,1.381474 -1.05642,1.679439 -3.38596,2.112843 -3.57558,0.677193 -5.90513,1.489825 -5.90513,4.632001 0,2.329544 1.76071,3.92772 4.55074,3.92772 2.27537,0 3.81937,-0.812632 4.68618,-2.112843 h 0.0542 c 0.37923,1.516913 1.16478,1.869054 2.46499,1.869054 0.40631,0 0.70428,-0.02709 1.27312,-0.216702 v -1.516913 c -1.38147,0.162526 -1.57109,-0.433403 -1.57109,-1.516913 v -6.717756 c 0,-3.33179 -2.35663,-4.361124 -4.98414,-4.361124 -4.00898,0 -5.66133,2.004492 -5.79677,4.659089 h 2.16702 c 0.13543,-2.004492 1.00224,-2.762948 3.62975,-2.762948 2.22119,0 2.81712,0.920983 2.81712,2.004492 z m -4.52365,8.776423 c -1.78779,0 -2.60042,-0.785544 -2.60042,-2.13993 0,-1.652351 1.24604,-2.329545 3.92772,-2.898387 1.46274,-0.297965 2.79004,-0.677193 3.19635,-1.083509 v 2.302457 c 0,2.654597 -1.95031,3.819369 -4.52365,3.819369 z m 11.24143,-14.979512 c 0.62302,0 1.35438,-0.460492 1.35438,-1.300211 0,-0.83972 -0.73136,-1.3002112 -1.35438,-1.3002112 -0.59593,0 -1.35439,0.4604912 -1.35439,1.3002112 0,0.839719 0.75846,1.300211 1.35439,1.300211 z m -1.08351,2.681684 V 29 h 2.16702 V 15.185259 Z m 5.2279,-5.5529835 V 29 h 2.16701 V 9.6322755 Z m 6.3114,2.8712995 c 0.62302,0 1.35439,-0.460492 1.35439,-1.300211 0,-0.83972 -0.73137,-1.3002112 -1.35439,-1.3002112 -0.59593,0 -1.35438,0.4604912 -1.35438,1.3002112 0,0.839719 0.75845,1.300211 1.35438,1.300211 z m -1.08351,2.681684 V 29 h 2.16702 V 15.185259 Z m 12.18946,-0.379228 c -2.35663,0 -3.81937,1.056422 -4.55074,2.03158 h -0.0542 v -1.652352 h -2.16702 V 29 h 2.16702 v -8.613897 c 0,-2.13993 1.62526,-3.683931 4.06315,-3.683931 2.16702,0 3.00674,1.408562 3.00674,3.196352 V 29 h 2.16702 v -9.643231 c 0,-3.169264 -2.11284,-4.550738 -4.632,-4.550738 z m 17.36322,0.379228 v 1.706527 h -0.0542 c -0.81263,-1.056421 -2.11284,-2.085755 -4.38821,-2.085755 -3.41305,0 -6.176,2.194106 -6.176,6.744844 0,4.550738 2.76295,6.744844 6.176,6.744844 2.27537,0 3.57558,-0.975158 4.38821,-2.167018 h 0.0542 v 2.085755 c 0,2.573334 -1.48983,3.683931 -4.06316,3.683931 -2.57333,0 -3.71102,-1.056422 -3.9819,-2.464983 h -2.16701 c 0.2167,2.356632 2.46498,4.361124 6.25726,4.361124 3.79228,0 6.12183,-1.869054 6.12183,-5.552984 V 15.185259 Z m -4.17151,11.214319 c -2.84421,0 -4.27986,-2.13993 -4.27986,-4.848703 0,-2.708772 1.43565,-4.848703 4.27986,-4.848703 2.57333,0 4.17151,1.598176 4.17151,4.848703 0,3.250527 -1.59818,4.848703 -4.17151,4.848703 z"
           id="Invariant-Guardraili"
           style="font-size:27.0877px;font-family:NeueMontreal-Regular, 'Neue Montreal';fill:#ffffff"
           aria-label="Invariant Guardrailing" />
      </g>
      <g
         id="Group-14"
         transform="translate(519.000000, 0.000000)">
        <line
           x1="0"
           y1="19.4844459"
           x2="118"
           y2="19.4844459"
           id="Path-11"
           stroke="#6A79FF" />
        <rect
           id="rect22"
           fill="#6A79FF"
           x="10"
           y="0"
           width="100"
           height="38"
           rx="10" />
        <g
           id="Input-Latency"
           style="font-size:12.0927px;font-family:NeueMontreal-Medium, 'Neue Montreal';fill:#ffffff"
           aria-label="InputLatency">
          <path
             d="M 47.447741,7.3536943 V 16 h 1.088346 V 7.3536943 Z m 5.611037,2.3097124 c -1.052068,0 -1.705076,0.4716163 -2.03158,0.9069553 h -0.02418 V 9.832705 H 50.035594 V 16 h 0.967419 v -3.84549 c 0,-0.955326 0.725564,-1.644612 1.81391,-1.644612 0.967419,0 1.342294,0.628822 1.342294,1.426943 V 16 h 0.967419 v -4.305014 c 0,-1.41485 -0.943234,-2.0315793 -2.067858,-2.0315793 z m 6.312406,0 c -1.01579,0 -1.596241,0.4595243 -1.959023,0.9311403 h -0.02419 V 9.832705 h -0.967419 v 8.247245 h 0.967419 v -2.878071 h 0.02419 c 0.362782,0.532081 0.943233,0.967419 1.959023,0.967419 1.523684,0 2.757143,-1.221366 2.757143,-3.252945 0,-2.03158 -1.233459,-3.2529463 -2.757143,-3.2529463 z m -0.120928,5.6594003 c -1.148809,0 -1.862281,-0.955326 -1.862281,-2.406454 0,-1.451129 0.713472,-2.406455 1.862281,-2.406455 1.269738,0 1.910653,1.197181 1.910653,2.406455 0,1.209273 -0.640915,2.406454 -1.910653,2.406454 z m 7.981203,-5.490102 v 3.84549 c 0,0.955326 -0.725564,1.644612 -1.81391,1.644612 -0.967419,0 -1.342294,-0.628822 -1.342294,-1.426943 V 9.832705 h -0.967418 v 4.305014 c 0,1.41485 0.943233,2.031579 2.067857,2.031579 1.052068,0 1.705076,-0.471616 2.03158,-0.906955 h 0.02419 V 16 h 0.967419 V 9.832705 Z m 4.982206,0.846491 V 9.832705 H 71.004392 V 7.77694 h -0.967419 v 2.055765 h -0.906955 v 0.846491 h 0.906955 v 3.809212 c 0,1.257645 0.628822,1.584148 1.451128,1.584148 0.253947,0 0.507895,-0.02418 0.725564,-0.07256 v -0.846491 c -0.822306,0.06046 -1.209273,-0.06046 -1.209273,-0.761843 v -3.71247 z"
             id="path39" />
          <path
             d="m 39.569323,22.764463 v 8.646306 h 5.623122 V 30.44335 h -4.534776 v -7.678887 z m 10.327206,4.051066 c 0,0.61673 -0.471617,0.74975 -1.511592,0.943233 -1.596241,0.302319 -2.636216,0.665101 -2.636216,2.067858 0,1.039975 0.786028,1.753447 2.031579,1.753447 1.01579,0 1.705076,-0.362782 2.092044,-0.943234 h 0.02419 c 0.169298,0.677194 0.519988,0.834399 1.100439,0.834399 0.181391,0 0.314411,-0.01209 0.568358,-0.09674 v -0.677193 c -0.616729,0.07256 -0.701378,-0.193484 -0.701378,-0.677193 v -2.998998 c 0,-1.487407 -1.052068,-1.946931 -2.225063,-1.946931 -1.789725,0 -2.527382,0.894863 -2.587846,2.079951 h 0.967419 c 0.06046,-0.894863 0.447431,-1.233459 1.620427,-1.233459 0.991604,0 1.257644,0.411153 1.257644,0.894862 z m -2.019487,3.918046 c -0.79812,0 -1.160902,-0.350689 -1.160902,-0.955326 0,-0.737657 0.556265,-1.039975 1.753446,-1.293922 0.653008,-0.133021 1.245552,-0.302319 1.426943,-0.48371 V 29.0285 c 0,1.185088 -0.870677,1.705075 -2.019487,1.705075 z m 6.977508,-4.64361 v -0.846491 h -1.209273 v -2.055765 h -0.967419 v 2.055765 h -0.906955 v 0.846491 h 0.906955 v 3.809212 c 0,1.257644 0.628822,1.584148 1.451128,1.584148 0.253948,0 0.507895,-0.02419 0.725564,-0.07256 v -0.846492 c -0.822306,0.06046 -1.209273,-0.06046 -1.209273,-0.761842 v -3.71247 z m 3.579457,4.64361 c -1.342294,0 -2.007394,-1.039975 -2.007394,-2.152507 h 4.873372 c 0,-2.188785 -0.943233,-3.506893 -2.878071,-3.506893 -1.801817,0 -2.96272,1.197181 -2.96272,3.252946 0,1.934838 1.136717,3.252946 3.011091,3.252946 1.535778,0 2.418547,-0.919048 2.732958,-2.067858 h -0.967418 c -0.108835,0.423246 -0.568359,1.221366 -1.801818,1.221366 z m -0.01209,-4.812908 c 1.160903,0 1.910652,0.822306 1.910652,1.81391 h -3.905953 c 0,-0.991604 0.834399,-1.81391 1.995301,-1.81391 z m 6.856594,-0.846492 c -1.052068,0 -1.705076,0.471617 -2.03158,0.906955 h -0.02418 v -0.737656 h -0.967419 v 6.167295 h 0.967419 v -3.84549 c 0,-0.955326 0.725564,-1.644612 1.81391,-1.644612 0.967419,0 1.342293,0.628822 1.342293,1.426942 v 4.06316 h 0.967419 v -4.305014 c 0,-1.41485 -0.943233,-2.03158 -2.067857,-2.03158 z m 7.739348,2.394362 h 0.967419 c -0.145113,-1.378572 -1.185088,-2.394362 -2.708773,-2.394362 -1.801817,0 -2.986905,1.318108 -2.986905,3.252946 0,1.934838 1.185088,3.252946 2.986905,3.252946 1.523685,0 2.624124,-1.039975 2.708773,-2.442733 h -0.967419 c -0.04837,0.737657 -0.495802,1.596241 -1.741354,1.596241 -1.463221,0 -2.019487,-1.245551 -2.019487,-2.406454 0,-1.160903 0.556266,-2.406454 2.019487,-2.406454 1.233459,0 1.692983,0.870677 1.741354,1.54787 z m 7.122611,-2.225063 h -1.088346 l -1.777633,5.030577 h -0.02419 L 75.363836,25.243474 H 74.27549 l 2.333898,5.6594 c 0.241855,0.604636 -0.01209,1.124624 -0.26604,1.402757 -0.326504,0.350689 -0.701379,0.386967 -1.233459,0.338597 h -0.145113 v 0.725564 c 0.157206,0.04837 0.435338,0.120927 0.822306,0.120927 1.136717,0 1.451128,-0.906955 1.717168,-1.572056 z"
             id="path40" />
        </g>
      </g>
      <g
         id="Group-14-Copy"
         transform="translate(868.000000, 0.000000)">
        <line
           x1="0"
           y1="19.4844459"
           x2="118"
           y2="19.4844459"
           id="line23"
           stroke="#6A79FF" />
        <rect
           id="rect23"
           fill="#6A79FF"
           x="10"
           y="0"
           width="100"
           height="38"
           rx="10" />
        <g
           id="Output-Latency"
           style="font-size:12.0927px;font-family:NeueMontreal-Medium, 'Neue Montreal';fill:#ffffff"
           aria-label="OutputLatency">
          <path
             d="m 46.214282,16.169298 c 2.539475,0 4.232458,-1.898559 4.232458,-4.498497 0,-2.5999383 -1.692983,-4.486405 -4.232458,-4.486405 -2.539474,0 -4.232457,1.8864667 -4.232457,4.486405 0,2.599938 1.692983,4.498497 4.232457,4.498497 z m 0,-0.967419 c -2.176692,0 -3.144111,-1.668797 -3.144111,-3.531078 0,-1.8622815 0.967419,-3.5189862 3.144111,-3.5189862 2.176693,0 3.144111,1.6567047 3.144111,3.5189862 0,1.862281 -0.967418,3.531078 -3.144111,3.531078 z m 9.46862,-5.369174 v 3.84549 c 0,0.955326 -0.725564,1.644612 -1.81391,1.644612 -0.967419,0 -1.342294,-0.628822 -1.342294,-1.426943 V 9.832705 h -0.967419 v 4.305014 c 0,1.41485 0.943234,2.031579 2.067858,2.031579 1.052068,0 1.705076,-0.471616 2.03158,-0.906955 h 0.02418 V 16 h 0.967419 V 9.832705 Z m 4.982206,0.846491 V 9.832705 H 59.455834 V 7.77694 H 58.488415 V 9.832705 H 57.58146 v 0.846491 h 0.906955 v 3.809212 c 0,1.257645 0.628823,1.584148 1.451129,1.584148 0.253947,0 0.507895,-0.02418 0.725564,-0.07256 v -0.846491 c -0.822306,0.06046 -1.209274,-0.06046 -1.209274,-0.761843 v -3.71247 z m 3.966413,-1.0157893 c -1.01579,0 -1.596241,0.4595243 -1.959023,0.9311403 h -0.02419 V 9.832705 h -0.967419 v 8.247245 h 0.967419 v -2.878071 h 0.02419 c 0.362782,0.532081 0.943233,0.967419 1.959023,0.967419 1.523684,0 2.757143,-1.221366 2.757143,-3.252945 0,-2.03158 -1.233459,-3.2529463 -2.757143,-3.2529463 z m -0.120928,5.6594003 c -1.14881,0 -1.862281,-0.955326 -1.862281,-2.406454 0,-1.451129 0.713471,-2.406455 1.862281,-2.406455 1.269738,0 1.910653,1.197181 1.910653,2.406455 0,1.209273 -0.640915,2.406454 -1.910653,2.406454 z m 7.981203,-5.490102 v 3.84549 c 0,0.955326 -0.725564,1.644612 -1.81391,1.644612 -0.967419,0 -1.342294,-0.628822 -1.342294,-1.426943 V 9.832705 h -0.967418 v 4.305014 c 0,1.41485 0.943233,2.031579 2.067857,2.031579 1.052068,0 1.705076,-0.471616 2.03158,-0.906955 h 0.02418 V 16 h 0.967419 V 9.832705 Z m 4.982205,0.846491 V 9.832705 H 76.264728 V 7.77694 h -0.967419 v 2.055765 h -0.906955 v 0.846491 h 0.906955 v 3.809212 c 0,1.257645 0.628822,1.584148 1.451128,1.584148 0.253947,0 0.507895,-0.02418 0.725564,-0.07256 v -0.846491 c -0.822306,0.06046 -1.209273,-0.06046 -1.209273,-0.761843 v -3.71247 z"
             id="path41" />
          <path
             d="m 39.569323,22.764463 v 8.646306 h 5.623122 V 30.44335 h -4.534776 v -7.678887 z m 10.327206,4.051066 c 0,0.61673 -0.471617,0.74975 -1.511592,0.943233 -1.596241,0.302319 -2.636216,0.665101 -2.636216,2.067858 0,1.039975 0.786028,1.753447 2.031579,1.753447 1.01579,0 1.705076,-0.362782 2.092044,-0.943234 h 0.02419 c 0.169298,0.677194 0.519988,0.834399 1.100439,0.834399 0.181391,0 0.314411,-0.01209 0.568358,-0.09674 v -0.677193 c -0.616729,0.07256 -0.701378,-0.193484 -0.701378,-0.677193 v -2.998998 c 0,-1.487407 -1.052068,-1.946931 -2.225063,-1.946931 -1.789725,0 -2.527382,0.894863 -2.587846,2.079951 h 0.967419 c 0.06046,-0.894863 0.447431,-1.233459 1.620427,-1.233459 0.991604,0 1.257644,0.411153 1.257644,0.894862 z m -2.019487,3.918046 c -0.79812,0 -1.160902,-0.350689 -1.160902,-0.955326 0,-0.737657 0.556265,-1.039975 1.753446,-1.293922 0.653008,-0.133021 1.245552,-0.302319 1.426943,-0.48371 V 29.0285 c 0,1.185088 -0.870677,1.705075 -2.019487,1.705075 z m 6.977508,-4.64361 v -0.846491 h -1.209273 v -2.055765 h -0.967419 v 2.055765 h -0.906955 v 0.846491 h 0.906955 v 3.809212 c 0,1.257644 0.628822,1.584148 1.451128,1.584148 0.253948,0 0.507895,-0.02419 0.725564,-0.07256 v -0.846492 c -0.822306,0.06046 -1.209273,-0.06046 -1.209273,-0.761842 v -3.71247 z m 3.579457,4.64361 c -1.342294,0 -2.007394,-1.039975 -2.007394,-2.152507 h 4.873372 c 0,-2.188785 -0.943233,-3.506893 -2.878071,-3.506893 -1.801817,0 -2.96272,1.197181 -2.96272,3.252946 0,1.934838 1.136717,3.252946 3.011091,3.252946 1.535778,0 2.418547,-0.919048 2.732958,-2.067858 h -0.967418 c -0.108835,0.423246 -0.568359,1.221366 -1.801818,1.221366 z m -0.01209,-4.812908 c 1.160903,0 1.910652,0.822306 1.910652,1.81391 h -3.905953 c 0,-0.991604 0.834399,-1.81391 1.995301,-1.81391 z m 6.856594,-0.846492 c -1.052068,0 -1.705076,0.471617 -2.03158,0.906955 h -0.02418 v -0.737656 h -0.967419 v 6.167295 h 0.967419 v -3.84549 c 0,-0.955326 0.725564,-1.644612 1.81391,-1.644612 0.967419,0 1.342293,0.628822 1.342293,1.426942 v 4.06316 h 0.967419 v -4.305014 c 0,-1.41485 -0.943233,-2.03158 -2.067857,-2.03158 z m 7.739348,2.394362 h 0.967419 c -0.145113,-1.378572 -1.185088,-2.394362 -2.708773,-2.394362 -1.801817,0 -2.986905,1.318108 -2.986905,3.252946 0,1.934838 1.185088,3.252946 2.986905,3.252946 1.523685,0 2.624124,-1.039975 2.708773,-2.442733 h -0.967419 c -0.04837,0.737657 -0.495802,1.596241 -1.741354,1.596241 -1.463221,0 -2.019487,-1.245551 -2.019487,-2.406454 0,-1.160903 0.556266,-2.406454 2.019487,-2.406454 1.233459,0 1.692983,0.870677 1.741354,1.54787 z m 7.122611,-2.225063 h -1.088346 l -1.777633,5.030577 h -0.02419 L 75.363836,25.243474 H 74.27549 l 2.333898,5.6594 c 0.241855,0.604636 -0.01209,1.124624 -0.26604,1.402757 -0.326504,0.350689 -0.701379,0.386967 -1.233459,0.338597 h -0.145113 v 0.725564 c 0.157206,0.04837 0.435338,0.120927 0.822306,0.120927 1.136717,0 1.451128,-0.906955 1.717168,-1.572056 z"
             id="path42" />
        </g>
      </g>
      <g
         id="Group-14-Copy-2"
         transform="translate(637.000000, 0.000000)">
        <line
           x1="0"
           y1="19.4844459"
           x2="231.5"
           y2="19.5"
           id="line25"
           stroke="#6A79FF" />
        <rect
           id="rect25"
           fill="#6A79FF"
           x="66"
           y="0"
           width="100"
           height="38"
           rx="10" />
        <g
           id="Model-Latency"
           style="font-size:12.0927px;font-family:NeueMontreal-Medium, 'Neue Montreal';fill:#ffffff"
           aria-label="ModelLatency">
          <path
             d="m 100.4427,16 h 1.08834 V 8.8894716 h 0.0242 L 104.16726,16 h 0.96742 l 2.61203,-7.1105284 h 0.0242 V 16 h 1.08834 V 7.3536943 h -1.4874 l -2.70878,7.1830847 h -0.0242 L 101.9301,7.3536943 h -1.4874 z m 12.68528,0.169298 c -1.88647,0 -3.02318,-1.330201 -3.02318,-3.252945 0,-1.922745 1.13671,-3.2529463 3.02318,-3.2529463 1.87437,0 3.01109,1.3302013 3.01109,3.2529463 0,1.922744 -1.13672,3.252945 -3.01109,3.252945 z m 0,-0.846491 c 1.37857,0 2.04367,-1.088346 2.04367,-2.406454 0,-1.318109 -0.6651,-2.406455 -2.04367,-2.406455 -1.39067,0 -2.05577,1.088346 -2.05577,2.406455 0,1.318108 0.6651,2.406454 2.05577,2.406454 z m 8.38027,-7.9691127 v 3.2771317 h -0.0242 c -0.36278,-0.532081 -0.94324,-0.9674193 -1.93484,-0.9674193 -1.54787,0 -2.78133,1.2213663 -2.78133,3.2529463 0,2.031579 1.23346,3.252945 2.78133,3.252945 0.9916,0 1.57206,-0.459524 1.93484,-0.93114 h 0.0242 V 16 h 0.96742 V 7.3536943 Z m -1.86228,7.9691127 c -1.26974,0 -1.91065,-1.197181 -1.91065,-2.406454 0,-1.209274 0.64091,-2.406455 1.91065,-2.406455 1.14881,0 1.86228,0.955326 1.86228,2.406455 0,1.451128 -0.71347,2.406454 -1.86228,2.406454 z m 6.78402,0 c -1.34229,0 -2.00739,-1.039975 -2.00739,-2.152507 h 4.87337 c 0,-2.188785 -0.94323,-3.5068933 -2.87807,-3.5068933 -1.80182,0 -2.96272,1.1971813 -2.96272,3.2529463 0,1.934837 1.13671,3.252945 3.01109,3.252945 1.53578,0 2.41855,-0.919048 2.73296,-2.067857 h -0.96742 c -0.10884,0.423245 -0.56836,1.221366 -1.80182,1.221366 z m -0.0121,-4.812909 c 1.1609,0 1.91065,0.822306 1.91065,1.81391 h -3.90595 c 0,-0.991604 0.83439,-1.81391 1.9953,-1.81391 z m 3.86968,-3.1562037 V 16 H 131.255 V 7.3536943 Z"
             id="path43" />
          <path
             d="m 95.569323,22.764463 v 8.646306 h 5.623117 V 30.44335 h -4.534771 v -7.678887 z m 10.327207,4.051066 c 0,0.61673 -0.47162,0.74975 -1.51159,0.943233 -1.59624,0.302319 -2.63622,0.665101 -2.63622,2.067858 0,1.039975 0.78603,1.753447 2.03158,1.753447 1.01579,0 1.70508,-0.362782 2.09204,-0.943234 h 0.0242 c 0.1693,0.677194 0.51999,0.834399 1.10044,0.834399 0.18139,0 0.31441,-0.01209 0.56836,-0.09674 v -0.677193 c -0.61673,0.07256 -0.70138,-0.193484 -0.70138,-0.677193 v -2.998998 c 0,-1.487407 -1.05207,-1.946931 -2.22507,-1.946931 -1.78972,0 -2.52738,0.894863 -2.58784,2.079951 h 0.96742 c 0.0605,-0.894863 0.44743,-1.233459 1.62042,-1.233459 0.99161,0 1.25765,0.411153 1.25765,0.894862 z m -2.01949,3.918046 c -0.79812,0 -1.1609,-0.350689 -1.1609,-0.955326 0,-0.737657 0.55627,-1.039975 1.75345,-1.293922 0.653,-0.133021 1.24555,-0.302319 1.42694,-0.48371 V 29.0285 c 0,1.185088 -0.87068,1.705075 -2.01949,1.705075 z m 6.97751,-4.64361 v -0.846491 h -1.20927 v -2.055765 h -0.96742 v 2.055765 h -0.90696 v 0.846491 h 0.90696 v 3.809212 c 0,1.257644 0.62882,1.584148 1.45113,1.584148 0.25394,0 0.50789,-0.02419 0.72556,-0.07256 v -0.846492 c -0.82231,0.06046 -1.20927,-0.06046 -1.20927,-0.761842 v -3.71247 z m 3.57946,4.64361 c -1.3423,0 -2.0074,-1.039975 -2.0074,-2.152507 h 4.87338 c 0,-2.188785 -0.94324,-3.506893 -2.87808,-3.506893 -1.80181,0 -2.96272,1.197181 -2.96272,3.252946 0,1.934838 1.13672,3.252946 3.0111,3.252946 1.53577,0 2.41854,-0.919048 2.73295,-2.067858 h -0.96742 c -0.10883,0.423246 -0.56835,1.221366 -1.80181,1.221366 z m -0.0121,-4.812908 c 1.16091,0 1.91066,0.822306 1.91066,1.81391 h -3.90596 c 0,-0.991604 0.8344,-1.81391 1.9953,-1.81391 z m 6.8566,-0.846492 c -1.05207,0 -1.70508,0.471617 -2.03158,0.906955 h -0.0242 v -0.737656 h -0.96742 v 6.167295 h 0.96742 v -3.84549 c 0,-0.955326 0.72557,-1.644612 1.81391,-1.644612 0.96742,0 1.3423,0.628822 1.3423,1.426942 v 4.06316 h 0.96742 v -4.305014 c 0,-1.41485 -0.94324,-2.03158 -2.06786,-2.03158 z m 7.73935,2.394362 h 0.96741 c -0.14511,-1.378572 -1.18508,-2.394362 -2.70877,-2.394362 -1.80182,0 -2.9869,1.318108 -2.9869,3.252946 0,1.934838 1.18508,3.252946 2.9869,3.252946 1.52369,0 2.62413,-1.039975 2.70877,-2.442733 h -0.96741 c -0.0484,0.737657 -0.49581,1.596241 -1.74136,1.596241 -1.46322,0 -2.01948,-1.245551 -2.01948,-2.406454 0,-1.160903 0.55626,-2.406454 2.01948,-2.406454 1.23346,0 1.69299,0.870677 1.74136,1.54787 z m 7.12261,-2.225063 h -1.08835 l -1.77763,5.030577 h -0.0242 l -1.88646,-5.030577 h -1.08835 l 2.3339,5.6594 c 0.24185,0.604636 -0.0121,1.124624 -0.26604,1.402757 -0.32651,0.350689 -0.70138,0.386967 -1.23346,0.338597 h -0.14511 v 0.725564 c 0.1572,0.04837 0.43533,0.120927 0.8223,0.120927 1.13672,0 1.45113,-0.906955 1.71717,-1.572056 z"
             id="path44" />
        </g>
      </g>
    </g>
  </g>
</svg>
