<?xml version="1.0" encoding="UTF-8" standalone="no"?>
<svg
   width="953px"
   height="1027px"
   viewBox="0 0 953 1027"
   version="1.1"
   id="svg16"
   xmlns="http://www.w3.org/2000/svg"
   xmlns:svg="http://www.w3.org/2000/svg">
  <defs
     id="defs16" />
  <title
     id="title1">Group 4</title>
  <g
     id="Page-2"
     stroke="none"
     stroke-width="1"
     fill="none"
     fill-rule="evenodd">
    <g
       id="Group-4">
      <rect
         id="Rectangle-Copy-9"
         fill="#F3F3F3"
         x="256"
         y="163"
         width="398"
         height="864"
         rx="30" />
      <path
         d="m 391.13669,247 h 2.55646 v -8.20906 h 5.82303 c 5.14132,0 3.20978,7.35691 4.09033,8.20906 h 2.75529 v -0.17043 c -1.05098,-0.34086 0.59651,-8.32268 -3.91989,-9.20324 v -0.0568 c 2.244,-0.5681 3.63584,-2.18719 3.63584,-5.11291 0,-3.60745 -2.69848,-5.76623 -6.70359,-5.76623 h -8.23747 z m 2.55646,-18.03722 h 5.0845 c 2.10198,0 4.74365,0.25565 4.74365,3.77788 0,3.52223 -2.64167,3.77787 -4.74365,3.77787 h -5.0845 z m 21.10496,16.44654 c -3.15296,0 -4.71524,-2.44284 -4.71524,-5.0561 h 11.44724 c 0,-5.14132 -2.21559,-8.23747 -6.7604,-8.23747 -4.23235,0 -6.95924,2.8121 -6.95924,7.64096 0,4.54481 2.67008,7.64096 7.07286,7.64096 3.60744,0 5.68101,-2.15878 6.41954,-4.85726 h -2.2724 c -0.25565,0.99417 -1.33504,2.86891 -4.23236,2.86891 z m -0.0284,-11.30522 c 2.72689,0 4.488,1.93155 4.488,4.26076 h -9.17484 c 0,-2.32921 1.95995,-4.26076 4.68684,-4.26076 z m 17.86681,2.10198 c 0,1.44865 -1.10779,1.76111 -3.55063,2.21559 -3.74947,0.71013 -6.1923,1.56228 -6.1923,4.85727 0,2.44283 1.84633,4.11873 4.77205,4.11873 2.38602,0 4.00511,-0.85215 4.91407,-2.21559 h 0.0568 c 0.39767,1.59068 1.22142,1.95995 2.58486,1.95995 0.42608,0 0.73854,-0.0284 1.33504,-0.22725 v -1.59068 c -1.44866,0.17043 -1.64749,-0.45448 -1.64749,-1.59068 v -7.04446 c 0,-3.49382 -2.47124,-4.57321 -5.22653,-4.57321 -4.20395,0 -5.93666,2.10197 -6.07869,4.88567 h 2.27241 c 0.14202,-2.10198 1.05099,-2.89732 3.80628,-2.89732 2.32921,0 2.95412,0.96577 2.95412,2.10198 z m -4.74364,9.20324 c -1.87474,0 -2.72689,-0.82375 -2.72689,-2.244 0,-1.73271 1.30663,-2.44284 4.11874,-3.03935 1.53387,-0.31245 2.92572,-0.71012 3.35179,-1.1362 v 2.41443 c 0,2.7837 -2.04516,4.00512 -4.74364,4.00512 z m 16.2477,-7.01605 c -2.01676,-0.48289 -3.97671,-0.62492 -3.97671,-2.32922 0,-1.1362 1.1078,-1.95995 3.15296,-1.95995 2.72689,0 3.26658,1.44866 3.49382,2.55646 h 2.27241 c -0.22724,-2.49965 -2.15879,-4.54481 -5.76623,-4.54481 -3.40861,0 -5.42537,1.84633 -5.42537,4.11873 0,3.40861 3.29499,3.66425 5.51059,4.20395 2.07357,0.51129 3.97671,0.62491 3.97671,2.72689 0,0.96577 -0.96578,2.244 -3.43702,2.244 -3.63584,0 -4.20395,-1.61909 -4.34597,-3.23818 h -2.27241 c 0.14203,3.12456 2.18719,5.22653 6.61838,5.22653 3.29499,0 5.70942,-1.73271 5.70942,-4.37438 0,-3.57904 -2.92572,-4.00511 -5.51058,-4.63002 z m 14.28776,9.0044 c -4.43119,0 -7.10127,-3.12456 -7.10127,-7.64096 0,-4.51641 2.67008,-7.64096 7.10127,-7.64096 4.40278,0 7.07286,3.12455 7.07286,7.64096 0,4.5164 -2.67008,7.64096 -7.07286,7.64096 z m 0,-1.98835 c 3.23817,0 4.80045,-2.55646 4.80045,-5.65261 0,-3.09615 -1.56228,-5.65261 -4.80045,-5.65261 -3.26659,0 -4.82886,2.55646 -4.82886,5.65261 0,3.09615 1.56227,5.65261 4.82886,5.65261 z m 16.47495,-13.29357 c -2.47124,0 -4.00511,1.10779 -4.77205,2.13038 h -0.0568 v -1.73271 h -2.27241 V 247 h 2.27241 v -9.03281 c 0,-2.244 1.7043,-3.86309 4.26076,-3.86309 2.2724,0 3.15296,1.47706 3.15296,3.3518 V 247 h 2.27241 v -10.1122 c 0,-3.3234 -2.2156,-4.77205 -4.85727,-4.77205 z m 9.31686,-2.41443 c 0.65332,0 1.42025,-0.48289 1.42025,-1.36345 0,-0.88055 -0.76693,-1.36344 -1.42025,-1.36344 -0.62491,0 -1.42025,0.48289 -1.42025,1.36344 0,0.88056 0.79534,1.36345 1.42025,1.36345 z m -1.1362,2.8121 V 247 h 2.2724 v -14.48658 z m 12.78225,-0.39767 c -2.47124,0 -4.00512,1.10779 -4.77205,2.13038 h -0.0568 v -1.73271 h -2.27241 V 247 h 2.27241 v -9.03281 c 0,-2.244 1.7043,-3.86309 4.26076,-3.86309 2.2724,0 3.15296,1.47706 3.15296,3.3518 V 247 h 2.2724 v -10.1122 c 0,-3.3234 -2.21559,-4.77205 -4.85726,-4.77205 z m 18.20764,0.39767 v 1.78952 h -0.0568 c -0.85215,-1.1078 -2.2156,-2.18719 -4.60162,-2.18719 -3.57904,0 -6.47635,2.30081 -6.47635,7.07286 0,4.77205 2.89731,7.07286 6.47635,7.07286 2.38602,0 3.74947,-1.02258 4.60162,-2.27241 h 0.0568 v 2.18719 c 0,2.69848 -1.56228,3.86309 -4.26076,3.86309 -2.69848,0 -3.89149,-1.1078 -4.17554,-2.58486 h -2.27241 c 0.22724,2.47124 2.58486,4.57322 6.56157,4.57322 3.97671,0 6.41955,-1.95995 6.41955,-5.82304 v -13.69124 z m -4.37438,11.75969 c -2.98253,0 -4.488,-2.244 -4.488,-5.0845 0,-2.84051 1.50547,-5.08451 4.488,-5.08451 2.69848,0 4.37438,1.6759 4.37438,5.08451 0,3.40861 -1.6759,5.0845 -4.37438,5.0845 z"
         id="Reasoning-Copy"
         style="font-size:28.4051px;font-family:NeueMontreal-Regular, 'Neue Montreal';opacity:0.514648;fill:#333333"
         aria-label="Reasoning" />
      <g
         id="Group-4-Copy-4"
         transform="translate(422.413000, 93.500000)">
        <g
           id="Group"
           transform="translate(30.500000, 30.500000) rotate(90.000000) translate(-30.500000, -30.500000) translate(0.000000, 0.000000)">
          <circle
             id="Oval"
             fill="#BDB8FF"
             cx="30.5"
             cy="30.5"
             r="30.5" />
          <g
             id="arrow-right-2"
             transform="translate(15.000000, 19.000000)"
             fill="#2F2E6B"
             fill-rule="nonzero">
            <g
               id="arrow-right">
              <path
                 d="M19.9921381,0.460513832 C20.5468652,-0.102336407 21.4175337,-0.149240594 22.0249178,0.319801272 L22.1836051,0.460513832 L27.8382594,6.19797133 C30.6244988,9.02490043 30.7173735,13.5468947 28.1169058,16.501991 L27.8382842,16.8019674 L22.1836085,22.5394827 C21.5784535,23.153503 20.5973003,23.1535062 19.9921415,22.5394897 C19.4374126,21.9766412 19.3911826,21.0932233 19.8534534,20.4769436 L19.9921346,20.3159322 L25.6436974,14.5815844 C27.2436392,12.9489406 27.3163638,10.3670434 25.8645817,8.65936117 L25.6468138,8.4215505 L19.9921381,2.68407131 C19.3869812,2.07005287 19.3869812,1.07453228 19.9921381,0.460513832 Z"
                 id="Path" />
              <path
                 d="M21.1052908,9.92365857 C21.9611119,9.92365857 22.654892,10.6275979 22.654892,11.4959511 C22.654892,12.2975079 22.0637421,12.9589725 21.2996695,13.0559933 L21.1052908,13.0682437 L1.54960118,13.0682437 C0.693780081,13.0682437 0,12.3643043 0,11.4959511 C0,10.6943943 0.591149892,10.0329298 1.3552225,9.93590896 L1.54960118,9.92365857 L21.1052908,9.92365857 Z"
                 id="path1" />
            </g>
          </g>
        </g>
      </g>
      <rect
         id="rect1"
         fill="#FF669D"
         x="0"
         y="304"
         width="203"
         height="135"
         rx="30" />
      <g
         id="Group-2"
         transform="translate(750.000000, 884.000000)">
        <rect
           id="Rectangle-Copy-10"
           fill="#FF6678"
           x="0"
           y="0"
           width="203"
           height="135"
           rx="30" />
        <g
           id="Unknown-Receipient"
           style="font-size:28.4051px;font-family:NeueMontreal-Regular, 'Neue Montreal';fill:#ffffff"
           aria-label="UnknownReceipient">
          <path
             d="M 62.003887,54.239595 V 40.69038 h -2.556456 v 13.549215 c 0,3.294987 -1.704304,4.885671 -5.226532,4.885671 -3.522228,0 -5.226532,-1.590684 -5.226532,-4.885671 V 40.69038 h -2.556455 v 13.549215 c 0,4.147139 2.35762,7.158076 7.782987,7.158076 5.425367,0 7.782988,-3.010937 7.782988,-7.158076 z m 10.22585,-8.123848 c -2.471241,0 -4.005114,1.107797 -4.772051,2.130379 h -0.05681 V 46.513418 H 65.128471 V 61 h 2.272405 v -9.03281 c 0,-2.244 1.704304,-3.863089 4.26076,-3.863089 2.272405,0 3.152962,1.477063 3.152962,3.351798 V 61 h 2.272405 V 50.887797 c 0,-3.323392 -2.215595,-4.77205 -4.857266,-4.77205 z M 80.126343,40.69038 V 61 h 2.272405 v -5.709418 l 2.244,-2.073569 L 89.784064,61 h 2.698481 l -6.249114,-9.118025 5.652608,-5.368557 h -2.840506 l -6.646785,6.220708 V 40.69038 Z m 20.991347,5.425367 c -2.471239,0 -4.005112,1.107797 -4.772049,2.130379 h -0.05681 V 46.513418 H 94.016426 V 61 h 2.272405 v -9.03281 c 0,-2.244 1.704304,-3.863089 4.260759,-3.863089 2.27241,0 3.15296,1.477063 3.15296,3.351798 V 61 h 2.27241 V 50.887797 c 0,-3.323392 -2.2156,-4.77205 -4.85727,-4.77205 z m 14.17413,15.281924 c -4.43119,0 -7.10127,-3.124557 -7.10127,-7.640962 0,-4.516405 2.67008,-7.640962 7.10127,-7.640962 4.40278,0 7.07286,3.124557 7.07286,7.640962 0,4.516405 -2.67008,7.640962 -7.07286,7.640962 z m 0,-1.988355 c 3.23817,0 4.80045,-2.556455 4.80045,-5.652607 0,-3.096152 -1.56228,-5.652608 -4.80045,-5.652608 -3.26659,0 -4.82886,2.556456 -4.82886,5.652608 0,3.096152 1.56227,5.652607 4.82886,5.652607 z M 122.93279,46.513418 127.56281,61 h 2.41443 l 3.20978,-11.958532 h 0.0568 L 136.51041,61 h 2.41443 l 4.63002,-14.486582 h -2.49964 l -3.29499,12.015341 h -0.0568 l -3.26658,-12.015341 h -2.41443 l -3.23818,12.015341 h -0.0568 l -3.29499,-12.015341 z m 29.39922,-0.397671 c -2.47124,0 -4.00511,1.107797 -4.77205,2.130379 h -0.0568 v -1.732708 h -2.27241 V 61 h 2.27241 v -9.03281 c 0,-2.244 1.7043,-3.863089 4.26076,-3.863089 2.2724,0 3.15296,1.477063 3.15296,3.351798 V 61 h 2.2724 V 50.887797 c 0,-3.323392 -2.21559,-4.77205 -4.85726,-4.77205 z"
             id="path16" />
          <path
             d="m 39.038393,95.964867 h 2.556456 v -8.209064 h 5.823038 c 5.141316,0 3.209772,7.356912 4.090329,8.209064 h 2.755291 v -0.170431 c -1.050987,-0.340861 0.596507,-8.322683 -3.919899,-9.20324 v -0.05681 c 2.244001,-0.568102 3.635849,-2.18719 3.635849,-5.112912 0,-3.607443 -2.698481,-5.766228 -6.703595,-5.766228 h -8.237469 z m 2.556456,-18.037216 h 5.084506 c 2.101975,0 4.743646,0.255646 4.743646,3.777874 0,3.522228 -2.641671,3.777873 -4.743646,3.777873 h -5.084506 z m 21.104969,16.446532 c -3.152962,0 -4.715241,-2.442835 -4.715241,-5.056101 h 11.447241 c 0,-5.141317 -2.215595,-8.237469 -6.760405,-8.237469 -4.232355,0 -6.959241,2.812102 -6.959241,7.640962 0,4.544811 2.670076,7.640963 7.072861,7.640963 3.607443,0 5.681013,-2.158785 6.419544,-4.857266 h -2.272405 c -0.255645,0.994177 -1.335038,2.868911 -4.232354,2.868911 z m -0.0284,-11.305215 c 2.726886,0 4.488,1.931544 4.488,4.260759 h -9.174836 c 0,-2.329215 1.95995,-4.260759 4.686836,-4.260759 z m 19.287066,3.635848 h 2.272405 c -0.340861,-3.238177 -2.783696,-5.624203 -6.362734,-5.624203 -4.232355,0 -7.016051,3.096152 -7.016051,7.640962 0,4.544811 2.783696,7.640963 7.016051,7.640963 3.579038,0 6.163899,-2.442836 6.362734,-5.737823 h -2.272405 c -0.11362,1.732709 -1.164608,3.749468 -4.090329,3.749468 -3.437013,0 -4.743646,-2.925721 -4.743646,-5.652608 0,-2.726886 1.306633,-5.652607 4.743646,-5.652607 2.897316,0 3.976709,2.045164 4.090329,3.635848 z m 10.623468,7.669367 c -3.152962,0 -4.71524,-2.442835 -4.71524,-5.056101 h 11.44724 c 0,-5.141317 -2.215594,-8.237469 -6.760405,-8.237469 -4.232354,0 -6.95924,2.812102 -6.95924,7.640962 0,4.544811 2.670076,7.640963 7.072861,7.640963 3.607443,0 5.681012,-2.158785 6.419544,-4.857266 h -2.272405 c -0.255646,0.994177 -1.335038,2.868911 -4.232355,2.868911 z m -0.02841,-11.305215 c 2.726886,0 4.488,1.931544 4.488,4.260759 h -9.174835 c 0,-2.329215 1.959949,-4.260759 4.686835,-4.260759 z m 10.424688,-4.402785 c 0.65332,0 1.42025,-0.482886 1.42025,-1.363443 0,-0.880557 -0.76693,-1.363443 -1.42025,-1.363443 -0.62491,0 -1.42025,0.482886 -1.42025,1.363443 0,0.880557 0.79534,1.363443 1.42025,1.363443 z m -1.1362,2.812101 v 14.486583 h 2.2724 V 81.478284 Z m 12.61182,-0.397671 c -2.38603,0 -3.74947,1.079393 -4.60162,2.18719 h -0.0568 v -1.789519 h -2.27241 v 19.372256 h 2.27241 v -6.760408 h 0.0568 c 0.85215,1.249823 2.21559,2.272406 4.60162,2.272406 3.57903,0 6.47635,-2.868912 6.47635,-7.640963 0,-4.77205 -2.89732,-7.640962 -6.47635,-7.640962 z m -0.28406,13.29357 c -2.69848,0 -4.37437,-2.244 -4.37437,-5.652608 0,-3.408607 1.67589,-5.652607 4.37437,-5.652607 2.98254,0 4.488,2.812101 4.488,5.652607 0,2.840507 -1.50546,5.652608 -4.488,5.652608 z m 10.56668,-15.708 c 0.65331,0 1.42025,-0.482886 1.42025,-1.363443 0,-0.880557 -0.76694,-1.363443 -1.42025,-1.363443 -0.62491,0 -1.42025,0.482886 -1.42025,1.363443 0,0.880557 0.79534,1.363443 1.42025,1.363443 z m -1.1362,2.812101 v 14.486583 h 2.2724 V 81.478284 Z m 11.84489,12.895899 c -3.15297,0 -4.71524,-2.442835 -4.71524,-5.056101 h 11.44724 c 0,-5.141317 -2.2156,-8.237469 -6.76041,-8.237469 -4.23235,0 -6.95924,2.812102 -6.95924,7.640962 0,4.544811 2.67008,7.640963 7.07286,7.640963 3.60744,0 5.68101,-2.158785 6.41955,-4.857266 h -2.27241 c -0.25564,0.994177 -1.33504,2.868911 -4.23235,2.868911 z m -0.0284,-11.305215 c 2.72689,0 4.488,1.931544 4.488,4.260759 h -9.17483 c 0,-2.329215 1.95995,-4.260759 4.68683,-4.260759 z m 16.1057,-1.988355 c -2.47124,0 -4.00512,1.107798 -4.77205,2.13038 h -0.0568 v -1.732709 h -2.27241 v 14.486583 h 2.27241 v -9.032811 c 0,-2.244 1.7043,-3.863088 4.26076,-3.863088 2.2724,0 3.15296,1.477063 3.15296,3.351797 v 9.544102 h 2.2724 V 85.852664 c 0,-3.323392 -2.21559,-4.772051 -4.85726,-4.772051 z m 13.91847,2.386026 v -1.988355 h -2.84051 v -4.828861 h -2.2724 v 4.828861 h -2.13038 v 1.988355 h 2.13038 v 8.947595 c 0,2.954126 1.47706,3.721063 3.4086,3.721063 0.59651,0 1.19302,-0.05681 1.70431,-0.17043 v -1.988355 c -1.93155,0.142026 -2.84051,-0.142025 -2.84051,-1.789519 v -8.720354 z"
             id="path17" />
        </g>
      </g>
      <g
         id="Internal-Database"
         style="font-size:28.4051px;font-family:NeueMontreal-Regular, 'Neue Montreal';fill:#ffffff"
         aria-label="InternalDatabase">
        <path
           d="M 58.822517,344.69038 V 365 h 2.556456 v -20.30962 z m 13.179968,5.42537 c -2.471241,0 -4.005114,1.10779 -4.772051,2.13038 h -0.05681 v -1.73271 H 64.901219 V 365 h 2.272405 v -9.03281 c 0,-2.244 1.704304,-3.86309 4.26076,-3.86309 2.272405,0 3.152962,1.47706 3.152962,3.3518 V 365 h 2.272405 v -10.1122 c 0,-3.3234 -2.215595,-4.77205 -4.857266,-4.77205 z m 13.918471,2.38602 v -1.98835 H 83.08045 v -4.82886 h -2.272405 v 4.82886 h -2.13038 v 1.98835 h 2.13038 v 8.9476 c 0,2.95412 1.477063,3.72106 3.408607,3.72106 0.596507,0 1.193013,-0.0568 1.704304,-0.17043 v -1.98835 c -1.931544,0.14202 -2.840506,-0.14203 -2.840506,-1.78952 v -8.72036 z m 8.407917,10.90755 c -3.152962,0 -4.715241,-2.44284 -4.715241,-5.0561 h 11.447238 c 0,-5.14132 -2.215592,-8.23747 -6.760402,-8.23747 -4.232355,0 -6.959241,2.8121 -6.959241,7.64096 0,4.54481 2.670076,7.64096 7.072861,7.64096 3.607443,0 5.681012,-2.15878 6.419542,-4.85726 h -2.272403 c -0.255645,0.99417 -1.335038,2.86891 -4.232354,2.86891 z m -0.02841,-11.30522 c 2.726886,0 4.488,1.93155 4.488,4.26076 h -9.174836 c 0,-2.32921 1.95995,-4.26076 4.686836,-4.26076 z m 15.338762,-1.98835 c -2.07357,0 -3.23818,1.36344 -4.00512,3.26658 h -0.0568 v -2.86891 h -2.2724 V 365 h 2.2724 v -7.72618 c 0,-3.09615 2.18719,-5.31174 5.34015,-4.80045 h 0.0568 v -2.27241 c -0.39767,-0.0568 -0.79534,-0.0852 -1.33503,-0.0852 z m 10.50988,0 c -2.47124,0 -4.00511,1.10779 -4.77205,2.13038 h -0.0568 v -1.73271 h -2.2724 V 365 h 2.2724 v -9.03281 c 0,-2.244 1.70431,-3.86309 4.26076,-3.86309 2.27241,0 3.15296,1.47706 3.15296,3.3518 V 365 h 2.27241 v -10.1122 c 0,-3.3234 -2.2156,-4.77205 -4.85727,-4.77205 z m 16.75899,4.09033 c 0,1.44865 -1.1078,1.76111 -3.55063,2.21559 -3.74947,0.71013 -6.19231,1.56228 -6.19231,4.85727 0,2.44283 1.84633,4.11873 4.77205,4.11873 2.38603,0 4.00512,-0.85215 4.91408,-2.21559 h 0.0568 c 0.39767,1.59068 1.22142,1.95995 2.58486,1.95995 0.42608,0 0.73853,-0.0284 1.33504,-0.22725 v -1.59068 c -1.44866,0.17043 -1.6475,-0.45448 -1.6475,-1.59068 v -7.04446 c 0,-3.49382 -2.47124,-4.57321 -5.22653,-4.57321 -4.20395,0 -5.93666,2.10197 -6.07868,4.88567 h 2.2724 c 0.14203,-2.10198 1.05099,-2.89732 3.80628,-2.89732 2.32922,0 2.95413,0.96577 2.95413,2.10198 z m -4.74365,9.20324 c -1.87473,0 -2.72688,-0.82375 -2.72688,-2.244 0,-1.73271 1.30663,-2.44284 4.11873,-3.03935 1.53387,-0.31245 2.92572,-0.71012 3.3518,-1.1362 v 2.41443 c 0,2.7837 -2.04517,4.00512 -4.74365,4.00512 z m 10.45307,-18.71894 V 365 h 2.27241 v -20.30962 z"
           id="path18" />
        <path
           d="m 45.798796,399.96487 h 7.356911 c 5.595798,0 9.032811,-3.60744 9.032811,-10.1406 0,-6.53317 -3.437013,-10.16902 -9.032811,-10.16902 h -7.356911 z m 2.556456,-18.03721 h 4.800455 c 5.169722,0 6.476355,3.9199 6.476355,7.89661 0,3.97671 -1.306633,7.8682 -6.476355,7.8682 h -4.800455 z m 25.110069,7.24329 c 0,1.44866 -1.107797,1.76111 -3.550633,2.2156 -3.749468,0.71012 -6.192304,1.56227 -6.192304,4.85726 0,2.44284 1.846329,4.11874 4.772051,4.11874 2.386025,0 4.005114,-0.85216 4.914076,-2.2156 h 0.05681 c 0.397671,1.59068 1.221418,1.95995 2.584861,1.95995 0.426076,0 0.738532,-0.0284 1.335038,-0.22724 v -1.59068 c -1.448658,0.17043 -1.647494,-0.45449 -1.647494,-1.59069 v -7.04445 c 0,-3.49383 -2.47124,-4.57322 -5.226532,-4.57322 -4.203949,0 -5.936658,2.10198 -6.078683,4.88567 h 2.272405 c 0.142025,-2.10197 1.050987,-2.89731 3.806278,-2.89731 2.329216,0 2.954127,0.96577 2.954127,2.10197 z m -4.743646,9.20324 c -1.874734,0 -2.726886,-0.82375 -2.726886,-2.244 0,-1.73271 1.306633,-2.44283 4.118735,-3.03934 1.533873,-0.31246 2.925721,-0.71013 3.351797,-1.1362 v 2.41443 c 0,2.78369 -2.045164,4.00511 -4.743646,4.00511 z m 16.389722,-10.90754 v -1.98836 h -2.840506 v -4.82886 h -2.272405 v 4.82886 h -2.13038 v 1.98836 h 2.13038 v 8.94759 c 0,2.95413 1.477063,3.72106 3.408607,3.72106 0.596507,0 1.193013,-0.0568 1.704304,-0.17043 v -1.98835 c -1.931544,0.14203 -2.840506,-0.14203 -2.840506,-1.78952 v -8.72035 z m 11.2484,1.7043 c 0,1.44866 -1.107797,1.76111 -3.550633,2.2156 -3.749468,0.71012 -6.192304,1.56227 -6.192304,4.85726 0,2.44284 1.846329,4.11874 4.772051,4.11874 2.386025,0 4.005114,-0.85216 4.914076,-2.2156 h 0.05681 c 0.397671,1.59068 1.221418,1.95995 2.584861,1.95995 0.426076,0 0.738531,-0.0284 1.335042,-0.22724 v -1.59068 c -1.448662,0.17043 -1.647498,-0.45449 -1.647498,-1.59069 v -7.04445 c 0,-3.49383 -2.47124,-4.57322 -5.226532,-4.57322 -4.203949,0 -5.936658,2.10198 -6.078683,4.88567 h 2.272405 c 0.142025,-2.10197 1.050987,-2.89731 3.806278,-2.89731 2.329216,0 2.954127,0.96577 2.954127,2.10197 z m -4.743646,9.20324 c -1.874734,0 -2.726886,-0.82375 -2.726886,-2.244 0,-1.73271 1.306633,-2.44283 4.118735,-3.03934 1.533873,-0.31246 2.925721,-0.71013 3.351797,-1.1362 v 2.41443 c 0,2.78369 -2.045165,4.00511 -4.743646,4.00511 z m 17.241879,-13.29357 c -2.32922,0 -3.69266,1.02258 -4.54481,2.27241 h -0.0568 v -7.69778 H 101.984 v 20.30962 h 2.27241 v -1.78951 h 0.0568 c 0.85215,1.10779 2.21559,2.18719 4.54481,2.18719 3.63585,0 6.53316,-2.86892 6.53316,-7.64097 0,-4.77205 -2.89731,-7.64096 -6.53316,-7.64096 z m -0.22724,13.29357 c -2.69848,0 -4.37438,-2.244 -4.37438,-5.65261 0,-3.4086 1.6759,-5.6526 4.37438,-5.6526 2.98253,0 4.488,2.8121 4.488,5.6526 0,2.84051 -1.50547,5.65261 -4.488,5.65261 z m 17.92358,-9.20324 c 0,1.44866 -1.1078,1.76111 -3.55063,2.2156 -3.74947,0.71012 -6.19231,1.56227 -6.19231,4.85726 0,2.44284 1.84633,4.11874 4.77205,4.11874 2.38603,0 4.00512,-0.85216 4.91408,-2.2156 h 0.0568 c 0.39767,1.59068 1.22142,1.95995 2.58486,1.95995 0.42608,0 0.73853,-0.0284 1.33504,-0.22724 v -1.59068 c -1.44866,0.17043 -1.6475,-0.45449 -1.6475,-1.59069 v -7.04445 c 0,-3.49383 -2.47124,-4.57322 -5.22653,-4.57322 -4.20395,0 -5.93666,2.10198 -6.07868,4.88567 h 2.2724 c 0.14203,-2.10197 1.05099,-2.89731 3.80628,-2.89731 2.32922,0 2.95413,0.96577 2.95413,2.10197 z m -4.74365,9.20324 c -1.87473,0 -2.72688,-0.82375 -2.72688,-2.244 0,-1.73271 1.30663,-2.44283 4.11873,-3.03934 1.53388,-0.31246 2.92572,-0.71013 3.3518,-1.1362 v 2.41443 c 0,2.78369 -2.04517,4.00511 -4.74365,4.00511 z m 16.24771,-7.01605 c -2.01676,-0.48289 -3.97671,-0.62491 -3.97671,-2.32922 0,-1.1362 1.10779,-1.95994 3.15296,-1.95994 2.72688,0 3.26658,1.44865 3.49382,2.55645 h 2.27241 c -0.22724,-2.49964 -2.15879,-4.54481 -5.76623,-4.54481 -3.40861,0 -5.42537,1.84633 -5.42537,4.11874 0,3.4086 3.29499,3.66425 5.51058,4.20394 2.07357,0.5113 3.97671,0.62492 3.97671,2.72689 0,0.96577 -0.96577,2.244 -3.43701,2.244 -3.63585,0 -4.20395,-1.61909 -4.34597,-3.23818 h -2.27241 c 0.14203,3.12456 2.18719,5.22654 6.61838,5.22654 3.29499,0 5.70942,-1.73271 5.70942,-4.37438 0,-3.57904 -2.92572,-4.00512 -5.51058,-4.63003 z m 14.17413,7.01605 c -3.15296,0 -4.71524,-2.44283 -4.71524,-5.0561 h 11.44724 c 0,-5.14132 -2.2156,-8.23747 -6.76041,-8.23747 -4.23235,0 -6.95924,2.8121 -6.95924,7.64096 0,4.54481 2.67008,7.64097 7.07286,7.64097 3.60745,0 5.68102,-2.15879 6.41955,-4.85727 h -2.27241 c -0.25564,0.99418 -1.33503,2.86891 -4.23235,2.86891 z m -0.0284,-11.30521 c 2.72689,0 4.488,1.93154 4.488,4.26075 h -9.17483 c 0,-2.32921 1.95995,-4.26075 4.68683,-4.26075 z"
           id="path19" />
      </g>
      <polyline
         id="Path-2"
         stroke="#4050FF"
         stroke-width="6"
         points="203 371 243 371 278 371 452.913 372 452.913 462" />
      <path
         id="Path-3"
         d="M459.913,570 L459.913,950 L716,950 L716,936 L750,953 L716,970 L716,956 L453.913,956 L453.913,570 L459.913,570 Z"
         fill="#4050FF"
         fill-rule="nonzero" />
      <g
         id="Group-23-Copy-3"
         transform="translate(278.000000, 317.000000)"
         fill="#8993FE"
         stroke="#4050FF"
         stroke-width="6">
        <rect
           id="Rectangle"
           x="3"
           y="3"
           width="344"
           height="102"
           rx="30" />
      </g>
      <g
         id="Group-23-Copy-8"
         transform="translate(278.000000, 898.000000)"
         fill="#8993FE"
         stroke="#4050FF"
         stroke-width="6">
        <rect
           id="rect5"
           x="3"
           y="3"
           width="344"
           height="102"
           rx="30" />
      </g>
      <g
         id="Group-23-Copy-5"
         transform="translate(278.000000, 462.000000)"
         fill="#E2E2E2">
        <rect
           id="rect6"
           x="0"
           y="0"
           width="350"
           height="108"
           rx="30" />
      </g>
      <g
         id="Group-23-Copy-9"
         transform="translate(278.000000, 182.000000)"
         fill="#E2E2E2">
        <rect
           id="rect7"
           x="0"
           y="0"
           width="350"
           height="108"
           rx="30" />
      </g>
      <g
         id="Group-23-Copy-6"
         transform="translate(278.000000, 607.000000)"
         fill="#E2E2E2">
        <rect
           id="rect8"
           x="0"
           y="0"
           width="350"
           height="108"
           rx="30" />
      </g>
      <g
         id="Group-23-Copy-7"
         transform="translate(278.000000, 752.000000)"
         fill="#E2E2E2">
        <rect
           id="rect9"
           x="0"
           y="0"
           width="350"
           height="108"
           rx="30" />
      </g>
      <path
         d="m 335.63758,382 h 2.55645 v -8.20906 h 5.82304 c 5.14132,0 3.20977,7.35691 4.09033,8.20906 h 2.75529 v -0.17043 c -1.05099,-0.34086 0.59651,-8.32268 -3.9199,-9.20324 v -0.0568 c 2.244,-0.5681 3.63585,-2.18719 3.63585,-5.11291 0,-3.60745 -2.69848,-5.76623 -6.7036,-5.76623 h -8.23746 z m 2.55645,-18.03722 h 5.08451 c 2.10197,0 4.74364,0.25565 4.74364,3.77788 0,3.52223 -2.64167,3.77787 -4.74364,3.77787 h -5.08451 z m 21.10497,16.44654 c -3.15296,0 -4.71524,-2.44284 -4.71524,-5.0561 H 366.031 c 0,-5.14132 -2.2156,-8.23747 -6.76041,-8.23747 -4.23235,0 -6.95924,2.8121 -6.95924,7.64096 0,4.54481 2.67008,7.64096 7.07287,7.64096 3.60744,0 5.68101,-2.15878 6.41954,-4.85726 h -2.27241 c -0.25564,0.99417 -1.33503,2.86891 -4.23235,2.86891 z m -0.0284,-11.30522 c 2.72689,0 4.488,1.93155 4.488,4.26076 h -9.17483 c 0,-2.32921 1.95995,-4.26076 4.68683,-4.26076 z m 15.0263,0.39767 v -1.98835 h -2.8405 v -4.82886 h -2.27241 v 4.82886 h -2.13038 v 1.98835 h 2.13038 v 8.9476 c 0,2.95412 1.47707,3.72106 3.40861,3.72106 0.59651,0 1.19301,-0.0568 1.7043,-0.17043 v -1.98835 c -1.93154,0.14202 -2.8405,-0.14203 -2.8405,-1.78952 v -8.72036 z m 8.72035,-2.38602 c -2.07357,0 -3.23818,1.36344 -4.00511,3.26658 h -0.0568 v -2.86891 h -2.27241 V 382 h 2.27241 v -7.72618 c 0,-3.09615 2.18719,-5.31174 5.34015,-4.80045 h 0.0568 v -2.27241 c -0.39767,-0.0568 -0.79534,-0.0852 -1.33504,-0.0852 z m 4.82887,-2.41443 c 0.65332,0 1.42026,-0.48289 1.42026,-1.36345 0,-0.88055 -0.76694,-1.36344 -1.42026,-1.36344 -0.62491,0 -1.42025,0.48289 -1.42025,1.36344 0,0.88056 0.79534,1.36345 1.42025,1.36345 z m -1.1362,2.8121 V 382 h 2.27241 v -14.48658 z m 11.84489,12.8959 c -3.15296,0 -4.71524,-2.44284 -4.71524,-5.0561 h 11.44724 c 0,-5.14132 -2.2156,-8.23747 -6.76041,-8.23747 -4.23235,0 -6.95924,2.8121 -6.95924,7.64096 0,4.54481 2.67008,7.64096 7.07286,7.64096 3.60745,0 5.68102,-2.15878 6.41955,-4.85726 h -2.27241 c -0.25564,0.99417 -1.33504,2.86891 -4.23235,2.86891 z m -0.0284,-11.30522 c 2.72689,0 4.488,1.93155 4.488,4.26076 h -9.17483 c 0,-2.32921 1.95995,-4.26076 4.68683,-4.26076 z M 405.7413,367.51342 410.93942,382 h 2.58486 l 5.19813,-14.48658 h -2.47124 l -4.00511,12.21417 h -0.0284 l -4.00511,-12.21417 z m 20.48006,12.8959 c -3.15297,0 -4.71525,-2.44284 -4.71525,-5.0561 h 11.44725 c 0,-5.14132 -2.2156,-8.23747 -6.76041,-8.23747 -4.23235,0 -6.95924,2.8121 -6.95924,7.64096 0,4.54481 2.67008,7.64096 7.07286,7.64096 3.60744,0 5.68101,-2.15878 6.41955,-4.85726 h -2.27241 c -0.25565,0.99417 -1.33504,2.86891 -4.23235,2.86891 z m -0.0284,-11.30522 c 2.72689,0 4.488,1.93155 4.488,4.26076 h -9.17484 c 0,-2.32921 1.95995,-4.26076 4.68684,-4.26076 z M 441.21928,382 h 7.35691 c 5.5958,0 9.03281,-3.60744 9.03281,-10.14061 0,-6.53316 -3.43701,-10.16901 -9.03281,-10.16901 h -7.35691 z m 2.55645,-18.03722 h 4.80046 c 5.16972,0 6.47635,3.9199 6.47635,7.89661 0,3.97671 -1.30663,7.8682 -6.47635,7.8682 h -4.80046 z m 22.80927,18.43489 c -4.43119,0 -7.10127,-3.12456 -7.10127,-7.64096 0,-4.51641 2.67008,-7.64096 7.10127,-7.64096 4.40278,0 7.07286,3.12455 7.07286,7.64096 0,4.5164 -2.67008,7.64096 -7.07286,7.64096 z m 0,-1.98835 c 3.23818,0 4.80045,-2.55646 4.80045,-5.65261 0,-3.09615 -1.56227,-5.65261 -4.80045,-5.65261 -3.26658,0 -4.82886,2.55646 -4.82886,5.65261 0,3.09615 1.56228,5.65261 4.82886,5.65261 z m 19.65632,-7.66937 h 2.2724 c -0.34086,-3.23818 -2.78369,-5.6242 -6.36273,-5.6242 -4.23235,0 -7.01605,3.09615 -7.01605,7.64096 0,4.54481 2.7837,7.64096 7.01605,7.64096 3.57904,0 6.1639,-2.44283 6.36273,-5.73782 h -2.2724 c -0.11362,1.73271 -1.16461,3.74947 -4.09033,3.74947 -3.43701,0 -4.74365,-2.92573 -4.74365,-5.65261 0,-2.72689 1.30664,-5.65261 4.74365,-5.65261 2.89732,0 3.97671,2.04517 4.09033,3.63585 z m 14.06048,-5.22653 v 9.03281 c 0,2.244 -1.7043,3.86309 -4.26076,3.86309 -2.2724,0 -3.15296,-1.47707 -3.15296,-3.3518 v -9.5441 h -2.27241 v 10.1122 c 0,3.32339 2.2156,4.77205 4.85727,4.77205 2.47124,0 4.00511,-1.1078 4.77205,-2.13038 h 0.0568 V 382 h 2.27241 v -14.48658 z m 20.53685,-0.39767 c -2.18719,0 -3.69266,1.1362 -4.68683,2.49964 h -0.0568 c -0.59651,-1.61909 -1.78952,-2.49964 -3.86309,-2.49964 -2.18719,0 -3.43701,1.10779 -4.20395,2.13038 h -0.0568 v -1.73271 h -2.27241 V 382 h 2.27241 v -9.03281 c 0,-2.244 1.42025,-3.86309 3.69266,-3.86309 2.2724,0 2.64167,1.47706 2.64167,3.3518 V 382 h 2.2724 v -9.03281 c 0,-2.244 1.42026,-3.86309 3.69266,-3.86309 2.27241,0 2.64167,1.47706 2.64167,3.3518 V 382 h 2.27241 v -10.1122 c 0,-3.03934 -1.42026,-4.77205 -4.34598,-4.77205 z m 13.54921,13.29357 c -3.15296,0 -4.71524,-2.44284 -4.71524,-5.0561 h 11.44724 c 0,-5.14132 -2.2156,-8.23747 -6.76041,-8.23747 -4.23235,0 -6.95924,2.8121 -6.95924,7.64096 0,4.54481 2.67008,7.64096 7.07286,7.64096 3.60745,0 5.68102,-2.15878 6.41955,-4.85726 h -2.27241 c -0.25564,0.99417 -1.33503,2.86891 -4.23235,2.86891 z m -0.0284,-11.30522 c 2.72689,0 4.488,1.93155 4.488,4.26076 h -9.17483 c 0,-2.32921 1.95995,-4.26076 4.68683,-4.26076 z m 16.1057,-1.98835 c -2.47124,0 -4.00511,1.10779 -4.77205,2.13038 h -0.0568 v -1.73271 h -2.27241 V 382 h 2.27241 v -9.03281 c 0,-2.244 1.7043,-3.86309 4.26076,-3.86309 2.2724,0 3.15296,1.47706 3.15296,3.3518 V 382 h 2.27241 v -10.1122 c 0,-3.3234 -2.2156,-4.77205 -4.85727,-4.77205 z m 13.91846,2.38602 v -1.98835 h -2.8405 v -4.82886 h -2.27241 v 4.82886 h -2.13038 v 1.98835 h 2.13038 v 8.9476 c 0,2.95412 1.47707,3.72106 3.40861,3.72106 0.59651,0 1.19301,-0.0568 1.7043,-0.17043 v -1.98835 c -1.93154,0.14202 -2.8405,-0.14203 -2.8405,-1.78952 v -8.72036 z m 8.26587,3.8915 c -2.01676,-0.48289 -3.97671,-0.62492 -3.97671,-2.32922 0,-1.1362 1.1078,-1.95995 3.15296,-1.95995 2.72689,0 3.26658,1.44866 3.49382,2.55646 h 2.27241 c -0.22724,-2.49965 -2.15879,-4.54481 -5.76623,-4.54481 -3.40861,0 -5.42537,1.84633 -5.42537,4.11873 0,3.40861 3.29499,3.66425 5.51059,4.20395 2.07357,0.51129 3.97671,0.62491 3.97671,2.72689 0,0.96577 -0.96578,2.244 -3.43702,2.244 -3.63585,0 -4.20395,-1.61909 -4.34597,-3.23818 h -2.27241 c 0.14203,3.12456 2.18719,5.22653 6.61838,5.22653 3.29499,0 5.70942,-1.73271 5.70942,-4.37438 0,-3.57904 -2.92572,-4.00511 -5.51058,-4.63002 z"
         id="Retrieve-Documents"
         style="font-size:28.4051px;font-family:NeueMontreal-Regular, 'Neue Montreal';fill:#ffffff"
         aria-label="Retrieve Documents" />
      <path
         d="m 398.35595,951.15509 c -2.98253,-0.73853 -5.16972,-1.1078 -5.16972,-3.80628 0,-1.6759 1.53387,-2.7837 4.40278,-2.7837 3.20978,0 4.74365,1.42026 5.11292,4.14714 h 2.55645 c -0.34086,-4.20395 -3.3518,-6.41954 -7.66937,-6.41954 -4.488,0 -6.95924,2.13038 -6.95924,5.34015 0,3.9483 3.63585,4.99929 6.67519,5.70942 4.54481,1.05099 6.05028,1.56228 6.05028,4.34597 0,1.81793 -1.24982,3.43702 -4.77205,3.43702 -4.26076,0 -5.96506,-2.15879 -6.24911,-4.94249 h -2.55646 c 0.28405,4.65844 4.00512,7.21489 8.80557,7.21489 5.14132,0 7.32851,-2.75529 7.32851,-5.70942 0,-4.63002 -2.98253,-5.39696 -7.55575,-6.53316 z m 16.30449,10.25423 c -3.15296,0 -4.71524,-2.44284 -4.71524,-5.0561 h 11.44724 c 0,-5.14132 -2.21559,-8.23747 -6.7604,-8.23747 -4.23236,0 -6.95924,2.8121 -6.95924,7.64096 0,4.54481 2.67007,7.64096 7.07286,7.64096 3.60744,0 5.68101,-2.15878 6.41954,-4.85726 h -2.2724 c -0.25565,0.99417 -1.33504,2.86891 -4.23236,2.86891 z m -0.0284,-11.30522 c 2.72688,0 4.488,1.93155 4.488,4.26076 h -9.17484 c 0,-2.32921 1.95995,-4.26076 4.68684,-4.26076 z m 16.1057,-1.98835 c -2.47124,0 -4.00512,1.10779 -4.77205,2.13038 h -0.0568 v -1.73271 h -2.27241 V 963 h 2.27241 v -9.03281 c 0,-2.244 1.7043,-3.86309 4.26076,-3.86309 2.2724,0 3.15296,1.47706 3.15296,3.3518 V 963 h 2.2724 v -10.1122 c 0,-3.3234 -2.21559,-4.77205 -4.85726,-4.77205 z m 18.20764,-5.42537 v 7.69777 h -0.0568 c -0.85216,-1.24982 -2.2156,-2.2724 -4.54481,-2.2724 -3.63585,0 -6.53317,2.86891 -6.53317,7.64096 0,4.77205 2.89732,7.64096 6.53317,7.64096 2.32921,0 3.69265,-1.07939 4.54481,-2.18719 h 0.0568 V 963 h 2.2724 v -20.30962 z m -4.37438,18.71894 c -2.98254,0 -4.488,-2.8121 -4.488,-5.65261 0,-2.84051 1.50546,-5.65261 4.488,-5.65261 2.69848,0 4.37438,2.244 4.37438,5.65261 0,3.40861 -1.6759,5.65261 -4.37438,5.65261 z m 18.34968,-10.0554 v -6.39114 h 11.7881 v -2.2724 H 460.36422 V 963 h 14.68542 v -2.27241 h -12.12896 v -7.10126 h 10.42466 v -2.27241 z m 29.91052,-3.23817 c -2.18719,0 -3.69266,1.1362 -4.68684,2.49964 h -0.0568 c -0.5965,-1.61909 -1.78952,-2.49964 -3.86309,-2.49964 -2.18719,0 -3.43701,1.10779 -4.20395,2.13038 h -0.0568 v -1.73271 h -2.2724 V 963 h 2.2724 v -9.03281 c 0,-2.244 1.42026,-3.86309 3.69266,-3.86309 2.27241,0 2.64167,1.47706 2.64167,3.3518 V 963 h 2.27241 v -9.03281 c 0,-2.244 1.42025,-3.86309 3.69266,-3.86309 2.2724,0 2.64167,1.47706 2.64167,3.3518 V 963 h 2.2724 v -10.1122 c 0,-3.03934 -1.42025,-4.77205 -4.34597,-4.77205 z m 16.24768,4.09033 c 0,1.44865 -1.1078,1.76111 -3.55063,2.21559 -3.74947,0.71013 -6.19231,1.56228 -6.19231,4.85727 0,2.44283 1.84633,4.11873 4.77205,4.11873 2.38603,0 4.00512,-0.85215 4.91408,-2.21559 h 0.0568 c 0.39767,1.59068 1.22142,1.95995 2.58486,1.95995 0.42608,0 0.73853,-0.0284 1.33504,-0.22725 v -1.59068 c -1.44866,0.17043 -1.6475,-0.45448 -1.6475,-1.59068 v -7.04446 c 0,-3.49382 -2.47124,-4.57321 -5.22653,-4.57321 -4.20395,0 -5.93666,2.10197 -6.07868,4.88567 h 2.2724 c 0.14203,-2.10198 1.05099,-2.89732 3.80628,-2.89732 2.32922,0 2.95413,0.96577 2.95413,2.10198 z m -4.74365,9.20324 c -1.87473,0 -2.72688,-0.82375 -2.72688,-2.244 0,-1.73271 1.30663,-2.44284 4.11873,-3.03935 1.53387,-0.31245 2.92572,-0.71012 3.3518,-1.1362 v 2.41443 c 0,2.7837 -2.04517,4.00512 -4.74365,4.00512 z m 11.78811,-15.708 c 0.65332,0 1.42025,-0.48289 1.42025,-1.36345 0,-0.88055 -0.76693,-1.36344 -1.42025,-1.36344 -0.62491,0 -1.42025,0.48289 -1.42025,1.36344 0,0.88056 0.79534,1.36345 1.42025,1.36345 z m -1.1362,2.8121 V 963 h 2.2724 v -14.48658 z m 5.48215,-5.82304 V 963 h 2.2724 v -20.30962 z"
         id="Send-Email"
         style="font-size:28.4051px;font-family:NeueMontreal-Regular, 'Neue Montreal';fill:#ffffff"
         aria-label="Send Email" />
      <path
         d="m 365.16976,660.15509 c -2.98253,-0.73853 -5.16972,-1.1078 -5.16972,-3.80628 0,-1.6759 1.53387,-2.7837 4.40279,-2.7837 3.20977,0 4.74364,1.42026 5.11291,4.14714 h 2.55645 c -0.34086,-4.20395 -3.35179,-6.41954 -7.66936,-6.41954 -4.488,0 -6.95924,2.13038 -6.95924,5.34015 0,3.9483 3.63584,4.99929 6.67519,5.70942 4.54481,1.05099 6.05027,1.56228 6.05027,4.34597 0,1.81793 -1.24982,3.43702 -4.77205,3.43702 -4.26076,0 -5.96506,-2.15879 -6.24911,-4.94249 h -2.55646 c 0.28405,4.65844 4.00512,7.21489 8.80557,7.21489 5.14132,0 7.32851,-2.75529 7.32851,-5.70942 0,-4.63002 -2.98253,-5.39696 -7.55575,-6.53316 z m 16.30449,10.25423 c -3.15296,0 -4.71524,-2.44284 -4.71524,-5.0561 h 11.44724 c 0,-5.14132 -2.21559,-8.23747 -6.7604,-8.23747 -4.23235,0 -6.95924,2.8121 -6.95924,7.64096 0,4.54481 2.67008,7.64096 7.07286,7.64096 3.60744,0 5.68101,-2.15878 6.41954,-4.85726 h -2.2724 c -0.25565,0.99417 -1.33504,2.86891 -4.23236,2.86891 z m -0.0284,-11.30522 c 2.72689,0 4.488,1.93155 4.488,4.26076 h -9.17484 c 0,-2.32921 1.95995,-4.26076 4.68684,-4.26076 z m 17.86681,2.10198 c 0,1.44865 -1.10779,1.76111 -3.55063,2.21559 -3.74947,0.71013 -6.1923,1.56228 -6.1923,4.85727 0,2.44283 1.84632,4.11873 4.77205,4.11873 2.38602,0 4.00511,-0.85215 4.91407,-2.21559 h 0.0568 c 0.39767,1.59068 1.22142,1.95995 2.58486,1.95995 0.42608,0 0.73854,-0.0284 1.33504,-0.22725 v -1.59068 c -1.44866,0.17043 -1.64749,-0.45448 -1.64749,-1.59068 v -7.04446 c 0,-3.49382 -2.47124,-4.57321 -5.22653,-4.57321 -4.20395,0 -5.93666,2.10197 -6.07869,4.88567 h 2.27241 c 0.14202,-2.10198 1.05098,-2.89732 3.80628,-2.89732 2.32921,0 2.95412,0.96577 2.95412,2.10198 z m -4.74364,9.20324 c -1.87474,0 -2.72689,-0.82375 -2.72689,-2.244 0,-1.73271 1.30663,-2.44284 4.11874,-3.03935 1.53387,-0.31245 2.92572,-0.71012 3.35179,-1.1362 v 2.41443 c 0,2.7837 -2.04516,4.00512 -4.74364,4.00512 z m 16.70218,-13.29357 c -2.07357,0 -3.23818,1.36344 -4.00511,3.26658 h -0.0568 v -2.86891 h -2.27241 V 672 h 2.27241 v -7.72618 c 0,-3.09615 2.18719,-5.31174 5.34015,-4.80045 h 0.0568 v -2.27241 c -0.39767,-0.0568 -0.79534,-0.0852 -1.33504,-0.0852 z m 13.12314,5.6242 h 2.2724 c -0.34086,-3.23818 -2.78369,-5.6242 -6.36273,-5.6242 -4.23236,0 -7.01605,3.09615 -7.01605,7.64096 0,4.54481 2.78369,7.64096 7.01605,7.64096 3.57904,0 6.1639,-2.44283 6.36273,-5.73782 h -2.2724 c -0.11362,1.73271 -1.16461,3.74947 -4.09033,3.74947 -3.43701,0 -4.74365,-2.92573 -4.74365,-5.65261 0,-2.72689 1.30664,-5.65261 4.74365,-5.65261 2.89732,0 3.97671,2.04517 4.09033,3.63585 z m 11.56083,-5.6242 c -2.47124,0 -4.00511,1.10779 -4.77205,2.13038 h -0.0568 v -7.55575 H 428.8539 V 672 h 2.27241 v -9.03281 c 0,-2.244 1.7043,-3.86309 4.26076,-3.86309 2.2724,0 3.15296,1.47706 3.15296,3.3518 V 672 h 2.27241 v -10.1122 c 0,-3.3234 -2.2156,-4.77205 -4.85727,-4.77205 z m 19.88357,2.38602 v -1.98835 h -2.84051 v -4.82886 h -2.2724 v 4.82886 h -2.13038 v 1.98835 h 2.13038 v 8.9476 c 0,2.95412 1.47706,3.72106 3.4086,3.72106 0.59651,0 1.19302,-0.0568 1.70431,-0.17043 v -1.98835 c -1.93155,0.14202 -2.84051,-0.14203 -2.84051,-1.78952 v -8.72036 z m 9.48728,-2.38602 c -2.47124,0 -4.00511,1.10779 -4.77205,2.13038 h -0.0568 v -7.55575 h -2.27241 V 672 h 2.27241 v -9.03281 c 0,-2.244 1.7043,-3.86309 4.26076,-3.86309 2.2724,0 3.15296,1.47706 3.15296,3.3518 V 672 h 2.27241 v -10.1122 c 0,-3.3234 -2.2156,-4.77205 -4.85727,-4.77205 z m 14.0605,13.29357 c -3.15296,0 -4.71524,-2.44284 -4.71524,-5.0561 h 11.44724 c 0,-5.14132 -2.21559,-8.23747 -6.7604,-8.23747 -4.23236,0 -6.95924,2.8121 -6.95924,7.64096 0,4.54481 2.67007,7.64096 7.07286,7.64096 3.60744,0 5.68101,-2.15878 6.41954,-4.85726 h -2.2724 c -0.25565,0.99417 -1.33504,2.86891 -4.23236,2.86891 z m -0.0284,-11.30522 c 2.72689,0 4.488,1.93155 4.488,4.26076 h -9.17484 c 0,-2.32921 1.95995,-4.26076 4.68684,-4.26076 z m 13.52086,-7.41372 5.0277,20.30962 h 2.8405 l 4.68684,-17.4123 h 0.0568 L 510.17766,672 h 2.84051 l 5.0277,-20.30962 h -2.69849 l -3.86308,16.64537 h -0.0568 l -4.54481,-16.64537 h -2.84051 l -4.54481,16.64537 h -0.0568 l -3.86309,-16.64537 z m 31.87048,18.71894 c -3.15296,0 -4.71524,-2.44284 -4.71524,-5.0561 h 11.44724 c 0,-5.14132 -2.21559,-8.23747 -6.7604,-8.23747 -4.23236,0 -6.95924,2.8121 -6.95924,7.64096 0,4.54481 2.67007,7.64096 7.07286,7.64096 3.60744,0 5.68101,-2.15878 6.41954,-4.85726 h -2.2724 c -0.25565,0.99417 -1.33504,2.86891 -4.23236,2.86891 z m -0.0284,-11.30522 c 2.72688,0 4.488,1.93155 4.488,4.26076 h -9.17484 c 0,-2.32921 1.95995,-4.26076 4.68684,-4.26076 z m 15.87847,-1.98835 c -2.32922,0 -3.69266,1.02258 -4.54481,2.2724 h -0.0568 v -7.69777 H 533.7255 V 672 h 2.27241 v -1.78952 h 0.0568 c 0.85215,1.1078 2.21559,2.18719 4.54481,2.18719 3.63585,0 6.53316,-2.86891 6.53316,-7.64096 0,-4.77205 -2.89731,-7.64096 -6.53316,-7.64096 z m -0.22724,13.29357 c -2.69848,0 -4.37438,-2.244 -4.37438,-5.65261 0,-3.40861 1.6759,-5.65261 4.37438,-5.65261 2.98253,0 4.488,2.8121 4.488,5.65261 0,2.84051 -1.50547,5.65261 -4.488,5.65261 z"
         id="Search-the-Web"
         style="font-size:28.4051px;font-family:NeueMontreal-Regular, 'Neue Montreal';opacity:0.514648;fill:#333333"
         aria-label="Search the Web" />
      <path
         d="m 373.81911,810.23959 v -13.54921 h -2.55646 v 13.54921 c 0,3.29499 -1.7043,4.88568 -5.22653,4.88568 -3.52223,0 -5.22653,-1.59069 -5.22653,-4.88568 v -13.54921 h -2.55645 v 13.54921 c 0,4.14714 2.35762,7.15808 7.78298,7.15808 5.42537,0 7.78299,-3.01094 7.78299,-7.15808 z m 9.00443,-1.84632 c -2.01676,-0.48289 -3.97671,-0.62492 -3.97671,-2.32922 0,-1.1362 1.1078,-1.95995 3.15297,-1.95995 2.72688,0 3.26658,1.44866 3.49382,2.55646 h 2.2724 c -0.22724,-2.49965 -2.15878,-4.54481 -5.76622,-4.54481 -3.40861,0 -5.42537,1.84633 -5.42537,4.11873 0,3.40861 3.29499,3.66425 5.51058,4.20395 2.07357,0.51129 3.97671,0.62491 3.97671,2.72689 0,0.96577 -0.96577,2.244 -3.43701,2.244 -3.63585,0 -4.20395,-1.61909 -4.34598,-3.23818 h -2.2724 c 0.14202,3.12456 2.18719,5.22653 6.61838,5.22653 3.29498,0 5.70942,-1.73271 5.70942,-4.37438 0,-3.57904 -2.92573,-4.00511 -5.51059,-4.63002 z m 14.17414,7.01605 c -3.15297,0 -4.71524,-2.44284 -4.71524,-5.0561 h 11.44724 c 0,-5.14132 -2.2156,-8.23747 -6.76041,-8.23747 -4.23235,0 -6.95924,2.8121 -6.95924,7.64096 0,4.54481 2.67008,7.64096 7.07286,7.64096 3.60745,0 5.68101,-2.15878 6.41955,-4.85726 h -2.27241 c -0.25564,0.99417 -1.33504,2.86891 -4.23235,2.86891 z m -0.0284,-11.30522 c 2.72689,0 4.488,1.93155 4.488,4.26076 h -9.17483 c 0,-2.32921 1.95995,-4.26076 4.68683,-4.26076 z m 15.33876,-1.98835 c -2.07357,0 -3.23817,1.36344 -4.00511,3.26658 h -0.0568 v -2.86891 h -2.2724 V 817 h 2.2724 v -7.72618 c 0,-3.09615 2.18719,-5.31174 5.34015,-4.80045 h 0.0568 v -2.27241 c -0.39767,-0.0568 -0.79534,-0.0852 -1.33504,-0.0852 z m 9.48733,-5.42537 V 817 h 2.55646 v -20.30962 z m 13.17997,5.42537 c -2.47124,0 -4.00512,1.10779 -4.77205,2.13038 h -0.0568 v -1.73271 h -2.27241 V 817 h 2.27241 v -9.03281 c 0,-2.244 1.7043,-3.86309 4.26076,-3.86309 2.2724,0 3.15296,1.47706 3.15296,3.3518 V 817 h 2.2724 v -10.1122 c 0,-3.3234 -2.21559,-4.77205 -4.85726,-4.77205 z m 13.91847,2.38602 v -1.98835 h -2.84051 v -4.82886 h -2.2724 v 4.82886 h -2.13038 v 1.98835 h 2.13038 v 8.9476 c 0,2.95412 1.47706,3.72106 3.40861,3.72106 0.5965,0 1.19301,-0.0568 1.7043,-0.17043 v -1.98835 c -1.93155,0.14202 -2.84051,-0.14203 -2.84051,-1.78952 v -8.72036 z m 8.40792,10.90755 c -3.15297,0 -4.71524,-2.44284 -4.71524,-5.0561 h 11.44724 c 0,-5.14132 -2.2156,-8.23747 -6.76041,-8.23747 -4.23235,0 -6.95924,2.8121 -6.95924,7.64096 0,4.54481 2.67008,7.64096 7.07286,7.64096 3.60744,0 5.68101,-2.15878 6.41955,-4.85726 h -2.27241 c -0.25565,0.99417 -1.33504,2.86891 -4.23235,2.86891 z m -0.0284,-11.30522 c 2.72689,0 4.488,1.93155 4.488,4.26076 h -9.17483 c 0,-2.32921 1.95994,-4.26076 4.68683,-4.26076 z m 15.33876,-1.98835 c -2.07357,0 -3.23818,1.36344 -4.00511,3.26658 h -0.0568 v -2.86891 h -2.27241 V 817 h 2.27241 v -7.72618 c 0,-3.09615 2.18719,-5.31174 5.34015,-4.80045 h 0.0568 v -2.27241 c -0.39767,-0.0568 -0.79534,-0.0852 -1.33504,-0.0852 z m 11.70289,4.09033 c 0,1.44865 -1.1078,1.76111 -3.55064,2.21559 -3.74947,0.71013 -6.1923,1.56228 -6.1923,4.85727 0,2.44283 1.84633,4.11873 4.77205,4.11873 2.38602,0 4.00511,-0.85215 4.91408,-2.21559 h 0.0568 c 0.39767,1.59068 1.22141,1.95995 2.58486,1.95995 0.42607,0 0.73853,-0.0284 1.33503,-0.22725 v -1.59068 c -1.44865,0.17043 -1.64749,-0.45448 -1.64749,-1.59068 v -7.04446 c 0,-3.49382 -2.47124,-4.57321 -5.22653,-4.57321 -4.20395,0 -5.93666,2.10197 -6.07868,4.88567 h 2.2724 c 0.14203,-2.10198 1.05099,-2.89732 3.80628,-2.89732 2.32921,0 2.95413,0.96577 2.95413,2.10198 z m -4.74365,9.20324 c -1.87473,0 -2.72689,-0.82375 -2.72689,-2.244 0,-1.73271 1.30664,-2.44284 4.11874,-3.03935 1.53387,-0.31245 2.92572,-0.71012 3.3518,-1.1362 v 2.41443 c 0,2.7837 -2.04517,4.00512 -4.74365,4.00512 z m 20.65049,-7.66937 h 2.27241 c -0.34086,-3.23818 -2.7837,-5.6242 -6.36274,-5.6242 -4.23235,0 -7.01605,3.09615 -7.01605,7.64096 0,4.54481 2.7837,7.64096 7.01605,7.64096 3.57904,0 6.1639,-2.44283 6.36274,-5.73782 h -2.27241 c -0.11362,1.73271 -1.1646,3.74947 -4.09033,3.74947 -3.43701,0 -4.74364,-2.92573 -4.74364,-5.65261 0,-2.72689 1.30663,-5.65261 4.74364,-5.65261 2.89732,0 3.97671,2.04517 4.09033,3.63585 z m 10.7655,-3.23818 v -1.98835 h -2.84051 v -4.82886 h -2.2724 v 4.82886 h -2.13038 v 1.98835 h 2.13038 v 8.9476 c 0,2.95412 1.47706,3.72106 3.4086,3.72106 0.59651,0 1.19302,-0.0568 1.70431,-0.17043 v -1.98835 c -1.93155,0.14202 -2.84051,-0.14203 -2.84051,-1.78952 v -8.72036 z m 3.80627,-4.80045 c 0.65331,0 1.42025,-0.48289 1.42025,-1.36345 0,-0.88055 -0.76694,-1.36344 -1.42025,-1.36344 -0.62491,0 -1.42026,0.48289 -1.42026,1.36344 0,0.88056 0.79535,1.36345 1.42026,1.36345 z m -1.13621,2.8121 V 817 h 2.27241 v -14.48658 z m 11.9585,14.88425 c -4.43119,0 -7.10127,-3.12456 -7.10127,-7.64096 0,-4.51641 2.67008,-7.64096 7.10127,-7.64096 4.40278,0 7.07286,3.12455 7.07286,7.64096 0,4.5164 -2.67008,7.64096 -7.07286,7.64096 z m 0,-1.98835 c 3.23818,0 4.80046,-2.55646 4.80046,-5.65261 0,-3.09615 -1.56228,-5.65261 -4.80046,-5.65261 -3.26658,0 -4.82886,2.55646 -4.82886,5.65261 0,3.09615 1.56228,5.65261 4.82886,5.65261 z m 16.47496,-13.29357 c -2.47124,0 -4.00511,1.10779 -4.77205,2.13038 h -0.0568 v -1.73271 h -2.2724 V 817 h 2.2724 v -9.03281 c 0,-2.244 1.7043,-3.86309 4.26076,-3.86309 2.2724,0 3.15296,1.47706 3.15296,3.3518 V 817 h 2.27241 v -10.1122 c 0,-3.3234 -2.2156,-4.77205 -4.85727,-4.77205 z"
         id="User-Interaction"
         style="font-size:28.4051px;font-family:NeueMontreal-Regular, 'Neue Montreal';opacity:0.514648;fill:#333333"
         aria-label="User Interaction" />
      <path
         d="m 391.13669,527 h 2.55646 v -8.20906 h 5.82303 c 5.14132,0 3.20978,7.35691 4.09033,8.20906 h 2.75529 v -0.17043 c -1.05098,-0.34086 0.59651,-8.32268 -3.91989,-9.20324 v -0.0568 c 2.244,-0.5681 3.63584,-2.18719 3.63584,-5.11291 0,-3.60745 -2.69848,-5.76623 -6.70359,-5.76623 h -8.23747 z m 2.55646,-18.03722 h 5.0845 c 2.10198,0 4.74365,0.25565 4.74365,3.77788 0,3.52223 -2.64167,3.77787 -4.74365,3.77787 h -5.0845 z m 21.10496,16.44654 c -3.15296,0 -4.71524,-2.44284 -4.71524,-5.0561 h 11.44724 c 0,-5.14132 -2.21559,-8.23747 -6.7604,-8.23747 -4.23235,0 -6.95924,2.8121 -6.95924,7.64096 0,4.54481 2.67008,7.64096 7.07286,7.64096 3.60744,0 5.68101,-2.15878 6.41954,-4.85726 h -2.2724 c -0.25565,0.99417 -1.33504,2.86891 -4.23236,2.86891 z m -0.0284,-11.30522 c 2.72689,0 4.488,1.93155 4.488,4.26076 h -9.17484 c 0,-2.32921 1.95995,-4.26076 4.68684,-4.26076 z m 17.86681,2.10198 c 0,1.44865 -1.10779,1.76111 -3.55063,2.21559 -3.74947,0.71013 -6.1923,1.56228 -6.1923,4.85727 0,2.44283 1.84633,4.11873 4.77205,4.11873 2.38602,0 4.00511,-0.85215 4.91407,-2.21559 h 0.0568 c 0.39767,1.59068 1.22142,1.95995 2.58486,1.95995 0.42608,0 0.73854,-0.0284 1.33504,-0.22725 v -1.59068 c -1.44866,0.17043 -1.64749,-0.45448 -1.64749,-1.59068 v -7.04446 c 0,-3.49382 -2.47124,-4.57321 -5.22653,-4.57321 -4.20395,0 -5.93666,2.10197 -6.07869,4.88567 h 2.27241 c 0.14202,-2.10198 1.05099,-2.89732 3.80628,-2.89732 2.32921,0 2.95412,0.96577 2.95412,2.10198 z m -4.74364,9.20324 c -1.87474,0 -2.72689,-0.82375 -2.72689,-2.244 0,-1.73271 1.30663,-2.44284 4.11874,-3.03935 1.53387,-0.31245 2.92572,-0.71012 3.35179,-1.1362 v 2.41443 c 0,2.7837 -2.04516,4.00512 -4.74364,4.00512 z m 16.2477,-7.01605 c -2.01676,-0.48289 -3.97671,-0.62492 -3.97671,-2.32922 0,-1.1362 1.1078,-1.95995 3.15296,-1.95995 2.72689,0 3.26658,1.44866 3.49382,2.55646 h 2.27241 c -0.22724,-2.49965 -2.15879,-4.54481 -5.76623,-4.54481 -3.40861,0 -5.42537,1.84633 -5.42537,4.11873 0,3.40861 3.29499,3.66425 5.51059,4.20395 2.07357,0.51129 3.97671,0.62491 3.97671,2.72689 0,0.96577 -0.96578,2.244 -3.43702,2.244 -3.63584,0 -4.20395,-1.61909 -4.34597,-3.23818 h -2.27241 c 0.14203,3.12456 2.18719,5.22653 6.61838,5.22653 3.29499,0 5.70942,-1.73271 5.70942,-4.37438 0,-3.57904 -2.92572,-4.00511 -5.51058,-4.63002 z m 14.28776,9.0044 c -4.43119,0 -7.10127,-3.12456 -7.10127,-7.64096 0,-4.51641 2.67008,-7.64096 7.10127,-7.64096 4.40278,0 7.07286,3.12455 7.07286,7.64096 0,4.5164 -2.67008,7.64096 -7.07286,7.64096 z m 0,-1.98835 c 3.23817,0 4.80045,-2.55646 4.80045,-5.65261 0,-3.09615 -1.56228,-5.65261 -4.80045,-5.65261 -3.26659,0 -4.82886,2.55646 -4.82886,5.65261 0,3.09615 1.56227,5.65261 4.82886,5.65261 z m 16.47495,-13.29357 c -2.47124,0 -4.00511,1.10779 -4.77205,2.13038 h -0.0568 v -1.73271 h -2.27241 V 527 h 2.27241 v -9.03281 c 0,-2.244 1.7043,-3.86309 4.26076,-3.86309 2.2724,0 3.15296,1.47706 3.15296,3.3518 V 527 h 2.27241 v -10.1122 c 0,-3.3234 -2.2156,-4.77205 -4.85727,-4.77205 z m 9.31686,-2.41443 c 0.65332,0 1.42025,-0.48289 1.42025,-1.36345 0,-0.88055 -0.76693,-1.36344 -1.42025,-1.36344 -0.62491,0 -1.42025,0.48289 -1.42025,1.36344 0,0.88056 0.79534,1.36345 1.42025,1.36345 z m -1.1362,2.8121 V 527 h 2.2724 v -14.48658 z m 12.78225,-0.39767 c -2.47124,0 -4.00512,1.10779 -4.77205,2.13038 h -0.0568 v -1.73271 h -2.27241 V 527 h 2.27241 v -9.03281 c 0,-2.244 1.7043,-3.86309 4.26076,-3.86309 2.2724,0 3.15296,1.47706 3.15296,3.3518 V 527 h 2.2724 v -10.1122 c 0,-3.3234 -2.21559,-4.77205 -4.85726,-4.77205 z m 18.20764,0.39767 v 1.78952 h -0.0568 c -0.85215,-1.1078 -2.2156,-2.18719 -4.60162,-2.18719 -3.57904,0 -6.47635,2.30081 -6.47635,7.07286 0,4.77205 2.89731,7.07286 6.47635,7.07286 2.38602,0 3.74947,-1.02258 4.60162,-2.27241 h 0.0568 v 2.18719 c 0,2.69848 -1.56228,3.86309 -4.26076,3.86309 -2.69848,0 -3.89149,-1.1078 -4.17554,-2.58486 h -2.27241 c 0.22724,2.47124 2.58486,4.57322 6.56157,4.57322 3.97671,0 6.41955,-1.95995 6.41955,-5.82304 v -13.69124 z m -4.37438,11.75969 c -2.98253,0 -4.488,-2.244 -4.488,-5.0845 0,-2.84051 1.50547,-5.08451 4.488,-5.08451 2.69848,0 4.37438,1.6759 4.37438,5.08451 0,3.40861 -1.6759,5.0845 -4.37438,5.0845 z"
         id="Reasoning"
         style="font-size:28.4051px;font-family:NeueMontreal-Regular, 'Neue Montreal';opacity:0.514648;fill:#333333"
         aria-label="Reasoning" />
      <path
         d="m 391.13669,247 h 2.55646 v -8.20906 h 5.82303 c 5.14132,0 3.20978,7.35691 4.09033,8.20906 h 2.75529 v -0.17043 c -1.05098,-0.34086 0.59651,-8.32268 -3.91989,-9.20324 v -0.0568 c 2.244,-0.5681 3.63584,-2.18719 3.63584,-5.11291 0,-3.60745 -2.69848,-5.76623 -6.70359,-5.76623 h -8.23747 z m 2.55646,-18.03722 h 5.0845 c 2.10198,0 4.74365,0.25565 4.74365,3.77788 0,3.52223 -2.64167,3.77787 -4.74365,3.77787 h -5.0845 z m 21.10496,16.44654 c -3.15296,0 -4.71524,-2.44284 -4.71524,-5.0561 h 11.44724 c 0,-5.14132 -2.21559,-8.23747 -6.7604,-8.23747 -4.23235,0 -6.95924,2.8121 -6.95924,7.64096 0,4.54481 2.67008,7.64096 7.07286,7.64096 3.60744,0 5.68101,-2.15878 6.41954,-4.85726 h -2.2724 c -0.25565,0.99417 -1.33504,2.86891 -4.23236,2.86891 z m -0.0284,-11.30522 c 2.72689,0 4.488,1.93155 4.488,4.26076 h -9.17484 c 0,-2.32921 1.95995,-4.26076 4.68684,-4.26076 z m 17.86681,2.10198 c 0,1.44865 -1.10779,1.76111 -3.55063,2.21559 -3.74947,0.71013 -6.1923,1.56228 -6.1923,4.85727 0,2.44283 1.84633,4.11873 4.77205,4.11873 2.38602,0 4.00511,-0.85215 4.91407,-2.21559 h 0.0568 c 0.39767,1.59068 1.22142,1.95995 2.58486,1.95995 0.42608,0 0.73854,-0.0284 1.33504,-0.22725 v -1.59068 c -1.44866,0.17043 -1.64749,-0.45448 -1.64749,-1.59068 v -7.04446 c 0,-3.49382 -2.47124,-4.57321 -5.22653,-4.57321 -4.20395,0 -5.93666,2.10197 -6.07869,4.88567 h 2.27241 c 0.14202,-2.10198 1.05099,-2.89732 3.80628,-2.89732 2.32921,0 2.95412,0.96577 2.95412,2.10198 z m -4.74364,9.20324 c -1.87474,0 -2.72689,-0.82375 -2.72689,-2.244 0,-1.73271 1.30663,-2.44284 4.11874,-3.03935 1.53387,-0.31245 2.92572,-0.71012 3.35179,-1.1362 v 2.41443 c 0,2.7837 -2.04516,4.00512 -4.74364,4.00512 z m 16.2477,-7.01605 c -2.01676,-0.48289 -3.97671,-0.62492 -3.97671,-2.32922 0,-1.1362 1.1078,-1.95995 3.15296,-1.95995 2.72689,0 3.26658,1.44866 3.49382,2.55646 h 2.27241 c -0.22724,-2.49965 -2.15879,-4.54481 -5.76623,-4.54481 -3.40861,0 -5.42537,1.84633 -5.42537,4.11873 0,3.40861 3.29499,3.66425 5.51059,4.20395 2.07357,0.51129 3.97671,0.62491 3.97671,2.72689 0,0.96577 -0.96578,2.244 -3.43702,2.244 -3.63584,0 -4.20395,-1.61909 -4.34597,-3.23818 h -2.27241 c 0.14203,3.12456 2.18719,5.22653 6.61838,5.22653 3.29499,0 5.70942,-1.73271 5.70942,-4.37438 0,-3.57904 -2.92572,-4.00511 -5.51058,-4.63002 z m 14.28776,9.0044 c -4.43119,0 -7.10127,-3.12456 -7.10127,-7.64096 0,-4.51641 2.67008,-7.64096 7.10127,-7.64096 4.40278,0 7.07286,3.12455 7.07286,7.64096 0,4.5164 -2.67008,7.64096 -7.07286,7.64096 z m 0,-1.98835 c 3.23817,0 4.80045,-2.55646 4.80045,-5.65261 0,-3.09615 -1.56228,-5.65261 -4.80045,-5.65261 -3.26659,0 -4.82886,2.55646 -4.82886,5.65261 0,3.09615 1.56227,5.65261 4.82886,5.65261 z m 16.47495,-13.29357 c -2.47124,0 -4.00511,1.10779 -4.77205,2.13038 h -0.0568 v -1.73271 h -2.27241 V 247 h 2.27241 v -9.03281 c 0,-2.244 1.7043,-3.86309 4.26076,-3.86309 2.2724,0 3.15296,1.47706 3.15296,3.3518 V 247 h 2.27241 v -10.1122 c 0,-3.3234 -2.2156,-4.77205 -4.85727,-4.77205 z m 9.31686,-2.41443 c 0.65332,0 1.42025,-0.48289 1.42025,-1.36345 0,-0.88055 -0.76693,-1.36344 -1.42025,-1.36344 -0.62491,0 -1.42025,0.48289 -1.42025,1.36344 0,0.88056 0.79534,1.36345 1.42025,1.36345 z m -1.1362,2.8121 V 247 h 2.2724 v -14.48658 z m 12.78225,-0.39767 c -2.47124,0 -4.00512,1.10779 -4.77205,2.13038 h -0.0568 v -1.73271 h -2.27241 V 247 h 2.27241 v -9.03281 c 0,-2.244 1.7043,-3.86309 4.26076,-3.86309 2.2724,0 3.15296,1.47706 3.15296,3.3518 V 247 h 2.2724 v -10.1122 c 0,-3.3234 -2.21559,-4.77205 -4.85726,-4.77205 z m 18.20764,0.39767 v 1.78952 h -0.0568 c -0.85215,-1.1078 -2.2156,-2.18719 -4.60162,-2.18719 -3.57904,0 -6.47635,2.30081 -6.47635,7.07286 0,4.77205 2.89731,7.07286 6.47635,7.07286 2.38602,0 3.74947,-1.02258 4.60162,-2.27241 h 0.0568 v 2.18719 c 0,2.69848 -1.56228,3.86309 -4.26076,3.86309 -2.69848,0 -3.89149,-1.1078 -4.17554,-2.58486 h -2.27241 c 0.22724,2.47124 2.58486,4.57322 6.56157,4.57322 3.97671,0 6.41955,-1.95995 6.41955,-5.82304 v -13.69124 z m -4.37438,11.75969 c -2.98253,0 -4.488,-2.244 -4.488,-5.0845 0,-2.84051 1.50547,-5.08451 4.488,-5.08451 2.69848,0 4.37438,1.6759 4.37438,5.08451 0,3.40861 -1.6759,5.0845 -4.37438,5.0845 z"
         id="text14"
         style="font-size:28.4051px;font-family:NeueMontreal-Regular, 'Neue Montreal';opacity:0.514648;fill:#333333"
         aria-label="Reasoning" />
      <path
         d="M 264.50228,151.92632 265.58408,155 h 1.59694 l -4.51608,-12.27757 H 260.9478 L 256.41454,155 h 1.59694 l 1.0818,-3.07368 z m -4.89385,-1.37372 2.18077,-6.40494 h 0.0343 l 2.18077,6.40494 z m 14.66439,-4.31003 v 1.0818 h -0.0343 c -0.51514,-0.66968 -1.33937,-1.3222 -2.78177,-1.3222 -2.1636,0 -3.91509,1.39089 -3.91509,4.27569 0,2.8848 1.75149,4.27568 3.91509,4.27568 1.4424,0 2.26663,-0.61817 2.78177,-1.37371 h 0.0343 v 1.3222 c 0,1.63128 -0.94443,2.33531 -2.57571,2.33531 -1.63129,0 -2.35249,-0.66968 -2.5242,-1.5626 h -1.37371 c 0.13737,1.49392 1.56259,2.7646 3.96659,2.7646 2.404,0 3.88075,-1.18483 3.88075,-3.52014 v -8.27663 z m -2.6444,7.10897 c -1.803,0 -2.71308,-1.35654 -2.71308,-3.07368 0,-1.71714 0.91008,-3.07369 2.71308,-3.07369 1.63129,0 2.6444,1.01312 2.6444,3.07369 0,2.06057 -1.01311,3.07368 -2.6444,3.07368 z m 9.63316,0.68686 c -1.90603,0 -2.85045,-1.47674 -2.85045,-3.05651 h 6.92008 c 0,-3.10803 -1.33937,-4.97972 -4.0868,-4.97972 -2.55854,0 -4.207,1.69998 -4.207,4.61912 0,2.74742 1.61412,4.61911 4.27569,4.61911 2.18077,0 3.43428,-1.30503 3.88074,-2.93631 h -1.37372 c -0.15454,0.601 -0.80705,1.73431 -2.55854,1.73431 z m -0.0172,-6.83423 c 1.64846,0 2.71309,1.16766 2.71309,2.57572 h -5.54637 c 0,-1.40806 1.18482,-2.57572 2.83328,-2.57572 z m 9.73621,-1.202 c -1.49391,0 -2.42117,0.66969 -2.8848,1.28786 h -0.0343 v -1.04746 h -1.37371 V 155 h 1.37371 v -5.46051 c 0,-1.35654 1.03029,-2.33532 2.57572,-2.33532 1.37371,0 1.90602,0.89292 1.90602,2.02623 V 155 h 1.37372 v -6.11303 c 0,-2.00905 -1.33937,-2.8848 -2.93632,-2.8848 z m 8.41399,1.4424 v -1.202 h -1.71714 v -2.91914 h -1.37371 v 2.91914 h -1.28786 v 1.202 h 1.28786 v 5.409 c 0,1.78583 0.89291,2.24946 2.06057,2.24946 0.3606,0 0.7212,-0.0343 1.03028,-0.10303 v -1.202 c -1.16765,0.0859 -1.71714,-0.0859 -1.71714,-1.0818 v -5.27163 z m 13.97755,-0.66968 h 1.54543 c -0.29191,-2.33532 -2.21511,-4.29286 -5.22011,-4.29286 -3.3656,0 -5.68374,2.67874 -5.68374,6.3706 0,3.70903 2.31814,6.38777 5.68374,6.38777 3.02217,0 4.94537,-1.95754 5.22011,-4.67063 h -1.54543 c -0.10302,1.54543 -1.09897,3.29692 -3.67468,3.29692 -2.91914,0 -4.13831,-2.5242 -4.13831,-5.01406 0,-2.47268 1.21917,-4.99688 4.13831,-4.99688 2.55854,0 3.45146,1.75148 3.67468,2.91914 z m 6.86856,8.46551 c -2.67874,0 -4.29285,-1.88886 -4.29285,-4.61911 0,-2.73026 1.61411,-4.61912 4.29285,-4.61912 2.66157,0 4.27569,1.88886 4.27569,4.61912 0,2.73025 -1.61412,4.61911 -4.27569,4.61911 z m 0,-1.202 c 1.95755,0 2.90197,-1.54543 2.90197,-3.41711 0,-1.87169 -0.94442,-3.41712 -2.90197,-3.41712 -1.97471,0 -2.91914,1.54543 -2.91914,3.41712 0,1.87168 0.94443,3.41711 2.91914,3.41711 z m 9.95944,-8.03623 c -1.49391,0 -2.42117,0.66969 -2.8848,1.28786 h -0.0343 v -1.04746 H 325.9073 V 155 h 1.37372 v -5.46051 c 0,-1.35654 1.03028,-2.33532 2.57571,-2.33532 1.37371,0 1.90603,0.89292 1.90603,2.02623 V 155 h 1.37371 v -6.11303 c 0,-2.00905 -1.33937,-2.8848 -2.93631,-2.8848 z m 8.41399,1.4424 v -1.202 h -1.71714 v -2.91914 h -1.37372 v 2.91914 h -1.28785 v 1.202 h 1.28785 v 5.409 c 0,1.78583 0.89292,2.24946 2.06057,2.24946 0.3606,0 0.7212,-0.0343 1.03029,-0.10303 v -1.202 c -1.16766,0.0859 -1.71714,-0.0859 -1.71714,-1.0818 v -5.27163 z m 5.08275,6.59383 c -1.90603,0 -2.85045,-1.47674 -2.85045,-3.05651 h 6.92008 c 0,-3.10803 -1.33937,-4.97972 -4.0868,-4.97972 -2.55854,0 -4.207,1.69998 -4.207,4.61912 0,2.74742 1.61412,4.61911 4.27569,4.61911 2.18077,0 3.43428,-1.30503 3.88074,-2.93631 h -1.37372 c -0.15454,0.601 -0.80705,1.73431 -2.55854,1.73431 z m -0.0172,-6.83423 c 1.64846,0 2.71309,1.16766 2.71309,2.57572 h -5.54637 c 0,-1.40806 1.18482,-2.57572 2.83328,-2.57572 z m 4.46459,-0.9616 3.09086,4.27569 L 347.85241,155 h 1.63129 l 2.55854,-3.57166 h 0.0343 L 354.65229,155 h 1.63129 l -3.39994,-4.48174 3.09085,-4.27569 h -1.63128 l -2.26663,3.34843 h -0.0343 l -2.26663,-3.34843 z m 12.65534,1.202 v -1.202 h -1.71714 v -2.91914 h -1.37372 v 2.91914 h -1.28785 v 1.202 h 1.28785 v 5.409 c 0,1.78583 0.89292,2.24946 2.06057,2.24946 0.3606,0 0.7212,-0.0343 1.03029,-0.10303 v -1.202 c -1.16766,0.0859 -1.71714,-0.0859 -1.71714,-1.0818 v -5.27163 z"
         id="Agent-Context"
         style="font-size:17.1714px;font-family:NeueMontreal-Regular, 'Neue Montreal';opacity:0.514648;fill:#333333"
         aria-label="Agent Context" />
      <circle
         id="Oval-Copy"
         fill="#4050FF"
         cx="671"
         cy="953"
         r="17" />
      <circle
         id="circle15"
         fill="#4050FF"
         cx="243"
         cy="372"
         r="17" />
      <g
         id="Group-3"
         transform="translate(377.913000, 0.000000)">
        <rect
           id="rect15"
           fill="#BDB8FF"
           x="0"
           y="0"
           width="150"
           height="66"
           rx="30" />
        <path
           d="M 63.538558,37.239595 V 23.69038 h -2.556455 v 13.549215 c 0,3.294987 -1.704304,4.885671 -5.226532,4.885671 -3.522228,0 -5.226532,-1.590684 -5.226532,-4.885671 V 23.69038 h -2.556455 v 13.549215 c 0,4.147139 2.35762,7.158076 7.782987,7.158076 5.425367,0 7.782987,-3.010937 7.782987,-7.158076 z m 9.004433,-1.846329 c -2.016759,-0.482886 -3.976709,-0.624912 -3.976709,-2.329215 0,-1.136203 1.107798,-1.95995 3.152962,-1.95995 2.726886,0 3.266583,1.448658 3.493823,2.556456 h 2.272405 c -0.22724,-2.499646 -2.158785,-4.54481 -5.766228,-4.54481 -3.408607,0 -5.425367,1.846329 -5.425367,4.118734 0,3.408608 3.294987,3.664253 5.510582,4.203949 2.07357,0.511291 3.976709,0.624912 3.976709,2.726886 0,0.965773 -0.965772,2.244 -3.437012,2.244 -3.635849,0 -4.20395,-1.619088 -4.345975,-3.238177 h -2.272405 c 0.142025,3.124557 2.18719,5.226532 6.61838,5.226532 3.294987,0 5.709417,-1.732709 5.709417,-4.37438 0,-3.579038 -2.925721,-4.005114 -5.510582,-4.630025 z m 14.174134,7.01605 c -3.152962,0 -4.715241,-2.442835 -4.715241,-5.056101 h 11.447241 c 0,-5.141316 -2.215595,-8.237468 -6.760405,-8.237468 -4.232355,0 -6.959241,2.812101 -6.959241,7.640962 0,4.54481 2.670076,7.640962 7.072861,7.640962 3.607443,0 5.681013,-2.158785 6.419545,-4.857266 H 90.94948 c -0.255646,0.994177 -1.335038,2.868911 -4.232355,2.868911 z m -0.0284,-11.305215 c 2.726886,0 4.488,1.931544 4.488,4.26076 h -9.174836 c 0,-2.329216 1.95995,-4.26076 4.686836,-4.26076 z m 15.33876,-1.988354 c -2.073567,0 -3.238175,1.363443 -4.005112,3.266582 h -0.05681 V 29.513418 H 95.693153 V 44 h 2.272405 v -7.726177 c 0,-3.096152 2.187192,-5.311747 5.340152,-4.800456 h 0.0568 v -2.272405 c -0.39767,-0.05681 -0.79534,-0.08522 -1.33504,-0.08522 z"
           id="User"
           style="font-size:28.4051px;font-family:NeueMontreal-Regular, 'Neue Montreal';fill:#ffffff"
           aria-label="User" />
      </g>
      <line
         x1="451.344756"
         y1="290"
         x2="451.344756"
         y2="317"
         id="Path-4"
         stroke="#E1E1E1"
         stroke-width="5" />
    </g>
  </g>
</svg>
