<?xml version="1.0" encoding="UTF-8" standalone="no"?>
<svg
   width="981px"
   height="795px"
   viewBox="0 0 981 795"
   version="1.1"
   id="svg6"
   xmlns="http://www.w3.org/2000/svg"
   xmlns:svg="http://www.w3.org/2000/svg">
  <defs
     id="defs6" />
  <title
     id="title1">Group 5</title>
  <g
     id="Page-2"
     stroke="none"
     stroke-width="1"
     fill="none"
     fill-rule="evenodd">
    <g
       id="Group-5">
      <circle
         id="Oval"
         fill="#E3E0FF"
         cx="327"
         cy="327"
         r="327" />
      <circle
         id="Oval-Copy-2"
         fill="#FFC1C9"
         cx="654"
         cy="327"
         r="327" />
      <path
         d="M490.417791,49.0089751 C585.653912,105.036287 649.5,208.561799 649.5,327 C649.5,445.43938 585.652962,548.96565 490.500584,605.041703 C395.347461,548.966333 331.5,445.43977 331.5,327 C331.5,208.595593 395.309339,105.095492 490.417791,49.0089751 Z"
         id="Combined-Shape"
         stroke="#4050FF"
         stroke-width="9"
         fill="#8993FE" />
      <g
         id="agent-capability-spa"
         style="font-size:41.1714px;font-family:NeueMontreal-Regular, 'Neue Montreal';opacity:0.693964;fill:#555555"
         aria-label="agentcapability space">
        <path
           d="m 618.58666,710.35486 c 0,2.09974 -1.60569,2.55263 -5.14643,3.21137 -5.43463,1.02929 -8.97537,2.26443 -8.97537,7.04031 0,3.54075 2.67614,5.96986 6.9168,5.96986 3.4584,0 5.80517,-1.23514 7.12265,-3.21137 h 0.0824 c 0.5764,2.3056 1.77037,2.84083 3.7466,2.84083 0.61757,0 1.07045,-0.0412 1.93505,-0.32937 v -2.3056 c -2.09974,0.24702 -2.38794,-0.65875 -2.38794,-2.3056 v -10.21052 c 0,-5.06408 -3.58191,-6.62859 -7.57554,-6.62859 -6.09337,0 -8.60483,3.04668 -8.81068,7.08148 h 3.29371 c 0.20586,-3.04669 1.52334,-4.19949 5.51697,-4.19949 3.37606,0 4.28183,1.39983 4.28183,3.04669 z m -6.87563,13.33954 c -2.71731,0 -3.95246,-1.19397 -3.95246,-3.25254 0,-2.51146 1.89389,-3.54074 5.96986,-4.40534 2.22326,-0.45289 4.24066,-1.02929 4.85823,-1.64686 v 3.49957 c 0,4.0348 -2.96435,5.80517 -6.87563,5.80517 z m 29.9728,-18.69182 v 2.59379 h -0.0823 c -1.23514,-1.60568 -3.21137,-3.17019 -6.66977,-3.17019 -5.1876,0 -9.38708,3.33488 -9.38708,10.25168 0,6.9168 4.19948,10.25168 9.38708,10.25168 3.4584,0 5.43463,-1.48217 6.66977,-3.29371 h 0.0823 v 3.1702 c 0,3.91128 -2.26442,5.59931 -6.17571,5.59931 -3.91128,0 -5.64048,-1.60568 -6.0522,-3.7466 h -3.29371 c 0.32937,3.58192 3.7466,6.6286 9.5106,6.6286 5.764,0 9.30474,-2.84083 9.30474,-8.44014 v -19.84462 z m -6.34039,17.04496 c -4.323,0 -6.50509,-3.25254 -6.50509,-7.36968 0,-4.11714 2.18209,-7.36969 6.50509,-7.36969 3.91128,0 6.34039,2.42912 6.34039,7.36969 0,4.94057 -2.42911,7.36968 -6.34039,7.36968 z m 23.09714,1.64686 c -4.57003,0 -6.83445,-3.54074 -6.83445,-7.32851 h 16.59208 c 0,-7.45203 -3.21137,-11.93971 -9.7988,-11.93971 -6.13454,0 -10.087,4.07597 -10.087,11.07511 0,6.58743 3.87012,11.07511 10.25169,11.07511 5.22877,0 8.23428,-3.12903 9.30474,-7.04031 h -3.29372 c -0.37054,1.441 -1.93505,4.15831 -6.13454,4.15831 z m -0.0412,-16.38623 c 3.95246,0 6.50508,2.79966 6.50508,6.17572 h -13.29836 c 0,-3.37606 2.84082,-6.17572 6.79328,-6.17572 z m 23.34424,-2.88199 c -3.58192,0 -5.80517,1.60568 -6.9168,3.08785 h -0.0823 v -2.51145 h -3.29372 V 726 h 3.29372 v -13.09251 c 0,-3.25254 2.47028,-5.59932 6.17571,-5.59932 3.29371,0 4.57003,2.14092 4.57003,4.85823 V 726 h 3.29371 v -14.65703 c 0,-4.81705 -3.21137,-6.91679 -7.04031,-6.91679 z m 20.17398,3.45839 v -2.88199 h -4.11714 v -6.99915 h -3.29372 v 6.99915 h -3.08785 v 2.88199 h 3.08785 v 12.969 c 0,4.28183 2.14092,5.39346 4.94057,5.39346 0.8646,0 1.7292,-0.0823 2.47029,-0.24703 v -2.882 c -2.79966,0.20586 -4.11714,-0.20586 -4.11714,-2.5938 v -12.63963 z"
           id="path6" />
        <path
           d="m 529.53286,762.16137 h 3.29372 c -0.49406,-4.69354 -4.0348,-8.15194 -9.2224,-8.15194 -6.13454,0 -10.16934,4.48768 -10.16934,11.07511 0,6.58743 4.0348,11.07511 10.16934,11.07511 5.1876,0 8.9342,-3.54074 9.2224,-8.31663 h -3.29372 c -0.16468,2.51146 -1.68803,5.43463 -5.92868,5.43463 -4.98174,0 -6.87563,-4.24065 -6.87563,-8.19311 0,-3.95246 1.89389,-8.19311 6.87563,-8.19311 4.19948,0 5.764,2.96434 5.92868,5.26994 z m 19.72108,-2.22326 c 0,2.09974 -1.60568,2.55263 -5.14642,3.21137 -5.43463,1.02929 -8.97537,2.26443 -8.97537,7.04032 0,3.54074 2.67614,5.96985 6.9168,5.96985 3.4584,0 5.80517,-1.23514 7.12265,-3.21137 h 0.0823 c 0.5764,2.3056 1.77038,2.84083 3.7466,2.84083 0.61758,0 1.07046,-0.0412 1.93506,-0.32937 v -2.3056 c -2.09974,0.24703 -2.38794,-0.65874 -2.38794,-2.3056 v -10.21051 c 0,-5.06409 -3.58191,-6.6286 -7.57554,-6.6286 -6.09337,0 -8.60483,3.04668 -8.81069,7.08148 h 3.29372 c 0.20585,-3.04668 1.52334,-4.19948 5.51697,-4.19948 3.37605,0 4.28182,1.39983 4.28182,3.04668 z m -6.87562,13.33954 c -2.71732,0 -3.95246,-1.19397 -3.95246,-3.25254 0,-2.51146 1.89389,-3.54074 5.96986,-4.40534 2.22325,-0.45289 4.24065,-1.02929 4.85822,-1.64686 v 3.49957 c 0,4.0348 -2.96434,5.80517 -6.87562,5.80517 z m 25.0734,-19.26822 c -3.4584,0 -5.43462,1.56451 -6.66977,3.1702 h -0.0823 v -2.5938 h -3.29371 v 28.07891 h 3.29371 v -9.7988 h 0.0823 c 1.23515,1.81154 3.21137,3.29371 6.66977,3.29371 5.1876,0 9.38709,-4.15831 9.38709,-11.07511 0,-6.9168 -4.19949,-11.07511 -9.38709,-11.07511 z m -0.41171,19.26822 c -3.91129,0 -6.3404,-3.25254 -6.3404,-8.19311 0,-4.94057 2.42911,-8.19311 6.3404,-8.19311 4.323,0 6.50508,4.07597 6.50508,8.19311 0,4.11714 -2.18208,8.19311 -6.50508,8.19311 z m 26.10267,-13.33954 c 0,2.09974 -1.60569,2.55263 -5.14643,3.21137 -5.43463,1.02929 -8.97537,2.26443 -8.97537,7.04032 0,3.54074 2.67614,5.96985 6.9168,5.96985 3.4584,0 5.80517,-1.23514 7.12266,-3.21137 h 0.0823 c 0.5764,2.3056 1.77037,2.84083 3.7466,2.84083 0.61757,0 1.07046,-0.0412 1.93506,-0.32937 v -2.3056 c -2.09975,0.24703 -2.38795,-0.65874 -2.38795,-2.3056 v -10.21051 c 0,-5.06409 -3.58191,-6.6286 -7.57554,-6.6286 -6.09337,0 -8.60483,3.04668 -8.81068,7.08148 h 3.29371 c 0.20586,-3.04668 1.52334,-4.19948 5.51697,-4.19948 3.37606,0 4.28183,1.39983 4.28183,3.04668 z m -6.87563,13.33954 c -2.71731,0 -3.95245,-1.19397 -3.95245,-3.25254 0,-2.51146 1.89388,-3.54074 5.96985,-4.40534 2.22326,-0.45289 4.24066,-1.02929 4.85823,-1.64686 v 3.49957 c 0,4.0348 -2.96434,5.80517 -6.87563,5.80517 z m 24.99107,-19.26822 c -3.37606,0 -5.35229,1.48217 -6.58743,3.29371 h -0.0823 v -11.15745 h -3.29372 v 29.43756 h 3.29372 v -2.5938 h 0.0823 c 1.23514,1.60569 3.21137,3.1702 6.58743,3.1702 5.26994,0 9.46942,-4.15831 9.46942,-11.07511 0,-6.9168 -4.19948,-11.07511 -9.46942,-11.07511 z m -0.32937,19.26822 c -3.91129,0 -6.3404,-3.25254 -6.3404,-8.19311 0,-4.94057 2.42911,-8.19311 6.3404,-8.19311 4.32299,0 6.50508,4.07597 6.50508,8.19311 0,4.11714 -2.18209,8.19311 -6.50508,8.19311 z m 15.19222,-22.76779 c 0.94695,0 2.05857,-0.69992 2.05857,-1.97623 0,-1.27632 -1.11162,-1.97623 -2.05857,-1.97623 -0.90577,0 -2.05857,0.69991 -2.05857,1.97623 0,1.27631 1.1528,1.97623 2.05857,1.97623 z m -1.64685,4.07597 v 20.99742 h 3.29371 v -20.99742 z m 7.94603,-8.44014 v 29.43756 h 3.29372 v -29.43756 z m 9.59291,4.36417 c 0.94694,0 2.05857,-0.69992 2.05857,-1.97623 0,-1.27632 -1.11163,-1.97623 -2.05857,-1.97623 -0.90578,0 -2.05858,0.69991 -2.05858,1.97623 0,1.27631 1.1528,1.97623 2.05858,1.97623 z m -1.64686,4.07597 v 20.99742 h 3.29371 v -20.99742 z m 17.3743,2.882 v -2.882 h -4.11714 v -6.99914 h -3.29372 v 6.99914 h -3.08785 v 2.882 h 3.08785 v 12.96899 c 0,4.28183 2.14092,5.39346 4.94057,5.39346 0.8646,0 1.7292,-0.0823 2.47029,-0.24703 v -2.882 c -2.79966,0.20586 -4.11714,-0.20585 -4.11714,-2.5938 v -12.63962 z m 21.24445,-2.882 h -3.70543 l -6.0522,17.12731 h -0.0823 l -6.42275,-17.12731 h -3.70542 l 7.94608,19.26822 c 0.82343,2.05857 -0.0412,3.82894 -0.90577,4.77589 -1.11163,1.19397 -2.38794,1.31748 -4.19949,1.1528 h -0.49405 v 2.47028 c 0.53523,0.16469 1.48217,0.41172 2.79965,0.41172 3.87012,0 4.94057,-3.08786 5.84635,-5.35229 z m 19.10357,8.52248 c -2.92317,-0.69991 -5.764,-0.90577 -5.764,-3.37606 0,-1.64685 1.60568,-2.84082 4.57003,-2.84082 3.95245,0 4.73471,2.09974 5.06408,3.70542 h 3.29371 c -0.32937,-3.62308 -3.12902,-6.58742 -8.35779,-6.58742 -4.94057,0 -7.86375,2.67614 -7.86375,5.96985 0,4.94057 4.77589,5.31112 7.98726,6.09337 3.00551,0.74109 5.764,0.90577 5.764,3.95246 0,1.39983 -1.39983,3.25254 -4.98174,3.25254 -5.26994,0 -6.09337,-2.34677 -6.29923,-4.69354 h -3.29371 c 0.20585,4.52886 3.1702,7.57554 9.59294,7.57554 4.77588,0 8.27545,-2.51145 8.27545,-6.3404 0,-5.1876 -4.24065,-5.80517 -7.98725,-6.71094 z m 21.24447,-9.09888 c -3.4584,0 -5.43463,1.56451 -6.66977,3.1702 h -0.0823 v -2.5938 h -3.29372 v 28.07891 h 3.29372 v -9.7988 h 0.0823 c 1.23514,1.81154 3.21137,3.29371 6.66977,3.29371 5.1876,0 9.38708,-4.15831 9.38708,-11.07511 0,-6.9168 -4.19948,-11.07511 -9.38708,-11.07511 z m -0.41171,19.26822 c -3.91129,0 -6.3404,-3.25254 -6.3404,-8.19311 0,-4.94057 2.42911,-8.19311 6.3404,-8.19311 4.323,0 6.50508,4.07597 6.50508,8.19311 0,4.11714 -2.18208,8.19311 -6.50508,8.19311 z m 26.10266,-13.33954 c 0,2.09974 -1.60568,2.55263 -5.14642,3.21137 -5.43463,1.02929 -8.97537,2.26443 -8.97537,7.04032 0,3.54074 2.67614,5.96985 6.91679,5.96985 3.4584,0 5.80518,-1.23514 7.12266,-3.21137 h 0.0823 c 0.5764,2.3056 1.77037,2.84083 3.7466,2.84083 0.61757,0 1.07046,-0.0412 1.93506,-0.32937 v -2.3056 c -2.09974,0.24703 -2.38794,-0.65874 -2.38794,-2.3056 v -10.21051 c 0,-5.06409 -3.58192,-6.6286 -7.57554,-6.6286 -6.09337,0 -8.60483,3.04668 -8.81069,7.08148 h 3.29372 c 0.20585,-3.04668 1.52334,-4.19948 5.51697,-4.19948 3.37605,0 4.28182,1.39983 4.28182,3.04668 z m -6.87562,13.33954 c -2.71732,0 -3.95246,-1.19397 -3.95246,-3.25254 0,-2.51146 1.89389,-3.54074 5.96986,-4.40534 2.22325,-0.45289 4.24065,-1.02929 4.85822,-1.64686 v 3.49957 c 0,4.0348 -2.96434,5.80517 -6.87562,5.80517 z m 29.93163,-11.11628 h 3.29371 c -0.49405,-4.69354 -4.03479,-8.15194 -9.22239,-8.15194 -6.13455,0 -10.16934,4.48768 -10.16934,11.07511 0,6.58743 4.03479,11.07511 10.16934,11.07511 5.1876,0 8.93419,-3.54074 9.22239,-8.31663 h -3.29371 c -0.16468,2.51146 -1.68803,5.43463 -5.92868,5.43463 -4.98175,0 -6.87563,-4.24065 -6.87563,-8.19311 0,-3.95246 1.89388,-8.19311 6.87563,-8.19311 4.19948,0 5.764,2.96434 5.92868,5.26994 z m 15.39806,11.11628 c -4.57002,0 -6.83445,-3.54074 -6.83445,-7.32851 h 16.59208 c 0,-7.45203 -3.21137,-11.93971 -9.7988,-11.93971 -6.13454,0 -10.08699,4.07597 -10.08699,11.07511 0,6.58743 3.87011,11.07511 10.25168,11.07511 5.22877,0 8.23428,-3.12903 9.30474,-7.04031 h -3.29371 c -0.37055,1.441 -1.93506,4.15831 -6.13455,4.15831 z m -0.0412,-16.38622 c 3.95246,0 6.50509,2.79965 6.50509,6.17571 h -13.29837 c 0,-3.37606 2.84083,-6.17571 6.79328,-6.17571 z"
           id="path7" />
      </g>
      <g
         id="guardrailing-rule-sp"
         style="font-size:41.1714px;font-family:NeueMontreal-Regular, 'Neue Montreal';opacity:0.693964;fill:#555555"
         aria-label="guardrailingrule space">
        <path
           d="m 241.01942,715.00258 v 2.59379 h -0.0823 c -1.23514,-1.60568 -3.21137,-3.17019 -6.66977,-3.17019 -5.1876,0 -9.38708,3.33488 -9.38708,10.25168 0,6.9168 4.19948,10.25168 9.38708,10.25168 3.4584,0 5.43463,-1.48217 6.66977,-3.29371 h 0.0823 v 3.1702 c 0,3.91128 -2.26443,5.59931 -6.17571,5.59931 -3.91129,0 -5.64049,-1.60568 -6.0522,-3.7466 h -3.29371 c 0.32937,3.58192 3.7466,6.6286 9.5106,6.6286 5.76399,0 9.30474,-2.84083 9.30474,-8.44014 v -19.84462 z m -6.3404,17.04496 c -4.323,0 -6.50508,-3.25254 -6.50508,-7.36968 0,-4.11714 2.18208,-7.36969 6.50508,-7.36969 3.91129,0 6.3404,2.42912 6.3404,7.36969 0,4.94057 -2.42911,7.36968 -6.3404,7.36968 z m 28.07889,-17.04496 v 13.09251 c 0,3.25254 -2.47028,5.59931 -6.17571,5.59931 -3.29372,0 -4.57003,-2.14091 -4.57003,-4.85823 v -13.83359 h -3.29371 v 14.65702 c 0,4.81706 3.21137,6.9168 7.04031,6.9168 3.58191,0 5.80517,-1.60569 6.9168,-3.08786 h 0.0823 V 736 h 3.29372 v -20.99742 z m 20.66805,5.35228 c 0,2.09974 -1.60569,2.55263 -5.14643,3.21137 -5.43463,1.02929 -8.97537,2.26443 -8.97537,7.04031 0,3.54075 2.67614,5.96986 6.9168,5.96986 3.4584,0 5.80517,-1.23514 7.12266,-3.21137 h 0.0823 c 0.5764,2.3056 1.77037,2.84083 3.7466,2.84083 0.61757,0 1.07046,-0.0412 1.93506,-0.32937 v -2.3056 c -2.09975,0.24702 -2.38795,-0.65875 -2.38795,-2.3056 v -10.21052 c 0,-5.06408 -3.58191,-6.62859 -7.57554,-6.62859 -6.09337,0 -8.60483,3.04668 -8.81068,7.08148 h 3.29371 c 0.20586,-3.04669 1.52334,-4.19949 5.51697,-4.19949 3.37606,0 4.28183,1.39983 4.28183,3.04669 z m -6.87563,13.33954 c -2.71731,0 -3.95245,-1.19397 -3.95245,-3.25254 0,-2.51146 1.89388,-3.54074 5.96985,-4.40534 2.22326,-0.45289 4.24066,-1.02929 4.85823,-1.64686 v 3.49957 c 0,4.0348 -2.96434,5.80517 -6.87563,5.80517 z m 24.20881,-19.26822 c -3.00551,0 -4.69354,1.97622 -5.80517,4.73471 h -0.0823 v -4.15831 h -3.29372 V 736 h 3.29372 v -11.19863 c 0,-4.48768 3.1702,-7.69905 7.74022,-6.95797 h 0.0824 v -3.29371 c -0.5764,-0.0823 -1.1528,-0.12351 -1.93506,-0.12351 z m 19.06236,-7.86375 v 11.15746 h -0.0823 c -1.23514,-1.81154 -3.21137,-3.29371 -6.58743,-3.29371 -5.26994,0 -9.46943,4.15831 -9.46943,11.07511 0,6.9168 4.19949,11.07511 9.46943,11.07511 3.37606,0 5.35229,-1.56451 6.58743,-3.1702 h 0.0823 V 736 h 3.29371 v -29.43757 z m -6.3404,27.13197 c -4.323,0 -6.50508,-4.07597 -6.50508,-8.19311 0,-4.11714 2.18208,-8.19312 6.50508,-8.19312 3.91129,0 6.3404,3.25255 6.3404,8.19312 0,4.94057 -2.42911,8.19311 -6.3404,8.19311 z m 23.34418,-19.26822 c -3.00552,0 -4.69354,1.97622 -5.80517,4.73471 h -0.0823 v -4.15831 h -3.29372 V 736 h 3.29372 v -11.19863 c 0,-4.48768 3.17019,-7.69905 7.74022,-6.95797 h 0.0823 v -3.29371 c -0.5764,-0.0823 -1.1528,-0.12351 -1.93506,-0.12351 z m 16.96263,5.92868 c 0,2.09974 -1.60569,2.55263 -5.14643,3.21137 -5.43463,1.02929 -8.97537,2.26443 -8.97537,7.04031 0,3.54075 2.67614,5.96986 6.9168,5.96986 3.4584,0 5.80517,-1.23514 7.12265,-3.21137 h 0.0824 c 0.5764,2.3056 1.77037,2.84083 3.74659,2.84083 0.61758,0 1.07046,-0.0412 1.93506,-0.32937 v -2.3056 c -2.09974,0.24702 -2.38794,-0.65875 -2.38794,-2.3056 v -10.21052 c 0,-5.06408 -3.58191,-6.62859 -7.57554,-6.62859 -6.09337,0 -8.60483,3.04668 -8.81069,7.08148 h 3.29372 c 0.20585,-3.04669 1.52334,-4.19949 5.51697,-4.19949 3.37605,0 4.28183,1.39983 4.28183,3.04669 z m -6.87563,13.33954 c -2.71732,0 -3.95246,-1.19397 -3.95246,-3.25254 0,-2.51146 1.89389,-3.54074 5.96986,-4.40534 2.22325,-0.45289 4.24065,-1.02929 4.85823,-1.64686 v 3.49957 c 0,4.0348 -2.96435,5.80517 -6.87563,5.80517 z m 17.08615,-22.7678 c 0.94694,0 2.05857,-0.69991 2.05857,-1.97622 0,-1.27632 -1.11163,-1.97623 -2.05857,-1.97623 -0.90577,0 -2.05857,0.69991 -2.05857,1.97623 0,1.27631 1.1528,1.97622 2.05857,1.97622 z m -1.64686,4.07598 V 736 h 3.29372 v -20.99742 z m 7.94604,-8.44015 V 736 h 3.29371 v -29.43757 z m 9.59289,4.36417 c 0.94695,0 2.05858,-0.69991 2.05858,-1.97622 0,-1.27632 -1.11163,-1.97623 -2.05858,-1.97623 -0.90577,0 -2.05857,0.69991 -2.05857,1.97623 0,1.27631 1.1528,1.97622 2.05857,1.97622 z m -1.64685,4.07598 V 736 h 3.29371 v -20.99742 z m 18.5271,-0.5764 c -3.58191,0 -5.80517,1.60568 -6.91679,3.08785 h -0.0823 v -2.51145 H 386.4779 V 736 h 3.29371 v -13.09251 c 0,-3.25254 2.47029,-5.59932 6.17572,-5.59932 3.29371,0 4.57002,2.14092 4.57002,4.85823 V 736 h 3.29372 v -14.65703 c 0,-4.81705 -3.21137,-6.91679 -7.04032,-6.91679 z m 26.39087,0.5764 v 2.59379 h -0.0823 c -1.23515,-1.60568 -3.21137,-3.17019 -6.66977,-3.17019 -5.1876,0 -9.38709,3.33488 -9.38709,10.25168 0,6.9168 4.19949,10.25168 9.38709,10.25168 3.4584,0 5.43462,-1.48217 6.66977,-3.29371 h 0.0823 v 3.1702 c 0,3.91128 -2.26443,5.59931 -6.17571,5.59931 -3.91129,0 -5.64049,-1.60568 -6.0522,-3.7466 h -3.29372 c 0.32937,3.58192 3.7466,6.6286 9.5106,6.6286 5.764,0 9.30474,-2.84083 9.30474,-8.44014 v -19.84462 z m -6.3404,17.04496 c -4.323,0 -6.50508,-3.25254 -6.50508,-7.36968 0,-4.11714 2.18208,-7.36969 6.50508,-7.36969 3.91129,0 6.3404,2.42912 6.3404,7.36969 0,4.94057 -2.42911,7.36968 -6.3404,7.36968 z"
           id="path8" />
        <path
           d="m 248.43029,764.00943 c -3.00551,0 -4.69354,1.97623 -5.80517,4.73471 h -0.0823 v -4.15831 h -3.29372 v 20.99742 h 3.29372 v -11.19862 c 0,-4.48769 3.1702,-7.69906 7.74022,-6.95797 h 0.0824 v -3.29372 c -0.5764,-0.0823 -1.1528,-0.12351 -1.93506,-0.12351 z m 18.85653,0.5764 v 13.09251 c 0,3.25254 -2.47029,5.59931 -6.17572,5.59931 -3.29371,0 -4.57002,-2.14091 -4.57002,-4.85823 v -13.83359 h -3.29372 v 14.65702 c 0,4.81706 3.21137,6.9168 7.04032,6.9168 3.58191,0 5.80517,-1.60568 6.91679,-3.08785 h 0.0823 v 2.51145 h 3.29371 v -20.99742 z m 7.94608,-8.44014 v 29.43756 h 3.29371 v -29.43756 z m 16.88024,27.13196 c -4.57002,0 -6.83445,-3.54074 -6.83445,-7.32851 h 16.59208 c 0,-7.45203 -3.21137,-11.93971 -9.7988,-11.93971 -6.13454,0 -10.087,4.07597 -10.087,11.07511 0,6.58743 3.87012,11.07511 10.25169,11.07511 5.22877,0 8.23428,-3.12903 9.30474,-7.04031 h -3.29372 c -0.37054,1.441 -1.93505,4.15831 -6.13454,4.15831 z m -0.0412,-16.38622 c 3.95246,0 6.50509,2.79965 6.50509,6.17571 h -13.29837 c 0,-3.37606 2.84083,-6.17571 6.79328,-6.17571 z m 29.80818,6.21688 c -2.92317,-0.69991 -5.764,-0.90577 -5.764,-3.37606 0,-1.64685 1.60569,-2.84082 4.57003,-2.84082 3.95246,0 4.73471,2.09974 5.06408,3.70542 h 3.29372 c -0.32937,-3.62308 -3.12903,-6.58742 -8.3578,-6.58742 -4.94057,0 -7.86374,2.67614 -7.86374,5.96985 0,4.94057 4.77588,5.31112 7.98725,6.09337 3.00552,0.74109 5.764,0.90577 5.764,3.95246 0,1.39983 -1.39983,3.25254 -4.98174,3.25254 -5.26994,0 -6.09337,-2.34677 -6.29923,-4.69354 h -3.29371 c 0.20586,4.52886 3.1702,7.57554 9.59294,7.57554 4.77589,0 8.27546,-2.51145 8.27546,-6.3404 0,-5.1876 -4.24066,-5.80517 -7.98726,-6.71094 z m 21.24446,-9.09888 c -3.4584,0 -5.43463,1.56451 -6.66977,3.1702 h -0.0823 v -2.5938 h -3.29372 v 28.07891 h 3.29372 v -9.7988 h 0.0823 c 1.23514,1.81154 3.21137,3.29371 6.66977,3.29371 5.1876,0 9.38708,-4.15831 9.38708,-11.07511 0,-6.9168 -4.19948,-11.07511 -9.38708,-11.07511 z m -0.41172,19.26822 c -3.91128,0 -6.34039,-3.25254 -6.34039,-8.19311 0,-4.94057 2.42911,-8.19311 6.34039,-8.19311 4.323,0 6.50509,4.07597 6.50509,8.19311 0,4.11714 -2.18209,8.19311 -6.50509,8.19311 z m 26.10268,-13.33954 c 0,2.09974 -1.60569,2.55263 -5.14643,3.21137 -5.43463,1.02929 -8.97537,2.26443 -8.97537,7.04032 0,3.54074 2.67614,5.96985 6.9168,5.96985 3.4584,0 5.80517,-1.23514 7.12266,-3.21137 h 0.0823 c 0.5764,2.3056 1.77037,2.84083 3.7466,2.84083 0.61757,0 1.07046,-0.0412 1.93506,-0.32937 v -2.3056 c -2.09975,0.24703 -2.38795,-0.65874 -2.38795,-2.3056 v -10.21051 c 0,-5.06409 -3.58191,-6.6286 -7.57554,-6.6286 -6.09337,0 -8.60483,3.04668 -8.81068,7.08148 h 3.29371 c 0.20586,-3.04668 1.52334,-4.19948 5.51697,-4.19948 3.37606,0 4.28183,1.39983 4.28183,3.04668 z m -6.87563,13.33954 c -2.71731,0 -3.95245,-1.19397 -3.95245,-3.25254 0,-2.51146 1.89388,-3.54074 5.96985,-4.40534 2.22326,-0.45289 4.24066,-1.02929 4.85823,-1.64686 v 3.49957 c 0,4.0348 -2.96434,5.80517 -6.87563,5.80517 z m 29.93164,-11.11628 h 3.29371 c -0.49406,-4.69354 -4.0348,-8.15194 -9.2224,-8.15194 -6.13454,0 -10.16934,4.48768 -10.16934,11.07511 0,6.58743 4.0348,11.07511 10.16934,11.07511 5.1876,0 8.9342,-3.54074 9.2224,-8.31663 h -3.29371 c -0.16469,2.51146 -1.68803,5.43463 -5.92869,5.43463 -4.98174,0 -6.87562,-4.24065 -6.87562,-8.19311 0,-3.95246 1.89388,-8.19311 6.87562,-8.19311 4.19949,0 5.764,2.96434 5.92869,5.26994 z m 15.39806,11.11628 c -4.57003,0 -6.83445,-3.54074 -6.83445,-7.32851 h 16.59208 c 0,-7.45203 -3.21137,-11.93971 -9.7988,-11.93971 -6.13454,0 -10.087,4.07597 -10.087,11.07511 0,6.58743 3.87011,11.07511 10.25169,11.07511 5.22877,0 8.23428,-3.12903 9.30474,-7.04031 h -3.29372 c -0.37054,1.441 -1.93505,4.15831 -6.13454,4.15831 z m -0.0412,-16.38622 c 3.95246,0 6.50508,2.79965 6.50508,6.17571 h -13.29836 c 0,-3.37606 2.84082,-6.17571 6.79328,-6.17571 z"
           id="path9" />
      </g>
      <g
         id="desired-agent-behavi"
         style="font-size:41.1714px;font-family:NeueMontreal-Regular, 'Neue Montreal';fill:#ffffff"
         aria-label="desired agentbehavior">
        <path
           d="m 387.61261,287.56243 v 11.15746 h -0.0823 c -1.23515,-1.81154 -3.21138,-3.29371 -6.58743,-3.29371 -5.26994,0 -9.46943,4.15831 -9.46943,11.07511 0,6.9168 4.19949,11.07511 9.46943,11.07511 3.37605,0 5.35228,-1.56451 6.58743,-3.1702 h 0.0823 V 317 h 3.29371 v -29.43757 z m -6.3404,27.13197 c -4.323,0 -6.50509,-4.07597 -6.50509,-8.19311 0,-4.11714 2.18209,-8.19312 6.50509,-8.19312 3.91128,0 6.3404,3.25255 6.3404,8.19312 0,4.94057 -2.42912,8.19311 -6.3404,8.19311 z m 23.09715,0 c -4.57003,0 -6.83446,-3.54074 -6.83446,-7.32851 h 16.59208 c 0,-7.45203 -3.21137,-11.93971 -9.7988,-11.93971 -6.13454,0 -10.08699,4.07597 -10.08699,11.07511 0,6.58743 3.87011,11.07511 10.25168,11.07511 5.22877,0 8.23428,-3.12903 9.30474,-7.04031 h -3.29371 c -0.37055,1.441 -1.93506,4.15831 -6.13454,4.15831 z m -0.0412,-16.38623 c 3.95246,0 6.50509,2.79966 6.50509,6.17572 H 397.5349 c 0,-3.37606 2.84083,-6.17572 6.79328,-6.17572 z m 21.57387,6.21689 c -2.92317,-0.69991 -5.764,-0.90577 -5.764,-3.37606 0,-1.64685 1.60568,-2.84083 4.57003,-2.84083 3.95245,0 4.73471,2.09975 5.06408,3.70543 h 3.29371 c -0.32937,-3.62308 -3.12902,-6.58742 -8.35779,-6.58742 -4.94057,0 -7.86375,2.67614 -7.86375,5.96985 0,4.94057 4.77589,5.31111 7.98726,6.09337 3.00551,0.74109 5.764,0.90577 5.764,3.95246 0,1.39983 -1.39983,3.25254 -4.98174,3.25254 -5.26994,0 -6.09337,-2.34677 -6.29923,-4.69354 h -3.29371 c 0.20585,4.52885 3.1702,7.57554 9.59294,7.57554 4.77588,0 8.27545,-2.51146 8.27545,-6.3404 0,-5.1876 -4.24065,-5.80517 -7.98725,-6.71094 z m 13.2572,-12.59846 c 0.94694,0 2.05857,-0.69991 2.05857,-1.97622 0,-1.27632 -1.11163,-1.97623 -2.05857,-1.97623 -0.90577,0 -2.05857,0.69991 -2.05857,1.97623 0,1.27631 1.1528,1.97622 2.05857,1.97622 z m -1.64686,4.07598 V 317 h 3.29372 v -20.99742 z m 17.41547,-0.5764 c -3.00551,0 -4.69354,1.97622 -5.80517,4.73471 h -0.0823 v -4.15831 h -3.29371 V 317 h 3.29371 v -11.19863 c 0,-4.48768 3.1702,-7.69905 7.74023,-6.95797 h 0.0823 v -3.29371 c -0.5764,-0.0823 -1.1528,-0.12351 -1.93506,-0.12351 z m 13.05135,19.26822 c -4.57003,0 -6.83446,-3.54074 -6.83446,-7.32851 h 16.59208 c 0,-7.45203 -3.21137,-11.93971 -9.7988,-11.93971 -6.13454,0 -10.08699,4.07597 -10.08699,11.07511 0,6.58743 3.87011,11.07511 10.25168,11.07511 5.22877,0 8.23428,-3.12903 9.30474,-7.04031 h -3.29371 c -0.37055,1.441 -1.93506,4.15831 -6.13454,4.15831 z m -0.0412,-16.38623 c 3.95246,0 6.50509,2.79966 6.50509,6.17572 h -13.29837 c 0,-3.37606 2.84083,-6.17572 6.79328,-6.17572 z m 27.99661,-10.74574 v 11.15746 h -0.0824 c -1.23514,-1.81154 -3.21137,-3.29371 -6.58742,-3.29371 -5.26994,0 -9.46943,4.15831 -9.46943,11.07511 0,6.9168 4.19949,11.07511 9.46943,11.07511 3.37605,0 5.35228,-1.56451 6.58742,-3.1702 h 0.0824 V 317 h 3.29371 v -29.43757 z m -6.3404,27.13197 c -4.323,0 -6.50509,-4.07597 -6.50509,-8.19311 0,-4.11714 2.18209,-8.19312 6.50509,-8.19312 3.91128,0 6.3404,3.25255 6.3404,8.19312 0,4.94057 -2.42912,8.19311 -6.3404,8.19311 z m 35.24275,-13.33954 c 0,2.09974 -1.60568,2.55263 -5.14642,3.21137 -5.43463,1.02929 -8.97537,2.26443 -8.97537,7.04031 0,3.54075 2.67614,5.96986 6.91679,5.96986 3.4584,0 5.80517,-1.23514 7.12266,-3.21137 h 0.0823 c 0.5764,2.3056 1.77037,2.84083 3.7466,2.84083 0.61757,0 1.07046,-0.0412 1.93506,-0.32937 v -2.3056 c -2.09974,0.24702 -2.38794,-0.65875 -2.38794,-2.3056 v -10.21052 c 0,-5.06408 -3.58192,-6.62859 -7.57554,-6.62859 -6.09338,0 -8.60483,3.04668 -8.81069,7.08148 h 3.29371 c 0.20586,-3.04669 1.52335,-4.19949 5.51698,-4.19949 3.37605,0 4.28182,1.39983 4.28182,3.04669 z m -6.87562,13.33954 c -2.71732,0 -3.95246,-1.19397 -3.95246,-3.25254 0,-2.51146 1.89388,-3.54074 5.96986,-4.40534 2.22325,-0.45289 4.24065,-1.02929 4.85822,-1.64686 v 3.49957 c 0,4.0348 -2.96434,5.80517 -6.87562,5.80517 z m 29.9728,-18.69182 v 2.59379 h -0.0823 c -1.23514,-1.60568 -3.21137,-3.17019 -6.66977,-3.17019 -5.1876,0 -9.38709,3.33488 -9.38709,10.25168 0,6.9168 4.19949,10.25168 9.38709,10.25168 3.4584,0 5.43463,-1.48217 6.66977,-3.29371 h 0.0823 v 3.1702 c 0,3.91128 -2.26443,5.59931 -6.17571,5.59931 -3.91129,0 -5.64049,-1.60568 -6.0522,-3.7466 h -3.29371 c 0.32937,3.58192 3.7466,6.6286 9.51059,6.6286 5.764,0 9.30475,-2.84083 9.30475,-8.44014 v -19.84462 z m -6.3404,17.04496 c -4.323,0 -6.50508,-3.25254 -6.50508,-7.36968 0,-4.11714 2.18208,-7.36969 6.50508,-7.36969 3.91129,0 6.3404,2.42912 6.3404,7.36969 0,4.94057 -2.42911,7.36968 -6.3404,7.36968 z m 23.09714,1.64686 c -4.57003,0 -6.83446,-3.54074 -6.83446,-7.32851 h 16.59208 c 0,-7.45203 -3.21137,-11.93971 -9.7988,-11.93971 -6.13454,0 -10.08699,4.07597 -10.08699,11.07511 0,6.58743 3.87011,11.07511 10.25168,11.07511 5.22877,0 8.23428,-3.12903 9.30474,-7.04031 h -3.29371 c -0.37055,1.441 -1.93506,4.15831 -6.13454,4.15831 z m -0.0412,-16.38623 c 3.95246,0 6.50509,2.79966 6.50509,6.17572 h -13.29837 c 0,-3.37606 2.84083,-6.17572 6.79328,-6.17572 z m 23.34424,-2.88199 c -3.58191,0 -5.80517,1.60568 -6.91679,3.08785 h -0.0824 v -2.51145 h -3.29371 V 317 h 3.29371 v -13.09251 c 0,-3.25254 2.47029,-5.59932 6.17572,-5.59932 3.29371,0 4.57002,2.14092 4.57002,4.85823 V 317 h 3.29372 v -14.65703 c 0,-4.81705 -3.21137,-6.91679 -7.04032,-6.91679 z m 20.17399,3.45839 v -2.88199 h -4.11714 v -6.99915 h -3.29372 v 6.99915 h -3.08786 v 2.88199 h 3.08786 v 12.969 c 0,4.28183 2.14092,5.39346 4.94057,5.39346 0.8646,0 1.7292,-0.0823 2.47029,-0.24703 v -2.882 c -2.79966,0.20586 -4.11714,-0.20586 -4.11714,-2.5938 v -12.63963 z"
           id="path10" />
        <path
           d="m 426.78724,345.00946 c -3.37606,0 -5.35229,1.48217 -6.58743,3.29371 h -0.0823 v -11.15745 h -3.29372 v 29.43756 h 3.29372 v -2.5938 h 0.0823 c 1.23514,1.60569 3.21137,3.1702 6.58743,3.1702 5.26994,0 9.46943,-4.15831 9.46943,-11.07511 0,-6.9168 -4.19949,-11.07511 -9.46943,-11.07511 z m -0.32937,19.26822 c -3.91129,0 -6.3404,-3.25254 -6.3404,-8.19311 0,-4.94057 2.42911,-8.19311 6.3404,-8.19311 4.323,0 6.50508,4.07597 6.50508,8.19311 0,4.11714 -2.18208,8.19311 -6.50508,8.19311 z m 22.06786,0 c -4.57003,0 -6.83446,-3.54074 -6.83446,-7.32851 h 16.59208 c 0,-7.45203 -3.21137,-11.93971 -9.79879,-11.93971 -6.13455,0 -10.087,4.07597 -10.087,11.07511 0,6.58743 3.87011,11.07511 10.25168,11.07511 5.22877,0 8.23429,-3.12903 9.30474,-7.04031 h -3.29371 c -0.37054,1.441 -1.93506,4.15831 -6.13454,4.15831 z m -0.0412,-16.38622 c 3.95245,0 6.50508,2.79965 6.50508,6.17571 h -13.29837 c 0,-3.37606 2.84083,-6.17571 6.79329,-6.17571 z m 23.34423,-2.882 c -3.58191,0 -5.80517,1.60568 -6.9168,3.08785 h -0.0823 v -10.95159 h -3.29371 v 29.43756 h 3.29371 v -13.09251 c 0,-3.25254 2.47028,-5.59931 6.17571,-5.59931 3.29372,0 4.57003,2.14091 4.57003,4.85822 v 13.8336 h 3.29371 v -14.65702 c 0,-4.81706 -3.21137,-6.9168 -7.04031,-6.9168 z m 24.29113,5.92868 c 0,2.09974 -1.60568,2.55263 -5.14643,3.21137 -5.43462,1.02929 -8.97537,2.26443 -8.97537,7.04032 0,3.54074 2.67615,5.96985 6.9168,5.96985 3.4584,0 5.80517,-1.23514 7.12266,-3.21137 h 0.0823 c 0.5764,2.3056 1.77037,2.84083 3.7466,2.84083 0.61757,0 1.07046,-0.0412 1.93506,-0.32937 v -2.3056 c -2.09975,0.24703 -2.38795,-0.65874 -2.38795,-2.3056 v -10.21051 c 0,-5.06409 -3.58191,-6.6286 -7.57554,-6.6286 -6.09337,0 -8.60482,3.04668 -8.81068,7.08148 h 3.29371 c 0.20586,-3.04668 1.52335,-4.19948 5.51697,-4.19948 3.37606,0 4.28183,1.39983 4.28183,3.04668 z m -6.87563,13.33954 c -2.71731,0 -3.95245,-1.19397 -3.95245,-3.25254 0,-2.51146 1.89388,-3.54074 5.96985,-4.40534 2.22326,-0.45289 4.24066,-1.02929 4.85823,-1.64686 v 3.49957 c 0,4.0348 -2.96434,5.80517 -6.87563,5.80517 z m 12.43377,-18.69182 7.53437,20.99742 h 3.7466 l 7.53437,-20.99742 h -3.58191 l -5.80517,17.70371 h -0.0412 l -5.80518,-17.70371 z m 23.22071,-4.07597 c 0.94694,0 2.05857,-0.69992 2.05857,-1.97623 0,-1.27632 -1.11163,-1.97623 -2.05857,-1.97623 -0.90577,0 -2.05857,0.69991 -2.05857,1.97623 0,1.27631 1.1528,1.97623 2.05857,1.97623 z m -1.64686,4.07597 v 20.99742 h 3.29371 v -20.99742 z m 17.33313,21.57382 c -6.42274,0 -10.29286,-4.52885 -10.29286,-11.07511 0,-6.54626 3.87012,-11.07511 10.29286,-11.07511 6.38157,0 10.25168,4.52885 10.25168,11.07511 0,6.54626 -3.87011,11.07511 -10.25168,11.07511 z m 0,-2.882 c 4.69354,0 6.95797,-3.70543 6.95797,-8.19311 0,-4.48768 -2.26443,-8.19311 -6.95797,-8.19311 -4.73472,0 -6.99914,3.70543 -6.99914,8.19311 0,4.48768 2.26442,8.19311 6.99914,8.19311 z m 22.76783,-19.26822 c -3.00552,0 -4.69355,1.97623 -5.80517,4.73471 h -0.0824 v -4.15831 h -3.29371 v 20.99742 h 3.29371 v -11.19862 c 0,-4.48769 3.1702,-7.69906 7.74023,-6.95797 h 0.0823 v -3.29372 c -0.5764,-0.0823 -1.1528,-0.12351 -1.93505,-0.12351 z"
           id="path11" />
      </g>
    </g>
  </g>
</svg>
