<?xml version="1.0" encoding="UTF-8" standalone="no"?>
<svg
   width="820px"
   height="396px"
   viewBox="0 0 820 396"
   version="1.1"
   id="svg14"
   xmlns="http://www.w3.org/2000/svg"
   xmlns:svg="http://www.w3.org/2000/svg">
  <defs
     id="defs14" />
  <title
     id="title1">Group 2</title>
  <g
     id="Page-2"
     stroke="none"
     stroke-width="1"
     fill="none"
     fill-rule="evenodd">
    <g
       id="Group-2"
       transform="translate(0.913000, 0.000000)">
      <g
         id="Group-23-Copy-3"
         transform="translate(261.000000, 0.000000)"
         fill="#8993FE">
        <rect
           id="Rectangle"
           x="0"
           y="0"
           width="194"
           height="202"
           rx="30" />
      </g>
      <g
         id="Group-41"
         transform="translate(625.000000, 0.000000)">
        <g
           id="Group-23-Copy-4"
           fill="#E1E1E1">
          <rect
             id="rect1"
             x="0"
             y="0"
             width="194"
             height="202"
             rx="30" />
        </g>
        <path
           d="M 24.723316,96.353924 V 89.962785 H 36.511418 V 87.69038 H 22.166861 V 108 h 14.685418 v -2.27241 H 24.723316 v -7.101261 h 10.424659 v -2.272405 z m 21.871892,-3.238177 c -2.471241,0 -4.005114,1.107797 -4.772051,2.130379 h -0.05681 V 93.513418 H 39.493942 V 108 h 2.272405 v -9.03281 c 0,-2.244 1.704304,-3.863089 4.26076,-3.863089 2.272405,0 3.152962,1.477063 3.152962,3.351798 V 108 h 2.272405 V 97.887797 c 0,-3.323392 -2.215595,-4.77205 -4.857266,-4.77205 z M 52.702287,93.513418 57.900414,108 h 2.584861 l 5.198127,-14.486582 h -2.471241 l -4.005114,12.214172 h -0.0284 L 55.173528,93.513418 Z m 16.020468,-2.812102 c 0.653316,0 1.420253,-0.482886 1.420253,-1.363443 0,-0.880557 -0.766937,-1.363443 -1.420253,-1.363443 -0.624912,0 -1.420254,0.482886 -1.420254,1.363443 0,0.880557 0.795342,1.363443 1.420254,1.363443 z m -1.136203,2.812102 V 108 h 2.272405 V 93.513418 Z m 12.015317,-0.397671 c -2.07357,0 -3.238177,1.363443 -4.005114,3.266582 h -0.05681 V 93.513418 H 73.26754 V 108 h 2.272405 v -7.72618 c 0,-3.096149 2.18719,-5.311744 5.340152,-4.800453 h 0.05681 v -2.272405 c -0.397671,-0.05681 -0.795342,-0.08522 -1.335038,-0.08522 z m 9.118021,15.281923 c -4.43119,0 -7.101266,-3.12456 -7.101266,-7.64096 0,-4.516406 2.670076,-7.640963 7.101266,-7.640963 4.402785,0 7.072861,3.124557 7.072861,7.640963 0,4.5164 -2.670076,7.64096 -7.072861,7.64096 z m 0,-1.98835 c 3.238177,0 4.800456,-2.55646 4.800456,-5.65261 0,-3.096153 -1.562279,-5.652609 -4.800456,-5.652609 -3.266582,0 -4.828861,2.556456 -4.828861,5.652609 0,3.09615 1.562279,5.65261 4.828861,5.65261 z m 16.47495,-13.293573 c -2.47124,0 -4.00511,1.107797 -4.77205,2.130379 h -0.0568 V 93.513418 H 98.093578 V 108 h 2.272402 v -9.03281 c 0,-2.244 1.70431,-3.863089 4.26076,-3.863089 2.27241,0 3.15296,1.477063 3.15296,3.351798 V 108 h 2.27241 V 97.887797 c 0,-3.323392 -2.2156,-4.77205 -4.85727,-4.77205 z m 23.03651,0 c -2.18719,0 -3.69266,1.136202 -4.68684,2.499645 h -0.0568 c -0.5965,-1.619088 -1.78952,-2.499645 -3.86309,-2.499645 -2.18719,0 -3.43701,1.107797 -4.20395,2.130379 h -0.0568 v -1.732708 h -2.2724 V 108 h 2.2724 v -9.03281 c 0,-2.244 1.42026,-3.863089 3.69266,-3.863089 2.27241,0 2.64167,1.477063 2.64167,3.351798 V 108 h 2.27241 v -9.03281 c 0,-2.244 1.42025,-3.863089 3.69266,-3.863089 2.2724,0 2.64167,1.477063 2.64167,3.351798 V 108 h 2.2724 V 97.887797 c 0,-3.039341 -1.42025,-4.77205 -4.34597,-4.77205 z m 13.54919,13.293573 c -3.15296,0 -4.71524,-2.44284 -4.71524,-5.0561 h 11.44724 c 0,-5.141321 -2.21559,-8.237473 -6.7604,-8.237473 -4.23236,0 -6.95925,2.812101 -6.95925,7.640963 0,4.54481 2.67008,7.64096 7.07287,7.64096 3.60744,0 5.68101,-2.15878 6.41954,-4.85726 h -2.2724 c -0.25565,0.99417 -1.33504,2.86891 -4.23236,2.86891 z m -0.0284,-11.305219 c 2.72688,0 4.488,1.931544 4.488,4.26076 h -9.17484 c 0,-2.329216 1.95995,-4.26076 4.68684,-4.26076 z m 16.1057,-1.988354 c -2.47124,0 -4.00512,1.107797 -4.77205,2.130379 h -0.0568 v -1.732708 h -2.27241 V 108 h 2.27241 v -9.03281 c 0,-2.244 1.7043,-3.863089 4.26076,-3.863089 2.2724,0 3.15296,1.477063 3.15296,3.351798 V 108 h 2.2724 V 97.887797 c 0,-3.323392 -2.21559,-4.77205 -4.85726,-4.77205 z m 13.91846,2.386025 v -1.988354 h -2.8405 v -4.828861 h -2.27241 v 4.828861 h -2.13038 v 1.988354 h 2.13038 v 8.947598 c 0,2.95412 1.47706,3.72106 3.40861,3.72106 0.59651,0 1.19301,-0.0568 1.7043,-0.17043 v -1.98835 c -1.93154,0.14202 -2.8405,-0.14203 -2.8405,-1.78952 v -8.720358 z"
           id="Environment"
           style="font-size:28.4051px;font-family:NeueMontreal-Regular, 'Neue Montreal';fill:#333333"
           aria-label="Environment" />
      </g>
      <g
         id="Group-37"
         transform="translate(482.500000, 0.000000)"
         fill="#8993FE"
         font-family="NeueMontreal-Regular, Neue Montreal"
         font-size="18.405063"
         font-weight="normal">
        <g
           id="Group-36">
          <path
             d="m 29.561102,18 h 1.656456 V 6.3127846 h 4.380405 V 4.8403795 H 25.180697 v 1.4724051 h 4.380405 z m 9.497013,0.257671 c -2.87119,0 -4.601266,-2.024557 -4.601266,-4.950962 0,-2.926405 1.730076,-4.9509623 4.601266,-4.9509623 2.852785,0 4.582861,2.0245573 4.582861,4.9509623 0,2.926405 -1.730076,4.950962 -4.582861,4.950962 z m 0,-1.288355 c 2.098177,0 3.110456,-1.656455 3.110456,-3.662607 0,-2.006152 -1.012279,-3.6626079 -3.110456,-3.6626079 -2.116582,0 -3.128861,1.6564559 -3.128861,3.6626079 0,2.006152 1.012279,3.662607 3.128861,3.662607 z m 10.141201,1.288355 c -2.87119,0 -4.601266,-2.024557 -4.601266,-4.950962 0,-2.926405 1.730076,-4.9509623 4.601266,-4.9509623 2.852785,0 4.582861,2.0245573 4.582861,4.9509623 0,2.926405 -1.730076,4.950962 -4.582861,4.950962 z m 0,-1.288355 c 2.098177,0 3.110456,-1.656455 3.110456,-3.662607 0,-2.006152 -1.012279,-3.6626079 -3.110456,-3.6626079 -2.116582,0 -3.128861,1.6564559 -3.128861,3.6626079 0,2.006152 1.012279,3.662607 3.128861,3.662607 z M 55.328213,4.8403795 V 18 h 1.472405 V 4.8403795 Z m 16.987873,4.343595 h 1.656456 c -0.312886,-2.5030886 -2.374253,-4.6012659 -5.59514,-4.6012659 -3.607392,0 -6.092076,2.8711899 -6.092076,6.8282784 0,3.975494 2.484684,6.846684 6.092076,6.846684 3.239292,0 5.300659,-2.098177 5.59514,-5.006177 h -1.656456 c -0.11043,1.656455 -1.177924,3.533772 -3.938684,3.533772 -3.12886,0 -4.43562,-2.705545 -4.43562,-5.374279 0,-2.6503289 1.30676,-5.3558733 4.43562,-5.3558733 2.742355,0 3.699418,1.8773165 3.938684,3.1288608 z m 9.036879,1.8221015 c 0,0.938658 -0.717797,1.141114 -2.300633,1.435595 -2.429468,0.460126 -4.012304,1.012278 -4.012304,3.147266 0,1.582835 1.196329,2.668734 3.092051,2.668734 1.546025,0 2.595114,-0.552152 3.184076,-1.435595 h 0.03681 c 0.257671,1.030683 0.791418,1.269949 1.674861,1.269949 0.276076,0 0.478531,-0.01841 0.865038,-0.14724 V 16.914101 C 82.954206,17.024532 82.82537,16.61962 82.82537,15.883418 v -4.564456 c 0,-2.2638229 -1.60124,-2.9632153 -3.386532,-2.9632153 -2.723949,0 -3.846658,1.3619747 -3.938683,3.1656713 h 1.472405 c 0.09202,-1.361975 0.680987,-1.8773169 2.466278,-1.8773169 1.509216,0 1.914127,0.6257719 1.914127,1.3619749 z m -3.073646,5.96324 c -1.214734,0 -1.766886,-0.533746 -1.766886,-1.454 0,-1.122708 0.846633,-1.582835 2.668734,-1.969341 0.993874,-0.202456 1.895722,-0.460127 2.171798,-0.736203 v 1.56443 c 0,1.803697 -1.325165,2.595114 -3.073646,2.595114 z M 85.052386,4.8403795 V 18 h 1.472405 V 4.8403795 Z m 3.423324,0 V 18 h 1.472405 V 4.8403795 Z"
             id="Tool-Call"
             aria-label="Tool Call" />
          <path
             d="m 4.8891149,201 h 1.6564558 v -11.68722 h 4.3804053 v -1.4724 H 0.5087098 v 1.4724 h 4.3804051 z m 9.4970131,0.25767 c -2.87119,0 -4.6012661,-2.02456 -4.6012661,-4.95096 0,-2.92641 1.7300761,-4.95096 4.6012661,-4.95096 2.852785,0 4.582861,2.02455 4.582861,4.95096 0,2.9264 -1.730076,4.95096 -4.582861,4.95096 z m 0,-1.28835 c 2.098177,0 3.110456,-1.65646 3.110456,-3.66261 0,-2.00615 -1.012279,-3.66261 -3.110456,-3.66261 -2.116583,0 -3.128861,1.65646 -3.128861,3.66261 0,2.00615 1.012278,3.66261 3.128861,3.66261 z m 10.141201,1.28835 c -2.87119,0 -4.601266,-2.02456 -4.601266,-4.95096 0,-2.92641 1.730076,-4.95096 4.601266,-4.95096 2.852785,0 4.582861,2.02455 4.582861,4.95096 0,2.9264 -1.730076,4.95096 -4.582861,4.95096 z m 0,-1.28835 c 2.098177,0 3.110456,-1.65646 3.110456,-3.66261 0,-2.00615 -1.012279,-3.66261 -3.110456,-3.66261 -2.116583,0 -3.128861,1.65646 -3.128861,3.66261 0,2.00615 1.012278,3.66261 3.128861,3.66261 z m 6.128897,-12.12894 V 201 h 1.472405 V 187.84038 Z M 38.110276,201 h 1.656456 v -5.31906 h 3.773038 c 3.331316,0 2.079772,4.76691 2.650329,5.31906 h 1.785291 v -0.11043 c -0.680987,-0.22086 0.386506,-5.39268 -2.539899,-5.96324 v -0.0368 c 1.454,-0.3681 2.355848,-1.41719 2.355848,-3.31291 0,-2.33745 -1.748481,-3.73623 -4.343595,-3.73623 h -5.337468 z m 1.656456,-11.68722 h 3.294506 c 1.361975,0 3.073646,0.16565 3.073646,2.44788 0,2.28223 -1.711671,2.44787 -3.073646,2.44787 h -3.294506 z m 13.674966,10.65654 c -2.042962,0 -3.055241,-1.58284 -3.055241,-3.2761 h 7.417241 c 0,-3.33132 -1.435595,-5.33747 -4.380405,-5.33747 -2.742355,0 -4.509241,1.8221 -4.509241,4.95096 0,2.94481 1.730076,4.95096 4.582861,4.95096 2.337443,0 3.681013,-1.39878 4.159545,-3.14726 h -1.472406 c -0.165645,0.64417 -0.865038,1.85891 -2.742354,1.85891 z m -0.01841,-7.32522 c 1.766886,0 2.908,1.25155 2.908,2.76076 h -5.944836 c 0,-1.50921 1.26995,-2.76076 3.036836,-2.76076 z m 9.644272,2.77917 c -1.30676,-0.31289 -2.576709,-0.40492 -2.576709,-1.50922 0,-0.7362 0.717797,-1.26995 2.042962,-1.26995 1.766886,0 2.116582,0.93866 2.263823,1.65646 h 1.472405 c -0.147241,-1.61965 -1.398785,-2.94481 -3.736228,-2.94481 -2.208608,0 -3.515367,1.19633 -3.515367,2.66873 0,2.20861 2.134987,2.37425 3.570582,2.72395 1.34357,0.33129 2.576709,0.40491 2.576709,1.76689 0,0.62577 -0.625772,1.454 -2.227013,1.454 -2.355848,0 -2.723949,-1.04909 -2.815974,-2.09818 H 58.65035 c 0.09202,2.02456 1.417189,3.38653 4.288379,3.38653 2.134988,0 3.699418,-1.12271 3.699418,-2.83438 0,-2.31904 -1.895721,-2.59511 -3.570582,-3.00002 z m 9.497012,-4.06752 c -1.546025,0 -2.429468,0.69939 -2.98162,1.41719 h -0.03681 v -1.15952 h -1.472405 v 12.55225 h 1.472405 v -4.3804 h 0.03681 c 0.552152,0.80982 1.435595,1.4724 2.98162,1.4724 2.319038,0 4.196354,-1.85891 4.196354,-4.95096 0,-3.09205 -1.877316,-4.95096 -4.196354,-4.95096 z m -0.184051,8.61357 c -1.748481,0 -2.83438,-1.454 -2.83438,-3.66261 0,-2.20861 1.085899,-3.66261 2.83438,-3.66261 1.932532,0 2.908,1.8221 2.908,3.66261 0,1.84051 -0.975468,3.66261 -2.908,3.66261 z m 9.993942,1.28835 c -2.87119,0 -4.601266,-2.02456 -4.601266,-4.95096 0,-2.92641 1.730076,-4.95096 4.601266,-4.95096 2.852785,0 4.582861,2.02455 4.582861,4.95096 0,2.9264 -1.730076,4.95096 -4.582861,4.95096 z m 0,-1.28835 c 2.098177,0 3.110456,-1.65646 3.110456,-3.66261 0,-2.00615 -1.012279,-3.66261 -3.110456,-3.66261 -2.116582,0 -3.128861,1.65646 -3.128861,3.66261 0,2.00615 1.012279,3.66261 3.128861,3.66261 z m 10.674952,-8.61357 c -1.601241,0 -2.595114,0.71779 -3.092051,1.38038 h -0.03681 v -1.12271 H 88.448154 V 201 h 1.472405 v -5.85281 c 0,-1.454 1.104304,-2.50309 2.76076,-2.50309 1.472405,0 2.042962,0.95706 2.042962,2.1718 V 201 h 1.472405 v -6.5522 c 0,-2.1534 -1.435595,-3.09205 -3.147266,-3.09205 z m 8.92645,4.06752 c -1.30675,-0.31289 -2.576704,-0.40492 -2.576704,-1.50922 0,-0.7362 0.717794,-1.26995 2.042964,-1.26995 1.76688,0 2.11658,0.93866 2.26382,1.65646 h 1.47241 c -0.14724,-1.61965 -1.39879,-2.94481 -3.73623,-2.94481 -2.20861,0 -3.515369,1.19633 -3.515369,2.66873 0,2.20861 2.134989,2.37425 3.570579,2.72395 1.34357,0.33129 2.57671,0.40491 2.57671,1.76689 0,0.62577 -0.62577,1.454 -2.22701,1.454 -2.355849,0 -2.72395,-1.04909 -2.815975,-2.09818 h -1.472406 c 0.09203,2.02456 1.41719,3.38653 4.288381,3.38653 2.13499,0 3.69942,-1.12271 3.69942,-2.83438 0,-2.31904 -1.89572,-2.59511 -3.57059,-3.00002 z m 9.18414,4.54605 c -2.04296,0 -3.05524,-1.58284 -3.05524,-3.2761 h 7.41724 c 0,-3.33132 -1.4356,-5.33747 -4.38041,-5.33747 -2.74235,0 -4.50924,1.8221 -4.50924,4.95096 0,2.94481 1.73008,4.95096 4.58286,4.95096 2.33745,0 3.68102,-1.39878 4.15955,-3.14726 h -1.47241 c -0.16564,0.64417 -0.86503,1.85891 -2.74235,1.85891 z m -0.0184,-7.32522 c 1.76689,0 2.908,1.25155 2.908,2.76076 h -5.94483 c 0,-1.50921 1.26995,-2.76076 3.03683,-2.76076 z"
             id="Tool-Response"
             aria-label="Tool Response" />
        </g>
      </g>
      <path
         d="M 335.20495,102.91549 336.99447,108 h 2.64167 L 332.16561,87.69038 H 329.3251 L 321.82616,108 h 2.64168 l 1.78951,-5.08451 z m -8.09544,-2.2724 3.60744,-10.59509 h 0.0568 l 3.60744,10.59509 z m 24.25792,-7.129672 v 1.789519 h -0.0568 c -0.85215,-1.107798 -2.21559,-2.18719 -4.60162,-2.18719 -3.57904,0 -6.47635,2.30081 -6.47635,7.072863 0,4.77205 2.89731,7.07286 6.47635,7.07286 2.38603,0 3.74947,-1.02258 4.60162,-2.27241 h 0.0568 v 2.18719 c 0,2.69848 -1.56228,3.86309 -4.26076,3.86309 -2.69848,0 -3.89149,-1.1078 -4.17554,-2.58486 h -2.27241 c 0.22724,2.47124 2.58486,4.57322 6.56157,4.57322 3.97671,0 6.41955,-1.95995 6.41955,-5.82304 V 93.513418 Z m -4.37438,11.759692 c -2.98253,0 -4.488,-2.244 -4.488,-5.0845 0,-2.840509 1.50547,-5.084509 4.488,-5.084509 2.69848,0 4.37438,1.675899 4.37438,5.084509 0,3.40861 -1.6759,5.0845 -4.37438,5.0845 z m 15.93523,1.13621 c -3.15297,0 -4.71524,-2.44284 -4.71524,-5.0561 h 11.44724 c 0,-5.141321 -2.2156,-8.237473 -6.76041,-8.237473 -4.23235,0 -6.95924,2.812101 -6.95924,7.640963 0,4.54481 2.67008,7.64096 7.07286,7.64096 3.60744,0 5.68101,-2.15878 6.41955,-4.85726 h -2.27241 c -0.25564,0.99417 -1.33504,2.86891 -4.23235,2.86891 z m -0.0284,-11.305219 c 2.72689,0 4.488,1.931544 4.488,4.26076 h -9.17483 c 0,-2.329216 1.95994,-4.26076 4.68683,-4.26076 z m 16.1057,-1.988354 c -2.47124,0 -4.00511,1.107797 -4.77205,2.130379 h -0.0568 V 93.513418 H 371.9043 V 108 h 2.27241 v -9.03281 c 0,-2.244 1.7043,-3.863089 4.26076,-3.863089 2.2724,0 3.15296,1.477063 3.15296,3.351798 V 108 h 2.27241 V 97.887797 c 0,-3.323392 -2.2156,-4.77205 -4.85727,-4.77205 z m 13.91847,2.386025 v -1.988354 h -2.8405 v -4.828861 h -2.27241 v 4.828861 h -2.13038 v 1.988354 h 2.13038 v 8.947598 c 0,2.95412 1.47706,3.72106 3.40861,3.72106 0.5965,0 1.19301,-0.0568 1.7043,-0.17043 v -1.98835 c -1.93154,0.14202 -2.8405,-0.14203 -2.8405,-1.78952 v -8.720358 z"
         id="Agent"
         style="font-size:28.4051px;font-family:NeueMontreal-Regular, 'Neue Montreal';fill:#ffffff"
         aria-label="Agent" />
      <g
         id="Group-4-Copy"
         transform="translate(540.000000, 100.500000) rotate(-90.000000) translate(-540.000000, -100.500000) translate(480.000000, 70.000000)">
        <g
           id="Group"
           transform="translate(89.500000, 30.500000) rotate(90.000000) translate(-89.500000, -30.500000) translate(59.000000, -0.000000)">
          <circle
             id="Oval"
             fill="#BDB8FF"
             cx="30.5"
             cy="30.5"
             r="30.5" />
          <g
             id="arrow-right-2"
             transform="translate(15.000000, 19.000000)"
             fill="#2F2E6B"
             fill-rule="nonzero">
            <g
               id="arrow-right">
              <path
                 d="M19.9921381,0.460513832 C20.5468652,-0.102336407 21.4175337,-0.149240594 22.0249178,0.319801272 L22.1836051,0.460513832 L27.8382594,6.19797133 C30.6244988,9.02490043 30.7173735,13.5468947 28.1169058,16.501991 L27.8382842,16.8019674 L22.1836085,22.5394827 C21.5784535,23.153503 20.5973003,23.1535062 19.9921415,22.5394897 C19.4374126,21.9766412 19.3911826,21.0932233 19.8534534,20.4769436 L19.9921346,20.3159322 L25.6436974,14.5815844 C27.2436392,12.9489406 27.3163638,10.3670434 25.8645817,8.65936117 L25.6468138,8.4215505 L19.9921381,2.68407131 C19.3869812,2.07005287 19.3869812,1.07453228 19.9921381,0.460513832 Z"
                 id="Path" />
              <path
                 d="M21.1052908,9.92365857 C21.9611119,9.92365857 22.654892,10.6275979 22.654892,11.4959511 C22.654892,12.2975079 22.0637421,12.9589725 21.2996695,13.0559933 L21.1052908,13.0682437 L1.54960118,13.0682437 C0.693780081,13.0682437 0,12.3643043 0,11.4959511 C0,10.6943943 0.591149892,10.0329298 1.3552225,9.93590896 L1.54960118,9.92365857 L21.1052908,9.92365857 Z"
                 id="path4" />
            </g>
          </g>
        </g>
        <g
           id="Group-Copy-5"
           transform="translate(30.500000, 30.500000) rotate(-90.000000) translate(-30.500000, -30.500000) translate(0.000000, -0.000000)">
          <circle
             id="circle4"
             fill="#BDB8FF"
             cx="30.5"
             cy="30.5"
             r="30.5" />
          <g
             id="g7"
             transform="translate(15.000000, 19.000000)"
             fill="#2F2E6B"
             fill-rule="nonzero">
            <g
               id="g6">
              <path
                 d="M19.9921381,0.460513832 C20.5468652,-0.102336407 21.4175337,-0.149240594 22.0249178,0.319801272 L22.1836051,0.460513832 L27.8382594,6.19797133 C30.6244988,9.02490043 30.7173735,13.5468947 28.1169058,16.501991 L27.8382842,16.8019674 L22.1836085,22.5394827 C21.5784535,23.153503 20.5973003,23.1535062 19.9921415,22.5394897 C19.4374126,21.9766412 19.3911826,21.0932233 19.8534534,20.4769436 L19.9921346,20.3159322 L25.6436974,14.5815844 C27.2436392,12.9489406 27.3163638,10.3670434 25.8645817,8.65936117 L25.6468138,8.4215505 L19.9921381,2.68407131 C19.3869812,2.07005287 19.3869812,1.07453228 19.9921381,0.460513832 Z"
                 id="path5" />
              <path
                 d="M21.1052908,9.92365857 C21.9611119,9.92365857 22.654892,10.6275979 22.654892,11.4959511 C22.654892,12.2975079 22.0637421,12.9589725 21.2996695,13.0559933 L21.1052908,13.0682437 L1.54960118,13.0682437 C0.693780081,13.0682437 0,12.3643043 0,11.4959511 C0,10.6943943 0.591149892,10.0329298 1.3552225,9.93590896 L1.54960118,9.92365857 L21.1052908,9.92365857 Z"
                 id="path6" />
            </g>
          </g>
        </g>
      </g>
      <g
         id="Group-4-Copy-2"
         transform="translate(205.000000, 103.000000) rotate(-90.000000) translate(-205.000000, -103.000000) translate(174.500000, 72.500000)">
        <g
           id="g10"
           transform="translate(30.500000, 30.500000) rotate(90.000000) translate(-30.500000, -30.500000) translate(0.000000, 0.000000)">
          <circle
             id="circle7"
             fill="#BDB8FF"
             cx="30.5"
             cy="30.5"
             r="30.5" />
          <g
             id="g9"
             transform="translate(15.000000, 19.000000)"
             fill="#2F2E6B"
             fill-rule="nonzero">
            <g
               id="g8">
              <path
                 d="M19.9921381,0.460513832 C20.5468652,-0.102336407 21.4175337,-0.149240594 22.0249178,0.319801272 L22.1836051,0.460513832 L27.8382594,6.19797133 C30.6244988,9.02490043 30.7173735,13.5468947 28.1169058,16.501991 L27.8382842,16.8019674 L22.1836085,22.5394827 C21.5784535,23.153503 20.5973003,23.1535062 19.9921415,22.5394897 C19.4374126,21.9766412 19.3911826,21.0932233 19.8534534,20.4769436 L19.9921346,20.3159322 L25.6436974,14.5815844 C27.2436392,12.9489406 27.3163638,10.3670434 25.8645817,8.65936117 L25.6468138,8.4215505 L19.9921381,2.68407131 C19.3869812,2.07005287 19.3869812,1.07453228 19.9921381,0.460513832 Z"
                 id="path7" />
              <path
                 d="M21.1052908,9.92365857 C21.9611119,9.92365857 22.654892,10.6275979 22.654892,11.4959511 C22.654892,12.2975079 22.0637421,12.9589725 21.2996695,13.0559933 L21.1052908,13.0682437 L1.54960118,13.0682437 C0.693780081,13.0682437 0,12.3643043 0,11.4959511 C0,10.6943943 0.591149892,10.0329298 1.3552225,9.93590896 L1.54960118,9.92365857 L21.1052908,9.92365857 Z"
                 id="path8" />
            </g>
          </g>
        </g>
      </g>
      <g
         id="Group-4-Copy-3"
         transform="translate(327.500000, 238.500000)">
        <g
           id="g13"
           transform="translate(30.500000, 30.500000) rotate(90.000000) translate(-30.500000, -30.500000) translate(0.000000, 0.000000)">
          <circle
             id="circle10"
             fill="#BDB8FF"
             cx="30.5"
             cy="30.5"
             r="30.5" />
          <g
             id="g12"
             transform="translate(15.000000, 19.000000)"
             fill="#2F2E6B"
             fill-rule="nonzero">
            <g
               id="g11">
              <path
                 d="M19.9921381,0.460513832 C20.5468652,-0.102336407 21.4175337,-0.149240594 22.0249178,0.319801272 L22.1836051,0.460513832 L27.8382594,6.19797133 C30.6244988,9.02490043 30.7173735,13.5468947 28.1169058,16.501991 L27.8382842,16.8019674 L22.1836085,22.5394827 C21.5784535,23.153503 20.5973003,23.1535062 19.9921415,22.5394897 C19.4374126,21.9766412 19.3911826,21.0932233 19.8534534,20.4769436 L19.9921346,20.3159322 L25.6436974,14.5815844 C27.2436392,12.9489406 27.3163638,10.3670434 25.8645817,8.65936117 L25.6468138,8.4215505 L19.9921381,2.68407131 C19.3869812,2.07005287 19.3869812,1.07453228 19.9921381,0.460513832 Z"
                 id="path10" />
              <path
                 d="M21.1052908,9.92365857 C21.9611119,9.92365857 22.654892,10.6275979 22.654892,11.4959511 C22.654892,12.2975079 22.0637421,12.9589725 21.2996695,13.0559933 L21.1052908,13.0682437 L1.54960118,13.0682437 C0.693780081,13.0682437 0,12.3643043 0,11.4959511 C0,10.6943943 0.591149892,10.0329298 1.3552225,9.93590896 L1.54960118,9.92365857 L21.1052908,9.92365857 Z"
                 id="path11" />
            </g>
          </g>
        </g>
      </g>
      <g
         id="Group-42"
         transform="translate(0.000000, 70.000000)">
        <rect
           id="rect13"
           fill="#FF66CB"
           x="0"
           y="0"
           width="150"
           height="66"
           rx="30" />
        <path
           d="M 63.538558,37.239595 V 23.69038 h -2.556455 v 13.549215 c 0,3.294987 -1.704304,4.885671 -5.226532,4.885671 -3.522228,0 -5.226532,-1.590684 -5.226532,-4.885671 V 23.69038 h -2.556455 v 13.549215 c 0,4.147139 2.35762,7.158076 7.782987,7.158076 5.425367,0 7.782987,-3.010937 7.782987,-7.158076 z m 9.004433,-1.846329 c -2.016759,-0.482886 -3.976709,-0.624912 -3.976709,-2.329215 0,-1.136203 1.107798,-1.95995 3.152962,-1.95995 2.726886,0 3.266583,1.448658 3.493823,2.556456 h 2.272405 c -0.22724,-2.499646 -2.158785,-4.54481 -5.766228,-4.54481 -3.408607,0 -5.425367,1.846329 -5.425367,4.118734 0,3.408608 3.294987,3.664253 5.510582,4.203949 2.07357,0.511291 3.976709,0.624912 3.976709,2.726886 0,0.965773 -0.965772,2.244 -3.437012,2.244 -3.635849,0 -4.20395,-1.619088 -4.345975,-3.238177 h -2.272405 c 0.142025,3.124557 2.18719,5.226532 6.61838,5.226532 3.294987,0 5.709417,-1.732709 5.709417,-4.37438 0,-3.579038 -2.925721,-4.005114 -5.510582,-4.630025 z m 14.174134,7.01605 c -3.152962,0 -4.715241,-2.442835 -4.715241,-5.056101 h 11.447241 c 0,-5.141316 -2.215595,-8.237468 -6.760405,-8.237468 -4.232355,0 -6.959241,2.812101 -6.959241,7.640962 0,4.54481 2.670076,7.640962 7.072861,7.640962 3.607443,0 5.681013,-2.158785 6.419545,-4.857266 H 90.94948 c -0.255646,0.994177 -1.335038,2.868911 -4.232355,2.868911 z m -0.0284,-11.305215 c 2.726886,0 4.488,1.931544 4.488,4.26076 h -9.174836 c 0,-2.329216 1.95995,-4.26076 4.686836,-4.26076 z m 15.33876,-1.988354 c -2.073567,0 -3.238175,1.363443 -4.005112,3.266582 h -0.05681 V 29.513418 H 95.693153 V 44 h 2.272405 v -7.726177 c 0,-3.096152 2.187192,-5.311747 5.340152,-4.800456 h 0.0568 v -2.272405 c -0.39767,-0.05681 -0.79534,-0.08522 -1.33504,-0.08522 z"
           id="User"
           style="font-size:28.4051px;font-family:NeueMontreal-Regular, 'Neue Montreal';fill:#ffffff"
           aria-label="User" />
      </g>
      <g
         id="Group-42-Copy"
         transform="translate(283.000000, 330.000000)">
        <rect
           id="rect14"
           fill="#FF6678"
           x="0"
           y="0"
           width="150"
           height="66"
           rx="30" />
        <path
           d="M 56.15324,32.353924 V 25.962785 H 67.941342 V 23.69038 H 53.596785 V 44 H 68.282203 V 41.727595 H 56.15324 v -7.101266 h 10.424659 v -2.272405 z m 13.861664,-2.840506 5.112911,7.07286 L 69.532018,44 h 2.698481 l 4.232354,-5.908253 h 0.05681 L 80.780423,44 h 2.698481 l -5.624202,-7.413722 5.112911,-7.07286 h -2.698481 l -3.749468,5.538987 h -0.05681 l -3.749468,-5.538987 z m 16.616969,-2.812102 c 0.653317,0 1.420253,-0.482886 1.420253,-1.363443 0,-0.880557 -0.766936,-1.363443 -1.420253,-1.363443 -0.624911,0 -1.420253,0.482886 -1.420253,1.363443 0,0.880557 0.795342,1.363443 1.420253,1.363443 z m -1.136202,2.812102 V 44 h 2.272405 V 29.513418 Z m 11.986912,1.988354 v -1.988354 h -2.840507 v -4.828861 h -2.272405 v 4.828861 h -2.13038 v 1.988354 h 2.13038 v 8.947595 c 0,2.954127 1.477063,3.721063 3.408608,3.721063 0.596506,0 1.193012,-0.05681 1.704304,-0.17043 v -1.988354 c -1.931545,0.142025 -2.840507,-0.142026 -2.840507,-1.789519 v -8.720355 z"
           id="Exit"
           style="font-size:28.4051px;font-family:NeueMontreal-Regular, 'Neue Montreal';fill:#ffffff"
           aria-label="Exit" />
      </g>
    </g>
  </g>
</svg>
